<?xml version="1.0" encoding="utf-8"?>
<!-- Generator: Adobe Illustrator 23.0.3, SVG Export Plug-In . SVG Version: 6.00 Build 0)  -->
<svg version="1.1" id="Capa_1" xmlns="http://www.w3.org/2000/svg" xmlns:xlink="http://www.w3.org/1999/xlink" x="0px" y="0px"
	 viewBox="0 0 1200 1200" enable-background="new 0 0 1200 1200" xml:space="preserve">
<path fill="hsl(290, 13%, 29%)" d="M829.483,793.273c-2.144-1.609-2.576-4.649-0.966-6.79c1.607-2.141,4.651-2.572,6.788-0.968l57.45,43.129
	l-0.016-177.036l-24.023-6.686c-2.579-0.718-4.089-3.393-3.372-5.974c0.72-2.579,3.391-4.09,5.974-3.37l21.421,5.962l-0.004-41.539
	V489.654l-60.937,7.179c-0.193,0.022-0.385,0.033-0.575,0.033c-2.425,0-4.518-1.815-4.809-4.283
	c-0.316-2.66,1.588-5.069,4.247-5.383l62.074-7.313V267.185l-90.521,64.992c-0.856,0.616-1.847,0.911-2.826,0.911
	c-1.509,0-2.996-0.702-3.943-2.021c-1.56-2.177-1.064-5.206,1.111-6.768l96.179-69.054V93.464L781.839,234.301
	c-0.957,1.216-2.377,1.85-3.814,1.85c-1.051,0-2.109-0.339-2.996-1.039c-2.106-1.658-2.469-4.706-0.811-6.81l116.39-147.816
	c0.571-0.729,1.317-1.233,2.126-1.533v-1.019c0-0.569-0.204-1.061-0.605-1.463c-0.403-0.403-0.895-0.607-1.464-0.607H756.988
	L683.572,218.72c-0.859,1.673-2.557,2.635-4.316,2.635c-0.748,0-1.503-0.174-2.213-0.538c-2.384-1.223-3.321-4.147-2.096-6.529
	l71.139-138.422H599.98H451.816l69.328,135.192c1.222,2.384,0.281,5.306-2.103,6.529c-0.707,0.363-1.465,0.535-2.21,0.535
	c-1.762,0-3.46-0.963-4.319-2.638L442.68,79.306c-0.568-1.107-0.651-2.327-0.358-3.442H313.555l126.09,159.412
	c1.661,2.101,1.304,5.151-0.796,6.812c-0.89,0.706-1.951,1.047-3.006,1.047c-1.43,0-2.851-0.631-3.808-1.841L307.226,83.5v158.967
	l109.094,78.605c2.172,1.564,2.665,4.595,1.099,6.769c-0.947,1.315-2.431,2.014-3.937,2.014c-0.982,0-1.973-0.297-2.832-0.916
	L307.226,254.42v222.108l72.883,7.17c2.668,0.262,4.616,2.635,4.354,5.301c-0.246,2.504-2.359,4.374-4.821,4.374
	c-0.161,0-0.319-0.008-0.48-0.024l-71.936-7.077V600v51.13l24.876-7.739c2.564-0.8,5.276,0.633,6.071,3.189
	c0.796,2.557-0.635,5.276-3.192,6.071l-27.756,8.634V834.94l65.836-49.425c2.144-1.604,5.187-1.173,6.788,0.968
	c1.61,2.141,1.178,5.181-0.966,6.79l-70.063,52.599c-0.492,0.369-1.035,0.604-1.594,0.762v187.955h99.453l70.835-189.282
	c0.938-2.508,3.738-3.784,6.242-2.842c2.51,0.939,3.782,3.734,2.845,6.242l-69.563,185.882h174.641
	c-0.003-0.066-0.019-0.127-0.019-0.193V905.59c0-2.679,2.172-4.85,4.85-4.85s4.85,2.171,4.85,4.85v128.805
	c0,0.066-0.017,0.128-0.02,0.193h182.849l-77.35-195.106c-0.988-2.49,0.23-5.307,2.722-6.296c2.488-0.987,5.307,0.229,6.296,2.722
	l77.982,196.699c0.258,0.651,0.358,1.324,0.331,1.98h98.606l-0.018-193.815L829.483,793.273z M841.523,534.469
	c5.716,0,10.367-4.651,10.367-10.368c0-2.471,2.004-4.474,4.474-4.474c2.471,0,4.475,2.003,4.475,4.474
	c0,5.717,4.651,10.368,10.369,10.368c2.471,0,4.474,2.003,4.474,4.475c0,2.471-2.003,4.474-4.474,4.474
	c-5.717,0-10.369,4.651-10.369,10.368c0,2.471-2.004,4.475-4.475,4.475c-2.471,0-4.474-2.003-4.474-4.475
	c0-5.717-4.651-10.368-10.367-10.368c-2.471,0-4.475-2.003-4.475-4.474C837.048,536.472,839.052,534.469,841.523,534.469z
	 M805.284,397.633c5.716,0,10.367-4.651,10.367-10.368c0-2.471,2.004-4.474,4.474-4.474c2.471,0,4.475,2.003,4.475,4.474
	c0,5.717,4.651,10.368,10.369,10.368c2.471,0,4.474,2.003,4.474,4.474s-2.003,4.474-4.474,4.474
	c-5.717,0-10.369,4.651-10.369,10.368c0,2.471-2.003,4.474-4.475,4.474c-2.471,0-4.474-2.003-4.474-4.474
	c0-5.717-4.651-10.368-10.367-10.368c-2.471,0-4.475-2.003-4.475-4.474S802.813,397.633,805.284,397.633z M710.747,286.81
	c5.716,0,10.367-4.651,10.367-10.369c0-2.471,2.004-4.474,4.475-4.474c2.471,0,4.474,2.003,4.474,4.474
	c0,5.717,4.651,10.369,10.369,10.369c2.471,0,4.474,2.003,4.474,4.474s-2.003,4.474-4.474,4.474
	c-5.718,0-10.369,4.651-10.369,10.368c0,2.471-2.004,4.474-4.474,4.474c-2.471,0-4.475-2.004-4.475-4.474
	c0-5.717-4.651-10.368-10.367-10.368c-2.471,0-4.474-2.003-4.474-4.474S708.276,286.81,710.747,286.81z M647.585,108.576
	c0-1.471,0.518-2.726,1.56-3.768c1.042-1.062,2.308-1.594,3.801-1.594c1.471,0,2.728,0.532,3.77,1.594
	c1.039,1.042,1.56,2.297,1.56,3.768v40.091c0,1.495-0.521,2.763-1.56,3.803c-1.042,1.04-2.299,1.561-3.77,1.561
	c-1.493,0-2.759-0.521-3.801-1.561c-1.042-1.04-1.56-2.308-1.56-3.803V108.576z M619.374,108.576c0-1.471,0.521-2.726,1.563-3.768
	c1.039-1.062,2.308-1.594,3.801-1.594c1.471,0,2.728,0.532,3.767,1.594c1.042,1.042,1.563,2.297,1.563,3.768v40.091
	c0,1.495-0.521,2.763-1.563,3.803c-1.039,1.04-2.295,1.561-3.767,1.561c-1.493,0-2.763-0.521-3.801-1.561
	c-1.042-1.04-1.563-2.308-1.563-3.803V108.576z M591.164,108.576c0-1.471,0.521-2.726,1.563-3.768
	c1.039-1.062,2.308-1.594,3.801-1.594c1.471,0,2.728,0.532,3.767,1.594c1.042,1.042,1.563,2.297,1.563,3.768v40.091
	c0,1.495-0.521,2.763-1.563,3.803c-1.039,1.04-2.295,1.561-3.767,1.561c-1.493,0-2.763-0.521-3.801-1.561
	c-1.042-1.04-1.563-2.308-1.563-3.803V108.576z M585.157,250.325c5.716,0,10.368-4.651,10.368-10.368
	c0-2.471,2.003-4.474,4.475-4.474c2.471,0,4.474,2.003,4.474,4.474c0,5.717,4.651,10.368,10.369,10.368
	c2.471,0,4.474,2.004,4.474,4.474c0,2.471-2.003,4.475-4.474,4.475c-5.717,0-10.369,4.651-10.369,10.368
	c0,2.471-2.003,4.474-4.474,4.474c-2.471,0-4.475-2.003-4.475-4.474c0-5.717-4.651-10.368-10.368-10.368
	c-2.471,0-4.474-2.003-4.474-4.475C580.683,252.329,582.687,250.325,585.157,250.325z M533.49,112.005
	c-0.95-1.132-1.358-2.433-1.222-3.904c0.136-1.471,0.77-2.682,1.901-3.632c1.13-0.95,2.431-1.358,3.906-1.222
	c1.468,0.136,2.68,0.77,3.631,1.901l12.594,15.141l12.594-15.141c0.95-1.13,2.16-1.765,3.631-1.901
	c1.471-0.136,2.772,0.272,3.906,1.222c1.13,0.95,1.765,2.161,1.901,3.632c0.136,1.471-0.272,2.772-1.222,3.904l-13.851,16.634
	l13.851,16.634c0.95,1.132,1.358,2.433,1.222,3.904c-0.136,1.471-0.77,2.671-1.901,3.598c-0.998,0.838-2.138,1.257-3.429,1.257
	c-1.651,0-3.022-0.646-4.108-1.935l-12.594-15.106l-12.594,15.106c-1.086,1.29-2.456,1.935-4.108,1.935
	c-1.313,0-2.456-0.418-3.429-1.257c-1.13-0.927-1.765-2.126-1.901-3.598c-0.136-1.471,0.271-2.772,1.222-3.904l13.851-16.634
	L533.49,112.005z M467.932,286.81c5.718,0,10.369-4.651,10.369-10.369c0-2.471,2.003-4.474,4.474-4.474
	c2.471,0,4.475,2.003,4.475,4.474c0,5.717,4.651,10.369,10.368,10.369c2.471,0,4.474,2.003,4.474,4.474s-2.003,4.474-4.474,4.474
	c-5.717,0-10.368,4.651-10.368,10.368c0,2.471-2.003,4.474-4.475,4.474c-2.471,0-4.474-2.004-4.474-4.474
	c0-5.717-4.651-10.368-10.369-10.368c-2.471,0-4.474-2.003-4.474-4.474S465.462,286.81,467.932,286.81z M383.764,416.949
	c0-5.717-4.651-10.368-10.369-10.368c-2.471,0-4.474-2.003-4.474-4.474s2.003-4.474,4.474-4.474c5.717,0,10.369-4.651,10.369-10.368
	c0-2.471,2.004-4.474,4.475-4.474c2.471,0,4.474,2.003,4.474,4.474c0,5.717,4.651,10.368,10.367,10.368
	c2.471,0,4.475,2.003,4.475,4.474s-2.003,4.474-4.475,4.474c-5.716,0-10.367,4.651-10.367,10.368c0,2.471-2.004,4.474-4.474,4.474
	C385.768,421.424,383.764,419.42,383.764,416.949z M356.474,553.785c0,2.471-2.003,4.475-4.474,4.475s-4.475-2.003-4.475-4.475
	c0-5.717-4.651-10.368-10.369-10.368c-2.471,0-4.474-2.003-4.474-4.474c0-2.471,2.004-4.475,4.474-4.475
	c5.717,0,10.369-4.651,10.369-10.368c0-2.471,2.004-4.474,4.475-4.474s4.474,2.003,4.474,4.474c0,5.717,4.651,10.368,10.368,10.368
	c2.471,0,4.474,2.003,4.474,4.475c0,2.471-2.003,4.474-4.474,4.474C361.125,543.417,356.474,548.068,356.474,553.785z
	 M396.476,706.434c-5.716,0-10.367,4.651-10.367,10.368c0,2.471-2.004,4.474-4.475,4.474c-2.471,0-4.474-2.003-4.474-4.474
	c0-5.717-4.651-10.368-10.369-10.368c-2.471,0-4.474-2.004-4.474-4.475s2.003-4.474,4.474-4.474c5.718,0,10.369-4.651,10.369-10.369
	c0-2.471,2.004-4.475,4.474-4.475c2.471,0,4.475,2.004,4.475,4.475c0,5.717,4.651,10.369,10.367,10.369
	c2.471,0,4.474,2.003,4.474,4.474S398.947,706.434,396.476,706.434z M462.457,800.622c-5.716,0-10.368,4.651-10.368,10.368
	c0,2.471-2.003,4.475-4.475,4.475c-2.471,0-4.474-2.004-4.474-4.475c0-5.717-4.651-10.368-10.369-10.368
	c-2.471,0-4.474-2.003-4.474-4.475c0-2.471,2.003-4.474,4.474-4.474c5.717,0,10.369-4.651,10.369-10.369
	c0-2.471,2.003-4.475,4.474-4.475c2.471,0,4.475,2.004,4.475,4.475c0,5.717,4.651,10.369,10.368,10.369
	c2.471,0,4.474,2.003,4.474,4.474C466.931,798.619,464.928,800.622,462.457,800.622z M570.931,860.736
	c-5.716,0-10.368,4.651-10.368,10.368c0,2.471-2.003,4.474-4.474,4.474c-2.471,0-4.474-2.003-4.474-4.474
	c0-5.717-4.651-10.368-10.369-10.368c-2.471,0-4.475-2.004-4.475-4.475s2.003-4.474,4.475-4.474c5.717,0,10.369-4.651,10.369-10.369
	c0-2.471,2.003-4.474,4.474-4.474c2.471,0,4.474,2.003,4.474,4.474c0,5.717,4.651,10.369,10.368,10.369
	c2.471,0,4.474,2.003,4.474,4.474S573.402,860.736,570.931,860.736z M667.118,860.736c-5.717,0-10.369,4.651-10.369,10.368
	c0,2.471-2.003,4.474-4.474,4.474c-2.471,0-4.474-2.003-4.474-4.474c0-5.717-4.651-10.368-10.368-10.368
	c-2.471,0-4.474-2.004-4.474-4.475s2.003-4.474,4.474-4.474c5.716,0,10.368-4.651,10.368-10.369c0-2.471,2.003-4.474,4.474-4.474
	c2.471,0,4.474,2.003,4.474,4.474c0,5.717,4.651,10.369,10.369,10.369c2.471,0,4.475,2.003,4.475,4.474
	S669.589,860.736,667.118,860.736z M775.593,800.622c-5.718,0-10.369,4.651-10.369,10.368c0,2.471-2.004,4.475-4.474,4.475
	c-2.471,0-4.475-2.004-4.475-4.475c0-5.717-4.651-10.368-10.368-10.368c-2.471,0-4.474-2.003-4.474-4.475
	c0-2.471,2.003-4.474,4.474-4.474c5.717,0,10.368-4.651,10.368-10.369c0-2.471,2.003-4.475,4.475-4.475
	c2.471,0,4.474,2.004,4.474,4.475c0,5.717,4.651,10.369,10.369,10.369c2.471,0,4.474,2.003,4.474,4.474
	C780.067,798.619,778.064,800.622,775.593,800.622z M784.479,657.242c-4.583,0-9.235-0.508-13.879-1.62
	c-3.192,22.852-21.147,46.521-53.621,70.524c-29.069,21.485-52.471,28.654-70.755,28.654c-3.81,0-7.397-0.312-10.767-0.869
	c-13.908,40.376-31.162,55.696-31.891,56.33c-0.903,0.781-2.036,1.187-3.179,1.187c-0.739,0-1.481-0.167-2.169-0.511
	c-28.52-14.261-36.097-50.549-37.844-62.413c-2.841,0.426-5.941,0.705-9.37,0.705c-18.338,0.002-45.048-7.371-79.797-35.854
	c-25.552-20.944-35.746-41.177-38.581-58.242c-20.113-2.663-66.5-10.839-68.578-11.206c-2.554-0.45-4.3-2.831-3.966-5.402
	c3.155-24.198,43.695-53.934,52.451-60.1c-7.032-20.34-6.803-47.347,1.33-76.271c12.21-43.407,29.903-62.924,47.42-71.335
	c-17.671-27.298-13.716-64.254-13.53-65.891c0.284-2.485,2.431-4.445,4.913-4.297c0.306,0.006,0.593,0.022,0.896,0.029
	c0.425-0.049,0.852-0.021,1.274,0.042c39.857,1.218,58.14,14.222,65.397,21.705c0.492-0.532,0.948-1.07,1.471-1.596
	c16.652-16.748,44.578-25.241,83.002-25.241c36.773,0,63.203,9.216,78.563,27.391c0.57,0.674,1.057,1.362,1.583,2.044
	c9.968-9.368,38.272-33.643,63.956-33.643c2.516,0,4.613,1.923,4.831,4.43c0.172,1.988,3.962,47.881-10.08,74.516
	c17.172,10.008,36.24,30.019,50.816,69.371c11.549,31.181,11.407,60.776-0.401,83.335c-0.032,0.061-0.071,0.115-0.103,0.175
	c0.076,0.033,0.155,0.05,0.23,0.087c1.714,0.857,42.043,21.293,48.818,48.39c0.47,1.885-0.227,3.869-1.774,5.042
	C839.861,637.677,813.643,657.242,784.479,657.242z M822.256,716.802c0-5.717-4.651-10.368-10.368-10.368
	c-2.471,0-4.474-2.004-4.474-4.475s2.003-4.474,4.474-4.474c5.717,0,10.368-4.651,10.368-10.369c0-2.471,2.003-4.475,4.474-4.475
	c2.471,0,4.474,2.004,4.474,4.475c0,5.717,4.651,10.369,10.369,10.369c2.471,0,4.474,2.003,4.474,4.474s-2.004,4.475-4.474,4.475
	c-5.718,0-10.369,4.651-10.369,10.368c0,2.471-2.003,4.474-4.474,4.474C824.259,721.276,822.256,719.273,822.256,716.802z
	 M493.275,1087.729c2.876,2.875,4.313,6.337,4.313,10.388c0,4.051-1.437,7.514-4.313,10.387c-2.873,2.875-6.346,4.311-10.419,4.311
	h-8.013v-29.432h8.013C486.929,1083.384,490.402,1084.833,493.275,1087.729z M603.402,1090.004l6.381,12.763h-12.765
	L603.402,1090.004z M910.437,58.182C905.382,53.127,898.398,50,890.685,50H600H309.315c-7.714,0-14.697,3.127-19.752,8.182
	c-5.055,5.055-8.181,12.038-8.181,19.752V600v522.066c0,7.713,3.126,14.697,8.181,19.752c5.055,5.055,12.038,8.181,19.752,8.181H600
	h290.685c7.713,0,14.697-3.126,19.752-8.181c5.055-5.055,8.181-12.039,8.181-19.752V600V77.934
	C918.618,70.22,915.492,63.237,910.437,58.182z M500.815,1116.076c-4.957,4.955-10.943,7.434-17.959,7.434h-13.343
	c-1.493,0-2.759-0.521-3.801-1.561s-1.56-2.308-1.56-3.803v-40.091c0-1.471,0.518-2.726,1.56-3.768
	c1.042-1.062,2.308-1.594,3.801-1.594h13.343c7.016,0,13.002,2.49,17.959,7.467c4.976,4.957,7.467,10.943,7.467,17.959
	C508.282,1105.11,505.791,1111.097,500.815,1116.076z M555.164,1092.753c1.471,0,2.734,0.521,3.801,1.563
	c1.042,1.04,1.56,2.308,1.56,3.801c0,1.471-0.518,2.728-1.56,3.768c-1.067,1.042-2.33,1.561-3.801,1.561h-21.388v9.369h28.075
	c1.471,0,2.737,0.521,3.801,1.561c1.042,1.042,1.56,2.298,1.56,3.768c0,1.495-0.518,2.763-1.56,3.803
	c-1.064,1.04-2.33,1.561-3.801,1.561h-33.404c-1.497,0-2.763-0.521-3.801-1.561c-1.042-1.04-1.563-2.308-1.563-3.803v-40.091
	c0-1.471,0.521-2.726,1.563-3.768c1.039-1.062,2.305-1.594,3.801-1.594h33.404c1.471,0,2.737,0.532,3.801,1.594
	c1.042,1.042,1.56,2.297,1.56,3.768c0,1.471-0.518,2.728-1.56,3.768c-1.064,1.042-2.33,1.561-3.801,1.561h-28.075v9.369H555.164z
	 M628.521,1119.844c-0.474,1.403-1.37,2.433-2.684,3.088c-0.745,0.385-1.538,0.578-2.374,0.578c-0.998,0-1.926-0.26-2.785-0.781
	c-0.881-0.543-1.547-1.277-2.002-2.205l-3.565-7.061h-23.456l-3.533,7.061c-0.657,1.336-1.686,2.229-3.091,2.681
	c-1.402,0.477-2.759,0.385-4.073-0.271c-1.332-0.655-2.229-1.684-2.681-3.088c-0.477-1.403-0.385-2.761,0.272-4.074l20.065-40.126
	c0.452-0.905,1.105-1.629,1.967-2.172c0.862-0.521,1.8-0.78,2.819-0.78c1.017,0,1.958,0.259,2.816,0.78
	c0.859,0.543,1.516,1.268,1.97,2.172l20.03,40.126C628.894,1117.083,628.995,1118.441,628.521,1119.844z M669.904,1081.822
	c-1.064,1.042-2.333,1.561-3.805,1.561h-11.373v34.762c0,1.495-0.518,2.763-1.56,3.803c-1.042,1.04-2.299,1.561-3.77,1.561
	c-1.471,0-2.737-0.521-3.801-1.561c-1.042-1.04-1.56-2.308-1.56-3.803v-34.762h-11.341c-1.49,0-2.759-0.519-3.801-1.561
	c-1.042-1.04-1.56-2.297-1.56-3.768c0-1.471,0.518-2.726,1.56-3.768c1.042-1.062,2.311-1.594,3.801-1.594h33.404
	c1.471,0,2.741,0.532,3.805,1.594c1.039,1.042,1.563,2.297,1.563,3.768C671.466,1079.525,670.942,1080.782,669.904,1081.822z
	 M729.074,1118.145c0,1.495-0.524,2.763-1.563,3.803c-1.064,1.04-2.333,1.561-3.805,1.561s-2.728-0.521-3.767-1.561
	s-1.563-2.308-1.563-3.803v-14.699h-22.745v14.699c0,1.495-0.518,2.763-1.56,3.803s-2.299,1.561-3.77,1.561
	c-1.49,0-2.759-0.521-3.801-1.561c-1.042-1.04-1.56-2.308-1.56-3.803v-40.091c0-1.471,0.518-2.726,1.56-3.768
	c1.042-1.062,2.311-1.594,3.801-1.594c1.471,0,2.728,0.532,3.77,1.594c1.042,1.042,1.56,2.297,1.56,3.768v14.699h22.745v-14.699
	c0-1.471,0.524-2.726,1.563-3.768c1.039-1.062,2.295-1.594,3.767-1.594s2.741,0.532,3.805,1.594
	c1.039,1.042,1.563,2.297,1.563,3.768V1118.145z M902.455,837.569c0.096,0.543,0.092,1.096,0,1.644l0.018,196.515
	c0,4.58-3.979,8.559-8.559,8.559h-588.11c-4.527,0-8.193-3.631-8.277-8.138V600V77.934c0-3.143,1.224-6.099,3.447-8.322
	c2.222-2.223,5.178-3.447,8.321-3.447H599.98h290.685c3.143,0,6.099,1.224,8.321,3.447c2.223,2.223,3.447,5.178,3.447,8.321v175.871
	c0.078,0.094,0.169,0.173,0.242,0.274c1.319,1.841,1.153,4.284-0.242,5.941V600L902.455,837.569z M760.161,616.019l66.318,18.597
	c-11.834,6.809-33.774,16.721-54.37,11.41c-0.352-0.09-0.703-0.132-1.052-0.143c-0.02-0.436,0-0.875-0.031-1.311
	C770.21,633.178,765.697,623.66,760.161,616.019z M669.19,636.018c-1.842-5.371-4.618-9.876-7.856-12.643
	c3.175-9.998,10.443-19.395,10.537-19.514c0.483-0.612,0.792-1.309,0.938-2.03c8.607-13.39,13.137-28.82,13.137-44.824
	c0-9.495-1.622-18.613-4.568-27.118c1.51-0.521,3.351-1.215,5.399-2.078c0.372,0.178,0.762,0.327,1.186,0.407
	c0.243,0.046,24.343,4.771,36.205,22.639c6.45,9.718,8.19,21.74,5.175,35.733c-7.426,34.421-25.514,53.347-40.145,56.836
	c-7.432,1.776-13.902-0.393-18.663-6.273C670.151,636.678,669.69,636.307,669.19,636.018z M546.514,579.917
	c-0.78-0.856-1.582-1.808-2.169-2.98c-0.186-0.368-0.35-0.747-0.496-1.13l-0.003-0.008c-1.5-3.988-0.755-8.799,2.049-13.201
	c2.996-4.709,7.685-7.966,11.938-8.296c3.868-0.302,8.023,0.758,12.752,3.235c9.102,4.769,15.073,12.497,15.966,20.674
	c0.221,2.032,0.063,3.623-0.493,5.009c-0.852,2.117-2.668,3.773-5.551,5.063c-3.356,1.498-6.99,2.221-10.675,2.221
	C561.439,590.503,552.778,586.756,546.514,579.917z M661.247,562.596c2.804,4.401,3.549,9.213,2.049,13.202l-0.003,0.008
	c-0.142,0.379-0.306,0.755-0.493,1.126c-0.603,1.198-1.437,2.18-2.175,2.985c-6.258,6.839-14.918,10.588-23.313,10.588
	c-3.685,0-7.315-0.723-10.675-2.223c-2.886-1.288-4.701-2.944-5.554-5.061c-0.552-1.372-0.71-3.012-0.489-5.014
	c0.89-8.174,6.861-15.903,15.97-20.671c4.723-2.475,8.881-3.53,12.746-3.235C653.562,554.632,658.251,557.887,661.247,562.596z
	 M602.199,580.804c0.518-1.168,2.643-1.168,3.16,0c1.222,2.755,11.859,27.112,8.771,34.111c-0.619,1.399-1.61,1.98-2.336,2.221
	c-2.87,0.955-5.225,0.974-7.012,0.052c-0.385-0.201-0.72-0.431-1.004-0.676c-0.281,0.243-0.609,0.472-0.995,0.672
	c-0.878,0.455-1.894,0.682-3.044,0.682c-1.187,0-2.513-0.243-3.975-0.731c-0.726-0.242-1.718-0.822-2.336-2.221
	C590.338,607.914,600.978,583.559,602.199,580.804z M436.176,608.867l-63.084,21.676c8.66-15.735,31.331-34.309,43.361-42.996
	c2.835,5.505,6.293,10.363,10.437,14.359C429.422,604.347,432.499,606.778,436.176,608.867z M383.048,637.377l53.929-18.53
	c-2.759,6.503-5.35,15.573-5.226,26.375C419.107,643.468,398.016,639.94,383.048,637.377z M593.268,730.837l0.664,65.687
	c-17.814-15.063-22.92-42.226-24.07-50.289C579.053,743.218,587.042,737.962,593.268,730.837z M559.582,738.858
	c-15.973,2.597-43.214-1.009-82.225-32.986c-57.81-47.385-29.702-88.002-26.811-91.861c2.947,0.545,6.077,0.897,9.487,0.897
	c5.375,0,11.38-0.821,17.981-2.598c10.719,21.275,23.421,32.841,37.799,34.37c9.519,1.018,17.924-2.575,24.381-6.907
	c-1.642,10.059-1.528,22.908,5.56,33.919c7.151,11.111,19.87,18.007,37.881,20.63c-1.438,6.038,0.755,15.712,5.952,25.475
	C585.456,726.061,576.389,736.123,559.582,738.858z M761.355,645.328c1.588,22.685-15.281,47.252-50.141,73.019
	c-50.438,37.281-81.152,28.897-98.04,15.299c-17.207-13.857-21.593-33.963-20.153-37.196c0.233-0.366,0.391-0.755,0.515-1.15
	c2.591,0.147,5.246,0.241,8.016,0.241c50.889,0,64.734-21.457,68.46-34.247c1.039-3.569,1.495-7.249,1.516-10.874
	c3.915,2.146,8.256,3.294,12.844,3.293c2.311,0,4.679-0.281,7.079-0.852c17.922-4.272,33.815-22.579,42.839-48.225
	C742.018,609.839,759.866,624.059,761.355,645.328z M682.168,448.803c0.41-2.725,3.651-17.506,25.797-18.326
	c31.51-1.157,59.799,25.277,77.316,72.569c10.58,28.572,10.618,55.374,0.098,75.469c-7.27,13.894-19.351,23.629-34.018,27.432
	c-5.756-5.519-11.242-9.217-14.074-10.947c0.555-2.085,1.069-4.206,1.534-6.365c3.599-16.68,1.37-31.218-6.618-43.211
	c-9.151-13.737-23.662-20.769-33.137-24.104c7.617-5.031,14.75-12.151,16.634-21.778c2.892-14.767-7.284-31.028-30.237-48.333
	C684.354,450.373,683.263,449.595,682.168,448.803z M829.888,625.498l-60.105-16.854c7.393-4.357,13.814-10.227,18.987-17.374
	c0.299,0.258,0.621,0.495,0.991,0.68C790.091,592.115,818.779,606.675,829.888,625.498z M433.625,594.925
	c-17.359-16.742-21.353-51.282-10.422-90.145c18.012-64.033,46.816-71.091,69.798-70.097c16.662,0.723,21.321,12.506,22.442,16.6
	c-0.054,0.047-0.107,0.088-0.161,0.135c-25.767,22.33-35.99,42.019-30.379,58.516c2.635,7.754,8.48,13.493,15.134,17.597
	c-9.072,3.591-21.107,10.53-27.928,23.47c-7.429,14.09-6.808,31.695,1.794,52.377C457.431,607.392,443.581,604.527,433.625,594.925z
	 M470.631,427.284c-11.531-16.456-13.567-38.33-13.634-51.002l42.371,49.43c-1.872-0.354-3.825-0.626-5.944-0.718
	C486.466,424.694,478.677,425.031,470.631,427.284z M528.584,387.649c14.763-14.85,40.375-22.38,76.122-22.38
	c33.701,0,57.611,8.021,71.058,23.841c12.339,14.515,12.081,31.728,11.644,37.133c-7.699,4.558-11.893,11.155-13.768,16.761
	c-21.939-13.962-40.579-18.126-55.497-12.306c-12.35,4.815-19.213,15.303-22.87,23.574c-5.415-9.011-13.48-18.118-25.032-21.841
	c-13.817-4.455-29.516-0.264-46.75,12.418c-1.807-4.309-4.936-9.051-9.795-12.839c0.086-0.361,0.143-0.733,0.143-1.12l-0.006-1.263
	C513.786,421.552,513.675,402.645,528.584,387.649z M603.541,738.123c5.269,4.913,12.695,10.189,22.46,13.463
	c-7.783,22.309-16.575,36.321-22.379,43.964l-0.586-57.929C603.209,737.785,603.367,737.96,603.541,738.123z M553.931,668.479
	c-5.635-8.726-5.481-19.456-3.996-27.873c2.325,3.365,5.953,6.235,10.344,8.658l0.753-14.557c0.139-2.674,2.311-4.745,5.093-4.594
	c2.677,0.139,4.733,2.418,4.594,5.093l-0.943,18.229c3.188,1.113,6.538,2.07,9.973,2.848l0.416-15.271
	c0.073-2.681,2.22-4.853,4.979-4.714c2.677,0.073,4.79,2.302,4.714,4.979l-0.456,16.729c3.381,0.46,6.725,0.774,9.941,0.927v-16.579
	c0-2.677,2.172-4.85,4.85-4.85c2.677,0,4.85,2.172,4.85,4.85v16.497c3.121-0.191,6.347-0.534,9.595-1.008l-0.079-17.993
	c-0.013-2.681,2.15-4.859,4.827-4.872c0.01,0,0.016,0,0.022,0c2.668,0,4.837,2.156,4.85,4.828l0.071,16.187
	c3.286-0.784,6.501-1.708,9.54-2.802l-0.442-17.294c-0.066-2.677,2.049-4.903,4.727-4.973c2.554-0.051,4.9,2.049,4.97,4.726
	l0.336,13.149c5.643-3.265,9.89-7.318,11.588-12.224c2.53,5.56,4.044,13.797,1.653,22.004c-5.118,17.58-26.123,27.26-59.146,27.26
	C577.393,685.841,561.369,680,553.931,668.479z M697.024,416.612c-0.581-6.552-2.363-14.872-6.813-23.299
	c7.141-6.835,31.882-29.1,54.053-31.951c0.008,0.178,0.016,0.405,0.024,0.593c-1.652-0.256-3.388,0.332-4.514,1.728L697.024,416.612
	z M706.021,420.91l38.477-47.639c-0.082,15.366-1.749,37.925-9.65,52.688c-11.171-4.666-20.939-5.406-27.242-5.174
	C707.054,420.805,706.556,420.875,706.021,420.91z M677.689,520.915c-13.312-27.489-41.336-46.565-73.777-46.972
	c-0.554-1.847-1.414-4.447-2.617-7.456c1.049-4.343,5.97-21.137,20.373-26.753c13.996-5.457,34.039,1.19,57.955,19.222
	c19.452,14.664,28.64,28.049,26.562,38.71C703.812,509.853,686.847,517.86,677.689,520.915z M513.498,533.598
	c0.016-0.003,0.03-0.01,0.047-0.013c3.286,1.019,6.373,1.694,9.016,2.067c-1.815,6.818-2.795,13.972-2.795,21.354
	c0,19.934,7.173,39.191,20.207,54.279c1.843,3.127,3.826,7.012,5.227,11.04c-2.486,2.98-14.353,16.186-28.36,14.711
	c-11.59-1.231-22.309-12.182-31.854-32.549c-9.39-20.027-10.845-36.481-4.325-48.905
	C490.027,537.721,513.265,533.637,513.498,533.598z M593.857,474.411c-31.034,3.359-56.981,23.877-68.168,51.843
	c-9.223-0.714-27.363-6.967-31.605-19.441c-4.155-12.223,5.371-28.845,27.551-48.067c17.731-15.365,33.079-21.111,45.604-17.094
	C582.768,446.639,590.844,465.517,593.857,474.411z M504.711,417.043l-39.427-45.994c31.44,3.024,44.633,14.317,48.887,19.095
	C508.048,399.524,505.634,409.164,504.711,417.043z"/>
</svg>
