<?xml version="1.0" encoding="utf-8"?>
<!-- Generator: Adobe Illustrator 23.0.3, SVG Export Plug-In . SVG Version: 6.00 Build 0)  -->
<svg version="1.1" id="Capa_1" xmlns="http://www.w3.org/2000/svg" xmlns:xlink="http://www.w3.org/1999/xlink" x="0px" y="0px"
	 viewBox="0 0 1200 1200" enable-background="new 0 0 1200 1200" xml:space="preserve">
<path fill="hsl(290, 13%, 29%)" d="M911.797,60.832C904.813,53.847,895.525,50,885.648,50H600H314.352c-9.879,0-19.165,3.847-26.149,10.832
	c-6.985,6.984-10.831,16.271-10.831,26.149V600v513.019c0,9.878,3.847,19.165,10.831,26.15c6.984,6.984,16.271,10.831,26.149,10.831
	H600h285.647c9.878,0,19.165-3.847,26.149-10.831c6.985-6.985,10.831-16.272,10.831-26.15V600V86.981
	C922.628,77.103,918.782,67.816,911.797,60.832z M913.097,600v513.019c0,7.58-3.072,14.443-8.04,19.41
	c-4.968,4.968-11.83,8.04-19.41,8.04H600H314.352c-7.58,0-14.442-3.072-19.41-8.04c-4.968-4.967-8.04-11.83-8.04-19.41V600V86.981
	c0-7.58,3.072-14.442,8.04-19.41c4.967-4.968,11.83-8.04,19.41-8.04H600h285.647c7.58,0,14.443,3.072,19.41,8.04
	c4.967,4.967,8.04,11.83,8.04,19.41V600z M897.192,86.981c0-3.089-1.203-5.993-3.387-8.177c-2.184-2.185-5.088-3.387-8.177-3.387
	H599.98H314.332c-3.089,0-5.993,1.203-8.177,3.387c-2.185,2.185-3.387,5.089-3.387,8.177V600v428.592
	c0.083,4.429,3.685,7.997,8.134,7.997h577.919c4.501,0,8.411-3.911,8.411-8.411L897.192,600V86.981z M334.499,804.409
	c-2.063-11.244-6.199-50.454,27.12-82.937c36.645-35.728,73.944-119.187,82.535-158.711c9.521-43.805,29.779-71.861,35.26-78.855
	c0.138-0.121,0.285-0.228,0.41-0.367c0.133-0.148,5.261-5.684,16.001-12.58c-13.782,22.832-10.9,46.83-10.729,48.139
	c0.316,2.398,2.361,4.14,4.716,4.14c0.205,0,0.413-0.012,0.621-0.039c2.606-0.338,4.446-2.726,4.114-5.333
	c-0.188-1.484-4.257-36.43,24.587-58.994c2.277-0.949,4.638-1.883,7.127-2.792c-1.528,2.868-2.99,5.881-4.321,9.039
	c-1.024,2.426,0.112,5.22,2.538,6.244c0.605,0.254,1.232,0.375,1.849,0.375c1.858,0,3.627-1.095,4.393-2.915
	c1.409-3.335,2.947-6.525,4.579-9.477c1.118-2.025,0.604-4.509-1.101-5.944c17.713-5.554,40.018-9.649,67.384-9.649
	c25.72,0,46.747,3.65,63.597,8.726c-0.324,0.096-0.644,0.223-0.953,0.393c-2.302,1.272-3.14,4.171-1.868,6.475
	c1.632,2.952,3.171,6.142,4.579,9.477c0.766,1.82,2.535,2.915,4.393,2.915c0.617,0,1.244-0.121,1.849-0.375
	c2.426-1.024,3.562-3.818,2.538-6.244c-1.536-3.642-3.224-7.136-5.014-10.38c-0.131-0.236-0.289-0.446-0.451-0.651
	c3.67,1.227,7.143,2.511,10.382,3.839c28.542,22.577,24.926,59.428,24.865,60.011c-0.298,2.614,1.579,4.973,4.192,5.273
	c0.186,0.022,0.369,0.031,0.549,0.031c2.389,0,4.449-1.793,4.728-4.224c0.154-1.344,2.712-26.026-11.267-49.162
	c8.04,5.185,13.03,9.717,15.307,11.99c0.074,0.1,0.131,0.207,0.214,0.303c0.254,0.295,25.668,29.952,36.679,80.613
	c8.591,39.524,45.89,122.983,82.535,158.711c33.319,32.482,29.183,71.693,27.12,82.937c-2.748,14.994-9.218,26.879-17.226,32.057
	c-3.11-3.752-5.523-5.818-6.326-6.461c-3.022-2.868-6.081-5.612-9.194-8.25c30.723-33.743,1.987-75.809-25.844-116.529
	c-5.566-8.143-11.321-16.565-16.506-24.783c-19.239-30.505-27.901-50.608-33.84-66.249c-0.934-2.46-3.689-3.697-6.146-2.764
	c-2.46,0.934-3.698,3.686-2.764,6.146c5.746,15.144,14.886,36.553,34.69,67.953c5.277,8.368,11.082,16.861,16.698,25.077
	c26.97,39.461,52.451,76.78,26.239,105.169c-7.957-6.012-16.467-11.223-25.997-15.468c14.975-22.558,10.162-38.812-5.104-63.258
	c-1.393-2.234-4.34-2.912-6.568-1.519c-2.231,1.395-2.91,4.334-1.517,6.568c15.627,25.025,16.68,36.782,4.13,54.563
	c-13.184-4.686-28.373-7.642-46.6-8.503c23.933-23.128,8.973-67.142-5.558-109.885c-4.189-12.323-8.523-25.067-12.023-37.417
	c-3.69-13.017-5.958-25.662-7.314-37.216c4.633,16.178,11.397,35.561,21.304,57.769c2.982,6.691,18.867,35.742,22.37,41.952
	c0.875,1.553,2.491,2.426,4.154,2.426c0.794,0,1.598-0.199,2.339-0.616c2.29-1.294,3.103-4.199,1.809-6.492
	c-4.049-7.179-19.279-35.12-21.966-41.151c-30.132-67.554-30.505-109.087-30.505-109.499c0-0.053-0.014-0.103-0.016-0.156
	c-0.005-0.166-0.027-0.326-0.049-0.487c-0.021-0.153-0.039-0.305-0.074-0.454c-0.036-0.151-0.086-0.295-0.137-0.441
	c-0.051-0.149-0.099-0.297-0.164-0.438c-0.062-0.137-0.139-0.265-0.214-0.394c-0.078-0.134-0.152-0.268-0.242-0.394
	c-0.09-0.126-0.193-0.241-0.295-0.358c-0.097-0.111-0.191-0.223-0.297-0.324c-0.117-0.112-0.246-0.209-0.375-0.309
	c-0.112-0.087-0.223-0.176-0.343-0.253c-0.136-0.087-0.282-0.159-0.427-0.232c-0.132-0.067-0.262-0.134-0.401-0.189
	c-0.148-0.058-0.304-0.1-0.46-0.143c-0.15-0.042-0.297-0.084-0.453-0.111c-0.055-0.01-0.105-0.031-0.161-0.039
	c-0.121-0.017-0.238-0.006-0.358-0.013c-0.1-0.006-0.195-0.03-0.296-0.03h-0.003c-0.047,0-0.09,0.012-0.136,0.014
	c-0.177,0.005-0.349,0.028-0.522,0.052c-0.146,0.02-0.292,0.038-0.433,0.071c-0.147,0.035-0.287,0.084-0.429,0.132
	c-0.157,0.053-0.313,0.105-0.461,0.173c-0.12,0.055-0.232,0.123-0.346,0.187c-0.154,0.086-0.306,0.172-0.448,0.275
	c-0.105,0.076-0.2,0.162-0.299,0.246c-0.132,0.112-0.263,0.223-0.382,0.349c-0.095,0.1-0.178,0.21-0.264,0.319
	c-0.102,0.129-0.205,0.257-0.294,0.396c-0.078,0.122-0.141,0.252-0.208,0.381c-0.074,0.146-0.149,0.289-0.209,0.443
	c-0.052,0.135-0.09,0.276-0.13,0.418c-0.047,0.165-0.092,0.328-0.122,0.5c-0.009,0.05-0.029,0.095-0.036,0.145
	c-0.258,1.843-6.159,45.707,8.123,96.091c3.568,12.586,7.943,25.447,12.168,37.886c16.513,48.573,30.768,90.566-1.428,106.357
	c-35.889-2.388-59.391-31.593-59.391-51.197v-52.38c12.233-15.269,19.598-32.803,23.817-46.056
	c2.206,9.593,5.105,19.793,7.963,29.829c6.028,21.189,12.264,43.099,10.781,55.71c-1.523,12.941-6.205,21.014-14.315,24.687
	c-2.395,1.086-3.459,3.909-2.373,6.308c0.797,1.759,2.529,2.799,4.344,2.799c0.658,0,1.325-0.136,1.964-0.425
	c11.25-5.094,17.927-15.944,19.844-32.254c1.706-14.503-4.502-36.327-11.079-59.431c-5.594-19.663-11.38-39.994-11.38-53.879
	c0-0.592-0.122-1.153-0.319-1.676l3.096-77.193c0.105-2.629-1.942-4.848-4.57-4.953c-0.838-0.015-1.628,0.2-2.333,0.56
	c-1.329,0.138-4,0.404-7.839,0.743c1.068-18.57-0.571-34.945-5.068-49.907c-0.76-2.522-3.431-3.951-5.935-3.193
	c-2.522,0.757-3.95,3.414-3.193,5.935c4.277,14.233,5.772,29.947,4.609,47.948c-5.595,0.426-12.32,0.881-19.988,1.307
	c1.426-8.907,3.08-28.084-3.63-50.363c-0.76-2.521-3.416-3.95-5.938-3.188c-2.519,0.759-3.946,3.416-3.189,5.937
	c6.72,22.316,4.195,41.572,2.988,48.111c-6.89,0.318-14.369,0.591-22.304,0.79c1.086-19.545,0.426-35.32-2.055-48.002
	c-0.506-2.584-3.01-4.271-5.591-3.763c-2.581,0.506-4.266,3.008-3.76,5.591c2.355,12.058,2.95,27.294,1.851,46.373
	c-9.984,0.16-20.578,0.187-31.606,0.017c-1.281-22.529,0.541-36.21,2.064-44.64c0.469-2.591-1.25-5.07-3.841-5.538
	c-2.578-0.456-5.067,1.25-5.535,3.841c-2.488,13.76-3.193,28.543-2.229,46.143c-7.292-0.187-14.748-0.473-22.3-0.858
	c-0.914-6.433-2.466-24.237,3.946-46.08c0.742-2.525-0.704-5.174-3.23-5.915c-2.526-0.731-5.175,0.704-5.917,3.231
	c-6.385,21.756-5.5,39.746-4.487,48.214c-6.682-0.421-13.421-0.926-20.193-1.535c-0.993-16.254,0.469-31.758,4.398-46.096
	c0.698-2.538-0.797-5.16-3.335-5.856c-2.529-0.689-5.16,0.794-5.855,3.337c-4.088,14.899-5.675,30.929-4.801,47.681
	c-2.451-0.255-4.903-0.515-7.355-0.798c-1.402-0.151-2.764,0.295-3.788,1.241c-1.021,0.948-1.576,2.293-1.52,3.684l3.151,78.572
	c-0.006,0.1-0.03,0.195-0.03,0.297c0,13.816-5.116,34.218-10.062,53.949c-5.929,23.649-11.529,45.988-9.817,60.538
	c1.917,16.31,8.594,27.163,19.841,32.254c0.639,0.289,1.306,0.425,1.964,0.425c1.815,0,3.546-1.039,4.344-2.799
	c1.086-2.398,0.022-5.222-2.373-6.308c-8.107-3.67-12.789-11.746-14.312-24.687c-1.505-12.814,4.139-35.331,9.599-57.106
	c2.378-9.489,4.774-19.109,6.674-28.217c4.318,13.184,11.669,30.199,23.654,45.029V736.5c0,19.362-22.923,48.087-58.061,51.097
	c-30.826-15.343-17.581-55.642-2.237-102.245c4.626-14.055,9.413-28.587,13.04-42.848c11.824-46.487,7.26-93.006,7.061-94.964
	c-0.011-0.106-0.045-0.202-0.063-0.306c-0.028-0.164-0.056-0.326-0.099-0.484c-0.039-0.139-0.088-0.271-0.139-0.405
	c-0.063-0.168-0.129-0.332-0.209-0.49c-0.052-0.101-0.111-0.196-0.169-0.292c-0.109-0.181-0.225-0.355-0.356-0.519
	c-0.044-0.054-0.09-0.104-0.136-0.156c-0.167-0.192-0.345-0.37-0.541-0.532c-0.019-0.016-0.04-0.031-0.061-0.047
	c-0.224-0.181-0.462-0.34-0.717-0.477c-0.005-0.003-0.011-0.005-0.016-0.008c-0.257-0.138-0.526-0.25-0.807-0.338
	c-0.033-0.01-0.067-0.017-0.1-0.027c-0.241-0.069-0.486-0.122-0.741-0.151c-0.127-0.016-0.256-0.017-0.384-0.023
	c-0.115-0.003-0.225-0.025-0.342-0.02c-0.05,0.002-0.096,0.016-0.146,0.019c-0.067,0.004-0.131-0.007-0.199,0
	c-0.123,0.013-0.237,0.051-0.357,0.073c-0.132,0.024-0.264,0.046-0.391,0.08c-0.183,0.049-0.356,0.112-0.529,0.182
	c-0.114,0.046-0.227,0.089-0.336,0.143c-0.172,0.085-0.334,0.182-0.493,0.286c-0.097,0.063-0.193,0.124-0.285,0.194
	c-0.152,0.116-0.291,0.242-0.427,0.374c-0.083,0.081-0.166,0.16-0.244,0.247c-0.123,0.138-0.233,0.285-0.339,0.437
	c-0.071,0.1-0.14,0.199-0.203,0.304c-0.091,0.154-0.169,0.314-0.242,0.479c-0.054,0.119-0.106,0.237-0.15,0.36
	c-0.059,0.165-0.101,0.334-0.142,0.506c-0.031,0.135-0.062,0.268-0.082,0.407c-0.024,0.171-0.032,0.344-0.038,0.52
	c-0.003,0.098-0.024,0.191-0.021,0.29c0.009,0.411,0.807,41.888-29.291,109.361c-2.687,6.031-17.917,33.972-21.966,41.151
	c-1.294,2.293-0.481,5.198,1.809,6.492c0.742,0.417,1.545,0.616,2.339,0.616c1.663,0,3.279-0.873,4.154-2.426
	c3.503-6.21,19.388-35.261,22.37-41.952c8.766-19.652,14.985-37.105,19.398-52.08c-1.185,9.964-2.965,20.431-5.61,30.828
	c-3.546,13.94-8.278,28.316-12.854,42.215c-14.101,42.825-27.498,83.576-4.662,105.682c-18.598,0.696-33.772,3.42-46.951,7.924
	c-12.046-17.405-10.81-29.173,4.618-53.88c1.393-2.234,0.714-5.174-1.517-6.568c-2.24-1.393-5.175-0.715-6.568,1.519
	c-15.084,24.155-19.96,40.31-5.63,62.453c-0.05,0.022-0.099,0.046-0.149,0.068c-1.057,0.117-2.024,0.564-2.769,1.263
	c-8.359,3.913-15.972,8.661-23.262,14.186c-25.07-28.294,0.221-65.309,26.951-104.421c5.616-8.213,11.418-16.704,16.695-25.069
	c19.81-31.409,28.944-52.814,34.687-67.953c0.934-2.462-0.304-5.212-2.764-6.146c-2.467-0.932-5.212,0.304-6.146,2.764
	c-5.932,15.637-14.591,35.737-33.837,66.249c-5.184,8.216-10.937,16.634-16.503,24.776c-27.618,40.411-56.123,82.146-26.533,115.76
	c-3.36,2.849-6.69,5.852-10.034,9.027c-0.802,0.641-3.207,2.7-6.309,6.438C343.697,831.254,337.242,819.38,334.499,804.409z
	 M724.217,473.561c-11.048-10.53-48.093-39.339-122.636-39.339c-75.672,0-114.566,29.667-125.567,39.716
	c-1.525-1.316-3.535-3.123-5.781-5.274c8.72-8.474,47.34-40.923,127.098-40.923c83.035,0,124.296,34.25,131.493,40.872
	C727.067,470.564,725.48,472.257,724.217,473.561z M697.463,915.853c-33.34,7.58-58.422,5.107-74.549-7.341
	c-12.028-9.281-16.021-22.127-17.343-29.031c63.046-0.357,107.459-13.909,131.958-40.346c15.029-16.217,18.007-32.72,18.525-40.399
	c10.536,1.228,19.901,3.303,28.384,6.113C785.299,819.911,785.177,895.918,697.463,915.853z M447.565,798.237
	c0.86,7.99,4.561,24.548,20.118,40.775c24.592,25.655,67.248,39.206,126.785,40.388c-1.273,6.842-5.195,19.649-17.267,29.026
	c-16.127,12.522-41.246,15.02-74.664,7.428c-86.377-19.633-94.878-91.88-95.687-108.296
	C418.345,802.742,431.484,799.62,447.565,798.237z M467.618,797.403c39.238,0,63.544,3.075,74.307,9.401
	c0.757,0.447,1.589,0.658,2.411,0.658c1.632,0,3.224-0.841,4.111-2.352c1.334-2.268,0.577-5.188-1.694-6.522
	c-8.432-4.958-22.728-8.113-43.992-9.635c15.38-7.869,26.87-20.204,33.127-32.545c13.037,12.702,46.824,43.905,64.112,43.905
	c17.405,0,50.449-32.782,63.096-46.035c5.985,13.056,17.918,26.396,34.223,34.715c-19.835,1.489-33.635,4.516-43.69,9.418
	c-2.367,1.154-3.348,4.008-2.197,6.373c0.825,1.694,2.522,2.677,4.288,2.677c0.701,0,1.412-0.155,2.085-0.481
	c13.581-6.621,36.588-9.575,74.591-9.577c4.961,0,9.634,0.194,14.164,0.487c-0.357,5.931-2.667,20.361-16.018,34.768
	c-15.78,17.03-50.709,37.327-127.491,37.327c-60.28,0-104.625-12.904-128.245-37.318c-13.701-14.164-16.97-28.367-17.736-35.036
	C460.466,797.492,463.957,797.403,467.618,797.403z M508.836,537.694c10.211,1.091,20.395,1.932,30.453,2.585
	c-5.279,1.266-10.888,3.323-16.718,6.577c-2.296,1.283-3.121,4.185-1.837,6.484c0.872,1.562,2.494,2.443,4.164,2.443
	c0.788,0,1.585-0.195,2.321-0.607c24.371-13.603,44.147-3.438,44.984-2.991c2.315,1.236,5.197,0.377,6.444-1.933
	c1.253-2.315,0.391-5.206-1.924-6.46c-0.251-0.136-1.935-1.023-4.768-2.026c18.65,0.503,36.321,0.423,52.157,0.031
	c-2.765,0.994-4.415,1.868-4.661,2.003c-2.311,1.26-3.165,4.154-1.902,6.466c1.26,2.313,4.164,3.165,6.463,1.902
	c0.205-0.109,20.204-10.702,44.562,3c0.738,0.416,1.539,0.614,2.333,0.614c1.663-0.002,3.283-0.875,4.157-2.431
	c1.291-2.293,0.478-5.198-1.818-6.489c-5.488-3.088-10.79-5.125-15.793-6.41c15.562-0.871,27.245-1.869,33.405-2.452l-3.144,78.455
	c-0.94,6.198-15.179,91.248-87.86,91.735c-27.019-0.181-45.968-12.034-59.151-27.195c-0.318-0.613-0.76-1.144-1.3-1.565
	c-21.189-25.463-26.831-59.158-27.41-62.974L508.836,537.694z M541.254,736.5v-41.695c13.867,12.953,32.484,22.383,57.256,22.867
	c0.24,0.037,0.481,0.074,0.731,0.074c0.209,0,0.404-0.022,0.613-0.023c0.209,0.001,0.403,0.023,0.613,0.023
	c0.251,0,0.491-0.036,0.731-0.074c24.948-0.487,43.649-10.051,57.547-23.145V736.5c0,2.412,0.303,4.949,0.869,7.558
	c-17.146,18.566-47.516,46.724-59.617,46.724c-11.999,0-42.51-26.231-60.301-44.005C540.713,743.209,541.254,739.742,541.254,736.5z
	 M363.995,837.411c0.14-0.106,0.276-0.22,0.403-0.344c10.873-10.335,21.353-18.732,33.322-25.123
	c2.384,23.457,16.713,93.661,102.707,113.206c13.236,3.006,25.336,4.508,36.269,4.508c19.081,0,34.597-4.573,46.349-13.704
	c8.693-6.753,13.856-14.903,16.954-22.169c3.098,7.265,8.261,15.416,16.954,22.169c11.753,9.131,27.269,13.707,46.349,13.704
	c10.933,0,23.037-1.502,36.269-4.508c87.278-19.837,94.396-93.45,94.409-116.729c16.178,6.935,29.16,16.805,41.62,28.647
	c0.115,0.112,0.258,0.23,0.382,0.329c0.323,0.248,32.078,25.82,24.808,99.794c-2.194,22.338-7.097,53.365-14.178,89.868h-49.832
	c1.667-3.459,2.94-6.924,3.876-10.349h19.497c2.631,0,4.766-2.135,4.766-4.766s-2.135-4.766-4.766-4.766h-17.627
	c0.344-2.882,0.521-5.683,0.529-8.34h15.637c2.631,0,4.766-2.135,4.766-4.766s-2.135-4.766-4.766-4.766h-16.21
	c-0.37-3.074-0.859-5.791-1.357-7.998h8.548c2.631,0,4.766-2.135,4.766-4.766s-2.135-4.766-4.766-4.766h-14.66
	c-0.067,0-0.128,0.017-0.194,0.02c-0.521,0.006-1.049,0.078-1.565,0.266c-2.473,0.894-3.757,3.621-2.87,6.097
	c0.097,0.266,9.132,26.379-4.435,48.898H414.668c-13.604-22.531-5.087-48.64-4.975-48.973c0.029-0.086,0.036-0.172,0.06-0.258
	c0.048-0.169,0.091-0.338,0.12-0.514c0.026-0.16,0.038-0.317,0.048-0.476c0.006-0.099,0.029-0.193,0.029-0.294
	c0-0.056-0.014-0.107-0.016-0.162c-0.005-0.168-0.027-0.331-0.05-0.496c-0.021-0.151-0.041-0.3-0.075-0.446
	c-0.035-0.148-0.085-0.289-0.135-0.432c-0.051-0.15-0.1-0.299-0.165-0.441c-0.063-0.136-0.139-0.264-0.214-0.394
	c-0.077-0.133-0.15-0.265-0.239-0.389c-0.092-0.13-0.199-0.248-0.304-0.368c-0.095-0.108-0.186-0.217-0.29-0.316
	c-0.116-0.111-0.244-0.208-0.373-0.308c-0.118-0.091-0.233-0.183-0.36-0.263c-0.127-0.08-0.263-0.147-0.398-0.216
	c-0.148-0.075-0.296-0.149-0.453-0.208c-0.051-0.019-0.094-0.049-0.146-0.067c-0.093-0.032-0.188-0.04-0.282-0.066
	c-0.161-0.044-0.32-0.086-0.487-0.113c-0.164-0.027-0.325-0.039-0.487-0.049c-0.098-0.006-0.192-0.029-0.292-0.029h-14.66
	c-2.631,0-4.766,2.135-4.766,4.766s2.135,4.766,4.766,4.766h8.503c-0.462,2.202-0.912,4.923-1.239,7.998h-16.283
	c-2.631,0-4.766,2.135-4.766,4.766s2.135,4.766,4.766,4.766h15.832c0.038,2.657,0.244,5.457,0.615,8.34h-17.909
	c-2.631,0-4.766,2.135-4.766,4.766s2.135,4.766,4.766,4.766h19.855c0.959,3.425,2.25,6.889,3.927,10.349h-50.44
	c-7.081-36.503-11.984-67.53-14.178-89.868C331.936,863.215,363.694,837.644,363.995,837.411z M856.321,1027.058
	c6.952-36.008,11.768-66.681,13.959-88.937c4.829-49.162-6.56-78.413-16.36-93.904c10.107-6.781,17.799-20.57,21.011-38.092
	c6.075-33.139-5.082-67.335-29.844-91.478c-0.379-0.37-0.759-0.775-1.139-1.156v-81.908c1.252,0.097,2.612,0.169,4.008,0.169
	c2.377,0,4.818-0.197,6.816-0.785c12.37-3.636,20.319-18.46,17.011-31.725c-0.32-1.292-1.17-2.391-2.339-3.03
	c-2.097-1.147-4.26-1.687-6.447-1.863c7.185-6.346,10.961-17.071,8.501-26.94c-0.32-1.292-1.17-2.391-2.339-3.03
	c-1.519-0.831-3.072-1.355-4.644-1.649c7.497-6.285,11.5-17.26,8.988-27.343c-0.41-1.649-1.489-3.047-3.037-3.936
	c-5.135-2.944-16.633,0.38-16.754,0.414c-0.555,0.164-1.108,0.343-1.651,0.537c-0.919,0.328-1.764,0.743-2.615,1.149
	c5.888-6.567,7.953-16.261,4.595-25.368c-2.442-6.629-6.531-11.306-12.159-13.901c-1.207-0.557-2.594-0.579-3.826-0.071
	c-11.936,4.969-17.644,18.741-12.997,31.352c1.107,3.007,2.571,5.59,4.346,7.782c-0.816-0.367-1.658-0.701-2.553-0.964
	c-6.211-1.826-12.783-3.329-18.817-0.028c-1.17,0.639-2.02,1.737-2.339,3.03c-2.5,10.026,1.437,20.935,8.846,27.239
	c-1.881,0.247-3.742,0.767-5.554,1.757c-1.17,0.639-2.02,1.737-2.339,3.03c-2.495,10.005,1.419,20.891,8.798,27.202
	c-2.257,0.156-4.489,0.705-6.651,1.886c-1.17,0.638-2.02,1.737-2.342,3.031c-3.301,13.267,4.651,28.091,17.018,31.724
	c2.439,0.717,4.967,1.072,7.468,1.072c1.172,0,2.331-0.107,3.478-0.262v70.836c-31.719-38.645-61.693-107.615-69.203-142.163
	c-9.03-41.542-26.9-69.093-34.846-79.811c8.61-8.716,32.981-35.444,36.599-62.059c0.354-2.608-1.474-5.011-4.08-5.364
	c-2.584-0.346-5.008,1.472-5.364,4.08c-2.14,15.747-13.105,32.201-22.486,43.77c-9.12-8.471-51.706-43.142-137.706-43.142
	c-83.676,0-123.793,33.698-133.796,43.626c-10.339-11.233-21.953-27.434-21.761-43.447c0.031-2.633-2.076-4.79-4.71-4.823
	c-2.603-0.124-4.79,2.077-4.821,4.708c-0.333,27.75,27.116,53.944,37.368,62.751c-7.983,10.79-25.77,38.298-34.771,79.71
	c-7.533,34.655-37.668,103.949-69.495,142.525v-71.677c1.252,0.097,2.612,0.169,4.009,0.169c2.377,0,4.818-0.197,6.816-0.785
	c12.367-3.635,20.319-18.459,17.018-31.724c-0.323-1.294-1.173-2.394-2.342-3.031c-2.1-1.146-4.264-1.687-6.451-1.862
	c7.186-6.346,10.963-17.071,8.502-26.94c-0.32-1.292-1.17-2.391-2.339-3.03c-1.519-0.831-3.072-1.355-4.645-1.649
	c7.496-6.285,11.5-17.26,8.988-27.348c-0.41-1.647-1.489-3.044-3.037-3.931c-5.129-2.944-16.276,0.273-16.754,0.414
	c-0.555,0.164-1.108,0.343-1.651,0.537c-0.918,0.328-1.763,0.743-2.614,1.148c5.888-6.566,7.953-16.26,4.597-25.366v-0.002
	c-2.445-6.63-6.537-11.306-12.162-13.901c-1.207-0.557-2.594-0.579-3.825-0.071c-11.936,4.969-17.644,18.741-12.997,31.352
	c1.107,3.007,2.571,5.59,4.346,7.782c-0.816-0.367-1.658-0.701-2.553-0.964c-6.208-1.826-12.786-3.329-18.817-0.028
	c-1.17,0.639-2.02,1.737-2.339,3.03c-2.5,10.026,1.437,20.935,8.846,27.239c-1.881,0.247-3.742,0.767-5.554,1.757
	c-1.17,0.639-2.02,1.737-2.339,3.03c-2.494,10.005,1.419,20.891,8.798,27.202c-2.257,0.156-4.487,0.704-6.648,1.886
	c-1.17,0.639-2.02,1.737-2.339,3.03c-3.307,13.267,4.641,28.092,17.011,31.725c2.439,0.717,4.967,1.072,7.468,1.072
	c1.172,0,2.331-0.107,3.478-0.262v81.725c-0.282,0.281-0.565,0.584-0.847,0.86c-24.762,24.143-35.919,58.339-29.844,91.478
	c3.207,17.5,10.885,31.275,20.974,38.065c-9.805,15.484-21.21,44.742-16.376,93.931c2.191,22.257,7.006,52.93,13.959,88.937h-31.38
	V600V86.981c0-0.559,0.201-1.043,0.596-1.438c0.395-0.395,0.878-0.595,1.437-0.595H599.98h285.648c0.559,0,1.042,0.2,1.438,0.596
	c0.395,0.395,0.596,0.879,0.596,1.437v513.02l0.04,427.057H856.321z M839.344,529.744c-2.339-1.627-4.095-4.092-5.343-7.474
	c-2.646-7.184-0.174-14.655,5.758-18.263c2.336,1.627,4.092,4.092,5.34,7.473c0,0.002,0,0.002,0,0.003
	C847.746,518.664,845.276,526.134,839.344,529.744z M843.948,567.593c0.001,0,0.002,0,0.003,0c-0.001,0.001-0.002,0.001-0.003,0.002
	V567.593z M834.417,599.81v0.144c-0.053-0.039-0.106-0.078-0.159-0.117C834.311,599.829,834.364,599.818,834.417,599.81z
	 M843.948,616.785c0.003-0.012,0.009-0.022,0.012-0.034c1.579-6.182,4.725-10.007,9.354-11.368c3.546-1.041,6.947-1.916,9.618-1.46
	c0.676,7.66-4.123,15.924-10.847,17.9c-1.781,0.523-5.118,0.464-8.138,0.192V616.785z M851.801,589.993
	c-2.578,0.756-5.281,0.788-7.853,0.163v-6.142c1.651-5.637,4.69-9.173,9.081-10.463c3.543-1.039,6.944-1.91,9.618-1.46
	C863.324,579.753,858.524,588.016,851.801,589.993z M853.802,557.966c-2.966,0.866-6.627,0.802-9.674-0.112
	c0.524-3.101,2.904-9.561,3.863-11.18c1.936-2.921,5.026-4.493,7.282-5.298c0.372-0.133,0.751-0.256,1.129-0.366
	c2.017-0.593,5.938-1.241,8.216-1.274C865.461,547.489,860.621,555.962,853.802,557.966z M834.324,557.957
	c-2.876,0.825-6.078,0.845-8.929,0.009c-6.723-1.976-11.523-10.24-10.847-17.902c2.671-0.462,6.075,0.42,9.618,1.46
	C830.691,543.443,833.651,551.214,834.324,557.957z M815.501,572.091c2.674-0.456,6.078,0.417,9.618,1.46
	c4.566,1.343,7.655,4.916,9.211,10.592c0.017,0.202,0.045,0.4,0.088,0.596v5.381c-2.636,0.681-5.42,0.651-8.07-0.126
	C819.627,588.015,814.827,579.751,815.501,572.091z M824.929,605.669c5.91,1.738,8.42,7.028,9.488,11.18v5.565
	c-2.624,0.578-5.557,0.487-8.259-0.304c-6.72-1.975-11.52-10.239-10.85-17.9C817.983,603.751,821.383,604.628,824.929,605.669z
	 M365.345,567.593c0.001,0,0.002,0,0.003,0c-0.001,0.001-0.002,0.001-0.003,0.002V567.593z M355.813,599.81v0.143
	c-0.053-0.039-0.105-0.078-0.159-0.117C355.708,599.829,355.761,599.819,355.813,599.81z M365.345,616.785
	c0.003-0.012,0.009-0.022,0.012-0.034c1.579-6.182,4.725-10.007,9.354-11.368c3.543-1.041,6.953-1.916,9.621-1.46
	c0.673,7.66-4.13,15.924-10.85,17.9c-1.782,0.523-5.118,0.464-8.138,0.192V616.785z M373.197,589.993
	c-2.576,0.756-5.28,0.788-7.853,0.163v-6.142c1.651-5.637,4.69-9.173,9.081-10.463c3.546-1.039,6.947-1.91,9.618-1.46
	C384.72,579.753,379.92,588.016,373.197,589.993z M375.198,557.966c-2.966,0.866-6.627,0.802-9.674-0.112
	c0.524-3.101,2.904-9.561,3.863-11.18c1.936-2.921,5.026-4.493,7.282-5.298c0.372-0.133,0.751-0.256,1.126-0.366
	c2.02-0.593,5.945-1.24,8.219-1.274C386.858,547.491,382.015,555.962,375.198,557.966z M360.74,529.744
	c-2.339-1.627-4.095-4.092-5.343-7.474c-2.646-7.184-0.174-14.655,5.758-18.263c2.336,1.629,4.095,4.092,5.343,7.476
	C369.145,518.664,366.669,526.134,360.74,529.744z M355.72,557.957c-2.876,0.825-6.078,0.845-8.929,0.009
	c-6.723-1.976-11.523-10.24-10.847-17.902c2.678-0.462,6.075,0.42,9.618,1.46C352.087,543.443,355.047,551.214,355.72,557.957z
	 M336.897,572.091c2.671-0.456,6.078,0.417,9.618,1.46c4.563,1.341,7.65,4.913,9.211,10.583c0.017,0.205,0.045,0.406,0.088,0.605
	v5.382c-2.636,0.681-5.421,0.649-8.07-0.128C341.023,588.015,336.224,579.751,336.897,572.091z M346.326,605.669
	c5.91,1.738,8.42,7.028,9.488,11.18v5.565c-2.624,0.578-5.557,0.487-8.259-0.304c-6.723-1.976-11.523-10.239-10.847-17.9
	C339.385,603.751,342.783,604.628,346.326,605.669z M595.202,162.628v-50.262c0-2.633,2.135-4.766,4.766-4.766
	c2.631,0,4.766,2.133,4.766,4.766v50.262c0,2.633-2.135,4.766-4.766,4.766C597.337,167.394,595.202,165.261,595.202,162.628z
	 M568.039,162.628v-50.262c0-2.633,2.135-4.766,4.766-4.766s4.766,2.133,4.766,4.766v50.262c0,2.633-2.135,4.766-4.766,4.766
	S568.039,165.261,568.039,162.628z M622.43,162.628v-50.262c0-2.633,2.135-4.766,4.766-4.766s4.766,2.133,4.766,4.766v50.262
	c0,2.633-2.135,4.766-4.766,4.766S622.43,165.261,622.43,162.628z M546.24,391.288c0.282,0.863,0.047,1.81-0.602,2.443l-6.832,6.661
	l1.613,9.404c0.152,0.895-0.214,1.798-0.949,2.332c-0.729,0.531-1.706,0.605-2.507,0.182l-8.448-4.441l-8.445,4.441
	c-0.348,0.183-0.729,0.273-1.108,0.273c-0.493,0-0.987-0.154-1.399-0.455c-0.735-0.534-1.101-1.436-0.949-2.332l1.613-9.404
	l-6.832-6.661c-0.648-0.633-0.884-1.581-0.602-2.443c0.279-0.863,1.024-1.491,1.924-1.621l9.441-1.371l4.219-8.555
	c0.807-1.629,3.469-1.627,4.275-0.002l4.223,8.557l9.441,1.371C545.216,389.797,545.961,390.426,546.24,391.288z M689.207,388.811
	c0.282,0.863,0.047,1.81-0.602,2.443l-6.832,6.66l1.613,9.405c0.152,0.895-0.214,1.798-0.949,2.332
	c-0.729,0.534-1.706,0.602-2.507,0.182l-8.448-4.441l-8.445,4.441c-0.347,0.183-0.729,0.273-1.108,0.273
	c-0.493,0-0.987-0.154-1.399-0.455c-0.735-0.534-1.101-1.436-0.949-2.332l1.613-9.405l-6.832-6.66
	c-0.648-0.633-0.884-1.581-0.602-2.443c0.279-0.863,1.024-1.491,1.924-1.621l9.441-1.373l4.22-8.555
	c0.807-1.629,3.469-1.627,4.275-0.002l4.223,8.557l9.441,1.373C688.183,387.32,688.928,387.948,689.207,388.811z M465.778,385.764
	c0.282,0.863,0.047,1.81-0.602,2.443l-6.832,6.661l1.613,9.404c0.152,0.895-0.214,1.798-0.949,2.332
	c-0.729,0.531-1.706,0.605-2.507,0.182l-8.448-4.441l-8.445,4.441c-0.347,0.183-0.729,0.273-1.108,0.273
	c-0.493,0-0.987-0.154-1.399-0.455c-0.735-0.534-1.101-1.436-0.949-2.332l1.613-9.404l-6.832-6.661
	c-0.648-0.633-0.884-1.581-0.602-2.443c0.279-0.863,1.024-1.491,1.924-1.621l9.441-1.371l4.22-8.555
	c0.807-1.629,3.469-1.627,4.275-0.002l4.223,8.557l9.441,1.371C464.754,384.273,465.499,384.902,465.778,385.764z M773.445,385.764
	c0.282,0.863,0.047,1.81-0.602,2.443l-6.835,6.661l1.613,9.404c0.152,0.895-0.214,1.798-0.949,2.332
	c-0.413,0.301-0.906,0.455-1.399,0.455c-0.379,0-0.76-0.09-1.108-0.273l-8.445-4.441l-8.448,4.441
	c-0.804,0.422-1.781,0.349-2.507-0.182c-0.735-0.534-1.101-1.436-0.949-2.332l1.613-9.404l-6.832-6.661
	c-0.648-0.633-0.884-1.581-0.602-2.443c0.279-0.863,1.024-1.491,1.924-1.621l9.441-1.371l4.223-8.557
	c0.403-0.813,1.232-1.328,2.138-1.328s1.734,0.515,2.138,1.329l4.219,8.555l9.444,1.371
	C772.421,384.273,773.166,384.902,773.445,385.764z M504.852,359.805c0.282,0.863,0.047,1.81-0.602,2.443l-6.832,6.66l1.613,9.404
	c0.152,0.895-0.214,1.798-0.949,2.332c-0.729,0.532-1.706,0.603-2.507,0.182l-8.448-4.441l-8.445,4.441
	c-0.348,0.183-0.729,0.273-1.108,0.273c-0.493,0-0.987-0.154-1.399-0.455c-0.735-0.534-1.101-1.436-0.949-2.332l1.613-9.404
	l-6.835-6.66c-0.648-0.633-0.884-1.579-0.602-2.443c0.279-0.863,1.024-1.491,1.924-1.621l9.444-1.373l4.22-8.555
	c0.807-1.629,3.469-1.627,4.275-0.002l4.223,8.557l9.441,1.373C503.828,358.314,504.573,358.942,504.852,359.805z M737.03,359.805
	c0.282,0.863,0.047,1.81-0.602,2.443l-6.832,6.66l1.613,9.404c0.152,0.895-0.214,1.798-0.949,2.332
	c-0.729,0.532-1.706,0.603-2.507,0.182l-8.448-4.441l-8.445,4.441c-0.347,0.183-0.729,0.273-1.108,0.273
	c-0.493,0-0.987-0.154-1.399-0.455c-0.735-0.534-1.101-1.436-0.949-2.332l1.613-9.404l-6.835-6.66
	c-0.648-0.633-0.884-1.579-0.602-2.443c0.279-0.863,1.024-1.491,1.924-1.621l9.441-1.373l4.223-8.557
	c0.807-1.626,3.469-1.626,4.275,0l4.223,8.557l9.441,1.373C736.006,358.314,736.751,358.942,737.03,359.805z M513.437,342.257
	l-6.832-6.661c-0.648-0.633-0.884-1.581-0.602-2.443c0.279-0.863,1.024-1.491,1.924-1.621l9.441-1.371l4.223-8.557
	c0.807-1.626,3.469-1.626,4.275,0l4.223,8.557l9.441,1.371c0.9,0.13,1.644,0.759,1.924,1.621c0.282,0.863,0.047,1.81-0.602,2.443
	l-6.835,6.661l1.613,9.404c0.152,0.895-0.214,1.798-0.949,2.332c-0.413,0.301-0.906,0.455-1.399,0.455
	c-0.379,0-0.76-0.09-1.108-0.273l-8.445-4.441l-8.448,4.441c-0.8,0.42-1.781,0.351-2.507-0.181
	c-0.735-0.534-1.101-1.436-0.949-2.332L513.437,342.257z M694.714,333.152c0.282,0.863,0.047,1.81-0.602,2.443l-6.835,6.661
	l1.613,9.404c0.152,0.895-0.214,1.798-0.949,2.332c-0.413,0.301-0.906,0.455-1.399,0.455c-0.379,0-0.76-0.09-1.108-0.273
	l-8.445-4.441l-8.448,4.441c-0.804,0.42-1.778,0.351-2.507-0.181c-0.735-0.534-1.101-1.436-0.949-2.332l1.613-9.404l-6.832-6.661
	c-0.648-0.633-0.884-1.581-0.602-2.443c0.279-0.863,1.024-1.491,1.924-1.621l9.441-1.371l4.223-8.557
	c0.403-0.813,1.232-1.328,2.138-1.328c0.906,0,1.734,0.515,2.138,1.329l4.219,8.555l9.444,1.371
	C693.69,331.661,694.435,332.29,694.714,333.152z M569.342,328.315l-8.442-4.441l-8.448,4.443c-0.348,0.183-0.729,0.273-1.108,0.273
	c-0.493,0-0.987-0.154-1.399-0.455c-0.735-0.534-1.101-1.436-0.949-2.332l1.613-9.405l-6.832-6.66
	c-0.648-0.633-0.884-1.581-0.602-2.443c0.279-0.863,1.024-1.491,1.924-1.621l9.441-1.373l4.223-8.557
	c0.403-0.813,1.232-1.328,2.138-1.328s1.734,0.515,2.138,1.329l4.219,8.555l9.444,1.373c0.9,0.13,1.644,0.759,1.924,1.621
	c0.282,0.864,0.047,1.81-0.602,2.443l-6.835,6.66l1.613,9.405c0.152,0.895-0.214,1.798-0.949,2.332
	C571.123,328.666,570.149,328.742,569.342,328.315z M648.861,324.468c0.152,0.895-0.214,1.798-0.949,2.332
	c-0.729,0.534-1.706,0.602-2.507,0.182l-8.448-4.441l-8.445,4.441c-0.348,0.183-0.729,0.273-1.108,0.273
	c-0.493,0-0.987-0.154-1.399-0.455c-0.735-0.534-1.101-1.436-0.949-2.332l1.613-9.404l-6.835-6.66
	c-0.648-0.633-0.884-1.579-0.602-2.443c0.279-0.863,1.024-1.491,1.924-1.621l9.441-1.373l4.223-8.557
	c0.807-1.626,3.469-1.626,4.275,0l4.223,8.557l9.441,1.373c0.9,0.13,1.644,0.759,1.924,1.621c0.282,0.863,0.047,1.81-0.602,2.443
	l-6.832,6.66L648.861,324.468z M581.151,284.474c-0.648-0.633-0.884-1.581-0.602-2.443c0.279-0.863,1.024-1.491,1.924-1.621
	l9.441-1.373l4.223-8.557c0.403-0.813,1.232-1.328,2.138-1.328s1.734,0.515,2.138,1.329l4.219,8.555l9.444,1.373
	c0.9,0.13,1.644,0.759,1.924,1.621c0.282,0.864,0.047,1.81-0.602,2.443l-6.835,6.66l1.613,9.404
	c0.152,0.895-0.214,1.798-0.949,2.332c-0.413,0.301-0.906,0.455-1.399,0.455c-0.378,0-0.76-0.09-1.108-0.273l-8.445-4.441
	l-8.448,4.441c-0.804,0.42-1.781,0.347-2.507-0.182c-0.735-0.534-1.101-1.436-0.949-2.332l1.613-9.404L581.151,284.474z
	 M633.46,356.581l-12.776,12.114l12.776,12.116c0.726,0.687,0.946,1.755,0.549,2.671c-0.394,0.918-1.312,1.447-2.315,1.438
	l-17.011-0.914l0.878,17.995c0.05,1.018-0.552,1.953-1.499,2.33c-0.943,0.368-2.023,0.112-2.687-0.661l-11.377-13.233
	l-11.374,13.233c-0.462,0.538-1.126,0.83-1.806,0.83c-0.298,0-0.596-0.056-0.881-0.169c-0.946-0.377-1.548-1.312-1.499-2.33
	l0.875-17.995l-17.008,0.914c-0.99,0.014-1.92-0.52-2.315-1.438c-0.397-0.917-0.177-1.984,0.549-2.671l12.776-12.116l-12.776-12.114
	c-0.726-0.687-0.946-1.754-0.552-2.671c0.397-0.918,1.322-1.495,2.318-1.438l17.008,0.912l-0.875-17.995
	c-0.05-1.018,0.552-1.953,1.499-2.33c0.934-0.375,2.023-0.113,2.687,0.661l11.374,13.232l11.377-13.232
	c0.664-0.774,1.744-1.036,2.687-0.661c0.946,0.377,1.548,1.312,1.499,2.33l-0.878,17.995l17.011-0.912
	c1.005-0.053,1.92,0.52,2.318,1.438C634.406,354.827,634.186,355.894,633.46,356.581z M520.005,569.058
	c1.461-2.189,4.415-2.785,6.609-1.333l3.434,2.28c0.396-0.427,0.826-0.849,1.276-1.274l-1.3-1.776
	c-1.554-2.124-1.092-5.105,1.033-6.66c2.116-1.551,5.104-1.092,6.661,1.032l1.628,2.225c0.76-0.316,1.542-0.617,2.376-0.879
	l-0.498-1.102c-1.083-2.398-0.019-5.22,2.38-6.304c2.408-1.089,5.222-0.017,6.308,2.38l1.618,3.578c0.062,0,0.116-0.009,0.179-0.009
	c20.744,0,27.036,14.495,27.293,15.113c1.015,2.429-0.13,5.22-2.56,6.235c-2.411,1.002-5.184-0.119-6.214-2.513
	c-0.112-0.248-1.336-2.781-4.478-5.142c-1.562,5.978-6.971,10.425-13.449,10.425c-6.498,0-11.926-4.477-13.465-10.488
	c-3.793,3.012-5.057,6.59-5.079,6.652c-0.664,1.998-2.522,3.262-4.52,3.262c-0.5,0-1.005-0.079-1.505-0.245
	c-2.498-0.831-3.847-3.529-3.016-6.027c0.018-0.055,0.084-0.234,0.173-0.466l-3.549-2.357
	C519.149,574.208,518.55,571.252,520.005,569.058z M615.794,576.329c0.258-0.617,6.549-15.113,27.293-15.113
	c2.245,0,4.283,0.222,6.192,0.561l1.248-2.626c1.129-2.377,3.971-3.388,6.351-2.257c2.377,1.129,3.385,3.973,2.256,6.349
	l-0.027,0.057l0.899-0.949c1.812-1.908,4.828-1.99,6.736-0.182c1.734,1.642,1.879,4.24,0.555,6.142l0.596-0.396
	c2.184-1.455,5.15-0.861,6.605,1.333c1.458,2.192,0.862,5.15-1.331,6.607l-3.26,2.166c0.09,0.232,0.156,0.412,0.173,0.467
	c0.831,2.498-0.518,5.195-3.016,6.027c-0.5,0.166-1.005,0.245-1.505,0.245c-1.998,0-3.857-1.264-4.52-3.262
	c-0.081-0.227-1.378-3.698-5.067-6.636c-1.544,6.004-6.968,10.475-13.464,10.475c-6.49,0-11.911-4.467-13.458-10.466
	c-3.27,2.446-4.441,5.081-4.462,5.131c-1.015,2.428-3.794,3.571-6.233,2.561C615.924,581.549,614.779,578.758,615.794,576.329z
	 M579.795,627.763c1.908-2.535,5.693-3.348,8.535-3.583c0.918-0.073,1.852,0.121,2.668,0.56c3.127,1.694,7.629,3.509,9.345,3.509
	c1.995,0,6.18-1.706,8.38-2.861c0.313-0.164,0.645-0.293,0.99-0.385c1.601-0.424,5.644-1.196,8.619,0.807
	c1.567,1.053,2.56,2.674,2.799,4.562c0.329,2.612-1.52,4.997-4.13,5.327c-1.648,0.203-3.189-0.444-4.198-1.604
	c-0.087,0.011-0.168,0.023-0.248,0.037c-2.076,1.038-7.744,3.647-12.212,3.647c-4.086,0-9.702-2.536-12.466-3.922
	c-0.406,0.079-0.776,0.172-1.027,0.258c-1.663,1.553-4.247,1.731-6.121,0.321C578.628,632.852,578.209,629.864,579.795,627.763z
	 M579.909,469.88c1.055-3.833,2.132-6.359,2.175-6.464c1.036-2.42,3.841-3.545,6.258-2.501c2.417,1.035,3.537,3.833,2.507,6.25
	c-0.009,0.02-0.881,2.083-1.75,5.243c-0.583,2.114-2.501,3.503-4.592,3.503c-0.419,0-0.844-0.056-1.266-0.172
	C580.704,475.041,579.211,472.417,579.909,469.88z M550.624,466.625l0.493-1.319c0.838-2.265,1.443-3.901,3.124-7.162
	c1.207-2.338,4.086-3.25,6.419-2.049c2.339,1.207,3.258,4.081,2.051,6.421c-1.415,2.743-1.883,4.005-2.656,6.098l-0.509,1.368
	c-0.72,1.91-2.535,3.089-4.461,3.089c-0.558,0-1.126-0.099-1.679-0.307C550.944,471.837,549.7,469.088,550.624,466.625z
	 M606.961,467.498c-1.201-2.332-0.298-5.206,2.026-6.419c2.327-1.216,5.188-0.329,6.413,1.99c0.09,0.169,0.906,1.741,2.004,4.789
	c0.894,2.476-0.391,5.208-2.867,6.1c-0.534,0.192-1.08,0.284-1.616,0.284c-1.952,0-3.782-1.208-4.483-3.151
	C607.575,468.694,606.967,467.511,606.961,467.498z M634.974,463.474c-1.207-2.339-0.289-5.212,2.051-6.419
	c2.336-1.208,5.209-0.29,6.419,2.051c0.645,1.252,1.049,1.838,1.384,2.327c0.773,1.125,1.35,2.041,2.265,4.452
	c0.937,2.459-0.298,5.212-2.755,6.149c-0.558,0.213-1.132,0.313-1.697,0.313c-1.92,0-3.729-1.17-4.452-3.072
	c-0.58-1.523-0.779-1.812-1.213-2.443C636.522,466.174,635.902,465.272,634.974,463.474z M593.068,661.233
	c-8.244,0-22.711-0.377-26.955-2.904c-2.262-1.346-3.006-4.271-1.66-6.532c1.347-2.265,4.275-3,6.531-1.658
	c2.069,0.907,13.13,1.562,22.084,1.564c2.631,0,4.766,2.135,4.766,4.766C597.833,659.1,595.698,661.233,593.068,661.233z
	 M635.61,651.763c1.346,2.262,0.54,5.219-1.722,6.565c-4.244,2.527-18.712,2.904-26.955,2.904c-2.631,0-4.766-2.133-4.766-4.766
	c0-2.631,2.135-4.766,4.766-4.766c8.954-0.002,20.015-0.656,22.205-1.63C631.397,648.728,634.267,649.503,635.61,651.763z
	 M616.172,670.303c0.791,2.51-0.599,5.186-3.109,5.979c-4.142,1.308-8.389,1.744-12.202,1.744c-7.325,0-13.059-1.602-13.419-1.705
	c-2.532-0.723-3.996-3.362-3.273-5.892c0.723-2.529,3.36-3.991,5.882-3.276c0.106,0.028,10.831,2.978,20.139,0.042
	C612.713,666.394,615.378,667.794,616.172,670.303z M428.767,720.932c-0.714,1.097-1.136,1.795-1.536,2.462
	c-0.493,0.818-0.962,1.596-1.809,2.873c-0.915,1.384-2.432,2.133-3.974,2.133c-0.906,0-1.818-0.256-2.628-0.793
	c-2.197-1.454-2.795-4.412-1.34-6.605c0.742-1.122,1.154-1.804,1.585-2.524c0.447-0.743,0.915-1.52,1.71-2.743
	c1.443-2.209,4.393-2.831,6.596-1.396C429.577,715.774,430.201,718.726,428.767,720.932z M451.106,597.6
	c1.933-5.634,2.854-8.898,2.864-8.929c0.717-2.533,3.357-4.002,5.879-3.298c2.532,0.712,4.009,3.341,3.298,5.875
	c-0.04,0.141-0.993,3.525-3.025,9.446c-0.679,1.976-2.529,3.22-4.508,3.22c-0.512,0-1.033-0.084-1.545-0.259
	C451.578,602.8,450.253,600.09,451.106,597.6z M457.857,570.045c0.05-0.169,4.896-17.198,4.896-42.417
	c0-2.633,2.135-4.766,4.766-4.766s4.766,2.133,4.766,4.766c0,26.679-5.06,44.342-5.274,45.08c-0.608,2.08-2.51,3.431-4.573,3.431
	c-0.441,0-0.887-0.062-1.331-0.191C458.58,575.215,457.125,572.57,457.857,570.045z M772.759,720.932
	c-1.433-2.206-0.81-5.158,1.396-6.593c2.206-1.435,5.156-0.813,6.596,1.396c0.794,1.222,1.263,2,1.71,2.743
	c0.431,0.72,0.844,1.402,1.585,2.524c1.455,2.194,0.856,5.152-1.34,6.605c-0.81,0.537-1.722,0.793-2.628,0.793
	c-1.542,0-3.059-0.749-3.974-2.133c-0.847-1.277-1.315-2.055-1.809-2.873C773.895,722.727,773.473,722.029,772.759,720.932z
	 M747.557,588.671c0.009,0.031,0.931,3.295,2.864,8.929c0.853,2.49-0.472,5.2-2.963,6.055c-0.512,0.175-1.033,0.259-1.545,0.259
	c-1.979,0-3.829-1.244-4.508-3.22c-2.032-5.921-2.985-9.305-3.025-9.446c-0.711-2.533,0.766-5.163,3.298-5.875
	C744.206,584.667,746.844,586.138,747.557,588.671z M734.517,572.708c-0.214-0.738-5.274-18.401-5.274-45.08
	c0-2.633,2.135-4.766,4.766-4.766c2.631,0,4.766,2.133,4.766,4.766c0,25.219,4.846,42.248,4.896,42.417
	c0.732,2.525-0.723,5.17-3.248,5.904c-0.444,0.129-0.89,0.191-1.331,0.191C737.027,576.14,735.125,574.789,734.517,572.708z
	 M595.391,983.522v5.313h-4.046c-2.631,0-4.766,2.135-4.766,4.766s2.135,4.766,4.766,4.766h4.046v9.215
	c0,2.631,2.135,4.766,4.766,4.766s4.766-2.135,4.766-4.766v-9.215h4.235c2.631,0,4.766-2.135,4.766-4.766s-2.135-4.766-4.766-4.766
	h-4.235v-5.313c10.913-2.216,19.152-11.884,19.152-23.442c0-13.189-10.729-23.918-23.918-23.918
	c-13.189,0-23.921,10.729-23.921,23.918C576.236,971.638,584.477,981.306,595.391,983.522z M600.157,945.694
	c7.933,0,14.387,6.453,14.387,14.387s-6.453,14.39-14.387,14.39s-14.39-6.456-14.39-14.39S592.224,945.694,600.157,945.694z
	 M598.939,855c0.292,0.273,0.643,0.468,1.047,0.468c0.072,0,0.143-0.028,0.216-0.038c0.072,0.01,0.143,0.038,0.216,0.038
	c0.404,0,0.754-0.195,1.046-0.467c4.093-1.573,7.799-3.461,10.992-5.648c9.239-6.323,14.697-15.345,14.973-24.755
	c0.199-6.959-2.646-15.038-9.46-17.402c-5.958-2.064-13.851-0.835-17.739,4.364c-2.373-2.993-6.093-4.918-10.457-5.251
	c-5.631-0.416-10.785,1.849-13.549,5.935c-4.868,7.198-3.621,16.431-0.828,22.671C580.292,845.861,590.701,851.836,598.939,855z
	 M600.326,822.553l-0.018-6.368c0.029,0,0.057,0.005,0.087,0.004L600.326,822.553z M414.185,299.794
	c0,2.428-1.969,4.397-4.397,4.397c-5.618,0-10.189,4.57-10.189,10.188c0,2.428-1.969,4.397-4.397,4.397s-4.397-1.969-4.397-4.397
	c0-5.618-4.571-10.188-10.188-10.188c-2.428,0-4.397-1.969-4.397-4.397c0-2.428,1.969-4.397,4.397-4.397
	c5.617,0,10.188-4.571,10.188-10.188c0-2.428,1.969-4.397,4.397-4.397s4.397,1.969,4.397,4.397c0,5.618,4.571,10.188,10.189,10.188
	C412.216,295.397,414.185,297.366,414.185,299.794z M580.642,227.59c0-2.428,1.969-4.397,4.397-4.397
	c5.617,0,10.188-4.571,10.188-10.188c0-2.428,1.969-4.397,4.396-4.397c2.429,0,4.397,1.969,4.397,4.397
	c0,5.618,4.571,10.188,10.189,10.188c2.429,0,4.397,1.969,4.397,4.397c0,2.428-1.969,4.397-4.397,4.397
	c-5.618,0-10.189,4.57-10.189,10.188c0,2.428-1.969,4.397-4.397,4.397c-2.428,0-4.396-1.969-4.396-4.397
	c0-5.618-4.571-10.188-10.188-10.188C582.611,231.987,580.642,230.018,580.642,227.59z M823.676,299.757
	c0,2.428-1.969,4.397-4.396,4.397c-5.619,0-10.189,4.57-10.189,10.188c0,2.428-1.969,4.397-4.397,4.397
	c-2.429,0-4.397-1.969-4.397-4.397c0-5.618-4.57-10.188-10.188-10.188c-2.428,0-4.396-1.969-4.396-4.397
	c0-2.428,1.969-4.397,4.396-4.397c5.618,0,10.188-4.571,10.188-10.188c0-2.428,1.969-4.397,4.397-4.397
	c2.428,0,4.397,1.969,4.397,4.397c0,5.618,4.57,10.188,10.189,10.188C821.707,295.36,823.676,297.329,823.676,299.757z
	 M361.541,1062.01c1.021,1.024,1.533,2.259,1.533,3.704s-0.512,2.681-1.533,3.701c-1.046,1.024-2.293,1.536-3.739,1.536h-11.176
	v34.159c0,1.468-0.512,2.715-1.533,3.735c-1.024,1.024-2.259,1.536-3.704,1.536s-2.69-0.512-3.735-1.536
	c-1.024-1.021-1.533-2.268-1.533-3.735v-34.159h-11.144c-1.467,0-2.712-0.512-3.736-1.536c-1.024-1.021-1.533-2.256-1.533-3.701
	s0.509-2.681,1.533-3.704c1.024-1.042,2.268-1.567,3.736-1.567h32.825C359.248,1060.443,360.495,1060.967,361.541,1062.01z
	 M413.481,1062.01c1.021,1.024,1.533,2.259,1.533,3.704v39.397c0,1.468-0.512,2.715-1.533,3.735
	c-1.046,1.024-2.293,1.536-3.739,1.536s-2.681-0.512-3.701-1.536c-1.024-1.021-1.536-2.268-1.536-3.735v-14.446h-22.351v14.446
	c0,1.468-0.512,2.715-1.533,3.735c-1.024,1.024-2.259,1.536-3.704,1.536c-1.467,0-2.712-0.512-3.736-1.536
	c-1.024-1.021-1.533-2.268-1.533-3.735v-39.397c0-1.446,0.509-2.681,1.533-3.704c1.024-1.042,2.268-1.567,3.736-1.567
	c1.446,0,2.681,0.524,3.704,1.567c1.021,1.024,1.533,2.259,1.533,3.704v14.443h22.351v-14.443c0-1.446,0.512-2.681,1.536-3.704
	c1.021-1.042,2.256-1.567,3.701-1.567S412.435,1060.967,413.481,1062.01z M438.032,1070.951v9.205h21.017
	c1.446,0,2.69,0.512,3.736,1.536c1.024,1.024,1.536,2.268,1.536,3.736c0,1.446-0.512,2.681-1.536,3.704
	c-1.046,1.024-2.29,1.533-3.736,1.533h-21.017v9.208h27.588c1.446,0,2.69,0.512,3.736,1.533c1.024,1.024,1.536,2.259,1.536,3.704
	c0,1.468-0.512,2.715-1.536,3.735c-1.046,1.024-2.29,1.536-3.736,1.536h-32.825c-1.468,0-2.715-0.512-3.736-1.536
	c-1.024-1.021-1.536-2.268-1.536-3.735v-39.397c0-1.446,0.512-2.681,1.536-3.704c1.021-1.042,2.268-1.567,3.736-1.567h32.825
	c1.446,0,2.69,0.524,3.736,1.567c1.024,1.024,1.536,2.259,1.536,3.704s-0.512,2.681-1.536,3.701
	c-1.046,1.024-2.29,1.536-3.736,1.536H438.032z M522.161,1070.951v9.205h21.017c1.446,0,2.69,0.512,3.735,1.536
	c1.024,1.024,1.536,2.268,1.536,3.736c0,1.446-0.512,2.681-1.536,3.704c-1.046,1.024-2.29,1.533-3.735,1.533h-21.017v9.208h27.588
	c1.446,0,2.69,0.512,3.735,1.533c1.024,1.024,1.536,2.259,1.536,3.704c0,1.468-0.512,2.715-1.536,3.735
	c-1.046,1.024-2.29,1.536-3.735,1.536h-32.825c-1.468,0-2.715-0.512-3.735-1.536c-1.024-1.021-1.536-2.268-1.536-3.735v-39.397
	c0-1.446,0.512-2.681,1.536-3.704c1.021-1.042,2.268-1.567,3.735-1.567h32.825c1.446,0,2.69,0.524,3.735,1.567
	c1.024,1.024,1.536,2.259,1.536,3.704s-0.512,2.681-1.536,3.701c-1.046,1.024-2.29,1.536-3.735,1.536H522.161z M613.932,1062.779
	c0.599,0.887,0.9,1.868,0.9,2.935v39.397c0,1.468-0.524,2.715-1.57,3.735c-1.021,1.024-2.256,1.536-3.701,1.536
	s-2.681-0.512-3.701-1.536c-1.024-1.021-1.536-2.268-1.536-3.735v-26.719l-10.741,10.741c-1.024,1.024-2.268,1.533-3.736,1.533
	c-1.446,0-2.681-0.509-3.704-1.533l-10.741-10.741v26.719c0,1.468-0.512,2.715-1.536,3.735c-1.021,1.024-2.256,1.536-3.701,1.536
	c-1.468,0-2.715-0.512-3.735-1.536c-1.024-1.021-1.536-2.268-1.536-3.735v-39.397c0-1.067,0.301-2.048,0.9-2.935
	c0.58-0.869,1.359-1.514,2.336-1.936c0.977-0.4,1.989-0.5,3.034-0.301c1.046,0.223,1.948,0.714,2.702,1.468l15.981,15.981
	l16.012-15.981c0.754-0.754,1.644-1.244,2.668-1.468c1.046-0.198,2.057-0.099,3.034,0.301
	C612.564,1061.265,613.352,1061.91,613.932,1062.779z M652.262,1060.443h-19.683c-1.468,0-2.715,0.524-3.735,1.567
	c-1.024,1.024-1.536,2.259-1.536,3.704v39.397c0,1.468,0.512,2.715,1.536,3.735c1.021,1.024,2.268,1.536,3.735,1.536
	c1.446,0,2.681-0.512,3.701-1.536c1.024-1.021,1.536-2.268,1.536-3.735v-7.874h14.446c5.07,0,9.407-1.799,13.009-5.402
	c3.602-3.58,5.405-7.908,5.405-12.978s-1.803-9.407-5.405-13.009C661.669,1062.245,657.331,1060.443,652.262,1060.443z
	 M657.831,1084.429c-1.533,1.533-3.391,2.302-5.569,2.302h-14.446v-15.78h14.446c2.178,0,4.036,0.779,5.569,2.336
	c1.557,1.533,2.336,3.391,2.336,5.569C660.167,1081.013,659.388,1082.871,657.831,1084.429z M721.545,1087.829
	c1.579-2.78,2.367-5.771,2.367-8.973c0-5.07-1.799-9.407-5.405-13.009c-3.602-3.602-7.94-5.405-13.009-5.405h-19.683
	c-1.468,0-2.712,0.524-3.735,1.567c-1.024,1.024-1.533,2.259-1.533,3.704v39.397c0,1.468,0.509,2.715,1.533,3.735
	c1.024,1.024,2.268,1.536,3.735,1.536c1.446,0,2.681-0.512,3.704-1.536c1.021-1.021,1.533-2.268,1.533-3.735v-7.874h12.277
	l11.61,11.61c1.021,1.024,2.256,1.536,3.701,1.536s2.693-0.512,3.739-1.536c1.021-1.021,1.533-2.268,1.533-3.735
	c0-1.446-0.512-2.681-1.533-3.704l-7.04-7.037C717.965,1092.7,720.031,1090.522,721.545,1087.829z M711.071,1084.429
	c-1.536,1.533-3.394,2.302-5.572,2.302h-14.446v-15.78h14.446c2.178,0,4.036,0.779,5.572,2.336c1.554,1.533,2.333,3.391,2.333,5.569
	C713.404,1081.013,712.625,1082.871,711.071,1084.429z M744.293,1070.951v9.205h21.017c1.446,0,2.69,0.512,3.735,1.536
	c1.024,1.024,1.536,2.268,1.536,3.736c0,1.446-0.512,2.681-1.536,3.704c-1.046,1.024-2.29,1.533-3.735,1.533h-21.017v9.208h27.588
	c1.446,0,2.693,0.512,3.739,1.533c1.021,1.024,1.533,2.259,1.533,3.704c0,1.468-0.512,2.715-1.533,3.735
	c-1.046,1.024-2.293,1.536-3.739,1.536h-32.825c-1.468,0-2.712-0.512-3.735-1.536c-1.024-1.021-1.533-2.268-1.533-3.735v-39.397
	c0-1.446,0.509-2.681,1.533-3.704c1.024-1.042,2.268-1.567,3.735-1.567h32.825c1.446,0,2.693,0.524,3.739,1.567
	c1.021,1.024,1.533,2.259,1.533,3.704s-0.512,2.681-1.533,3.701c-1.046,1.024-2.293,1.536-3.739,1.536H744.293z M796.268,1072.319
	c-0.912,0.887-1.368,1.967-1.368,3.236c0,1.266,0.456,2.358,1.368,3.267c0.887,0.891,1.967,1.334,3.236,1.334h13.143
	c4.157,0,7.716,1.48,10.676,4.437c2.957,2.96,4.437,6.518,4.437,10.676c0,4.161-1.48,7.719-4.437,10.676
	c-2.96,2.957-6.518,4.437-10.676,4.437h-22.984c-1.468,0-2.715-0.512-3.735-1.536c-1.024-1.021-1.536-2.268-1.536-3.735
	c0-1.446,0.512-2.681,1.536-3.704c1.021-1.021,2.268-1.533,3.735-1.533h22.984c1.269,0,2.346-0.444,3.236-1.334
	c0.912-0.912,1.368-2.001,1.368-3.27c0-1.266-0.456-2.346-1.368-3.236c-0.89-0.912-1.967-1.368-3.236-1.368h-13.143
	c-4.161,0-7.719-1.477-10.676-4.437c-2.957-2.935-4.437-6.494-4.437-10.673c0-4.161,1.48-7.719,4.437-10.676
	c2.957-2.957,6.515-4.437,10.676-4.437h22.984c1.446,0,2.69,0.524,3.736,1.567c1.024,1.024,1.536,2.259,1.536,3.704
	s-0.512,2.681-1.536,3.701c-1.046,1.024-2.29,1.536-3.736,1.536h-22.984C798.235,1070.951,797.155,1071.407,796.268,1072.319z
	 M846.871,1072.319c-0.912,0.887-1.365,1.967-1.365,3.236c0,1.266,0.453,2.358,1.365,3.267c0.89,0.891,1.97,1.334,3.236,1.334
	h13.146c4.157,0,7.716,1.48,10.673,4.437c2.957,2.96,4.437,6.518,4.437,10.676c0,4.161-1.48,7.719-4.437,10.676
	c-2.957,2.957-6.515,4.437-10.673,4.437h-22.987c-1.468,0-2.712-0.512-3.735-1.536c-1.024-1.021-1.533-2.268-1.533-3.735
	c0-1.446,0.509-2.681,1.533-3.704c1.024-1.021,2.268-1.533,3.735-1.533h22.987c1.266,0,2.346-0.444,3.236-1.334
	c0.909-0.912,1.365-2.001,1.365-3.27c0-1.266-0.456-2.346-1.365-3.236c-0.89-0.912-1.97-1.368-3.236-1.368h-13.146
	c-4.157,0-7.716-1.477-10.673-4.437c-2.96-2.935-4.437-6.494-4.437-10.673c0-4.161,1.477-7.719,4.437-10.676
	c2.957-2.957,6.515-4.437,10.673-4.437h22.984c1.446,0,2.693,0.524,3.739,1.567c1.021,1.024,1.533,2.259,1.533,3.704
	s-0.512,2.681-1.533,3.701c-1.046,1.024-2.293,1.536-3.739,1.536h-22.984C848.841,1070.951,847.761,1071.407,846.871,1072.319z"/>
</svg>
