<?xml version="1.0" encoding="utf-8"?>
<!-- Generator: Adobe Illustrator 23.0.3, SVG Export Plug-In . SVG Version: 6.00 Build 0)  -->
<svg version="1.1" id="Capa_1" xmlns="http://www.w3.org/2000/svg" xmlns:xlink="http://www.w3.org/1999/xlink" x="0px" y="0px"
	 viewBox="0 0 1200 1200" enable-background="new 0 0 1200 1200" xml:space="preserve">
<path fill="hsl(290, 13%, 29%)" d="M423.987,1068.026c1.024,1.024,1.536,2.255,1.536,3.701s-0.512,2.681-1.536,3.704
	c-1.046,1.024-2.29,1.533-3.736,1.533h-11.176v34.159c0,1.471-0.512,2.715-1.536,3.739c-1.021,1.021-2.256,1.533-3.701,1.533
	s-2.693-0.512-3.736-1.533c-1.024-1.024-1.536-2.268-1.536-3.739v-34.159h-11.141c-1.467,0-2.715-0.509-3.736-1.533
	c-1.024-1.024-1.536-2.259-1.536-3.704s0.512-2.677,1.536-3.701c1.021-1.046,2.268-1.567,3.736-1.567h32.825
	C421.697,1066.459,422.941,1066.98,423.987,1068.026z M630.876,1066.459h-32.825c-1.468,0-2.712,0.521-3.735,1.567
	c-1.024,1.024-1.533,2.255-1.533,3.701v39.397c0,1.471,0.509,2.715,1.533,3.739c1.024,1.021,2.268,1.533,3.735,1.533
	c1.446,0,2.681-0.512,3.704-1.533c1.021-1.024,1.533-2.268,1.533-3.739v-14.443h21.017c1.446,0,2.69-0.512,3.735-1.536
	c1.024-1.021,1.536-2.256,1.536-3.701c0-1.468-0.512-2.715-1.536-3.735c-1.046-1.024-2.29-1.536-3.735-1.536h-21.017v-9.208h27.588
	c1.446,0,2.693-0.509,3.739-1.533c1.021-1.024,1.533-2.259,1.533-3.704s-0.512-2.677-1.533-3.701
	C633.569,1066.98,632.322,1066.459,630.876,1066.459z M476.861,1066.459c-1.446,0-2.681,0.521-3.704,1.567
	c-1.021,1.024-1.533,2.255-1.533,3.701v14.446h-22.351v-14.446c0-1.446-0.512-2.677-1.536-3.701
	c-1.021-1.046-2.256-1.567-3.701-1.567c-1.467,0-2.715,0.521-3.735,1.567c-1.024,1.024-1.536,2.255-1.536,3.701v39.397
	c0,1.471,0.512,2.715,1.536,3.739c1.021,1.021,2.268,1.533,3.735,1.533c1.446,0,2.681-0.512,3.701-1.533
	c1.024-1.024,1.536-2.268,1.536-3.739v-14.443h22.351v14.443c0,1.471,0.512,2.715,1.533,3.739c1.024,1.021,2.259,1.533,3.704,1.533
	s2.69-0.512,3.736-1.533c1.024-1.024,1.536-2.268,1.536-3.739v-39.397c0-1.446-0.512-2.677-1.536-3.701
	C479.551,1066.98,478.307,1066.459,476.861,1066.459z M537.408,1076.964c1.446,0,2.69-0.509,3.735-1.533
	c1.024-1.024,1.536-2.259,1.536-3.704s-0.512-2.677-1.536-3.701c-1.046-1.046-2.29-1.567-3.735-1.567h-32.825
	c-1.468,0-2.715,0.521-3.736,1.567c-1.024,1.024-1.536,2.255-1.536,3.701v39.397c0,1.471,0.512,2.715,1.536,3.739
	c1.021,1.021,2.268,1.533,3.736,1.533h32.825c1.446,0,2.69-0.512,3.735-1.533c1.024-1.024,1.536-2.268,1.536-3.739
	c0-1.443-0.512-2.678-1.536-3.701c-1.046-1.024-2.29-1.536-3.735-1.536H509.82v-9.205h21.017c1.446,0,2.69-0.512,3.736-1.536
	c1.024-1.021,1.536-2.256,1.536-3.701c0-1.468-0.512-2.715-1.536-3.735c-1.046-1.024-2.29-1.536-3.736-1.536H509.82v-9.208H537.408z
	 M690.656,1073.797c4.893,4.871,7.338,10.754,7.338,17.647c0,6.872-2.445,12.755-7.338,17.647
	c-4.871,4.868-10.753,7.303-17.647,7.303c-6.872,0-12.755-2.436-17.647-7.303c-4.868-4.893-7.303-10.775-7.303-17.647
	c0-6.894,2.435-12.776,7.303-17.647c4.893-4.893,10.775-7.338,17.647-7.338C679.903,1066.459,685.785,1068.904,690.656,1073.797z
	 M687.489,1091.444c0-3.981-1.415-7.384-4.238-10.208c-2.848-2.848-6.261-4.272-10.242-4.272c-3.981,0-7.384,1.424-10.208,4.272
	c-2.823,2.823-4.235,6.227-4.235,10.208s1.412,7.384,4.235,10.208c2.823,2.823,6.227,4.235,10.208,4.235
	c3.981,0,7.393-1.412,10.242-4.235C686.074,1098.828,687.489,1095.425,687.489,1091.444z M752.503,1073.797
	c4.893,4.871,7.338,10.754,7.338,17.647c0,6.872-2.445,12.755-7.338,17.647c-4.871,4.868-10.754,7.303-17.647,7.303
	c-6.872,0-12.755-2.436-17.647-7.303c-4.868-4.893-7.303-10.775-7.303-17.647c0-6.894,2.436-12.776,7.303-17.647
	c4.893-4.893,10.775-7.338,17.647-7.338C741.75,1066.459,747.632,1068.904,752.503,1073.797z M749.335,1091.444
	c0-3.981-1.415-7.384-4.238-10.208c-2.848-2.848-6.261-4.272-10.242-4.272s-7.384,1.424-10.207,4.272
	c-2.823,2.823-4.235,6.227-4.235,10.208s1.412,7.384,4.235,10.208c2.823,2.823,6.227,4.235,10.207,4.235s7.393-1.412,10.242-4.235
	C747.921,1098.828,749.335,1095.425,749.335,1091.444z M897.212,600l0.04,428.177c0,4.501-3.91,8.411-8.411,8.411H310.922
	c-4.449,0-8.051-3.568-8.134-7.997V600V86.981c0-3.089,1.203-5.993,3.387-8.178c2.184-2.184,5.088-3.387,8.177-3.387H600h285.648
	c3.089,0,5.993,1.203,8.177,3.387c2.184,2.184,3.387,5.088,3.387,8.177V600z M887.683,622.938h-19.479v-50.324h-16.773v-19.825
	h-17.92v16.776h-19.822v54.899h-26.307v-33.55h-37.743v42.701h-36.983v-67.099H691.69v56.424h-1.376
	c6.579,6.698,11.2,11.464,12.319,12.804c5.208,6.232-35.586,23.146-51.21,28.488c-0.984,0.336-2.35,0.758-4.048,1.245l-5.939,29.917
	c13.122,8.113,39.947,25.659,50.909,39.847c6.339-9.155,28.58-1.297,17.686,18.699c5.94,6.729,17.311,19.716,25.208,29.404
	c16.78-8.82,21.62-15.23,21.723-15.375c0.552-0.776,1.368-1.427,2.262-1.759c33.356-12.43,109.32-39.844,128.469-39.338
	L887.683,622.938z M609.378,801.775c0.182,3.711,0.494,8.454,0.838,13.664c0.077,1.159,0.15,2.305,0.225,3.455
	c36.961-5.981,64.871-12.929,85.898-19.736c-2.517-2.49-5.937-5.223-9.374-7.314c-0.773-0.47-1.398-1.096-1.89-1.803
	c-1.94,1.939-3.827,3.172-5.775,3.505c-7.812,1.335-19.081-8.108-14.868-13.725c0.788-1.05,1.536-2.06,2.28-3.065
	c-16.698-10.018-48.662-36.182-65.442-50.214c2.743,17.807,5.749,38.197,6.653,47.607c2.393-0.599,6.551-0.403,8.783,6.925
	C619.266,789.482,617.968,795.858,609.378,801.775z M586.757,695.782l4.371-18.811c-13.708,1.936-28.236,3.314-42.01,3.458
	c-1.215,5.758-1.48,12.457,0.563,19.534l2.268,7.787c10.947,37.411,18.266,64.675,19.639,79.161
	c7.149-1.796,18.353-4.881,27.091-8.475c-0.001-0.048-0.014-0.093-0.014-0.141c0-7.353-8.486-61.388-11.756-81.587L586.757,695.782z
	 M599.033,712.202c22.587,19.165,58.75,48.404,73.237,56.904c7.097-9.976,11.78-17.488,15.132-23.804
	c-3.382-9.994-34.871-32.31-56.666-45.259c-2.265-1.343-3.01-4.268-1.666-6.531c0.777-1.302,2.077-2.08,3.469-2.268l4.583-23.085
	c-9.284,2.267-21.864,4.961-35.847,7.256l-4.807,20.695C596.907,698.823,597.856,704.727,599.033,712.202z M571.713,136.809
	c0,6.872,2.436,12.755,7.307,17.647c4.893,4.87,10.775,7.305,17.647,7.305c6.894,0,12.776-2.436,17.644-7.305
	c4.893-4.893,7.341-10.775,7.341-17.647c0-6.894-2.448-12.776-7.341-17.647c-4.868-4.891-10.75-7.338-17.644-7.338
	c-6.872,0-12.755,2.446-17.647,7.338C574.148,124.033,571.713,129.915,571.713,136.809z M312.319,607.307h60.649v25.925h14.871
	v-54.9h21.349v-12.199h35.456v12.199h25.925v35.075h33.994c14.509-36.403,26.161-75.254,25.288-85.208
	c-1.906-21.731-1.717-49.863-1.144-65.193c0.077-2.057-5.028,1.973-6.481,3.431c-9.073,9.106-29.223,25.548-33.979,30.426
	c-5.948,6.101-77.615,27.56-80.622,28.459c-0.07,0.021-0.136,0.037-0.208,0.052c-2.118,0.424-34.173,6.537-46.76-9.815
	c-0.123-0.159-0.218-0.311-0.332-0.469l-9.425,5.479c-0.754,0.437-1.579,0.645-2.392,0.645c-1.641,0-3.239-0.849-4.123-2.37
	c-1.322-2.276-0.549-5.192,1.725-6.515l12.033-6.995c2.594-6.828,14.341-10.246,19.743-11.477l203.913-118.532
	c1.655-3.039,3-6.1,4.382-8.964c5.243-10.868-9.421-15.18-12.391-24.209c-2.383-7.244,5.528-9.245,5.528-9.245
	s-0.667-2.288-0.286-3.622s1.811-2.288,1.811-2.288s-0.19-2.478,0.953-3.05c1.144-0.572,2.954-0.286,2.954-0.286l-1.048-5.242
	c-0.382-2.288,1.396-3.203,2.668-3.431c1.792-0.321,3.773-0.993,9.246-2.383c6.151-1.562,8.818-6.987,13.221-10.71
	c1.39-4.675,7.935-17.286,36.531-0.442c10.295,6.064,16.539,15.863,19.143,25.791l109.993-63.938
	c2.277-1.32,5.194-0.549,6.515,1.725c0.373,0.643,0.562,1.336,0.615,2.03c4.163,8.72,11.014,23.796,16.149,34.701
	c7.708,16.369,26.205,66.918-14.404,76.225c-36.6,8.387-57.202-10.124-51.995-40.17c3.347-19.312,11.582-37.668,17.042-48.328
	l-82.533,47.975c0.075,6.521-1.443,12.535-4.513,16.885c-8.95,12.678-13.921,23.385-8.006,26.115
	c4.956,2.288-0.287,6.481-8.006,6.481c-5.59,0-13.91-1.404-20.884-6.643l-1.609,3.402c-1.525,4.194,1.354,6.67,3.05,6.862
	c8.017,0.909,24.958,3.702,37.65,20.83c14.819,19.999,35.244,36.404,39.235,39.525c0.448,0.351,0.98,0.511,1.547,0.464
	c6.807-0.57,52.327-4.368,67.265-5.244c0.309-0.018,0.583-0.095,0.858-0.234c2.84-1.439,19.881-9.968,32.573-14.036
	c13.887-4.451,26.907-8.012,20.831-2.671c-1.402,1.233-2.989,2.323-4.6,3.271c-1.994,1.173-1.09,4.224,1.223,4.185
	c6.622-0.112,14.224,0.11,18.133,1.446c5.644,1.93,4.469,4.316-0.534,5.16c4.517,0.215,9.297,1.218,8.346,4.632
	c-0.914,3.281-7.595,3.593-13.723,3.16c3.215,0.9,6.091,2.381,6.78,4.852c0.814,2.923-4.109,3.093-9.557,2.461
	c2.49,1.187,4.349,2.937,4.349,5.551c0,7.378-41.22-1.853-47.741-3.359c-0.561-0.13-1.129-0.045-1.626,0.245
	c-7.027,4.096-60.853,34.868-85.167,30.711c-22.31-3.814-53.54-29.847-62.027-37.226c-1.121-0.975-2.848-0.621-3.5,0.714
	c-4.302,8.805-18.187,37.168-24.74,49.865c-7.811,15.134-1.736,32.049,1.736,38.28c2.407,4.321,41.932,44.145,67.693,70.251h1.232
	v-56.423h40.029v67.099h17.921v-42.701h56.805v33.55h7.245v-54.899h19.822v-16.776h36.983v19.826h16.773v50.324h9.946l-0.001-13.406
	V600V86.981c0-0.559-0.201-1.042-0.596-1.438c-0.198-0.198-0.417-0.347-0.657-0.446c-0.24-0.099-0.501-0.15-0.78-0.15H716.004
	c-0.185,6.685-0.907,13.237-2.159,19.605l75.913,21.035c2.538,0.703,4.024,3.328,3.32,5.864c-0.583,2.111-2.501,3.495-4.589,3.495
	c-0.422,0-0.85-0.057-1.275-0.175l-75.602-20.948c-2.402,8.504-5.698,16.637-9.837,24.255l35.09,17.578
	c2.352,1.179,3.304,4.043,2.125,6.396c-0.835,1.668-2.516,2.633-4.263,2.633c-0.717,0-1.446-0.163-2.131-0.506l-35.746-17.907
	c-5.541,8.49-12.116,16.245-19.583,23.046l42.559,43.301c1.846,1.877,1.821,4.894-0.056,6.739c-0.928,0.912-2.135,1.367-3.341,1.367
	c-1.232,0-2.467-0.476-3.397-1.426l-43.102-43.853c-8.195,6.344-17.228,11.651-26.921,15.696l12.703,34.614
	c0.906,2.47-0.36,5.208-2.833,6.115c-0.54,0.199-1.095,0.293-1.641,0.293c-1.942,0-3.767-1.196-4.474-3.126l-12.697-34.597
	c-10.087,3.279-20.759,5.24-31.819,5.679v54.726c0,2.633-2.135,4.766-4.766,4.766s-4.766-2.133-4.766-4.766V200.12
	c-10.736-0.427-21.112-2.272-30.936-5.38l-12.587,34.298c-0.707,1.93-2.532,3.126-4.474,3.126c-0.546,0-1.101-0.095-1.641-0.293
	c-2.473-0.908-3.739-3.646-2.833-6.115l12.577-34.271c-9.796-3.997-18.94-9.261-27.228-15.598l-42.672,43.413
	c-0.931,0.949-2.166,1.426-3.397,1.426c-1.207,0-2.414-0.455-3.341-1.367c-1.877-1.844-1.902-4.862-0.056-6.739l42.102-42.833
	c-7.573-6.816-14.254-14.597-19.875-23.138l-34.994,17.53c-0.686,0.343-1.415,0.506-2.131,0.506c-1.747,0-3.428-0.965-4.263-2.633
	c-1.179-2.353-0.226-5.217,2.125-6.396l34.318-17.191c-4.197-7.655-7.547-15.83-9.985-24.387l-74.681,20.693
	c-0.425,0.118-0.853,0.175-1.275,0.175c-2.088,0-4.005-1.384-4.589-3.495c-0.704-2.536,0.782-5.161,3.32-5.864l74.968-20.773
	c-1.283-6.449-2.018-13.09-2.206-19.867H314.352c-0.469,0-0.871,0.173-1.226,0.452c-0.068,0.054-0.148,0.08-0.211,0.143
	c-0.395,0.395-0.596,0.879-0.596,1.438V600V607.307z M765.704,307.717c0.36,1.788,2.961,1.65,3.128-0.167l2.916-31.616
	l-11.137,6.474L765.704,307.717z M388.335,498.807c3.613,1.854,8.194,3.284,13.116,2.507c11.283-1.78,65.965-27.598,70.305-32.939
	c2.11-2.597,13.924-18.568,29.063-34.954L388.335,498.807z M506.729,1027.058c-1.006-39.988-30.316-73.312-39.022-82.336
	l-10.647,41.064c-0.738,2.845-3.208,4.744-6.093,4.744c-0.152,0-0.301-0.006-0.456-0.016c-3.081-0.211-5.482-2.507-5.845-5.578
	c-1.657-14.232-24.839-47.603-50.926-54.09c-20.145-5.011-30.725-12.463-32.341-22.779c-2.516-16.059,19.335-30.101,21.833-31.649
	c0.158-0.096,0.32-0.186,0.487-0.264c0.694-0.324,66.747-30.823,189.8-51.472l-0.825-10.797c-5.986,0.121-10.79-1.236-13.105-4.708
	c-4.879-7.318-4.638-16.528,2.716-19.807c-0.974-15.619-14.2-60.83-19.5-78.941l-2.28-7.822c-2.336-8.091-2.287-15.677-1.137-22.297
	c-19.419-0.721-36.398-4.447-45.931-13.41c0,0-9.832-3.456,6.659-42.627c0.186-0.443,0.371-0.89,0.557-1.335h-39.633v-35.075
	h-25.925v-12.199h-16.394v12.199H397.37v54.9h-33.933v-25.925h-51.118v410.219H506.729z M493.059,960.941V945.6l-15.449-4.293
	C481.659,945.733,487.31,952.439,493.059,960.941z M526.611,961.229l-10.735-6.134c-4.261-2.435-8.715-4.509-13.285-6.287v27.735
	h-0.209c7.478,14.356,13.461,31.641,13.881,50.514h10.348V961.229z M560.159,980.234c-0.402-0.182-0.823-0.305-1.21-0.526
	l-22.807-13.032v60.382h24.017V980.234z M593.71,945.516l-0.425,0.203c-3.059,1.461-5.402,4.018-6.596,7.198l-7.276,19.4
	c-1.471,3.928-4.576,6.996-8.523,8.424c-0.392,0.141-0.801,0.184-1.201,0.29v46.026h24.02V945.516z M627.258,929.471l-24.017,11.486
	v86.1h24.017V929.471z M660.81,964.168c-2.271-1.136-4.216-2.897-5.575-5.201l-18.119-30.666c-0.087-0.148-0.222-0.242-0.326-0.372
	v99.128h24.02V964.168z M694.358,930.428l-15.684,28.229c-1.828,3.292-4.823,5.574-8.334,6.49v61.91h24.017V930.428z
	 M727.909,914.589l-18.302-1.308c-2.06-0.158-4.086,0.46-5.718,1.65v112.126h24.02V914.589z M761.457,911.507l-24.017,3.002v112.549
	h24.017V911.507z M795.005,909.321c-6.176-0.549-12.395-0.458-18.557,0.312l-5.461,0.682v116.742h24.017V909.321z M801.527,900.48
	c24.036,3.578,65.541,9.834,86.183,13.408l-0.017-177.541c-0.161-0.046-0.323-0.076-0.482-0.139
	c-7.716-1.741-68.648,18.104-123.43,38.472c-2.186,2.534-8.04,8.27-20.938,15.428c1.147,1.239,2.23,2.838,3.045,5.077
	c5.336,14.675-6.128,23.964-11.023,27.932c-0.754,0.608-1.409,1.111-1.837,1.551c-2.566,2.634-13.906,15.569-18.06,20.328
	c-0.481,0.552-1.055,1.018-1.694,1.374c-16.903,9.413-23.899,11.216-27.287,11.216c-1.291,0-2.057-0.261-2.646-0.462
	c-2.401-0.822-4.161-2.78-4.707-5.24c-0.546-2.463-1.452-6.549,14.238-21.839c1.795-5.108,5.153-15.192,6.71-21.883
	c-21.82,7.071-50.625,14.199-88.55,20.293c1.45,24.754,1.877,45.657-2.169,51.051c-7.207,9.612-25.556,20.834-45.661,27.923
	c-4.914,1.731-9.118,2.597-12.593,2.597c-3.717,0-6.599-0.99-8.613-2.975c-2.91-2.867-3.596-7.719-1.831-12.981
	c2.696-8.054,30.384-32.195,35.835-36.893l-1.754-22.954c-117.29,19.761-181.717,48.394-186.235,50.446
	c-5.135,3.261-18.491,13.71-17.198,21.926c0.925,5.858,9.882,11.182,25.227,14.998c23.775,5.914,46.219,31.072,54.689,50.625
	l8.008-30.886c0.974-3.76,3.363-6.897,6.726-8.836c3.36-1.936,7.266-2.429,11.014-1.396l19.27,5.355
	c8.675,2.408,17.036,5.895,24.855,10.363l43.073,24.613c1.232,0.711,2.653,0.831,3.974,0.344c1.334-0.481,2.342-1.477,2.839-2.802
	l7.276-19.404c2.063-5.498,6.115-9.919,11.405-12.451l39.3-18.795c6.146-2.932,13.385-0.732,16.847,5.132l18.119,30.666
	c1.058,1.787,2.677,1.964,3.481,1.955c0.692-0.009,2.414-0.23,3.422-2.048l22.748-40.945c0.379-0.681,0.813-1.319,1.269-1.937
	v-0.179h0.117c3.678-4.861,9.644-7.634,15.812-7.192l23.021,1.644l41.959-5.243C783.991,899.084,792.833,899.18,801.527,900.48z
	 M828.557,914.179c-8.633-1.31-16.892-2.55-24.02-3.615v116.493h24.02V914.179z M857.532,918.639
	c-6.301-0.987-12.876-2.003-19.444-3.008v111.426h19.444V918.639z M887.72,1027.058l-0.009-103.494
	c-5.437-0.956-12.574-2.131-20.648-3.419v106.913H887.72z M596.667,151.253c3.981,0,7.393-1.412,10.242-4.237
	c2.823-2.823,4.235-6.227,4.235-10.207s-1.412-7.383-4.235-10.207c-2.848-2.847-6.261-4.271-10.242-4.271
	c-3.984,0-7.384,1.424-10.207,4.271c-2.826,2.825-4.238,6.227-4.238,10.207s1.412,7.384,4.238,10.207
	C589.283,149.841,592.683,151.253,596.667,151.253z M922.628,86.981V600v513.019c0,9.878-3.847,19.165-10.831,26.15
	c-6.984,6.985-16.271,10.831-26.149,10.831H600H314.352c-9.878,0-19.164-3.847-26.149-10.831
	c-6.985-6.985-10.831-16.271-10.831-26.15V600V86.981c0-9.878,3.847-19.165,10.831-26.149C295.188,53.847,304.474,50,314.352,50H600
	h285.648c9.879,0,19.165,3.847,26.149,10.831C918.781,67.816,922.628,77.103,922.628,86.981z M913.097,86.981
	c0-7.58-3.072-14.442-8.04-19.41c-4.967-4.968-11.83-8.04-19.41-8.04H600H314.352c-7.58,0-14.442,3.072-19.41,8.04
	c-4.967,4.967-8.04,11.83-8.04,19.41V600v513.019c0,7.58,3.072,14.443,8.04,19.41c4.967,4.968,11.83,8.04,19.41,8.04H600h285.648
	c7.58,0,14.443-3.072,19.41-8.04c4.968-4.967,8.04-11.83,8.04-19.41V600V86.981z M805.911,1105.887h-21.017v-34.159
	c0-1.446-0.512-2.677-1.536-3.701c-1.021-1.046-2.256-1.567-3.701-1.567c-1.468,0-2.715,0.521-3.735,1.567
	c-1.024,1.024-1.536,2.255-1.536,3.701v39.397c0,1.471,0.512,2.715,1.536,3.739c1.021,1.021,2.268,1.533,3.735,1.533h26.254
	c1.446,0,2.69-0.512,3.735-1.533c1.024-1.024,1.536-2.268,1.536-3.739c0-1.443-0.512-2.678-1.536-3.701
	C808.601,1106.399,807.357,1105.887,805.911,1105.887z"/>
</svg>
