<?xml version="1.0" encoding="utf-8"?>
<!-- Generator: Adobe Illustrator 23.0.3, SVG Export Plug-In . SVG Version: 6.00 Build 0)  -->
<svg version="1.1" id="Capa_1" xmlns="http://www.w3.org/2000/svg" xmlns:xlink="http://www.w3.org/1999/xlink" x="0px" y="0px"
	 viewBox="0 0 1200 1200" enable-background="new 0 0 1200 1200" xml:space="preserve">
<path fill="hsl(290, 13%, 29%)" d="M911.796,60.831C904.812,53.847,895.525,50,885.647,50H600H314.352c-9.877,0-19.164,3.847-26.149,10.831
	c-6.985,6.985-10.831,16.272-10.831,26.149V600v513.019c0,9.878,3.846,19.164,10.831,26.149
	c6.986,6.985,16.272,10.832,26.149,10.832H600h285.647c9.878,0,19.165-3.847,26.149-10.831c6.985-6.984,10.832-16.271,10.832-26.15
	V600V86.981C922.628,77.102,918.781,67.816,911.796,60.831z M913.097,600v513.019c0,7.58-3.072,14.443-8.04,19.41
	c-4.967,4.968-11.829,8.04-19.41,8.04H600H314.352c-7.58,0-14.442-3.072-19.41-8.04c-4.967-4.967-8.04-11.83-8.04-19.41V600V86.981
	c0-7.58,3.072-14.442,8.04-19.41c4.968-4.968,11.83-8.04,19.41-8.04H600h285.647c7.58,0,14.443,3.072,19.41,8.04
	c4.968,4.967,8.04,11.83,8.04,19.41V600z M377.893,1066.065c1.024,1.024,1.536,2.256,1.536,3.701s-0.512,2.681-1.536,3.704
	c-1.042,1.024-2.29,1.533-3.736,1.533h-11.175v34.159c0,1.471-0.512,2.715-1.533,3.739c-1.024,1.021-2.259,1.533-3.704,1.533
	s-2.693-0.512-3.736-1.533c-1.024-1.024-1.533-2.268-1.533-3.739v-34.159h-11.144c-1.468,0-2.712-0.509-3.736-1.533
	c-1.024-1.024-1.533-2.259-1.533-3.704s0.509-2.677,1.533-3.701c1.024-1.046,2.268-1.567,3.736-1.567h32.825
	C375.604,1064.498,376.851,1065.019,377.893,1066.065z M434.503,1066.065c1.024,1.024,1.536,2.256,1.536,3.701v39.396
	c0,1.471-0.512,2.715-1.536,3.739c-1.042,1.021-2.29,1.533-3.736,1.533s-2.681-0.512-3.704-1.533
	c-1.021-1.024-1.533-2.268-1.533-3.739v-14.443h-22.351v14.443c0,1.471-0.512,2.715-1.533,3.739
	c-1.024,1.021-2.259,1.533-3.704,1.533c-1.468,0-2.712-0.512-3.736-1.533c-1.024-1.024-1.533-2.268-1.533-3.739v-39.396
	c0-1.446,0.509-2.677,1.533-3.701c1.024-1.046,2.268-1.567,3.736-1.567c1.446,0,2.681,0.521,3.704,1.567
	c1.021,1.024,1.533,2.256,1.533,3.701v14.446h22.351v-14.446c0-1.446,0.512-2.677,1.533-3.701c1.024-1.046,2.259-1.567,3.704-1.567
	S433.461,1065.019,434.503,1066.065z M463.726,1075.003v9.208h21.017c1.446,0,2.69,0.512,3.736,1.536
	c1.024,1.021,1.536,2.268,1.536,3.736c0,1.446-0.512,2.681-1.536,3.701c-1.046,1.024-2.29,1.536-3.736,1.536h-21.017v9.205h27.588
	c1.446,0,2.69,0.512,3.739,1.536c1.021,1.024,1.533,2.259,1.533,3.701c0,1.471-0.512,2.715-1.533,3.739
	c-1.049,1.021-2.293,1.533-3.739,1.533h-32.825c-1.467,0-2.715-0.512-3.736-1.533c-1.024-1.024-1.536-2.268-1.536-3.739v-39.396
	c0-1.446,0.512-2.677,1.536-3.701c1.021-1.046,2.268-1.567,3.736-1.567h32.825c1.446,0,2.69,0.521,3.739,1.567
	c1.021,1.024,1.533,2.256,1.533,3.701s-0.512,2.681-1.533,3.704c-1.049,1.024-2.293,1.533-3.739,1.533H463.726z M588.521,1066.065
	c1.024,1.024,1.533,2.256,1.533,3.701v39.396c0,1.471-0.509,2.715-1.533,3.739c-1.046,1.021-2.29,1.533-3.735,1.533
	c-1.446,0-2.681-0.512-3.705-1.533c-1.024-1.024-1.533-2.268-1.533-3.739v-14.443h-22.351v14.443c0,1.471-0.515,2.715-1.536,3.739
	c-1.021,1.021-2.256,1.533-3.701,1.533c-1.471,0-2.715-0.512-3.735-1.533c-1.024-1.024-1.536-2.268-1.536-3.739v-39.396
	c0-1.446,0.512-2.677,1.536-3.701c1.021-1.046,2.265-1.567,3.735-1.567c1.446,0,2.681,0.521,3.701,1.567
	c1.021,1.024,1.536,2.256,1.536,3.701v14.446h22.351v-14.446c0-1.446,0.509-2.677,1.533-3.701c1.024-1.046,2.259-1.567,3.705-1.567
	C586.232,1064.498,587.476,1065.019,588.521,1066.065z M617.741,1075.003v9.208h21.017c1.446,0,2.693,0.512,3.735,1.536
	c1.024,1.021,1.539,2.268,1.539,3.736c0,1.446-0.515,2.681-1.539,3.701c-1.042,1.024-2.29,1.536-3.735,1.536h-21.017v9.205h27.588
	c1.446,0,2.693,0.512,3.739,1.536c1.021,1.024,1.536,2.259,1.536,3.701c0,1.471-0.515,2.715-1.536,3.739
	c-1.046,1.021-2.293,1.533-3.739,1.533h-32.825c-1.464,0-2.712-0.512-3.735-1.533c-1.024-1.024-1.533-2.268-1.533-3.739v-39.396
	c0-1.446,0.509-2.677,1.533-3.701c1.024-1.046,2.271-1.567,3.735-1.567h32.825c1.446,0,2.693,0.521,3.739,1.567
	c1.021,1.024,1.536,2.256,1.536,3.701s-0.515,2.681-1.536,3.704c-1.046,1.024-2.293,1.533-3.739,1.533H617.741z M706.143,1091.884
	c1.579-2.78,2.367-5.771,2.367-8.973c0-5.073-1.799-9.407-5.405-13.012c-3.599-3.602-7.936-5.402-13.006-5.402h-19.683
	c-1.471,0-2.715,0.521-3.735,1.567c-1.024,1.024-1.536,2.256-1.536,3.701v39.396c0,1.471,0.512,2.715,1.536,3.739
	c1.021,1.021,2.265,1.533,3.735,1.533c1.446,0,2.681-0.512,3.701-1.533c1.021-1.024,1.536-2.268,1.536-3.739v-7.871h12.274
	l11.61,11.61c1.024,1.021,2.259,1.533,3.704,1.533s2.69-0.512,3.736-1.533c1.024-1.024,1.533-2.268,1.533-3.739
	c0-1.443-0.509-2.677-1.533-3.701l-7.04-7.04C702.563,1096.755,704.632,1094.574,706.143,1091.884z M695.669,1088.481
	c-1.536,1.536-3.391,2.302-5.569,2.302h-14.446v-15.78H690.1c2.178,0,4.033,0.779,5.569,2.336c1.554,1.536,2.336,3.391,2.336,5.572
	C698.005,1085.068,697.223,1086.926,695.669,1088.481z M772.095,1066.831c0.602,0.891,0.9,1.868,0.9,2.935v39.396
	c0,1.471-0.521,2.715-1.57,3.739c-1.021,1.021-2.256,1.533-3.701,1.533s-2.678-0.512-3.701-1.533
	c-1.024-1.024-1.536-2.268-1.536-3.739v-26.719l-10.741,10.741c-1.021,1.024-2.268,1.536-3.736,1.536
	c-1.446,0-2.681-0.512-3.701-1.536l-10.744-10.741v26.719c0,1.471-0.512,2.715-1.536,3.739c-1.021,1.021-2.256,1.533-3.701,1.533
	c-1.468,0-2.715-0.512-3.735-1.533c-1.024-1.024-1.536-2.268-1.536-3.739v-39.396c0-1.067,0.301-2.045,0.9-2.935
	c0.58-0.866,1.359-1.511,2.339-1.933c0.974-0.4,1.986-0.503,3.034-0.301c1.042,0.22,1.945,0.711,2.699,1.468l15.981,15.978
	l16.012-15.978c0.757-0.757,1.644-1.247,2.668-1.468c1.046-0.202,2.057-0.099,3.034,0.301
	C770.726,1065.32,771.517,1065.965,772.095,1066.831z M799.112,1066.065c1.024,1.024,1.536,2.256,1.536,3.701v39.396
	c0,1.471-0.512,2.715-1.536,3.739c-1.021,1.021-2.256,1.533-3.701,1.533c-1.468,0-2.715-0.512-3.735-1.533
	c-1.024-1.024-1.536-2.268-1.536-3.739v-39.396c0-1.446,0.512-2.677,1.536-3.701c1.021-1.046,2.268-1.567,3.735-1.567
	C796.856,1064.498,798.091,1065.019,799.112,1066.065z M855.721,1066.065c1.024,1.024,1.536,2.256,1.536,3.701
	s-0.512,2.681-1.536,3.704c-1.042,1.024-2.29,1.533-3.736,1.533H840.81v34.159c0,1.471-0.512,2.715-1.533,3.739
	c-1.024,1.021-2.259,1.533-3.705,1.533s-2.693-0.512-3.735-1.533c-1.024-1.024-1.533-2.268-1.533-3.739v-34.159h-11.144
	c-1.468,0-2.712-0.509-3.736-1.533c-1.024-1.024-1.533-2.259-1.533-3.704s0.509-2.677,1.533-3.701
	c1.024-1.046,2.268-1.567,3.736-1.567h32.825C853.432,1064.498,854.679,1065.019,855.721,1066.065z M565.305,160.225
	c-1.024-1.022-1.536-2.268-1.536-3.737v-39.397c0-1.446,0.512-2.679,1.536-3.703c1.021-1.044,2.268-1.567,3.736-1.567
	c1.446,0,2.681,0.523,3.701,1.567c1.024,1.024,1.536,2.257,1.536,3.703v39.397c0,1.469-0.512,2.715-1.536,3.737
	c-1.021,1.022-2.256,1.534-3.701,1.534C567.573,161.759,566.325,161.248,565.305,160.225z M590.088,153.153l13.611-16.346
	l-13.611-16.346c-0.934-1.112-1.334-2.391-1.201-3.836s0.757-2.636,1.868-3.57c1.111-0.934,2.389-1.334,3.838-1.201
	c1.443,0.133,2.634,0.757,3.568,1.868l12.376,14.878l12.376-14.878c0.934-1.111,2.122-1.734,3.568-1.868
	c1.446-0.133,2.724,0.267,3.838,1.201c1.111,0.934,1.734,2.124,1.868,3.57c0.133,1.446-0.267,2.724-1.201,3.836l-13.611,16.346
	l13.611,16.346c0.934,1.112,1.334,2.391,1.201,3.836c-0.133,1.446-0.757,2.625-1.868,3.535c-0.98,0.824-2.1,1.235-3.369,1.235
	c-1.623,0-2.969-0.634-4.036-1.902l-12.376-14.844l-12.376,14.844c-1.067,1.267-2.414,1.902-4.036,1.902
	c-1.291,0-2.414-0.411-3.369-1.235c-1.111-0.911-1.734-2.09-1.868-3.535S589.154,154.265,590.088,153.153z M601.462,623.128v16.776
	c0,2.633-2.135,4.766-4.766,4.766s-4.766-2.133-4.766-4.766v-16.776c0-2.633,2.135-4.766,4.766-4.766
	S601.462,620.496,601.462,623.128z M675.549,550.641c1.992,1.719,2.215,4.728,0.496,6.722c-0.94,1.094-2.271,1.654-3.611,1.654
	c-1.101,0-2.209-0.38-3.109-1.156c-45.651-39.355-39.632-89.066-39.356-91.161c0.347-2.609,2.758-4.452,5.352-4.097
	c2.606,0.346,4.44,2.736,4.099,5.341C639.36,468.407,633.931,514.763,675.549,550.641z M711.132,822.646v70.149
	c0,2.631-2.135,4.766-4.766,4.766s-4.766-2.135-4.766-4.766v-70.149c0-2.631,2.135-4.766,4.766-4.766
	S711.132,820.015,711.132,822.646z M711.132,752.496v47.277c0,2.631-2.135,4.766-4.766,4.766s-4.766-2.135-4.766-4.766v-47.277
	c0-2.631,2.135-4.766,4.766-4.766S711.132,749.865,711.132,752.496z M700.841,446.739c0-62.442-9.271-71.991-10.598-73.033
	c-2.104-0.217-3.881-1.827-4.216-4.016c-0.4-2.602,1.384-5.034,3.987-5.434c0.968-0.144,3.596-0.231,6.55,2.307
	c9.162,7.862,13.81,34.837,13.81,80.177c0,2.633-2.135,4.766-4.766,4.766S700.841,449.372,700.841,446.739z M486.961,974.638
	c0,2.631-2.135,4.766-4.766,4.766H465.42c-2.631,0-4.766-2.135-4.766-4.766s2.135-4.766,4.766-4.766h16.776
	C484.827,969.872,486.961,972.007,486.961,974.638z M650.132,778.676v44.606c0,2.631-2.135,4.766-4.766,4.766
	s-4.766-2.135-4.766-4.766v-44.606c0-2.631,2.135-4.766,4.766-4.766S650.132,776.045,650.132,778.676z M436.431,655.896
	c0-2.428,1.969-4.397,4.397-4.397c5.617,0,10.188-4.571,10.188-10.188c0-2.428,1.969-4.397,4.396-4.397
	c2.429,0,4.397,1.969,4.397,4.397c0,5.618,4.571,10.188,10.189,10.188c2.428,0,4.397,1.969,4.397,4.397s-1.969,4.397-4.397,4.397
	c-5.618,0-10.189,4.57-10.189,10.188c0,2.428-1.969,4.397-4.397,4.397c-2.428,0-4.396-1.969-4.396-4.397
	c0-5.618-4.571-10.188-10.188-10.188C438.399,660.293,436.431,658.324,436.431,655.896z M495.745,800.769
	c0,2.428-1.969,4.397-4.397,4.397c-5.618,0-10.189,4.57-10.189,10.188c0,2.428-1.969,4.397-4.397,4.397
	c-2.428,0-4.396-1.969-4.396-4.397c0-5.618-4.571-10.188-10.188-10.188c-2.429,0-4.397-1.969-4.397-4.397
	c0-2.428,1.969-4.397,4.397-4.397c5.617,0,10.188-4.571,10.188-10.188c0-2.428,1.969-4.397,4.396-4.397
	c2.429,0,4.397,1.969,4.397,4.397c0,5.618,4.571,10.188,10.189,10.188C493.776,796.372,495.745,798.341,495.745,800.769z
	 M394.413,707.063c2.428,0,4.397,1.969,4.397,4.397c0,5.618,4.571,10.189,10.189,10.189c2.429,0,4.397,1.969,4.397,4.397
	c0,2.428-1.969,4.397-4.397,4.397c-5.618,0-10.189,4.57-10.189,10.188c0,2.428-1.969,4.397-4.397,4.397s-4.396-1.969-4.396-4.397
	c0-5.618-4.571-10.188-10.189-10.188c-2.428,0-4.396-1.969-4.396-4.397c0-2.428,1.969-4.397,4.396-4.397
	c5.618,0,10.189-4.571,10.189-10.189C390.017,709.032,391.985,707.063,394.413,707.063z M401.196,848.043
	c0,2.428-1.969,4.397-4.397,4.397c-5.618,0-10.189,4.57-10.189,10.188c0,2.428-1.969,4.397-4.396,4.397
	c-2.429,0-4.397-1.969-4.397-4.397c0-5.618-4.571-10.188-10.188-10.188c-2.428,0-4.396-1.969-4.396-4.397
	c0-2.428,1.969-4.397,4.396-4.397c5.617,0,10.188-4.571,10.188-10.188c0-2.428,1.969-4.397,4.397-4.397
	c2.428,0,4.396,1.969,4.396,4.397c0,5.618,4.571,10.188,10.189,10.188C399.228,843.646,401.196,845.615,401.196,848.043z
	 M846.49,816.019c0,2.428-1.969,4.397-4.396,4.397c-5.619,0-10.189,4.57-10.189,10.188c0,2.428-1.969,4.397-4.397,4.397
	c-2.429,0-4.397-1.969-4.397-4.397c0-5.618-4.57-10.188-10.188-10.188c-2.428,0-4.396-1.969-4.396-4.397s1.969-4.397,4.396-4.397
	c5.618,0,10.188-4.571,10.188-10.189c0-2.428,1.969-4.397,4.397-4.397c2.428,0,4.397,1.969,4.397,4.397
	c0,5.618,4.57,10.189,10.189,10.189C844.521,811.622,846.49,813.591,846.49,816.019z M460.068,543.81
	c0-2.428,1.969-4.397,4.396-4.397c5.617,0,10.188-4.571,10.188-10.188c0-2.428,1.969-4.397,4.397-4.397
	c2.428,0,4.396,1.969,4.396,4.397c0,5.618,4.571,10.188,10.189,10.188c2.429,0,4.397,1.969,4.397,4.397
	c0,2.428-1.969,4.397-4.397,4.397c-5.618,0-10.189,4.57-10.189,10.188c0,2.428-1.969,4.397-4.396,4.397
	c-2.429,0-4.397-1.969-4.397-4.397c0-5.618-4.571-10.188-10.188-10.188C462.037,548.207,460.068,546.238,460.068,543.81z
	 M797.77,537.028c2.429,0,4.397,1.969,4.397,4.397c0,5.618,4.571,10.188,10.189,10.188c2.429,0,4.397,1.969,4.397,4.397
	c0,2.428-1.969,4.397-4.397,4.397c-5.618,0-10.189,4.57-10.189,10.188c0,2.428-1.969,4.397-4.397,4.397
	c-2.428,0-4.396-1.969-4.396-4.397c0-5.618-4.571-10.188-10.188-10.188c-2.429,0-4.397-1.969-4.397-4.397
	c0-2.428,1.969-4.397,4.397-4.397c5.617,0,10.188-4.571,10.188-10.188C793.374,538.996,795.342,537.028,797.77,537.028z
	 M760.489,287.614c0-2.428,1.969-4.397,4.397-4.397c5.617,0,10.188-4.571,10.188-10.189c0-2.428,1.969-4.397,4.396-4.397
	c2.429,0,4.397,1.969,4.397,4.397c0,5.618,4.571,10.189,10.189,10.189c2.428,0,4.397,1.969,4.397,4.397
	c0,2.428-1.969,4.397-4.397,4.397c-5.618,0-10.189,4.57-10.189,10.188c0,2.428-1.969,4.397-4.397,4.397
	c-2.428,0-4.396-1.969-4.396-4.397c0-5.618-4.571-10.188-10.188-10.188C762.457,292.01,760.489,290.042,760.489,287.614z
	 M808.8,160.014c0-2.428,1.969-4.397,4.397-4.397c5.617,0,10.188-4.571,10.188-10.188c0-2.428,1.969-4.397,4.396-4.397
	c2.428,0,4.397,1.969,4.397,4.397c0,5.618,4.571,10.188,10.189,10.188c2.429,0,4.397,1.969,4.397,4.397
	c0,2.428-1.969,4.397-4.397,4.397c-5.618,0-10.189,4.57-10.189,10.188c0,2.428-1.969,4.397-4.397,4.397
	c-2.428,0-4.396-1.969-4.396-4.397c0-5.618-4.571-10.188-10.188-10.188C810.768,164.411,808.8,162.443,808.8,160.014z
	 M352.831,160.014c0-2.428,1.969-4.397,4.397-4.397c5.617,0,10.188-4.571,10.188-10.188c0-2.428,1.969-4.397,4.396-4.397
	s4.397,1.969,4.397,4.397c0,5.618,4.571,10.188,10.189,10.188c2.429,0,4.397,1.969,4.397,4.397c0,2.428-1.969,4.397-4.397,4.397
	c-5.618,0-10.189,4.57-10.189,10.188c0,2.428-1.969,4.397-4.397,4.397s-4.396-1.969-4.396-4.397c0-5.618-4.571-10.188-10.188-10.188
	C354.799,164.411,352.831,162.443,352.831,160.014z M691.376,184.414c0-2.428,1.969-4.397,4.396-4.397
	c5.617,0,10.188-4.571,10.188-10.188c0-2.428,1.969-4.397,4.397-4.397c2.428,0,4.396,1.969,4.396,4.397
	c0,5.618,4.571,10.188,10.19,10.188c2.428,0,4.396,1.969,4.396,4.397c0,2.428-1.969,4.397-4.396,4.397
	c-5.619,0-10.19,4.57-10.19,10.188c0,2.428-1.969,4.397-4.396,4.397c-2.428,0-4.397-1.969-4.397-4.397
	c0-5.618-4.571-10.188-10.188-10.188C693.345,188.811,691.376,186.842,691.376,184.414z M852.492,640.548
	c0,5.618,4.57,10.188,10.189,10.188c2.428,0,4.396,1.969,4.396,4.397s-1.969,4.397-4.396,4.397c-5.619,0-10.189,4.57-10.189,10.188
	c0,2.428-1.969,4.397-4.397,4.397c-2.429,0-4.397-1.969-4.397-4.397c0-5.618-4.57-10.188-10.187-10.188
	c-2.429,0-4.397-1.969-4.397-4.397s1.969-4.397,4.397-4.397c5.617,0,10.187-4.571,10.187-10.188c0-2.428,1.969-4.397,4.397-4.397
	C850.522,636.151,852.492,638.12,852.492,640.548z M391.655,573.948c2.429,0,4.397,1.969,4.397,4.397s-1.969,4.397-4.397,4.397
	c-5.618,0-10.189,4.57-10.189,10.188c0,2.428-1.969,4.397-4.396,4.397c-2.429,0-4.397-1.969-4.397-4.397
	c0-5.618-4.571-10.188-10.188-10.188c-2.428,0-4.396-1.969-4.396-4.397s1.969-4.397,4.396-4.397c5.617,0,10.188-4.571,10.188-10.189
	c0-2.428,1.969-4.397,4.397-4.397c2.428,0,4.396,1.969,4.396,4.397C381.466,569.378,386.037,573.948,391.655,573.948z
	 M847.431,417.415c2.429,0,4.397,1.969,4.397,4.397s-1.969,4.397-4.397,4.397c-5.618,0-10.189,4.57-10.189,10.188
	c0,2.428-1.969,4.397-4.397,4.397c-2.428,0-4.396-1.969-4.396-4.397c0-5.618-4.571-10.188-10.189-10.188
	c-2.428,0-4.396-1.969-4.396-4.397s1.969-4.397,4.396-4.397c5.618,0,10.189-4.571,10.189-10.188c0-2.428,1.969-4.397,4.396-4.397
	c2.428,0,4.397,1.969,4.397,4.397C837.242,412.844,841.813,417.415,847.431,417.415z M897.226,972.724L897.192,600V86.981
	c0-3.089-1.203-5.993-3.387-8.177c-2.184-2.184-5.088-3.387-8.177-3.387H599.98H314.333c-3.089,0-5.993,1.203-8.177,3.387
	c-2.185,2.185-3.387,5.089-3.387,8.178V600v428.592c0.083,4.429,3.685,7.997,8.133,7.997H888.82c4.501,0,8.411-3.911,8.411-8.411
	l-0.005-48.58c0.907-0.868,1.478-2.083,1.478-3.436C898.705,974.808,898.134,973.592,897.226,972.724z M312.3,86.981
	c0-0.559,0.2-1.043,0.596-1.438c0.395-0.395,0.879-0.595,1.437-0.595H599.98h285.648c0.558,0,1.042,0.2,1.437,0.596
	c0.396,0.395,0.596,0.879,0.596,1.438v513.02l0.029,311.54H739.184c0.048-0.52,0.088-1.047,0.088-1.623
	c0-4.496,2.836-11.179,3.928-13.375l-0.071-0.034c1.495-4.573,1.142-28.01-2.451-210.293c-2.131-108.209-4.552-230.855-3.63-246.517
	c2.529-42.992-13.081-73.81-21.712-87.336c1.548-0.509,2.997-1.345,4.13-2.667c1.557-1.818,2.985-5.077,0.928-10.28
	c-1.378-3.483-1.415-5.309-1.452-7.074c-0.124-5.794-1.666-8.841-11.061-16.61c-7.651-6.326-7.651-6.326-5.929-10.965
	c0.397-1.073,0.847-2.285,1.312-3.683c2.702-8.105-5.541-18.467-18.426-33.35c-3.059-3.534-7.03-8.119-8.759-10.668
	c0.087-0.012,0.174-0.025,0.251-0.036c3.068-0.437,9.447-1.348,10.567-8.071c0.562-3.366-0.614-7.06-3.307-10.4
	c-6.18-7.657-19.137-12.671-34.656-13.411c-25.308-1.19-38.509,10.676-56.982,36.075c-13.574,18.665-8.076,46.624-3.481,61.884
	c-4.365-2.052-9.322-4.461-14.345-7.022v-57.449c0-0.657,0.128-1.308,0.378-1.915l12.445-30.303c0.649-1.58,0.454-3.382-0.519-4.786
	l-13.094-18.9c-2.024-2.923-6.359-2.888-8.335,0.069l-12.638,18.9c-0.915,1.368-1.104,3.098-0.507,4.632l11.818,30.355
	c0.227,0.583,0.344,1.203,0.344,1.829v52.227c-9.797-5.392-18.466-10.893-21.773-14.935c-3.438-4.202-7.068-3.956-8.932-3.439
	c-0.069,0.019-0.133,0.064-0.202,0.085l-37.532-28.91l-24.042-19.126c-5.299-5.87-22.069-22.844-33.539-17.436
	c-7.977,3.754-11.452,11.382-12.869,15.971c-2.826,0.527-6.425,1.796-8.43,4.834c-0.984,1.492-2.341,4.661-0.442,9.14
	c-3.81,3.661-8.534,11.06-8.534,25.293c0,8.251,2.28,14.534,6.782,18.674c1.464,1.347,3.002,2.288,4.5,2.989
	c-11.377,2.774-17.078,8.703-19.602,12.317h-4.451c-5.78,0-10.484,4.704-10.484,10.485v5.167c0,4.34,2.65,8.071,6.416,9.663v84.875
	c-3.766,1.592-6.416,5.323-6.416,9.663v5.167c0,5.782,4.704,10.485,10.484,10.485h75.424c5.78,0,10.484-4.703,10.484-10.485v-5.167
	c0-5.252-3.894-9.574-8.939-10.329v-83.542c5.045-0.755,8.939-5.076,8.939-10.329v-5.167c0-5.782-4.704-10.485-10.484-10.485h-4.334
	c-2.347-3.414-7.871-9.28-19.099-12.152c1.627-0.665,3.289-1.606,4.835-2.973c4.086-3.615,6.159-8.98,6.159-15.95
	c0-4.512-0.316-8.206-0.825-11.237c1.971,0.674,3.953,1.271,5.813,1.701l10.335,7.657c-7.912,11.661-4.908,14.664-3.394,16.178
	c1.464,1.464,4.539,3.112,10.806,6.405c5.293,2.781,11.883,6.245,15.811,9.052c5.364,3.831,15.397,15.574,20.167,21.43
	c-2.448,17.19-11.825,96.718-2.944,108.563c5.808,7.742,15.193,8.493,20.638,8.155c2.398,5.72,5.727,8.285,8.585,9.398
	c-0.667,37.295-5.647,316.838-5.647,344.588c0,24.163,15.407,34.395,25.903,37.209c0.223,0.716,0.517,1.399,0.831,2.073v66.006
	H312.3V600V86.981z M551.014,454.427c-1.284-0.912-2.442-1.25-3.922-0.709c-0.879,0.122-2.977-1.232-4.543-6.033
	c0.019-0.131,0.054-0.255,0.063-0.39l2.29-36.091c0.168-2.628-1.827-4.891-4.455-5.059c-2.653-0.182-4.89,1.831-5.057,4.454
	l-2.09,32.936c-3.487,0.153-8.932-0.336-11.943-4.347c-4.62-7.246-0.177-70.748,5.032-103.57c2.1-14.63,6.047-29.084,8.935-33.241
	c5.1,5.805,16.903,12.958,28.695,19.226v37.782c-2.545,0.342-5.114,1.14-7.548,2.408c-5.802,3.023-9.423,7.958-9.931,13.541
	c-1.12,12.342,6.987,25.584,7.915,27.053c2.062,3.263,5.287,5.54,9.564,6.891v425.2c-6.068-2.116-17.203-8.567-17.203-27.464
	c0-29.505,5.659-345.312,5.718-348.499C552.562,456.943,552.299,455.338,551.014,454.427z M448.409,285.124
	c0,4.086-0.974,7.035-2.895,8.766c-0.585,0.526-1.236,0.901-1.896,1.198v-5.182h-23.024v3.518
	c-2.189-2.311-3.338-6.041-3.338-11.206c0-11.542,3.649-16.6,5.802-18.587c6.606,3.472,15.771,4.301,20.22,4.494
	c0.599,0.289,1.505,0.714,2.546,1.191C446.706,270.878,448.409,275.18,448.409,285.124z M423.638,425.567v-83.23h16.267v83.23
	H423.638z M414.107,342.337v83.23h-13.689v-83.23H414.107z M449.436,425.567v-83.23h12.956v83.23H449.436z M483.676,285.106
	l2.926-3.843l-0.501-0.371l0.67,0.261l6.817-7.114l32.715,25.2c-3.381,6.083-5.856,15.304-7.632,24.647
	c-5.067-5.887-11.91-13.38-16.644-16.761c-4.458-3.185-11.079-6.663-16.918-9.733c-2.377-1.249-5.156-2.71-6.906-3.709
	C479.217,291.564,481.43,288.056,483.676,285.106z M574.127,855.829c12.759,6.133,32.85,5.107,42.693,4.116v27.83
	c0,3.208,1.278,6.075,3.695,8.287c5.305,4.862,15.33,5.65,21.687,5.547c0.402,4.545,1.389,8.004,2.754,10.695h-70.83V855.829z
	 M716.279,911.541v0.16c-4.612,0.093-10.102,0.095-16.093,0.095H665.58c-9.941,0-14.055,0-14.055-15.162
	c0-1.334-0.562-2.609-1.545-3.512c-0.435-0.398-0.937-0.703-1.474-0.915h1.911v-48.711h-9.531v48.56
	c-5.533-0.082-11.64-0.916-13.937-3.023c-0.5-0.459-0.599-0.81-0.599-1.257v-33.21c0-0.378-0.054-0.747-0.14-1.108h0.14V730.575
	h-9.531v119.779c-4.154,0.435-9.636,0.799-15.358,0.761V662.778h-9.531V850.62c-6.706-0.698-12.873-2.223-16.627-5.149
	c-0.445-0.347-0.824-0.711-1.177-1.083v-433.69c0.833,0.008,1.651,0.029,2.53-0.004c2.482-0.096,4.164-0.216,5.411-0.306
	c2.591-0.186,2.597-0.189,6.776,1.098l0.341,0.105c4.123,1.269,9.063,3.689,12.205,5.335c-0.822,16.442-1.104,35.726,0.631,51.122
	c0.397,7.231,4.666,71.061,31.752,85.194c0.704,0.366,1.458,0.541,2.203,0.541c1.719,0,3.379-0.934,4.229-2.563
	c1.216-2.333,0.313-5.212-2.02-6.43c-18.895-9.857-25.64-59.118-26.67-77.537c-3.391-30.148,1.309-77.169,1.995-83.703
	l16.302-35.334c2.099-3.422,3.304-7.2,2.785-14.995c-1.107-16.606,2.367-24.33-3.133-38.735
	c-10.211-26.743-26.004-17.714-26.795-7.3c-1.661,21.864,4.575,23.732,10.294,49.181c1.691,7.525,3.003,12.926,4.03,16.881
	l-12.465,27.023c-0.214,0.465-0.351,0.962-0.41,1.471c-0.019,0.165-0.071,0.646-0.144,1.351c-4.238-1.022-8.462-2.648-9.601-4.134
	c-6.205-8.119-12.373-13.867-18.857-17.573c-0.444-0.254-0.92-0.452-1.388-0.662v-33.937c10.086,5.002,18.589,8.765,20.628,9.657
	c1.784,0.78,3.872,0.396,5.262-0.977s1.799-3.455,1.036-5.253c-0.177-0.411-17.334-41.466-1.393-63.384
	c17.095-23.505,27.579-33.184,48.822-32.16c15.122,0.72,24.219,5.574,27.691,9.876c0.946,1.171,1.263,2.073,1.319,2.578
	c-0.62,0.202-1.765,0.365-2.504,0.47c-2.597,0.371-5.823,0.831-7.856,3.605c-0.844,1.151-1.747,3.137-1.26,6.062
	c0.617,3.709,4.254,8.04,11.759,16.71c5.243,6.056,17.523,20.24,16.593,24.098c-0.428,1.283-0.841,2.395-1.207,3.38
	c-3.466,9.343-2.153,12.576,8.79,21.625c7.536,6.233,7.561,7.314,7.604,9.469c0.047,2.111,0.115,5.302,2.119,10.375
	c0.081,0.2,0.143,0.375,0.189,0.527c-0.819,0.102-2.051,0.071-3.22-0.083c-2.65-2.296-9.334-6.99-21.523-9.022
	c-3.937-0.653-15.913-2.642-19.255-8.113c-1.374-2.246-4.306-2.955-6.553-1.581c-2.246,1.373-2.954,4.305-1.582,6.551
	c5.619,9.19,19.779,11.542,26.117,12.593c11.506,1.918,16.619,6.805,17.02,7.204c1.916,2.405,27.87,36.108,24.812,88.143
	c-0.943,16.034,1.371,133.585,3.611,247.263c1.905,96.641,3.875,196.5,3.208,206.537c-1.148,2.426-4.614,10.297-4.614,16.977
	c0,0.171-0.009,0.295-0.019,0.382c-1.072,0.668-4.074,1.037-8.406,1.241H716.279z M735.618,890.995
	c0.595-0.586,1.388-1.054,2.362-1.245C737.085,889.933,736.266,890.366,735.618,890.995z M312.3,1027.058v-17.818
	c0.648,0.331,1.372,0.535,2.149,0.535H474.57c2.631,0,4.766-2.135,4.766-4.766s-2.135-4.766-4.766-4.766H314.449
	c-0.777,0-1.501,0.204-2.149,0.535v-19.914c0.206,0.027,0.41,0.063,0.623,0.063h132.672c2.631,0,4.766-2.135,4.766-4.766
	s-2.135-4.766-4.766-4.766H312.922c-0.213,0-0.417,0.036-0.623,0.063v-23.091c0.648,0.331,1.372,0.535,2.149,0.535H474.57
	c2.631,0,4.766-2.135,4.766-4.766s-2.135-4.766-4.766-4.766H314.449c-0.777,0-1.501,0.204-2.149,0.535v-18.07h251.72v53.472
	c0,3.653,1.494,6.526,5.147,6.526c3.368,0,4.96-2.43,4.96-6.576v-53.421h98.87c0.033,2.01-0.071,4.136-0.486,5.795
	c-1.107,4.428-9.963,8.857-37.64,12.178c-27.677,3.321-26.569,11.071-26.569,11.071c1.107,15.499,35.425,8.856,35.425,8.856
	s-40.961,7.749-37.64,22.141c3.321,14.391,63.103,4.428,98.528-2.214c35.425-6.642,15.499-35.426,15.499-46.496
	c0-4.558,0-8.728,0-12.072c0.156-0.007,0.305-0.015,0.459-0.022H887.69l0.002,18.299H762.03c-2.631,0-4.766,2.135-4.766,4.766
	s2.135,4.766,4.766,4.766h125.664l0.002,22.494h-73.818c-2.631,0-4.766,2.135-4.766,4.766s2.135,4.766,4.766,4.766h73.82
	l0.002,19.317H743.731c-2.631,0-4.766,2.135-4.766,4.766s2.135,4.766,4.766,4.766h143.968l0.002,17.283H312.3z M755.738,974.638
	c0-2.631,2.135-4.766,4.766-4.766h15.249c2.631,0,4.766,2.135,4.766,4.766s-2.135,4.766-4.766,4.766h-15.249
	C757.872,979.403,755.738,977.269,755.738,974.638z"/>
</svg>
