<?xml version="1.0" encoding="utf-8"?>
<!-- Generator: Adobe Illustrator 23.0.3, SVG Export Plug-In . SVG Version: 6.00 Build 0)  -->
<svg version="1.1" id="Capa_1" xmlns="http://www.w3.org/2000/svg" xmlns:xlink="http://www.w3.org/1999/xlink" x="0px" y="0px"
	 viewBox="0 0 1200 1200" enable-background="new 0 0 1200 1200" xml:space="preserve">
<path fill="hsl(290, 13%, 29%)" d="M911.797,60.832C904.812,53.847,895.525,50,885.647,50H600H314.352c-9.878,0-19.165,3.847-26.15,10.832
	c-6.984,6.985-10.831,16.271-10.831,26.149V600v513.019c0,9.878,3.847,19.165,10.831,26.149
	c6.984,6.985,16.271,10.832,26.149,10.832H600h285.647c9.878,0,19.165-3.847,26.15-10.832c6.985-6.985,10.831-16.271,10.831-26.149
	V600V86.981C922.628,77.103,918.782,67.817,911.797,60.832z M913.097,600v513.019c0,7.58-3.072,14.443-8.04,19.41
	c-4.968,4.968-11.83,8.04-19.41,8.04H600H314.352c-7.58,0-14.442-3.072-19.41-8.04c-4.967-4.967-8.04-11.83-8.04-19.41V600V86.981
	c0-7.58,3.072-14.442,8.04-19.41c4.967-4.968,11.83-8.04,19.41-8.04H600h285.647c7.58,0,14.443,3.072,19.41,8.04
	c4.967,4.967,8.04,11.83,8.04,19.41V600z M393.668,1066.067c1.021,1.024,1.533,2.259,1.533,3.704v22.984
	c0,5.982-2.122,11.086-6.37,15.311c-4.226,4.247-9.329,6.373-15.314,6.373c-5.982,0-11.086-2.125-15.311-6.373
	c-4.247-4.226-6.37-9.329-6.37-15.311c0-1.446,0.509-2.681,1.533-3.704c1.024-1.021,2.268-1.533,3.736-1.533
	c1.446,0,2.681,0.512,3.704,1.533c1.024,1.024,1.536,2.259,1.536,3.704c0,3.09,1.089,5.727,3.267,7.905
	c2.181,2.181,4.815,3.27,7.905,3.27c3.072,0,5.693-1.089,7.874-3.27c2.203-2.178,3.301-4.815,3.301-7.905v-17.747h-11.175
	c-1.446,0-2.69-0.512-3.736-1.536c-1.024-1.021-1.533-2.256-1.533-3.701s0.509-2.681,1.533-3.704
	c1.046-1.042,2.29-1.567,3.736-1.567h16.413C391.375,1064.5,392.622,1065.024,393.668,1066.067z M450.876,1066.067
	c1.024,1.024,1.536,2.259,1.536,3.704v22.984c0,5.982-2.125,11.086-6.373,15.311c-4.226,4.247-9.329,6.373-15.311,6.373
	c-5.982,0-11.085-2.125-15.311-6.373c-4.251-4.226-6.373-9.329-6.373-15.311v-22.984c0-1.446,0.512-2.681,1.536-3.704
	c1.021-1.042,2.268-1.567,3.736-1.567c1.446,0,2.681,0.524,3.701,1.567c1.024,1.024,1.536,2.259,1.536,3.704v22.984
	c0,3.09,1.089,5.727,3.27,7.905c2.178,2.181,4.812,3.27,7.905,3.27c3.068,0,5.693-1.089,7.871-3.27
	c2.203-2.178,3.304-4.815,3.304-7.905v-22.984c0-1.446,0.512-2.681,1.533-3.704c1.024-1.042,2.259-1.567,3.704-1.567
	S449.831,1065.024,450.876,1066.067z M484.636,1064.5h-13.111c-1.468,0-2.712,0.524-3.736,1.567
	c-1.024,1.024-1.533,2.259-1.533,3.704v39.396c0,1.468,0.509,2.715,1.533,3.736c1.024,1.024,2.268,1.536,3.736,1.536h13.111
	c6.894,0,12.776-2.436,17.647-7.307c4.893-4.893,7.338-10.775,7.338-17.647c0-6.894-2.445-12.776-7.338-17.647
	C497.412,1066.948,491.529,1064.5,484.636,1064.5z M494.877,1099.693c-2.826,2.826-6.239,4.238-10.242,4.238h-7.874v-28.922h7.874
	c4.002,0,7.415,1.424,10.242,4.269c2.823,2.826,4.235,6.227,4.235,10.207S497.7,1096.869,494.877,1099.693z M566.497,1085.684
	c1.089,1.046,1.635,2.299,1.635,3.77v0.031c0,6.872-2.448,12.755-7.341,17.647c-4.868,4.871-10.75,7.307-17.644,7.307
	c-6.872,0-12.755-2.436-17.647-7.307c-4.871-4.893-7.307-10.775-7.307-17.647c0-6.894,2.436-12.776,7.307-17.647
	c4.893-4.89,10.775-7.338,17.647-7.338c6.894,0,12.776,2.436,17.644,7.307c1.046,1.021,1.57,2.268,1.57,3.735
	c0,1.446-0.512,2.681-1.536,3.701c-1.024,1.024-2.268,1.536-3.735,1.536c-1.446,0.022-2.681-0.49-3.701-1.536
	c-2.826-2.823-6.239-4.235-10.242-4.235c-3.984,0-7.384,1.424-10.207,4.269c-2.826,2.826-4.238,6.227-4.238,10.207
	s1.412,7.384,4.238,10.208c2.823,2.826,6.224,4.238,10.207,4.238c3.022,0,5.771-0.856,8.237-2.569
	c2.426-1.691,4.17-3.903,5.237-6.64h-13.474c-1.446,0-2.681-0.509-3.704-1.533c-1.024-1.024-1.533-2.259-1.533-3.704
	s0.509-2.69,1.533-3.735c1.024-1.024,2.259-1.536,3.704-1.536h19.515C564.151,1084.17,565.43,1084.661,566.497,1085.684z
	 M589.847,1075.008v9.205h21.017c1.446,0,2.69,0.512,3.735,1.536c1.024,1.024,1.536,2.268,1.536,3.735
	c0,1.446-0.512,2.681-1.536,3.704c-1.046,1.024-2.29,1.533-3.735,1.533h-21.017v9.208h27.588c1.446,0,2.693,0.512,3.739,1.533
	c1.021,1.024,1.533,2.259,1.533,3.704c0,1.468-0.512,2.715-1.533,3.736c-1.046,1.024-2.293,1.536-3.739,1.536H584.61
	c-1.468,0-2.712-0.512-3.736-1.536c-1.024-1.021-1.533-2.268-1.533-3.736v-39.396c0-1.446,0.509-2.681,1.533-3.704
	c1.024-1.042,2.268-1.567,3.736-1.567h32.825c1.446,0,2.693,0.524,3.739,1.567c1.021,1.024,1.533,2.259,1.533,3.704
	s-0.512,2.681-1.533,3.701c-1.046,1.024-2.293,1.536-3.739,1.536H589.847z M682.952,1066.836c0.602,0.887,0.9,1.868,0.9,2.935
	v39.396c0,1.468-0.521,2.715-1.567,3.736c-1.024,1.024-2.259,1.536-3.704,1.536s-2.677-0.512-3.701-1.536
	c-1.024-1.021-1.536-2.268-1.536-3.736v-26.719l-10.741,10.741c-1.021,1.024-2.268,1.533-3.735,1.533
	c-1.446,0-2.681-0.509-3.701-1.533l-10.744-10.741v26.719c0,1.468-0.512,2.715-1.533,3.736c-1.024,1.024-2.259,1.536-3.704,1.536
	c-1.468,0-2.712-0.512-3.736-1.536c-1.024-1.021-1.533-2.268-1.533-3.736v-39.396c0-1.067,0.298-2.048,0.9-2.935
	c0.577-0.869,1.356-1.514,2.336-1.936c0.977-0.4,1.989-0.5,3.034-0.301c1.046,0.223,1.945,0.714,2.702,1.468l15.978,15.981
	l16.012-15.981c0.757-0.754,1.644-1.244,2.668-1.468c1.046-0.199,2.057-0.099,3.037,0.301
	C681.584,1065.322,682.375,1065.968,682.952,1066.836z M708.17,1075.008v9.205h21.017c1.446,0,2.69,0.512,3.736,1.536
	c1.024,1.024,1.536,2.268,1.536,3.735c0,1.446-0.512,2.681-1.536,3.704c-1.046,1.024-2.29,1.533-3.736,1.533H708.17v9.208h27.588
	c1.446,0,2.693,0.512,3.739,1.533c1.021,1.024,1.533,2.259,1.533,3.704c0,1.468-0.512,2.715-1.533,3.736
	c-1.046,1.024-2.293,1.536-3.739,1.536h-32.825c-1.468,0-2.712-0.512-3.736-1.536c-1.024-1.021-1.533-2.268-1.533-3.736v-39.396
	c0-1.446,0.509-2.681,1.533-3.704c1.024-1.042,2.268-1.567,3.736-1.567h32.825c1.446,0,2.693,0.524,3.739,1.567
	c1.021,1.024,1.533,2.259,1.533,3.704s-0.512,2.681-1.533,3.701c-1.046,1.024-2.293,1.536-3.739,1.536H708.17z M794.071,1066.067
	c1.021,1.024,1.533,2.259,1.533,3.704v39.396c0,1.111-0.323,2.125-0.968,3.034c-0.62,0.912-1.455,1.557-2.501,1.936
	c-0.58,0.199-1.179,0.301-1.803,0.301c-1.644,0-2.991-0.636-4.036-1.902l-23.552-28.255v24.886c0,1.468-0.512,2.715-1.533,3.736
	c-1.024,1.024-2.259,1.536-3.704,1.536c-1.468,0-2.712-0.512-3.735-1.536c-1.024-1.021-1.533-2.268-1.533-3.736v-39.396
	c0-1.114,0.32-2.125,0.965-3.037c0.624-0.887,1.458-1.523,2.504-1.899c1.046-0.379,2.1-0.425,3.168-0.133
	c1.067,0.288,1.958,0.856,2.668,1.7l23.552,28.255v-24.886c0-1.446,0.512-2.681,1.536-3.704c1.021-1.042,2.256-1.567,3.701-1.567
	S793.025,1065.024,794.071,1066.067z M847.311,1066.067c1.021,1.024,1.533,2.259,1.533,3.704s-0.512,2.681-1.533,3.701
	c-1.046,1.024-2.293,1.536-3.739,1.536h-11.175v34.159c0,1.468-0.512,2.715-1.533,3.736c-1.024,1.024-2.259,1.536-3.704,1.536
	s-2.69-0.512-3.736-1.536c-1.024-1.021-1.533-2.268-1.533-3.736v-34.159h-11.144c-1.468,0-2.712-0.512-3.735-1.536
	c-1.024-1.021-1.533-2.256-1.533-3.701s0.509-2.681,1.533-3.704c1.024-1.042,2.268-1.567,3.735-1.567h32.825
	C845.018,1064.5,846.266,1065.024,847.311,1066.067z M476.476,943.31h247.049c2.631,0,4.766,2.135,4.766,4.766
	s-2.135,4.766-4.766,4.766H476.476c-2.631,0-4.766-2.135-4.766-4.766S473.845,943.31,476.476,943.31z M684.637,974.445
	c2.631,0,4.766,2.135,4.766,4.766s-2.135,4.766-4.766,4.766H515.363c-2.631,0-4.766-2.135-4.766-4.766s2.135-4.766,4.766-4.766
	H684.637z M897.192,86.981c0-3.089-1.203-5.993-3.387-8.177c-2.184-2.184-5.088-3.387-8.177-3.387H599.98H314.333
	c-3.089,0-5.993,1.203-8.177,3.387c-2.185,2.185-3.387,5.089-3.387,8.178v503.577c-0.409,1.077-0.414,2.27,0,3.367V600v428.592
	c0.083,4.429,3.685,7.997,8.134,7.997h577.919c4.501,0,8.411-3.911,8.411-8.411L897.192,600V195.481
	c0.253-0.735,0.446-1.39,0.52-1.837c0.181-1.079-0.037-2.111-0.52-2.991V86.981z M887.661,211.29
	c-0.456,0.076-0.91,0.197-1.344,0.414l-135.561,67.469c-2.358,1.173-3.317,4.033-2.144,6.388c0.831,1.675,2.519,2.643,4.269,2.643
	c0.714,0,1.44-0.158,2.119-0.5l132.661-66.025v106.755l-111.275,12.029c-2.615,0.282-4.508,2.634-4.226,5.25
	c0.264,2.442,2.33,4.254,4.731,4.254c0.171,0,0.344-0.009,0.518-0.028l110.251-11.919v96.28l-107.297-27.379
	c-2.56-0.664-5.147,0.887-5.796,3.438c-0.652,2.55,0.887,5.147,3.438,5.796l109.655,27.981v125.326l-106.373-80.145
	c-2.104-1.579-5.088-1.167-6.674,0.94c-1.582,2.1-1.163,5.088,0.94,6.674l111.324,83.875c0.244,0.183,0.519,0.279,0.783,0.409
	v18.786l0.02,216.753l-112.79-188.826c-1.35-2.259-4.278-2.994-6.537-1.647c-2.259,1.35-2.997,4.275-1.647,6.537l116.995,195.866
	H740.223V581.016c0.41-3.745,2.969-34.718-20.626-61.546c-22.456-25.534-60.606-38.481-113.384-38.481h-6.214
	c-52.824,0-91.275,12.963-114.283,38.531c-24.212,26.909-22.227,57.975-21.92,61.447v247.716H317.15l123.698-194.224
	c1.412-2.218,0.76-5.166-1.461-6.581c-2.215-1.402-5.163-0.763-6.581,1.461L312.299,818.553V600v-5.713l101.566-80.656
	c2.063-1.638,2.404-4.635,0.769-6.695c-1.638-2.06-4.638-2.398-6.695-0.769l-95.64,75.95V454.788l105.696-31.823
	c2.519-0.76,3.947-3.419,3.189-5.938c-0.76-2.519-3.416-3.94-5.938-3.189l-102.947,30.996v-97.59l110.775,9.569
	c0.14,0.012,0.276,0.019,0.416,0.019c2.445,0,4.527-1.874,4.741-4.356c0.227-2.622-1.716-4.93-4.337-5.156l-111.594-9.64V233.292
	l125.165,59.032c0.655,0.31,1.346,0.456,2.029,0.456c1.787,0,3.5-1.008,4.313-2.733c1.123-2.38,0.102-5.219-2.277-6.342
	l-127.718-60.237c-0.489-0.232-1-0.351-1.511-0.407v-21.454c5.37,5.386,11.69,8.947,18.929,10.536
	c15.625,3.419,30.942-3.217,37.529-6.683c18.467,17.545,38.23,26.437,58.794,26.437c0.031,0,0.062,0,0.093,0
	c6.41-0.008,12.409-0.893,17.932-2.294c25.093,32.035,44.659,58.778,58.094,79.439c30.483,46.877,34.02,79.283,34.163,80.726
	c0.211,1.781,1.309,3.301,2.944,4.064c0.521,0.245,1.173,0.354,1.939,0.354c8.2,0,28.941-12.798,29.158-12.941
	c9.64-6.304,18.653-13.35,26.794-20.936c6.866-6.401,13.26-13.326,19.006-20.579c0.884-1.117,1.834-2.274,2.817-3.472
	c6.745-8.219,15.144-18.445,14.774-29.946c0-2.367-1.772-4.381-4.111-4.722c-1.393-0.202-34.575-5.336-79.212-37.82
	c-14.697-10.693-30.769-23.823-46.384-37.047c12.32,1.096,23.406-3.74,29.592-7.271c8.52,18.243,25.568,30.461,47.69,33.874
	c3.773,0.583,7.387,0.853,10.865,0.85c32.81-0.003,52.626-23.98,59.762-34.55c12.683,9.556,26.052,13.816,39.818,12.714
	c8.657-0.704,16.389-3.465,22.888-6.871l-33.384,36.525c-1.775,1.942-1.638,4.955,0.304,6.733c0.912,0.835,2.066,1.247,3.214,1.247
	c1.291,0,2.578-0.521,3.518-1.551l48.348-52.898c13.589,11.158,28.327,16.868,43.957,16.868c0.016,0,0.031,0,0.043,0
	c26.425-0.016,47.218-16.174,54.062-22.205c18.975,7.521,34.671,8.002,46.684,1.421c1.793-0.982,3.322-2.084,4.738-3.22V211.29z
	 M668.943,682.984c-7.017,2.259-7.999,16.816-9.15,22.875c-0.69,3.626-6.835,25.327-13.439,22.017
	c-3.145-2.574,3.3-15.593,5.147-24.59c1.385-6.747,3.128-20.323,3.717-27.164c0.607-7.04,1.993-39.577-10.58-28.593
	c-5.713,4.991-4.84,16.658-5.433,23.161c-0.673,7.378-3.213,18.944-4.289,26.306c-0.918,6.284-8.513,26.564-12.009,25.162
	c-4.51-2.601,1.605-19.553,2.573-29.451c0.821-8.397,0.57-18.778,1.43-27.163c0.629-6.131-0.706-37.898-14.582-29.451
	c-6.577,4.003-2.685,18.199-3.717,25.448c-1.253,8.801-1.566,24.277-3.717,32.882c-3.145,12.581-9.926,40.907-16.012,22.017
	c-5.49-17.038-8.788-33.836-10.866-49.181c-0.735-5.427-3.431-20.873-12.295-20.015c-8.687,0.84-7.661,16.792-7.148,22.303
	c1.826,19.621,3.847,31.703,7.664,49.584c1.959,9.182-0.417,21.955-1.087,31.335c-0.155,2.179-2.619,21.312-3.431,20.301
	c-2.1-2.615-13.747-15.976-14.297-19.729c-0.869-5.936,0.679-14.016,0.572-20.016c-0.157-8.714-9.484-28.909-13.725-11.151
	c-1.582,6.624-3.034,11.532-6.377,17.695c-4.015,7.406-2.576,11.844-2.125,20.193c0.749,13.856,7.4,23.661,16.507,35.311
	c8.014,10.252,16.588,19.269,24.725,29.397c1.585,1.973,2.866,4.06,3.956,6.217h-97.629V580.74l-0.025-0.49
	c-0.031-0.295-2.721-29.779,19.621-54.487c21.141-23.384,57.168-35.242,107.076-35.242h6.214c56.56,0,98.82,44.851,98.82,84.952
	v253.211h-64.53c1.872-6.318,3.883-12.661,5.094-19.065c2.434-12.873,5.724-25.741,7.718-38.636
	c1.376-8.899,2.589-19.053,7.049-26.808c7.392-12.852,13.836-23.303,14.297-38.601C674.837,699.753,676.094,680.682,668.943,682.984
	z M476.586,214.415c2.889,2.505,5.829,5.046,8.811,7.616l-4.664,4.664c-1.862,1.862-1.862,4.877,0,6.739
	c0.931,0.931,2.15,1.396,3.369,1.396c1.219,0,2.439-0.465,3.369-1.396l5.175-5.175c2.498,2.136,5.024,4.278,7.554,6.418l-4.982,4.98
	c-1.862,1.858-1.862,4.877,0,6.739c0.931,0.931,2.15,1.396,3.369,1.396c1.219,0,2.439-0.465,3.369-1.396l5.571-5.569
	c2.25,1.878,4.495,3.735,6.747,5.587l-6.541,6.085c-1.927,1.793-2.035,4.809-0.245,6.736c0.94,1.008,2.215,1.52,3.49,1.52
	c1.163,0,2.327-0.422,3.245-1.275l7.509-6.986c2.003,1.615,4.003,3.22,5.99,4.793l-6.77,6.77c-1.862,1.862-1.862,4.877,0,6.739
	c0.931,0.931,2.15,1.396,3.369,1.396c1.219,0,2.439-0.465,3.369-1.396l7.608-7.608c2.293,1.764,4.553,3.464,6.801,5.139
	l-6.932,6.491c-1.92,1.799-2.02,4.815-0.22,6.736c0.937,1.002,2.206,1.508,3.478,1.508c1.167,0,2.339-0.425,3.258-1.288l8.265-7.739
	c2.613,1.844,5.185,3.604,7.712,5.271l-7.476,7.177c-1.899,1.821-1.961,4.84-0.137,6.739c0.937,0.974,2.187,1.464,3.438,1.464
	c1.188,0,2.377-0.441,3.301-1.328l9.145-8.779c2.676,1.635,5.293,3.177,7.845,4.62l-8.179,7.988
	c-1.883,1.84-1.921,4.856-0.081,6.739c0.934,0.956,2.172,1.436,3.41,1.436c1.201,0,2.401-0.45,3.329-1.356l10.102-9.866
	c0.071-0.069,0.095-0.163,0.161-0.235c20.267,10.421,35.552,14.693,42.847,16.288c-1.52,6.956-7.384,14.101-12.243,20.021
	c-1.021,1.241-2.007,2.442-2.923,3.599c-5.451,6.882-11.517,13.453-18.032,19.525c-7.744,7.22-16.329,13.927-25.497,19.925
	c-2.336,1.471-13.887,7.688-20.157,10.366c-2.162-11.48-9.773-41.208-34.854-79.777c-13.195-20.292-32.21-46.343-56.434-77.368
	C464.493,222.834,471.803,218.063,476.586,214.415z M312.895,85.543c0.395-0.395,0.879-0.595,1.437-0.595H599.98h285.647
	c0.559,0,1.042,0.2,1.438,0.596c0.395,0.395,0.595,0.878,0.595,1.437v106.768c-1.196,2.481-4.109,6.787-9.746,9.731
	c-9.761,5.104-23.874,3.981-40.814-3.239c-1.79-0.766-3.872-0.36-5.246,1.024c-0.214,0.214-21.799,21.582-49.685,21.6
	c-0.012,0-0.025,0-0.037,0c-15.879,0-30.886-6.971-44.603-20.719c-0.943-0.943-2.237-1.468-3.577-1.396
	c-1.334,0.059-2.584,0.673-3.444,1.697c-0.158,0.186-15.854,18.597-37.994,20.396c-12.705,1.018-25.199-3.652-37.15-13.924
	c-1.101-0.946-2.581-1.343-4.009-1.061c-1.427,0.273-2.653,1.191-3.326,2.479c-0.856,1.641-21.402,40.113-63.817,33.561
	c-12.116-1.871-33.722-8.659-42.322-33.126c-0.506-1.443-1.672-2.553-3.134-2.988c-1.464-0.437-3.05-0.146-4.26,0.785
	c-0.14,0.109-14.306,10.785-29.676,8.554c-8.219-1.194-15.432-5.991-21.433-14.253c-0.819-1.126-2.094-1.837-3.484-1.945
	c-1.378-0.099-2.764,0.394-3.748,1.384c-0.124,0.121-12.565,12.404-31.46,17.669c-24.942,6.94-49.095-1.058-71.806-23.797
	c-1.582-1.579-4.055-1.858-5.948-0.642c-0.171,0.109-17.263,10.896-33.669,7.297c-7.893-1.731-14.464-6.64-19.537-14.588
	c-0.381-0.597-0.878-1.071-1.437-1.431V86.981C312.299,86.422,312.5,85.938,312.895,85.543z M312.299,1027.058v-16.012h50.566
	c2.631,0,4.766-2.135,4.766-4.766s-2.135-4.766-4.766-4.766h-50.566v-47.656h81.446c2.631,0,4.766-2.135,4.766-4.766
	c0-2.631-2.135-4.766-4.766-4.766h-81.446v-21.349h51.711c2.631,0,4.766-2.135,4.766-4.766s-2.135-4.766-4.766-4.766h-51.711
	v-21.352h121.479c2.631,0,4.766-2.135,4.766-4.766c0-2.631-2.135-4.766-4.766-4.766H312.299V866.68h204.972
	c2.631,0,4.766-2.135,4.766-4.766s-2.135-4.766-4.766-4.766H312.299v-18.935h262.089c1.139,4.69,1.715,9.575,2.081,14.505
	c0.081,1.096,0.119,2.193,0.194,3.289h-17.077c-2.631,0-4.766,2.135-4.766,4.766s2.135,4.766,4.766,4.766h17.639
	c0.341,6.46,0.576,12.925,0.685,19.396c-0.257-0.043-0.516-0.079-0.785-0.079h-62.145c-2.631,0-4.766,2.135-4.766,4.766
	s2.135,4.766,4.766,4.766h62.145c0.313,0,0.617-0.035,0.912-0.092c-0.015,6.038-0.195,12.043-0.922,18.071
	c-0.146,1.212-0.424,2.475-0.738,3.752h-43.098c-2.631,0-4.766,2.135-4.766,4.766c0,2.631,2.135,4.766,4.766,4.766h141.825
	c2.631,0,4.766-2.135,4.766-4.766c0-2.631-2.135-4.766-4.766-4.766h-36.333c-0.744-7.243-1.36-14.475-1.785-21.73h51.844
	c2.631,0,4.766-2.135,4.766-4.766s-2.135-4.766-4.766-4.766h-52.3c-0.234-6.276-0.661-12.796-0.833-19.317h13.101
	c2.631,0,4.766-2.135,4.766-4.766s-2.135-4.766-4.766-4.766h-13.098c0.117-3.895,0.391-7.749,0.963-11.5
	c0.32-2.097,0.769-4.195,1.262-6.293h249.757l0.002,18.935H691.118c-2.631,0-4.766,2.135-4.766,4.766s2.135,4.766,4.766,4.766
	h196.568l0.002,18.281c-0.32-0.068-0.651-0.107-0.992-0.107H768.891c-2.631,0-4.766,2.135-4.766,4.766s2.135,4.766,4.766,4.766
	h117.805c0.341,0,0.672-0.039,0.993-0.107l0.002,21.456H842.09c-2.631,0-4.766,2.135-4.766,4.766s2.135,4.766,4.766,4.766h45.602
	l0.002,17.917h-86.778c-2.631,0-4.766,2.135-4.766,4.766s2.135,4.766,4.766,4.766h86.778l0.002,21.352H774.612
	c-2.631,0-4.766,2.135-4.766,4.766s2.135,4.766,4.766,4.766h113.085l0.002,16.773h-42.177c-2.631,0-4.766,2.135-4.766,4.766
	s2.135,4.766,4.766,4.766h42.178l0.002,17.157H312.299z M548.592,153.155l13.611-16.344l-13.611-16.347
	c-0.934-1.111-1.334-2.389-1.201-3.835s0.757-2.637,1.871-3.571c1.111-0.934,2.389-1.334,3.835-1.201s2.634,0.757,3.568,1.868
	l12.376,14.88l12.376-14.88c0.937-1.111,2.125-1.734,3.571-1.868s2.724,0.267,3.835,1.201c1.114,0.934,1.734,2.125,1.871,3.571
	c0.133,1.446-0.27,2.724-1.204,3.835l-13.608,16.347l13.608,16.344c0.934,1.114,1.337,2.392,1.204,3.838
	c-0.137,1.446-0.757,2.625-1.871,3.534c-0.977,0.825-2.1,1.235-3.369,1.235c-1.623,0-2.966-0.633-4.036-1.902l-12.376-14.843
	l-12.376,14.843c-1.067,1.269-2.411,1.902-4.036,1.902c-1.288,0-2.411-0.41-3.366-1.235c-1.114-0.909-1.737-2.088-1.871-3.534
	S547.658,154.269,548.592,153.155z M603.868,153.155l13.611-16.344l-13.611-16.347c-0.934-1.111-1.334-2.389-1.201-3.835
	s0.757-2.637,1.868-3.571s2.389-1.334,3.838-1.201c1.443,0.133,2.634,0.757,3.568,1.868l12.376,14.88l12.376-14.88
	c0.934-1.111,2.122-1.734,3.568-1.868s2.724,0.267,3.838,1.201c1.111,0.934,1.734,2.125,1.868,3.571s-0.267,2.724-1.201,3.835
	l-13.611,16.347l13.611,16.344c0.934,1.114,1.334,2.392,1.201,3.838s-0.757,2.625-1.868,3.534c-0.98,0.825-2.1,1.235-3.369,1.235
	c-1.623,0-2.969-0.633-4.036-1.902l-12.376-14.843L611.94,159.86c-1.067,1.269-2.414,1.902-4.036,1.902
	c-1.291,0-2.414-0.41-3.369-1.235c-1.111-0.909-1.734-2.088-1.868-3.534S602.934,154.269,603.868,153.155z M711.896,889.493
	c0-2.631,2.135-4.766,4.766-4.766h24.399c2.631,0,4.766,2.135,4.766,4.766s-2.135,4.766-4.766,4.766h-24.399
	C714.031,894.258,711.896,892.124,711.896,889.493z M454.81,889.62c0-2.631,2.135-4.766,4.766-4.766h24.399
	c2.631,0,4.766,2.135,4.766,4.766s-2.135,4.766-4.766,4.766h-24.399C456.945,894.386,454.81,892.251,454.81,889.62z
	 M479.526,925.266h-96.453c-2.631,0-4.766-2.135-4.766-4.766s2.135-4.766,4.766-4.766h96.453c2.631,0,4.766,2.135,4.766,4.766
	S482.157,925.266,479.526,925.266z M726.574,915.734h90.353c2.631,0,4.766,2.135,4.766,4.766s-2.135,4.766-4.766,4.766h-90.353
	c-2.631,0-4.766-2.135-4.766-4.766S723.943,915.734,726.574,915.734z M451.506,942.612c2.631,0,4.766,2.135,4.766,4.766
	s-2.135,4.766-4.766,4.766h-24.402c-2.631,0-4.766-2.135-4.766-4.766s2.135-4.766,4.766-4.766H451.506z M777.661,947.378
	c0,2.631-2.135,4.766-4.766,4.766h-24.402c-2.631,0-4.766-2.135-4.766-4.766s2.135-4.766,4.766-4.766h24.402
	C775.527,942.612,777.661,944.747,777.661,947.378z M745.637,978.832c0,2.631-2.135,4.766-4.766,4.766h-24.402
	c-2.631,0-4.766-2.135-4.766-4.766s2.135-4.766,4.766-4.766h24.402C743.502,974.066,745.637,976.201,745.637,978.832z
	 M489.249,974.066c2.631,0,4.766,2.135,4.766,4.766s-2.135,4.766-4.766,4.766H464.85c-2.631,0-4.766-2.135-4.766-4.766
	s2.135-4.766,4.766-4.766H489.249z M667.498,428.516c0,2.428-1.969,4.397-4.397,4.397c-5.618,0-10.189,4.57-10.189,10.188
	c0,2.428-1.969,4.397-4.397,4.397s-4.397-1.969-4.397-4.397c0-5.618-4.571-10.188-10.188-10.188c-2.428,0-4.397-1.969-4.397-4.397
	s1.969-4.397,4.397-4.397c5.617,0,10.188-4.57,10.188-10.188c0-2.428,1.969-4.397,4.397-4.397s4.397,1.969,4.397,4.397
	c0,5.618,4.571,10.188,10.189,10.188C665.53,424.119,667.498,426.088,667.498,428.516z M676.071,359.892
	c0,2.428-1.969,4.397-4.396,4.397c-5.619,0-10.19,4.57-10.19,10.188c0,2.428-1.969,4.397-4.396,4.397
	c-2.429,0-4.397-1.969-4.397-4.397c0-5.618-4.57-10.188-10.188-10.188c-2.428,0-4.396-1.969-4.396-4.397s1.969-4.397,4.396-4.397
	c5.618,0,10.188-4.571,10.188-10.189c0-2.428,1.969-4.396,4.397-4.396c2.428,0,4.396,1.969,4.396,4.396
	c0,5.618,4.571,10.189,10.19,10.189C674.102,355.495,676.071,357.464,676.071,359.892z M598.874,425.084
	c0,2.429-1.969,4.397-4.397,4.397c-5.619,0-10.189,4.57-10.189,10.188c0,2.428-1.969,4.396-4.397,4.396s-4.397-1.969-4.397-4.396
	c0-5.618-4.57-10.188-10.188-10.188c-2.428,0-4.397-1.969-4.397-4.397c0-2.428,1.969-4.396,4.397-4.396
	c5.618,0,10.188-4.571,10.188-10.189c0-2.428,1.969-4.397,4.397-4.397s4.397,1.969,4.397,4.397c0,5.618,4.57,10.189,10.189,10.189
	C596.905,420.688,598.874,422.657,598.874,425.084z M433.778,982.452h-116.66c-2.631,0-4.766-2.135-4.766-4.766
	s2.135-4.766,4.766-4.766h116.66c2.631,0,4.766,2.135,4.766,4.766S436.409,982.452,433.778,982.452z M812.544,1005.135
	c0,2.631-2.135,4.766-4.766,4.766H396.035c-2.631,0-4.766-2.135-4.766-4.766s2.135-4.766,4.766-4.766h411.743
	C810.409,1000.37,812.544,1002.504,812.544,1005.135z"/>
</svg>
