<?xml version="1.0" encoding="utf-8"?>
<!-- Generator: Adobe Illustrator 23.0.3, SVG Export Plug-In . SVG Version: 6.00 Build 0)  -->
<svg version="1.1" id="Capa_1" xmlns="http://www.w3.org/2000/svg" xmlns:xlink="http://www.w3.org/1999/xlink" x="0px" y="0px"
	 viewBox="0 0 1200 1200" enable-background="new 0 0 1200 1200" xml:space="preserve">
<path fill="hsl(290, 13%, 29%)" d="M580.865,276.963c-2.093-8.787-4.256-17.87-3.833-26.809c0.672-14.142,8.73-29.142,15.259-39.109
	c1.108,13.854,5.304,35.299,19.313,56.31c21.249,31.876,24.939,51.609,24.971,51.792c0.341,1.992,1.885,3.561,3.871,3.943
	c1.995,0.382,4-0.511,5.049-2.239c0.546-0.897,11.028-18.407,11.401-41.79c9.608,14.233,22.824,39.832,22.824,72.949
	c0,5.717-0.574,11.388-1.644,16.921c-4.855-0.554-9.722-0.541-14.594,0.107c-6.672,0.882-12.909,2.849-18.685,5.482
	c-0.566-10.116-4.542-19.912-11.695-27.734c-15.398-16.835-19.032-39.207-19.067-39.425c-0.265-1.733-1.443-3.189-3.085-3.808
	c-1.642-0.616-3.486-0.3-4.831,0.83c-9.882,8.313-14.227,22.612-10.807,35.579l0.527,1.951c1.317,4.802,4.398,16.045,1.86,20.365
	c-0.322,0.549-0.824,1.149-2.096,1.462c-3.637,0.893-4.976-0.294-5.478-0.739c-4.136-3.707-4.044-15.831-3.353-21.119
	c0.227-1.746-0.508-3.482-1.923-4.531c-1.424-1.051-3.296-1.244-4.894-0.518c-0.682,0.309-16.775,7.843-22.104,29.113
	c-0.016,0.063-0.786,3.184-1.317,7.124c-5.588-2.274-11.564-3.978-17.902-4.826c-4.532-0.606-9.061-0.738-13.583-0.425
	c-3.636-25.651,2.382-50.404,18.773-76.85c2.251,8.098,6.384,18.053,13.627,22.439c4.385,2.655,9.434,3.031,14.599,1.08
	C588.338,308.34,584.54,292.389,580.865,276.963z M444.167,572.611c-6.204,7.78-10.757,15.092-10.804,15.164
	c-22.894,35.613-29.528,70.763-30.705,78.033c0.072,0.145,0.148,0.301,0.219,0.445c1.52,3.105,2.885,5.889,4.097,8.098
	c2.831-14.527,10.535-44.075,29.92-73.947c23.969-36.932,70.851-80.748,158.785-83.151c0.334-0.073,0.678-0.116,1.034-0.116
	c1.115,0,2.193,0.037,3.296,0.05c1.097-0.013,2.171-0.05,3.28-0.05c0.355,0,0.699,0.043,1.032,0.116
	c87.926,2.389,134.54,45.967,158.278,82.7c20.09,31.088,27.393,61.822,29.81,75.461c1.411-2.46,3.004-5.816,4.825-9.692
	c0.024-0.051,0.049-0.104,0.073-0.154c-1.261-7.66-7.806-41.491-29.587-76.091c-32.845-52.177-82.993-81.307-149.046-86.582
	c-0.3-0.032-6.823-0.859-15.385-0.859C535.043,502.036,481.508,525.782,444.167,572.611z M597.908,373.162
	c-7.132,1.749-11.695-0.641-14.265-2.949c-5.052-4.531-6.573-12.55-6.883-19.127c-3.539,3.571-7.47,9.112-9.5,17.22
	c-0.739,2.943-1.242,6.393-1.433,9.242c18.072,10.053,31.005,25.292,37.236,33.707c5.434-7.754,16.511-21.61,32.004-31.447
	c0.792-9.55-2.39-19.114-9.122-26.474c-10.747-11.751-16.352-25.533-19.108-34.617c-2.952,5.576-3.83,12.383-2.147,18.776
	l0.505,1.856c2.049,7.48,5.481,19.995,0.865,27.847C604.273,370.232,601.454,372.294,597.908,373.162z M378.732,809.37
	l-71.506,77.225V712.697l35.412-22.202c2.27-1.421,2.955-4.414,1.531-6.684c-1.421-2.27-4.414-2.952-6.684-1.531l-30.259,18.971V600
	V476.713l59.906,13.891c0.369,0.085,0.736,0.126,1.099,0.126c2.207,0,4.202-1.512,4.72-3.754c0.606-2.608-1.02-5.216-3.628-5.819
	l-62.098-14.399V258.484l97.001,66.081c0.837,0.571,1.787,0.843,2.728,0.843c1.55,0,3.072-0.742,4.01-2.119
	c1.509-2.213,0.938-5.232-1.276-6.738L307.226,246.75V81.435l130.02,148.339c0.96,1.096,2.298,1.654,3.65,1.654
	c1.133,0,2.273-0.395,3.192-1.203c2.014-1.765,2.216-4.831,0.452-6.842L315.238,75.865h134.037l55.666,98.265
	c0.89,1.575,2.532,2.46,4.221,2.46c0.811,0,1.632-0.202,2.387-0.631c2.33-1.32,3.151-4.278,1.828-6.608L460.42,75.865h139.56
	h141.008L688.03,169.35c-1.323,2.33-0.502,5.288,1.828,6.608c0.755,0.429,1.576,0.631,2.387,0.631c1.689,0,3.331-0.884,4.221-2.46
	l55.666-98.265h134.037L756.868,223.383c-1.765,2.011-1.563,5.077,0.452,6.842c0.919,0.808,2.059,1.203,3.192,1.203
	c1.348,0,2.69-0.559,3.65-1.654L892.734,83.086v164.65l-101.013,68.816c-2.213,1.506-2.785,4.524-1.276,6.738
	c0.938,1.377,2.46,2.119,4.01,2.119c0.941,0,1.891-0.272,2.728-0.843l95.551-65.095v207.623l-60.65,14.063
	c-2.608,0.603-4.234,3.211-3.628,5.819c0.518,2.242,2.513,3.754,4.72,3.754c0.36,0,0.729-0.041,1.099-0.126l58.459-13.555v122.952
	l0.009,100.347l-28.821-18.068c-2.273-1.421-5.263-0.739-6.684,1.531c-1.424,2.27-0.739,5.263,1.531,6.684l33.975,21.299
	l0.017,173.263l-70.086-75.687c-1.822-1.967-4.888-2.084-6.854-0.262c-1.964,1.819-2.081,4.887-0.262,6.854l77.203,83.374v0.045
	c-18.473-17.228-45.871-12.427-61.454-5.809c-18.543-18.003-38.396-27.121-59.063-27.121c-0.032,0-0.066,0-0.095,0
	c-20.312,0.026-36.595,8.868-46.12,15.659c-10.331-34.979-14.775-71.903-9.076-79.175c7.96-10.157,32.817-26.376,46.955-33.704
	c17.242-8.941,41.095-50.924,41.332-51.344c6.678-11.925,35.112-66.909,36.22-69.059c0.174-0.306,4.3-7.546,5.784-13.756
	c1.26-5.276,0.436-9.181-2.45-11.609c-4.139-3.479-10.021-1.5-11.701-0.821c-5.202,1.661-9.722,4.605-13.726,8.289
	c0.086-17.385-2.865-28.169-8.944-32.78c-3.284-2.494-6.889-2.646-9.188-1.983c-5.857,1.247-9.084,5.73-10.713,10.571
	c-0.789-0.224-1.588-0.3-2.39-0.307c-3.393-7.056-7.356-14.386-11.998-21.791c-10.344-16.499-25-34.651-45.366-50.458
	c26.328-63.633,25.204-110.26-3.43-138.55c-13.008-12.848-26.31-21.16-39.744-24.872c1.187-6.135,1.822-12.418,1.822-18.749
	c0-55.691-33.96-90.829-35.403-92.3c-1.519-1.534-3.865-1.882-5.746-0.871c-1.898,1.017-2.898,3.16-2.456,5.266
	c3.353,16.048-0.076,30.872-3.546,40.492c-3.583-9.589-10.296-24.175-22.594-42.623c-20.933-31.396-17.864-64.765-17.832-65.091
	c0.218-2.112-0.963-4.12-2.914-4.957c-1.942-0.837-4.218-0.306-5.595,1.307c-1.01,1.178-24.69,29.173-25.988,56.459
	c-0.493,10.312,1.939,20.516,4.086,29.518c3.988,16.743,4.777,23.342-2.81,26.206c-2.4,0.912-4.297,0.818-6.144-0.3
	c-6.375-3.855-10.397-18.697-11.436-27.15c-0.246-1.992-1.692-3.628-3.637-4.117c-1.945-0.493-3.991,0.278-5.146,1.916
	c-22.691,32.292-31.26,62.123-26.795,93.427c-15.547,3.318-30.962,12.047-46.034,26.172c-31.473,29.509-32.496,75.758-3.213,141.269
	c-10.731,8.72-20.643,18.656-29.632,29.928c-6.58,8.25-11.265,15.783-11.42,16.033c-5.218,8.117-9.613,16.168-13.324,23.891
	c-0.871,0.018-1.745,0.113-2.614,0.376c-0.278,0.085-0.549,0.183-0.818,0.287c-0.789-3.164-2.1-6.359-4.272-8.465
	c-1.598-1.55-3.524-2.447-5.62-2.63c-2.766-0.906-7.505-1.279-11.815,1.79c-6.424,4.57-9.471,14.76-9.243,30.949
	c-3.577-2.914-7.49-5.229-11.81-6.571c-1.162-0.429-7.145-2.381-10.864,1.336c-2.444,2.447-2.823,6.027-1.118,10.646
	c3.397,9.229,5.399,12.825,5.475,12.939c1.178,2.393,28.914,58.776,35.617,70.745c0.237,0.42,24.09,42.402,41.335,51.344
	c14.138,7.331,38.996,23.55,46.952,33.704c6.886,8.784,3.978,40.088-6.76,72.82c-0.131,0.399-0.189,0.801-0.215,1.201
	c-4.625,3.313-8.255,6.736-10.687,9.303c-14.593-13.485-30.61-20.314-47.675-20.314c-0.013,0-0.028,0-0.041,0
	c-26.408,0.019-47.186,16.399-54.091,22.581c-13.821-5.467-30.314-8.236-44.647-0.294l66.919-72.27
	c1.819-1.967,1.702-5.036-0.262-6.854C383.619,807.286,380.554,807.409,378.732,809.37z M621.385,148.669
	c0,1.493,0.521,2.763,1.563,3.801c1.039,1.042,2.305,1.563,3.801,1.563c1.471,0,2.728-0.521,3.767-1.563
	c1.039-1.039,1.563-2.308,1.563-3.801v-40.091c0-1.471-0.524-2.728-1.563-3.77c-1.039-1.061-2.295-1.594-3.767-1.594
	c-1.497,0-2.763,0.534-3.801,1.594c-1.042,1.042-1.563,2.299-1.563,3.77V148.669z M557.668,111.022l20.061,40.057
	c0.455,0.906,1.108,1.62,1.97,2.141c0.859,0.543,1.8,0.815,2.816,0.815s1.958-0.272,2.816-0.815c0.862-0.521,1.516-1.234,1.97-2.141
	l20.03-40.126c0.679-1.31,0.78-2.668,0.303-4.073c-0.474-1.402-1.367-2.431-2.681-3.088c-1.31-0.657-2.668-0.758-4.073-0.306
	c-1.405,0.477-2.434,1.37-3.091,2.681l-15.275,30.553l-15.275-30.484c-0.657-1.336-1.686-2.229-3.091-2.681
	c-1.405-0.477-2.772-0.385-4.108,0.272c-1.313,0.657-2.194,1.686-2.646,3.088C556.92,108.319,557.012,109.686,557.668,111.022z
	 M775.754,673.961c2.074,0.147,4.735,0.437,6.672,1.015c-2.701-13.828-10.032-42.119-28.182-70.076
	c-33.095-50.982-85.003-77.172-154.233-77.987c-69.404,0.815-121.56,27.267-154.983,78.773
	c-18.431,28.405-25.836,56.968-28.528,70.633c2.778-0.975,5.787-1.784,8.673-2.071c11.979-41.021,52.128-130.686,173.727-131.571
	c0.139-0.012,0.273-0.042,0.415-0.042c0.242,0,0.47,0.015,0.711,0.015c0.223,0,0.433-0.015,0.656-0.015
	c0.128,0,0.249,0.028,0.374,0.038c117.963,0.801,158.854,81.519,172.806,130.938C774.459,673.683,775.09,673.793,775.754,673.961z
	 M682.388,731.556c4.884-1.677,8.803-2.633,12.257-3.476c11.729-2.86,17.618-4.3,41.291-31.788
	c3.924-4.557,7.608-8.168,11.032-11.095c-7.557-24.068-22.682-56.422-52.34-79.865c-39.93,67.222-87.926,123.781-88.415,124.354
	c-0.96,1.127-2.321,1.705-3.694,1.705c-0.099,0-0.196-0.046-0.296-0.052c-0.096,0.005-0.186,0.052-0.282,0.052
	c-1.307,0-2.611-0.527-3.568-1.563c-0.523-0.569-51.808-56.487-94.465-123.34c-28.619,23.275-43.357,54.858-50.809,78.508
	c3.324,2.983,6.972,6.686,10.957,11.279c23.838,27.478,29.71,28.927,41.408,31.813c3.426,0.846,7.306,1.806,12.149,3.467
	c24.722,8.493,41.187,23.045,41.187,66.47c0,29.098-3.67,53.08-6.913,68.605c10.761-11.821,29.391-24.748,58.456-22.022
	c15.925,1.492,28.684,6.772,38.205,15.727c-3.745-15.648-7.345-37.201-7.345-62.31C641.201,754.601,657.666,740.049,682.388,731.556
	z M397.467,605.719c-0.669-0.013-1.332-0.161-1.945-0.445c-0.196-0.073-1.774-0.609-3.29,0.54
	c-1.673,1.261-6.851,7.459-4.447,34.064c2.878,3.883,5.449,8.034,7.762,12.161c0.976-4.07,2.275-8.904,3.962-14.295
	c-0.131-9.695,0.088-17.651,0.38-20.701C399.856,612.335,398.69,606.913,397.467,605.719z M503.35,866.078
	c12.323-1.275,24.482,2.231,36.278,10.299c3.196-12.356,9.471-41.342,9.471-78.352c0-41.929-16.383-51.028-34.639-57.295
	c-4.433-1.525-8.095-2.428-11.322-3.224c-14.255-3.517-21.602-6.28-46.409-34.872c-17.4-20.055-26.18-19.85-26.234-19.768
	c-0.278,0.107-0.565,0.189-0.859,0.246c-0.688,0.142-1.544,0.464-2.1,0.774c0.549,0.852,1.23,1.855,1.999,2.954
	c0.055,0.079,0.114,0.155,0.165,0.237c3.851,5.487,10.039,13.573,15.894,21.072c0.247,0.252,0.459,0.529,0.642,0.822
	c7.593,9.711,14.438,18.207,14.572,18.372c0.48,0.594,0.811,1.298,0.969,2.046c0.025,0.117,2.501,11.777,6.011,20.832
	c0.969,2.494-0.272,5.304-2.769,6.274c-2.488,0.966-5.307-0.268-6.274-2.769c-3.167-8.165-5.468-17.88-6.207-21.189
	c-1.989-2.473-7.654-9.545-13.86-17.48c-5.401-3.707-31.552-22.006-38.693-33.428c-1.759-2.813-3.644-6.659-5.822-11.111
	c-6.662-13.598-16.686-34.067-31.134-38.955c2.952,7.931,4.663,11.019,4.682,11.051c0.417,0.83,28.93,58.789,35.507,70.531
	c8.948,15.979,27.004,42.115,37.338,47.473c11.423,5.923,39.902,23.294,50.122,36.331c10.178,12.98,5.441,45.734-2.513,73.139
	C492.747,868.131,497.827,866.647,503.35,866.078z M892.763,914.588l0.011,120.001H307.226V915.663l0.309-0.612
	c4.553-9.055,16.642-33.104,55.155-16.396c1.841,0.805,3.991,0.379,5.396-1.058c0.215-0.221,21.766-21.934,49.588-21.953
	c0.013,0,0.022,0,0.035,0c15.837,0,30.812,7.085,44.508,21.056c0.988,1.007,2.368,1.509,3.776,1.446
	c1.408-0.092,2.706-0.789,3.558-1.917c0.136-0.183,14.1-18.375,34.79-20.503c12.332-1.238,24.725,3.473,36.858,14.085
	c1.178,1.029,2.775,1.421,4.297,1.073c1.522-0.357,2.778-1.424,3.375-2.867c0.158-0.382,16.197-37.894,60.566-33.755
	c8.585,0.805,34.711,3.255,45.216,33.666c0.499,1.446,1.651,2.573,3.107,3.037c1.452,0.467,3.044,0.215,4.294-0.669
	c0.035-0.025,0.103-0.073,0.178-0.125c0.314-0.062,0.628-0.155,0.936-0.282c0.816-0.341,1.472-0.892,1.972-1.549
	c8.728-5.09,33.901-16.584,51.181,7.621c0.833,1.168,2.144,1.907,3.574,2.014c1.165,0.121,2.272-0.234,3.183-0.898
	c0.351,0.081,0.703,0.169,1.07,0.169c0.499,0,1.01-0.076,1.512-0.243c2.163-0.708,3.473-2.795,3.309-4.968
	c7.72-5.992,23.416-15.86,43.192-15.886c18.855-0.161,37.278,8.929,54.643,26.622c1.462,1.49,3.722,1.875,5.595,0.957
	c1.667-0.818,41.136-19.645,59.875,10.23C892.419,914.189,892.589,914.391,892.763,914.588z M459.969,975.068
	c-0.287-0.71-7.284-17.397-29.732-19.96c-17.649-2.011-28.589,7.486-33.688,15.562c-19.08-10.899-34.493-8.421-44.325-4.161
	c-13.106,5.68-21.615,16.929-22.313,21.116c-0.442,2.643,1.345,5.143,3.984,5.582c0.272,0.044,0.54,0.066,0.805,0.066
	c2.213,0,4.177-1.519,4.708-3.707c1.017-2.374,8.199-11.679,20.052-15.42c11.335-3.58,23.547-1.067,36.328,7.454
	c1.234,0.821,2.778,1.032,4.196,0.575c1.411-0.461,2.535-1.544,3.047-2.939c0.249-0.688,6.346-16.753,26.108-14.492
	c16.535,1.888,21.646,13.504,21.839,13.962c1.004,2.482,3.814,3.678,6.315,2.677C459.773,980.379,460.973,977.55,459.969,975.068z
	 M518.761,937.815c0.925,0.843,2.093,1.26,3.258,1.26c1.212,0,2.422-0.451,3.359-1.351c0.171-0.164,17.239-16.213,37.266-6.864
	c2.431,1.13,5.311,0.082,6.447-2.343c1.133-2.428,0.082-5.314-2.343-6.447c-20.203-9.425-37.496,0.505-44.631,5.803
	c-14.217-11.941-28.371-17.34-42.068-16.058c-18.944,1.774-29.732,15.786-30.184,16.383c-1.607,2.131-1.187,5.156,0.938,6.772
	c2.122,1.623,5.165,1.206,6.791-0.909c0.085-0.114,8.828-11.287,23.487-12.601C492.969,920.428,505.63,925.903,518.761,937.815z
	 M706.787,1007.405c-0.215-0.71-5.449-17.58-23.345-26.954c-11.95-6.255-25.925-3.928-32.596-2.21
	c-3.164-4.575-9.961-11.802-21.908-13.062c-12.19-1.269-22.774,4.667-27.787,8.146c-4.272-2.529-12.528-5.958-25.053-5.052
	c-16.45,1.175-25.009,12.055-28.45,20.494c-35.223-9.409-49.241,22.455-49.386,22.792c-1.045,2.466,0.101,5.314,2.567,6.362
	c0.619,0.262,1.263,0.385,1.894,0.385c1.888,0,3.681-1.108,4.468-2.952c0.467-1.096,11.77-26.704,42.02-15.951
	c1.342,0.48,2.807,0.344,4.035-0.36c1.228-0.701,2.087-1.904,2.352-3.293c0.032-0.164,3.381-16.532,21.192-17.804
	c14.391-1.029,20.914,4.685,21.138,4.884c1.806,1.714,4.638,1.781,6.526,0.145c0.111-0.095,11.117-9.453,23.468-8.149
	c11.619,1.222,16.067,10.716,16.238,11.088c1.026,2.349,3.703,3.489,6.112,2.608c0.167-0.06,16.412-5.901,28.668,0.521
	c14.17,7.42,18.521,21.031,18.559,21.151c0.767,2.567,3.473,4.013,6.04,3.249C706.102,1012.674,707.557,1009.972,706.787,1007.405z
	 M742.404,934.058c1.62,2.128,4.654,2.538,6.782,0.935c2.137-1.617,2.561-4.657,0.947-6.794
	c-0.451-0.594-11.24-14.606-30.181-16.383c-13.703-1.288-27.85,4.114-42.071,16.058c-7.135-5.298-24.425-15.234-44.628-5.803
	c-2.425,1.133-3.476,4.019-2.343,6.447c1.133,2.425,4.022,3.47,6.447,2.343c19.894-9.295,36.574,6.21,37.262,6.864
	c0.938,0.9,2.147,1.351,3.359,1.351c1.165,0,2.333-0.417,3.258-1.257c13.134-11.919,25.789-17.425,37.682-16.358
	C733.532,922.771,742.262,933.878,742.404,934.058z M871.825,987.625c-0.698-4.187-9.207-15.436-22.313-21.116
	c-9.838-4.266-25.246-6.738-44.322,4.161c-5.099-8.08-16.007-17.583-33.691-15.562c-22.445,2.564-29.445,19.25-29.732,19.96
	c-0.998,2.466,0.186,5.26,2.646,6.28c2.456,1.017,5.288-0.155,6.33-2.605c0.208-0.493,5.323-12.111,21.855-13.999
	c19.566-2.204,25.861,13.835,26.111,14.492c0.511,1.396,1.635,2.478,3.047,2.939c1.414,0.458,2.962,0.246,4.196-0.575
	c12.784-8.522,25.009-11.025,36.325-7.454c11.856,3.741,19.035,13.049,20.052,15.42c0.53,2.188,2.494,3.707,4.708,3.707
	c0.265,0,0.534-0.022,0.805-0.066C870.48,992.768,872.267,990.267,871.825,987.625z M610.032,1083.464
	c-4.051,0-7.514,1.449-10.388,4.344c-2.876,2.876-4.31,6.337-4.31,10.387c0,4.051,1.433,7.514,4.31,10.388
	c2.873,2.876,6.337,4.313,10.388,4.313c4.051,0,7.524-1.437,10.422-4.313c2.873-2.873,4.313-6.337,4.313-10.388
	c0-4.051-1.44-7.511-4.313-10.387C617.556,1084.913,614.083,1083.464,610.032,1083.464z M918.618,77.934V600v522.066
	c0,7.714-3.126,14.697-8.181,19.752c-5.055,5.055-12.039,8.182-19.752,8.182H600H309.315c-7.714,0-14.697-3.126-19.752-8.182
	c-5.055-5.055-8.181-12.038-8.181-19.752V600V77.934c0-7.714,3.127-14.697,8.181-19.752C294.618,53.127,301.601,50,309.315,50H600
	h290.685c7.713,0,14.697,3.127,19.752,8.182C915.492,63.237,918.618,70.22,918.618,77.934z M383.165,1078.135
	c0-1.471-0.521-2.728-1.56-3.77c-1.067-1.061-2.333-1.594-3.805-1.594h-33.404c-1.493,0-2.763,0.534-3.801,1.594
	c-1.042,1.042-1.563,2.298-1.563,3.77s0.521,2.728,1.563,3.767c1.039,1.042,2.308,1.563,3.801,1.563h11.338v34.762
	c0,1.493,0.521,2.763,1.563,3.801c1.064,1.042,2.33,1.563,3.801,1.563c1.471,0,2.728-0.521,3.767-1.563
	c1.042-1.039,1.563-2.308,1.563-3.801v-34.762h11.373c1.471,0,2.737-0.521,3.805-1.563
	C382.644,1080.862,383.165,1079.606,383.165,1078.135z M437.379,1078.135c0-1.471-0.521-2.728-1.563-3.77
	c-1.061-1.061-2.33-1.594-3.801-1.594c-1.471,0-2.728,0.534-3.77,1.594c-1.039,1.042-1.56,2.298-1.56,3.77v14.697H403.94v-14.697
	c0-1.471-0.521-2.728-1.56-3.77c-1.042-1.061-2.299-1.594-3.77-1.594c-1.493,0-2.759,0.534-3.801,1.594
	c-1.042,1.042-1.56,2.298-1.56,3.77v40.091c0,1.493,0.518,2.763,1.56,3.801c1.042,1.042,2.308,1.563,3.801,1.563
	c1.471,0,2.728-0.521,3.77-1.563c1.039-1.039,1.56-2.308,1.56-3.801v-14.7h22.745v14.7c0,1.493,0.521,2.763,1.56,3.801
	c1.042,1.042,2.299,1.563,3.77,1.563c1.471,0,2.741-0.521,3.801-1.563c1.042-1.039,1.563-2.308,1.563-3.801V1078.135z
	 M462.16,1092.832v-9.368h28.075c1.471,0,2.737-0.521,3.801-1.563c1.042-1.039,1.56-2.295,1.56-3.767s-0.518-2.728-1.56-3.77
	c-1.064-1.061-2.33-1.594-3.801-1.594h-33.404c-1.497,0-2.763,0.534-3.801,1.594c-1.042,1.042-1.563,2.298-1.563,3.77v40.091
	c0,1.493,0.521,2.763,1.563,3.801c1.039,1.042,2.305,1.563,3.801,1.563h33.404c1.471,0,2.737-0.521,3.801-1.563
	c1.042-1.039,1.56-2.308,1.56-3.801c0-1.471-0.518-2.728-1.56-3.77c-1.064-1.039-2.33-1.56-3.801-1.56H462.16v-9.371h21.387
	c1.471,0,2.734-0.518,3.801-1.56c1.042-1.042,1.56-2.299,1.56-3.77c0-1.493-0.518-2.759-1.56-3.801
	c-1.067-1.042-2.33-1.563-3.801-1.563H462.16z M577.24,1118.226c0-1.471-0.521-2.728-1.563-3.77c-1.064-1.039-2.33-1.56-3.801-1.56
	h-21.388v-34.762c0-1.471-0.521-2.728-1.56-3.77c-1.042-1.061-2.298-1.594-3.77-1.594c-1.493,0-2.759,0.534-3.801,1.594
	c-1.042,1.042-1.56,2.298-1.56,3.77v40.091c0,1.493,0.518,2.763,1.56,3.801c1.042,1.042,2.308,1.563,3.801,1.563h26.717
	c1.471,0,2.737-0.521,3.801-1.563C576.719,1120.988,577.24,1119.719,577.24,1118.226z M635.458,1098.196
	c0-7.016-2.488-13.002-7.47-17.959c-4.954-4.976-10.94-7.467-17.956-7.467c-6.993,0-12.98,2.491-17.959,7.467
	c-4.954,4.957-7.435,10.943-7.435,17.959c0,6.993,2.482,12.98,7.435,17.959c4.979,4.957,10.965,7.435,17.959,7.435
	c7.016,0,13.002-2.479,17.956-7.435C632.97,1111.176,635.458,1105.189,635.458,1098.196z M693.372,1076.436
	c-0.477-1.402-1.367-2.431-2.681-3.088c-1.313-0.657-2.671-0.758-4.073-0.306c-1.405,0.477-2.434,1.37-3.091,2.681l-15.278,30.553
	l-15.275-30.484c-0.657-1.336-1.686-2.229-3.088-2.681c-1.405-0.477-2.772-0.385-4.108,0.271c-1.313,0.657-2.194,1.686-2.649,3.088
	c-0.474,1.405-0.385,2.772,0.272,4.108l20.061,40.057c0.455,0.906,1.111,1.62,1.97,2.141c0.859,0.543,1.8,0.815,2.816,0.815
	c1.02,0,1.958-0.272,2.82-0.815c0.862-0.521,1.515-1.234,1.967-2.141l20.03-40.126
	C693.747,1079.199,693.849,1077.841,693.372,1076.436z M714.418,1092.832v-9.368h28.075c1.471,0,2.737-0.521,3.805-1.563
	c1.039-1.039,1.56-2.295,1.56-3.767s-0.521-2.728-1.56-3.77c-1.067-1.061-2.333-1.594-3.805-1.594h-33.404
	c-1.493,0-2.763,0.534-3.801,1.594c-1.042,1.042-1.563,2.298-1.563,3.77v40.091c0,1.493,0.521,2.763,1.563,3.801
	c1.039,1.042,2.308,1.563,3.801,1.563h33.404c1.471,0,2.737-0.521,3.805-1.563c1.039-1.039,1.56-2.308,1.56-3.801
	c0-1.471-0.521-2.728-1.56-3.77c-1.067-1.039-2.333-1.56-3.805-1.56h-28.075v-9.371h21.388c1.471,0,2.737-0.518,3.801-1.56
	c1.042-1.042,1.563-2.299,1.563-3.77c0-1.493-0.521-2.759-1.563-3.801c-1.064-1.042-2.33-1.563-3.801-1.563H714.418z
	 M794.667,1107.295c2.671-1.699,4.777-3.915,6.315-6.656c1.61-2.829,2.412-5.873,2.412-9.131c0-5.159-1.831-9.573-5.5-13.239
	c-3.666-3.666-8.08-5.5-13.239-5.5h-20.03c-1.493,0-2.763,0.534-3.801,1.594c-1.042,1.042-1.563,2.298-1.563,3.77v40.091
	c0,1.493,0.521,2.763,1.563,3.801c1.039,1.042,2.308,1.563,3.801,1.563c1.471,0,2.728-0.521,3.767-1.563
	c1.042-1.039,1.563-2.308,1.563-3.801v-8.013h12.493l11.815,11.815c1.039,1.042,2.295,1.563,3.767,1.563s2.737-0.521,3.805-1.563
	c1.039-1.039,1.56-2.308,1.56-3.801c0-1.471-0.521-2.728-1.56-3.77L794.667,1107.295z M822.811,1088.149
	c0-1.291,0.461-2.39,1.389-3.293c0.906-0.928,2.005-1.392,3.296-1.392h23.389c1.471,0,2.737-0.521,3.801-1.563
	c1.042-1.039,1.56-2.295,1.56-3.767s-0.518-2.728-1.56-3.77c-1.064-1.061-2.33-1.594-3.801-1.594h-23.389
	c-4.234,0-7.855,1.506-10.864,4.515c-3.009,3.009-4.515,6.63-4.515,10.864c0,4.253,1.506,7.874,4.515,10.861
	c3.009,3.012,6.63,4.515,10.864,4.515h13.374c1.288,0,2.387,0.464,3.293,1.392c0.925,0.906,1.392,2.005,1.392,3.293
	c0,1.291-0.467,2.4-1.392,3.328c-0.906,0.906-2.005,1.358-3.293,1.358h-23.389c-1.497,0-2.763,0.521-3.801,1.56
	c-1.042,1.042-1.563,2.298-1.563,3.77c0,1.493,0.521,2.763,1.563,3.801c1.039,1.042,2.305,1.563,3.801,1.563h23.389
	c4.231,0,7.852-1.506,10.861-4.515c3.012-3.009,4.515-6.63,4.515-10.864c0-4.231-1.503-7.852-4.515-10.864
	c-3.009-3.009-6.63-4.515-10.861-4.515h-13.374c-1.291,0-2.39-0.452-3.296-1.358
	C823.272,1090.549,822.811,1089.438,822.811,1088.149z M902.433,600V474.214c1.322-1.139,1.999-2.941,1.577-4.758
	c-0.242-1.05-0.818-1.93-1.577-2.58v-214.26c1.355-1.621,1.552-3.994,0.302-5.828c-0.09-0.132-0.201-0.239-0.302-0.359V77.934
	c0-2.419-0.739-4.718-2.086-6.666c-0.227-0.938-0.727-1.819-1.508-2.503c-0.775-0.683-1.707-1.065-2.66-1.17
	c-1.684-0.901-3.55-1.429-5.514-1.429H599.98H309.294c-3.143,0-6.098,1.224-8.321,3.447c-2.223,2.223-3.447,5.178-3.447,8.322
	v391.141c-0.041,0.129-0.099,0.248-0.129,0.381c-0.208,0.894-0.137,1.782,0.129,2.595V600v436.15
	c0.084,4.507,3.75,8.138,8.278,8.138h588.11c4.58,0,8.559-3.98,8.559-8.56l-0.013-134.954c0.936-1.531,0.936-3.406-0.001-4.958
	l-0.017-183.261c0.069-0.094,0.156-0.165,0.219-0.265c1.092-1.741,0.935-3.902-0.219-5.458L902.433,600z M784.655,1083.464h-14.7
	v16.058h14.7c2.216,0,4.108-0.783,5.667-2.343c1.585-1.585,2.377-3.476,2.377-5.671c0-2.216-0.792-4.108-2.377-5.667
	C788.763,1084.256,786.872,1083.464,784.655,1083.464z M804.309,651.455c1.498-2.761,3.099-5.512,4.839-8.171
	c2.21-30.566-3.422-36.524-4.584-37.408c-0.17-0.126-0.237-0.521-0.461-0.448c-0.24,0.088-0.489,0.155-0.745,0.205
	c-4.613,0.881-4.562,10.561-4.559,10.659c0.002,0.056-0.023,0.105-0.023,0.16c0.922,3.829,1.623,10.392,1.823,21.638
	C802.158,643.095,803.372,647.596,804.309,651.455z M600.003,552.35c-109.747,0.309-150.06,74.054-164.627,121.612
	c2.611,0.742,5.805,2.177,9.589,4.681c14.93-44.759,54.061-112.542,153.965-113.34c0.129-0.01,0.253-0.039,0.386-0.039
	c0.232,0,0.451,0.014,0.684,0.015c0.232-0.001,0.451-0.015,0.684-0.015c0.133,0,0.257,0.028,0.386,0.039
	c100.247,0.8,139.305,69.049,154.123,113.802c3.455-2.143,6.457-3.49,8.921-4.315C750.473,627.775,711.25,552.664,600.003,552.35z
	 M715.693,881.061c-7.255-26.093-16.755-70.861-6.374-84.109c10.223-13.043,38.702-30.411,50.125-36.334
	c10.334-5.358,28.387-31.494,37.335-47.473c6.599-11.783,35.87-68.387,36.167-68.955c0.133-0.246,3.71-6.532,4.865-11.373
	c0.158-0.663,0.24-1.178,0.278-1.566c-0.521,0.101-1.089,0.265-1.418,0.407c-0.155,0.066-0.316,0.126-0.477,0.177
	c-13.658,4.251-22.544,21.841-29.094,35.706c-0.159,0.781-0.497,1.5-0.991,2.104c-0.031,0.066-0.064,0.136-0.095,0.201
	c-2.223,4.726-4.139,8.806-5.999,11.783c-7.521,12.032-34.711,30.689-37.786,32.776c-0.082,0.055-0.172,0.088-0.256,0.137
	c-6.436,8.161-12.429,15.483-14.52,18.027c-0.745,3.337-3.04,13.018-6.201,21.16c-0.969,2.494-3.779,3.729-6.277,2.766
	c-2.497-0.969-3.735-3.779-2.766-6.277c3.523-9.074,5.986-20.712,6.011-20.829c0.161-0.767,0.505-1.487,1.007-2.09
	c0.265-0.325,26.72-32.372,33.142-43.258c0.18-0.306,0.319-0.568,0.423-0.789c-0.442-0.06-0.916-0.088-1.206-0.063
	c-0.23,0.016-0.458,0.013-0.695-0.006c0.032,0.006-10.899,0.032-27.607,19.436c-24.611,28.58-32.403,31.481-46.343,34.885
	c-3.252,0.792-6.94,1.692-11.404,3.227c-18.255,6.267-34.639,15.367-34.639,57.295c0,38.073,8.775,68.108,12.845,79.99
	C677.514,871.014,698.615,866.671,715.693,881.061z"/>
</svg>
