<svg version="1.1" id="Capa_1" xmlns="http://www.w3.org/2000/svg" xmlns:xlink="http://www.w3.org/1999/xlink" x="0px" y="0px" viewBox="0 0 1200 1200" enable-background="new 0 0 1200 1200" xml:space="preserve">
<path fill="hsl(290, 13%, 29%)" d="M514.098,820.811c8.361-32.424,21.21-54.768,24.324-59.898c2.395-36.705,11.796-59.216,18.39-70.808&#xA;&#9;c-0.289-0.321-0.575-0.644-0.852-0.974c-3.483-4.115-6.1-9.093-7.68-14.424c-33.585-7.236-65.262-21.459-93.374-42.346&#xA;&#9;c-41.366-30.735-71.457-72.812-87.021-121.683c-1.524-4.785,0.875-9.938,5.515-11.855c1.202-0.497,2.451-0.733,3.681-0.732&#xA;&#9;c3.52,0,6.89,1.933,8.591,5.242c25.41,49.416,75.654,80.114,131.126,80.114c51.548,0,98.449-26.217,125.537-70.146&#xA;&#9;c2.354-4.653,4.191-9.484,5.46-14.365l0.151-0.564c0.827-3.071,1.325-5.21,1.624-6.68c-4.29-4.469-4.656-8.964-4.323-12.921&#xA;&#9;c0.006-0.075,0.014-0.149,0.021-0.226c-0.156-0.202-0.41-0.501-0.806-0.897c-6.497-6.497-5.716-15.514-1.48-22.136&#xA;&#9;c-8.048-1.366-16.185-4.007-18.993-12.123c-4.585-13.245,3.71-18.177,8.166-20.826c3.623-2.154,8.585-5.104,14.622-14.252&#xA;&#9;c5.973-9.049,7.302-22.351,3.405-33.941l-1.75-4.494c-1.451-2.749-3.009-5.482-4.638-8.129c-0.402-0.654-0.722-1.348-0.956-2.065&#xA;&#9;c-26.643-43.86-74.741-71.016-126.041-71.016c-54.374,0-104.157,29.795-129.922,77.758c-1.732,3.224-5.053,5.088-8.511,5.088&#xA;&#9;c-1.286,0-2.59-0.258-3.838-0.799c-4.605-1.997-6.912-7.191-5.306-11.946C402.676,259.685,495.418,193.114,600,193.114&#xA;&#9;c134.316,0,243.589,109.273,243.589,243.588c0,115.961-81.473,213.197-190.168,237.622c-0.149,0.416-0.265,0.865-0.426,1.27&#xA;&#9;c-1.44,3.633-3.303,7.044-5.544,10.127c-0.578,0.802-2.398,3.237-4.564,5.403c6.415,11.636,15.48,33.955,17.818,69.789&#xA;&#9;c3.115,5.13,15.961,27.461,24.299,59.797l0.344,1.464h207.15l-0.02-222.173V78.394c0-0.568-0.204-1.06-0.605-1.461&#xA;&#9;c-0.404-0.403-0.894-0.607-1.463-0.607H309.552c-0.569,0-1.059,0.204-1.462,0.605c-0.402,0.402-0.607,0.894-0.607,1.462v743.781&#xA;&#9;h206.293L514.098,820.811z M749.724,736.076c-5.713,0-10.36,4.646-10.36,10.358c0,2.469-2.002,4.471-4.471,4.471&#xA;&#9;c-2.468,0-4.47-2.002-4.47-4.471c0-5.712-4.647-10.358-10.358-10.358c-2.47,0-4.471-2.002-4.471-4.47&#xA;&#9;c0-2.469,2.001-4.471,4.471-4.471c5.711,0,10.358-4.647,10.358-10.359c0-2.469,2.002-4.47,4.47-4.47c2.469,0,4.471,2.001,4.471,4.47&#xA;&#9;c0,5.712,4.647,10.359,10.36,10.359c2.468,0,4.469,2.002,4.469,4.471C754.193,734.074,752.192,736.076,749.724,736.076z&#xA;&#9; M801.647,655.631c0-2.469,2.002-4.47,4.47-4.47c5.711,0,10.359-4.647,10.359-10.359c0-2.469,2.001-4.471,4.47-4.471&#xA;&#9;c2.469,0,4.47,2.002,4.47,4.471c0,5.712,4.647,10.359,10.36,10.359c2.469,0,4.47,2.001,4.47,4.47c0,2.469-2.001,4.47-4.47,4.47&#xA;&#9;c-5.713,0-10.36,4.647-10.36,10.359c0,2.469-2.001,4.47-4.47,4.47c-2.469,0-4.47-2.002-4.47-4.47&#xA;&#9;c0-5.712-4.648-10.359-10.359-10.359C803.649,660.101,801.647,658.1,801.647,655.631z M845.831,757.583&#xA;&#9;c-5.713,0-10.36,4.646-10.36,10.358c0,2.469-2.002,4.471-4.47,4.471c-2.47,0-4.471-2.002-4.471-4.471&#xA;&#9;c0-5.712-4.647-10.358-10.358-10.358c-2.469,0-4.47-2.002-4.47-4.471s2.001-4.471,4.47-4.471c5.711,0,10.358-4.647,10.358-10.359&#xA;&#9;c0-2.469,2.001-4.47,4.471-4.47c2.468,0,4.47,2.001,4.47,4.47c0,5.712,4.646,10.359,10.36,10.359c2.468,0,4.47,2.002,4.47,4.471&#xA;&#9;S848.299,757.583,845.831,757.583z M820.072,205.649c5.712,0,10.359-4.647,10.359-10.359c0-2.469,2.001-4.47,4.469-4.47&#xA;&#9;c2.47,0,4.471,2.001,4.471,4.47c0,5.712,4.647,10.359,10.36,10.359c2.469,0,4.471,2.002,4.471,4.471c0,2.468-2.002,4.47-4.471,4.47&#xA;&#9;c-5.713,0-10.36,4.646-10.36,10.358c0,2.469-2.001,4.471-4.471,4.471c-2.468,0-4.469-2.002-4.469-4.471&#xA;&#9;c0-5.712-4.647-10.358-10.359-10.358c-2.468,0-4.47-2.002-4.47-4.47C815.602,207.651,817.604,205.649,820.072,205.649z&#xA;&#9; M762.251,131.612c5.711,0,10.358-4.647,10.358-10.359c0-2.469,2.001-4.47,4.47-4.47c2.469,0,4.471,2.001,4.471,4.47&#xA;&#9;c0,5.712,4.647,10.359,10.36,10.359c2.468,0,4.469,2.002,4.469,4.471c0,2.469-2.001,4.471-4.469,4.471&#xA;&#9;c-5.713,0-10.36,4.646-10.36,10.358c0,2.469-2.002,4.47-4.471,4.47c-2.469,0-4.47-2.001-4.47-4.47&#xA;&#9;c0-5.712-4.647-10.358-10.358-10.358c-2.469,0-4.47-2.002-4.47-4.471C757.781,133.614,759.782,131.612,762.251,131.612z&#xA;&#9; M682.381,109.009c0-1.47,0.518-2.723,1.559-3.765c1.04-1.062,2.305-1.593,3.798-1.593c1.47,0,2.726,0.532,3.766,1.593&#xA;&#9;c1.038,1.041,1.559,2.295,1.559,3.765v40.056c0,1.493-0.521,2.76-1.559,3.799c-1.04,1.04-2.296,1.56-3.766,1.56&#xA;&#9;c-1.492,0-2.757-0.52-3.798-1.56c-1.041-1.039-1.559-2.306-1.559-3.799V109.009z M654.196,109.009c0-1.47,0.517-2.723,1.558-3.765&#xA;&#9;c1.041-1.062,2.305-1.593,3.798-1.593c1.469,0,2.725,0.532,3.766,1.593c1.038,1.041,1.558,2.295,1.558,3.765v40.056&#xA;&#9;c0,1.493-0.52,2.76-1.558,3.799c-1.041,1.04-2.297,1.56-3.766,1.56c-1.493,0-2.757-0.52-3.798-1.56&#xA;&#9;c-1.041-1.039-1.558-2.306-1.558-3.799V109.009z M626.011,109.009c0-1.47,0.52-2.723,1.561-3.765&#xA;&#9;c1.038-1.062,2.306-1.593,3.798-1.593c1.469,0,2.725,0.532,3.763,1.593c1.041,1.041,1.561,2.295,1.561,3.765v40.056&#xA;&#9;c0,1.493-0.52,2.76-1.561,3.799c-1.038,1.04-2.294,1.56-3.763,1.56c-1.492,0-2.76-0.52-3.798-1.56&#xA;&#9;c-1.041-1.039-1.561-2.306-1.561-3.799V109.009z M562.075,107.347c0.454-1.401,1.334-2.429,2.646-3.085&#xA;&#9;c1.334-0.656,2.7-0.748,4.104-0.271c1.4,0.451,2.429,1.345,3.085,2.678l15.264,30.459l15.261-30.527&#xA;&#9;c0.657-1.311,1.685-2.203,3.089-2.678c1.4-0.453,2.756-0.352,4.07,0.304c1.312,0.656,2.205,1.685,2.678,3.087&#xA;&#9;c0.476,1.402,0.376,2.758-0.303,4.069l-20.012,40.091c-0.454,0.905-1.107,1.616-1.968,2.137c-0.858,0.543-1.798,0.814-2.814,0.814&#xA;&#9;c-1.018,0-1.956-0.271-2.817-0.814c-0.858-0.521-1.514-1.232-1.965-2.137l-20.047-40.023&#xA;&#9;C561.69,110.118,561.602,108.751,562.075,107.347z M508.183,112.435c-0.949-1.131-1.356-2.43-1.22-3.901&#xA;&#9;c0.136-1.47,0.769-2.679,1.899-3.629c1.129-0.95,2.429-1.357,3.902-1.221c1.466,0.136,2.678,0.769,3.627,1.899l12.583,15.127&#xA;&#9;l12.583-15.127c0.949-1.13,2.158-1.763,3.628-1.899c1.47-0.136,2.77,0.271,3.902,1.221c1.129,0.95,1.763,2.159,1.899,3.629&#xA;&#9;c0.135,1.47-0.272,2.77-1.221,3.901l-13.839,16.62l13.839,16.62c0.949,1.131,1.356,2.43,1.221,3.901&#xA;&#9;c-0.136,1.47-0.77,2.669-1.899,3.595c-0.997,0.838-2.136,1.255-3.426,1.255c-1.649,0-3.019-0.645-4.104-1.933l-12.583-15.093&#xA;&#9;l-12.583,15.093c-1.085,1.289-2.454,1.933-4.103,1.933c-1.312,0-2.455-0.418-3.426-1.255c-1.13-0.926-1.763-2.124-1.899-3.595&#xA;&#9;c-0.136-1.47,0.271-2.77,1.22-3.901l13.839-16.62L508.183,112.435z M408.09,130.191c5.711,0,10.359-4.647,10.359-10.359&#xA;&#9;c0-2.469,2.001-4.47,4.469-4.47c2.469,0,4.471,2.002,4.471,4.47c0,5.712,4.647,10.359,10.359,10.359c2.47,0,4.471,2.002,4.471,4.47&#xA;&#9;c0,2.469-2.001,4.471-4.471,4.471c-5.712,0-10.359,4.646-10.359,10.358c0,2.469-2.002,4.471-4.471,4.471&#xA;&#9;c-2.468,0-4.469-2.002-4.469-4.471c0-5.712-4.648-10.358-10.359-10.358c-2.469,0-4.47-2.002-4.47-4.471&#xA;&#9;C403.62,132.193,405.621,130.191,408.09,130.191z M345.799,210.12c0-2.469,2.001-4.471,4.47-4.471&#xA;&#9;c5.712,0,10.359-4.647,10.359-10.359c0-2.469,2.001-4.47,4.47-4.47s4.471,2.001,4.471,4.47c0,5.712,4.646,10.359,10.359,10.359&#xA;&#9;c2.468,0,4.47,2.002,4.47,4.471c0,2.468-2.002,4.47-4.47,4.47c-5.713,0-10.359,4.646-10.359,10.358c0,2.469-2.002,4.471-4.471,4.471&#xA;&#9;s-4.47-2.002-4.47-4.471c0-5.712-4.647-10.358-10.359-10.358C347.8,214.59,345.799,212.588,345.799,210.12z M383.828,757.583&#xA;&#9;c-5.712,0-10.36,4.646-10.36,10.358c0,2.469-2.001,4.471-4.47,4.471c-2.468,0-4.47-2.002-4.47-4.471&#xA;&#9;c0-5.712-4.647-10.358-10.358-10.358c-2.469,0-4.471-2.002-4.471-4.471s2.002-4.471,4.471-4.471c5.711,0,10.358-4.647,10.358-10.359&#xA;&#9;c0-2.469,2.002-4.47,4.47-4.47c2.469,0,4.47,2.001,4.47,4.47c0,5.712,4.648,10.359,10.36,10.359c2.469,0,4.471,2.002,4.471,4.471&#xA;&#9;S386.297,757.583,383.828,757.583z M393.883,660.101c-5.713,0-10.36,4.647-10.36,10.359c0,2.469-2.002,4.47-4.47,4.47&#xA;&#9;c-2.469,0-4.47-2.002-4.47-4.47c0-5.712-4.647-10.359-10.359-10.359c-2.468,0-4.47-2.001-4.47-4.47c0-2.469,2.002-4.47,4.47-4.47&#xA;&#9;c5.712,0,10.359-4.647,10.359-10.359c0-2.469,2.001-4.471,4.47-4.471c2.468,0,4.47,2.002,4.47,4.471&#xA;&#9;c0,5.712,4.647,10.359,10.36,10.359c2.469,0,4.47,2.001,4.47,4.47C398.353,658.1,396.352,660.101,393.883,660.101z M479.936,736.076&#xA;&#9;c-5.713,0-10.36,4.646-10.36,10.358c0,2.469-2.002,4.471-4.471,4.471c-2.468,0-4.47-2.002-4.47-4.471&#xA;&#9;c0-5.712-4.648-10.358-10.359-10.358c-2.47,0-4.47-2.002-4.47-4.47c0-2.469,2.001-4.471,4.47-4.471&#xA;&#9;c5.711,0,10.359-4.647,10.359-10.359c0-2.469,2.001-4.47,4.47-4.47c2.469,0,4.471,2.001,4.471,4.47&#xA;&#9;c0,5.712,4.647,10.359,10.36,10.359c2.468,0,4.47,2.002,4.47,4.471C484.406,734.074,482.404,736.076,479.936,736.076z&#xA;&#9; M746.846,1089.292c2.87,2.874,4.306,6.331,4.306,10.379c0,4.047-1.436,7.508-4.306,10.378c-2.896,2.874-6.366,4.309-10.413,4.309&#xA;&#9;c-4.05,0-7.507-1.435-10.378-4.309c-2.874-2.87-4.309-6.33-4.309-10.378c0-4.048,1.435-7.505,4.309-10.379&#xA;&#9;c2.87-2.892,6.328-4.341,10.378-4.341C740.48,1084.951,743.95,1086.399,746.846,1089.292z M561.191,958.444&#xA;&#9;c-0.295-1.839-1.622-3.341-3.407-3.863c-3.017-0.883-5.12-1.562-5.84-1.798c-3.212-1.584-35.35-18.899-35.35-77.15&#xA;&#9;c0-14.04,1.562-28.514,4.623-42.919l2.254-9.59c8.936-34.646,23.614-57.868,23.762-58.097c0.443-0.695,0.701-1.49,0.751-2.31&#xA;&#9;c2.373-39.238,12.921-61.202,19-70.801c1.273-2.012,0.889-4.649-0.899-6.214c-0.984-0.864-1.908-1.804-2.747-2.8&#xA;&#9;c-3.718-4.394-6.164-10.102-6.89-16.08c-0.273-2.222-0.17-4.564-0.063-7.044l0.066-1.578c0.016-0.28,0.082-0.704,0.148-1.198&#xA;&#9;c0.503-3.715,0.726-6.311-0.707-8.461c-5.318-7.974-7.792-40.185-3.451-43.573c3.571-1.515,14.854,6.594,22.586,14.867&#xA;&#9;c0.971,1.04,2.373,1.587,3.781,1.524c1.427-0.079,2.744-0.779,3.602-1.917c0.063-0.085,6.528-8.474,19.393-8.722&#xA;&#9;c12.264,0.236,18.805,7.782,19.512,8.64c0.814,0.996,1.993,1.622,3.272,1.744c1.295,0.135,2.559-0.273,3.545-1.094&#xA;&#9;c0.613-0.509,1.251-1.031,1.936-1.559c0.154-0.123,0.302-0.251,0.443-0.387c10.102-9.979,18.283-14.201,20.741-13.151&#xA;&#9;c4.438,3.439,1.964,35.649-3.351,43.626c-0.456,0.682-0.729,1.468-0.795,2.285c-0.123,1.502-0.22,3.008-0.314,4.513&#xA;&#9;c-0.233,3.649-0.453,7.094-1.047,10.429c-0.421,2.357-0.987,4.404-1.726,6.264c-1.144,2.888-2.618,5.585-4.312,7.921&#xA;&#9;c-0.654,0.814-4.451,4.957-5.645,6.104c-2.172,1.418-2.841,4.315-1.487,6.547c0.006,0.009,0.009,0.019,0.016,0.025&#xA;&#9;c5.928,9.627,16.218,31.532,18.551,70.088c0.05,0.82,0.308,1.619,0.754,2.31c0.145,0.229,14.798,23.347,23.734,57.996l2.266,9.64&#xA;&#9;c3.077,14.49,4.636,28.948,4.636,42.969c0,60.011-34.109,76.575-35.269,77.128c-0.094,0.035-9.448,3.586-21.508,6.33&#xA;&#9;c-0.317,0.072-0.629,0.179-0.927,0.314c-4.155,1.889-8.757,4.139-14.084,6.745c-11.331,5.538-26.845,13.126-49.193,22.599&#xA;&#9;c-55.906,23.696-97.599,10.976-117.64,4.865c-1.493-0.456-2.873-0.877-4.133-1.245c-6.588-1.927-9.454-5.878-8.807-8.612&#xA;&#9;c0.462-1.949,2.989-3.643,7.575-3.643c1.26,0,2.678,0.126,4.246,0.412c1.468,0.267,3.492,0.77,5.988,1.383&#xA;&#9;c15.407,3.784,47.461,11.664,78.552,0.022c12.201-4.567,19.691-9.995,26.933-15.247c1.631-1.182,3.25-2.354,4.906-3.501&#xA;&#9;C560.703,962.125,561.489,960.279,561.191,958.444z M683.961,1089.292c2.87,2.874,4.309,6.331,4.309,10.379&#xA;&#9;c0,4.047-1.439,7.508-4.309,10.378c-2.896,2.874-6.366,4.309-10.413,4.309c-4.047,0-7.508-1.435-10.378-4.309&#xA;&#9;c-2.87-2.87-4.306-6.33-4.306-10.378c0-4.048,1.436-7.505,4.306-10.379c2.87-2.892,6.331-4.341,10.378-4.341&#xA;&#9;C677.594,1084.951,681.064,1086.399,683.961,1089.292z M715.375,387.871c0.019,0.427-0.019,0.864-0.119,1.301&#xA;&#9;c-4.183,18.315-29.24,23.818-30.306,24.045c-0.333,0.069-0.666,0.104-1,0.104c-1.361,0-2.675-0.575-3.602-1.612&#xA;&#9;c-1.15-1.292-1.524-3.099-0.977-4.74l1.773-5.321c0.002-0.006,0.005-0.011,0.008-0.016c-4.257-9.319-1.825-19.065-1.705-19.518&#xA;&#9;c0.669-2.581,3.307-4.133,5.89-3.451c2.571,0.669,4.117,3.294,3.457,5.868c-0.036,0.143-1.553,6.502,0.829,12.416&#xA;&#9;c4.994-1.83,12.602-5.506,16.911-11.97c1.48-2.219,4.479-2.819,6.695-1.339C714.687,384.609,715.444,386.237,715.375,387.871z&#xA;&#9; M669.678,365.502c0.616-4.133,4.91-10.322,14.989-14.169c14.449-5.516,25.814-0.61,26.289-0.402&#xA;&#9;c0.603,0.267,1.122,0.644,1.55,1.094c1.122,1.078,1.704,2.678,1.414,4.325c-0.465,2.628-2.942,4.375-5.595,3.916&#xA;&#9;c-0.094-0.019-11.196-1.858-18.931,2.54c-4.667,2.656-5.626,4.149-6.396,5.346c-0.805,1.254-1.908,2.97-4.646,4.127&#xA;&#9;c-0.946,0.399-1.898,0.597-2.813,0.597c-1.326,0-2.577-0.415-3.627-1.229C670.118,370.257,669.307,368.016,669.678,365.502z&#xA;&#9; M667.842,464.729c5.247-0.879,13.298-2.89,17.341-5.008c-0.392-2.129,0.676-4.328,2.734-5.264c2.439-1.113,5.293-0.031,6.393,2.395&#xA;&#9;l2.216,4.875c1.103,2.43,0.031,5.29-2.395,6.393c-0.651,0.295-1.33,0.434-1.996,0.434c-0.725,0-1.42-0.206-2.066-0.515&#xA;&#9;c-6.912,3.767-18.155,5.798-20.637,6.213c-0.27,0.044-0.537,0.066-0.802,0.066c-2.316,0-4.359-1.672-4.755-4.033&#xA;&#9;C663.436,467.659,665.211,465.169,667.842,464.729z M918.338,599.468l-0.873-521.605c-0.013-7.707-3.148-14.679-8.207-19.721&#xA;&#9;C904.209,53.11,897.245,50,889.557,50c-0.016,0-0.032,0-0.048,0l-290.429,0.486l-290.428,0.486&#xA;&#9;c-7.707,0.013-14.679,3.148-19.721,8.207c-5.042,5.059-8.154,12.042-8.141,19.748l0.872,521.605l0.872,521.605&#xA;&#9;c0.013,7.707,3.149,14.679,8.207,19.721c5.049,5.032,12.013,8.141,19.701,8.141c0.016,0,0.032,0,0.048,0l290.428-0.486&#xA;&#9;l290.428-0.486c7.707-0.013,14.679-3.148,19.721-8.207c5.042-5.059,8.154-12.041,8.141-19.748L918.338,599.468z M411.032,1083.39&#xA;&#9;c-1.063,1.041-2.331,1.561-3.801,1.561h-11.362v34.731c0,1.492-0.521,2.76-1.559,3.798c-1.04,1.041-2.296,1.562-3.766,1.562&#xA;&#9;c-1.47,0-2.735-0.521-3.798-1.562c-1.041-1.037-1.559-2.305-1.559-3.798v-34.731h-11.331c-1.492,0-2.757-0.52-3.798-1.561&#xA;&#9;c-1.041-1.038-1.558-2.294-1.558-3.764c0-1.469,0.517-2.725,1.558-3.766c1.041-1.06,2.305-1.593,3.798-1.593h33.375&#xA;&#9;c1.469,0,2.738,0.533,3.801,1.593c1.038,1.041,1.558,2.297,1.558,3.766C412.59,1081.096,412.07,1082.352,411.032,1083.39z&#xA;&#9; M470.148,1119.682c0,1.492-0.521,2.76-1.559,3.798c-1.062,1.041-2.331,1.562-3.801,1.562s-2.726-0.521-3.763-1.562&#xA;&#9;c-1.041-1.037-1.562-2.305-1.562-3.798v-14.688h-22.725v14.688c0,1.492-0.521,2.76-1.559,3.798c-1.04,1.041-2.296,1.562-3.766,1.562&#xA;&#9;c-1.492,0-2.757-0.521-3.798-1.562c-1.041-1.037-1.559-2.305-1.559-3.798v-40.056c0-1.469,0.518-2.725,1.559-3.766&#xA;&#9;c1.04-1.06,2.305-1.593,3.798-1.593c1.47,0,2.726,0.533,3.766,1.593c1.038,1.041,1.559,2.297,1.559,3.766v14.684h22.725v-14.684&#xA;&#9;c0-1.469,0.521-2.725,1.562-3.766c1.037-1.06,2.293-1.593,3.763-1.593s2.738,0.533,3.801,1.593c1.038,1.041,1.559,2.297,1.559,3.766&#xA;&#9;V1119.682z M519.668,1094.311c1.469,0,2.734,0.52,3.798,1.561c1.041,1.041,1.561,2.306,1.561,3.798c0,1.47-0.52,2.725-1.561,3.766&#xA;&#9;c-1.063,1.041-2.328,1.558-3.798,1.558h-21.369v9.363h28.05c1.47,0,2.738,0.521,3.802,1.559c1.037,1.04,1.558,2.296,1.558,3.766&#xA;&#9;c0,1.492-0.521,2.76-1.558,3.798c-1.063,1.041-2.331,1.562-3.802,1.562h-33.375c-1.491,0-2.757-0.521-3.798-1.562&#xA;&#9;c-1.041-1.037-1.558-2.305-1.558-3.798v-40.056c0-1.469,0.517-2.725,1.558-3.766c1.041-1.06,2.306-1.593,3.798-1.593h33.375&#xA;&#9;c1.47,0,2.738,0.533,3.802,1.593c1.037,1.041,1.558,2.297,1.558,3.766c0,1.47-0.521,2.726-1.558,3.764&#xA;&#9;c-1.063,1.041-2.331,1.561-3.802,1.561h-28.05v9.359H519.668z M633.425,1119.682c0,1.492-0.533,2.76-1.596,3.798&#xA;&#9;c-1.038,1.041-2.294,1.562-3.764,1.562c-1.469,0-2.725-0.521-3.763-1.562c-1.041-1.037-1.561-2.305-1.561-3.798v-27.167&#xA;&#9;l-10.921,10.921c-1.041,1.041-2.306,1.558-3.798,1.558c-1.469,0-2.725-0.517-3.766-1.558l-10.921-10.921v27.167&#xA;&#9;c0,1.492-0.52,2.76-1.561,3.798c-1.038,1.041-2.293,1.562-3.763,1.562c-1.492,0-2.76-0.521-3.798-1.562&#xA;&#9;c-1.04-1.037-1.561-2.305-1.561-3.798v-40.056c0-1.084,0.306-2.082,0.915-2.984c0.589-0.883,1.381-1.539,2.375-1.968&#xA;&#9;c0.994-0.407,2.023-0.508,3.086-0.306c1.063,0.228,1.981,0.726,2.747,1.492l16.249,16.249l16.28-16.249&#xA;&#9;c0.767-0.766,1.672-1.264,2.713-1.492c1.062-0.201,2.091-0.101,3.085,0.306c1.018,0.429,1.82,1.085,2.41,1.968&#xA;&#9;c0.609,0.902,0.915,1.899,0.915,2.984V1119.682z M691.49,1117.614c-4.952,4.952-10.933,7.429-17.942,7.429&#xA;&#9;c-6.987,0-12.968-2.477-17.943-7.429c-4.95-4.975-7.426-10.956-7.426-17.943c0-7.01,2.476-12.99,7.426-17.943&#xA;&#9;c4.975-4.972,10.956-7.46,17.943-7.46c7.009,0,12.99,2.489,17.942,7.46c4.975,4.953,7.461,10.933,7.461,17.943&#xA;&#9;C698.951,1106.657,696.465,1112.638,691.49,1117.614z M754.372,1117.614c-4.95,4.952-10.93,7.429-17.94,7.429&#xA;&#9;c-6.987,0-12.968-2.477-17.942-7.429c-4.953-4.975-7.43-10.956-7.43-17.943c0-7.01,2.477-12.99,7.43-17.943&#xA;&#9;c4.975-4.972,10.955-7.46,17.942-7.46c7.01,0,12.99,2.489,17.94,7.46c4.975,4.953,7.463,10.933,7.463,17.943&#xA;&#9;C761.836,1106.657,759.347,1112.638,754.372,1117.614z M820.715,1119.682c0,1.129-0.328,2.161-0.984,3.085&#xA;&#9;c-0.631,0.928-1.48,1.583-2.543,1.968c-0.59,0.202-1.198,0.306-1.833,0.306c-1.671,0-3.041-0.647-4.103-1.934l-23.946-28.729v25.303&#xA;&#9;c0,1.492-0.521,2.76-1.559,3.798c-1.04,1.041-2.296,1.562-3.766,1.562c-1.492,0-2.757-0.521-3.798-1.562&#xA;&#9;c-1.041-1.037-1.559-2.305-1.559-3.798v-40.056c0-1.132,0.325-2.161,0.981-3.088c0.634-0.902,1.483-1.549,2.545-1.93&#xA;&#9;c1.064-0.385,2.136-0.432,3.222-0.136c1.084,0.293,1.99,0.871,2.712,1.729l23.946,28.728v-25.303c0-1.469,0.52-2.725,1.561-3.766&#xA;&#9;c1.038-1.06,2.294-1.593,3.763-1.593c1.471,0,2.738,0.533,3.802,1.593c1.038,1.041,1.558,2.297,1.558,3.766V1119.682z&#xA;&#9; M893.656,1043.897H306.063c-4.523,0-8.185-3.629-8.27-8.131V78.394c0-3.141,1.223-6.093,3.445-8.314&#xA;&#9;c2.219-2.221,5.172-3.444,8.314-3.444h580.857c3.142,0,6.093,1.223,8.314,3.444c2.222,2.221,3.445,5.173,3.445,8.314V600&#xA;&#9;l0.039,435.344C902.206,1039.921,898.232,1043.897,893.656,1043.897z M890.461,1018.571H789.677c-2.675,0-4.845-2.17-4.845-4.846&#xA;&#9;c0-2.676,2.17-4.846,4.845-4.846h100.783c0.737,0,1.429,0.178,2.054,0.472l-0.002-20.241H698.072c-2.676,0-4.847-2.17-4.847-4.845&#xA;&#9;c0-2.676,2.17-4.846,4.847-4.846h194.44l-0.002-24.497c-0.888,0.991-2.164,1.627-3.597,1.627H729.209&#xA;&#9;c-2.675,0-4.845-2.17-4.845-4.845c0-2.675,2.17-4.845,4.845-4.845h159.704c1.433,0,2.709,0.635,3.596,1.625l-0.002-24.493h-87.325&#xA;&#9;c-2.675,0-4.845-2.17-4.845-4.845c0-2.675,2.17-4.845,4.845-4.845h87.323l-0.002-21.321H758.669c-2.675,0-4.845-2.17-4.845-4.846&#xA;&#9;c0-2.676,2.17-4.846,4.845-4.846h133.833l-0.002-22.919c-0.163,0.017-0.321,0.05-0.487,0.05H729.209&#xA;&#9;c-2.675,0-4.845-2.171-4.845-4.846s2.17-4.845,4.845-4.845h162.805c0.167,0,0.324,0.033,0.486,0.049l-0.002-18.913H687.564&#xA;&#9;c3.05,14.744,4.624,29.463,4.624,43.768c0,66.568-39.524,85.272-41.206,86.036c-0.669,0.264-10.121,3.853-22.599,6.726&#xA;&#9;c-3.923,1.795-8.329,3.951-13.399,6.428c-11.428,5.588-27.078,13.242-49.667,22.816c-26.022,11.032-49.108,14.609-68.604,14.609&#xA;&#9;c-24.799,0-43.786-5.79-55.617-9.398c-1.455-0.443-2.801-0.852-4.026-1.213c-12.434-3.633-17.205-12.865-15.495-20.1&#xA;&#9;c1.66-7.006,9.417-12.968,22.948-10.507c1.606,0.292,3.828,0.833,6.563,1.506c14.461,3.552,44.563,10.951,72.863,0.355&#xA;&#9;c9.656-3.615,16.2-7.949,22.209-12.255c-8.323-4.705-39.22-26.144-39.22-85.002c0-14.305,1.575-29.024,4.624-43.768H307.484v18.864&#xA;&#9;h162.79c2.675,0,4.845,2.17,4.845,4.845s-2.17,4.846-4.845,4.846h-162.79v22.869h133.33c2.676,0,4.847,2.17,4.847,4.846&#xA;&#9;c0,2.676-2.17,4.846-4.847,4.846h-133.33v21.321h86.817c2.676,0,4.847,2.17,4.847,4.845c0,2.675-2.17,4.845-4.847,4.845h-86.817&#xA;&#9;v24.01c0.841-0.703,1.909-1.143,3.091-1.143h159.699c2.675,0,4.845,2.17,4.845,4.845c0,2.675-2.17,4.845-4.845,4.845H310.575&#xA;&#9;c-1.182,0-2.25-0.44-3.091-1.143v24.012h32.547c2.676,0,4.847,2.17,4.847,4.846c0,2.675-2.17,4.845-4.847,4.845h-32.547v20.042&#xA;&#9;c0.487-0.163,0.998-0.273,1.539-0.273h100.783c2.675,0,4.845,2.17,4.845,4.846c0,2.676-2.17,4.846-4.845,4.846H309.022&#xA;&#9;c-0.541,0-1.051-0.11-1.539-0.273v15.908h585.033l-0.002-16.108C891.889,1018.394,891.198,1018.571,890.461,1018.571z&#xA;&#9; M757.116,914.302h24.811c2.675,0,4.845,2.17,4.845,4.845c0,2.675-2.17,4.845-4.845,4.845h-24.811c-2.675,0-4.845-2.17-4.845-4.845&#xA;&#9;C752.271,916.473,754.442,914.302,757.116,914.302z M721.455,881.741h17.057c2.675,0,4.845,2.17,4.845,4.845&#xA;&#9;c0,2.675-2.17,4.845-4.845,4.845h-17.057c-2.675,0-4.845-2.17-4.845-4.845C716.61,883.912,718.78,881.741,721.455,881.741z&#xA;&#9; M442.367,923.992h-24.811c-2.675,0-4.845-2.17-4.845-4.845c0-2.675,2.17-4.845,4.845-4.845h24.811c2.675,0,4.845,2.17,4.845,4.845&#xA;&#9;C447.212,921.822,445.041,923.992,442.367,923.992z M460.971,891.432c-2.675,0-4.845-2.17-4.845-4.845&#xA;&#9;c0-2.675,2.17-4.845,4.845-4.845h17.057c2.675,0,4.845,2.17,4.845,4.845c0,2.675-2.17,4.845-4.845,4.845H460.971z M394.301,987.562&#xA;&#9;h-29.459c-2.676,0-4.846-2.17-4.846-4.846c0-2.675,2.17-4.845,4.846-4.845h29.459c2.675,0,4.845,2.17,4.845,4.845&#xA;&#9;C399.146,985.392,396.976,987.562,394.301,987.562z M635.791,1018.7h-56.888c-2.676,0-4.846-2.17-4.846-4.845&#xA;&#9;c0-2.675,2.17-4.845,4.846-4.845h56.888c2.675,0,4.845,2.17,4.845,4.845C640.636,1016.53,638.466,1018.7,635.791,1018.7z&#xA;&#9; M756.214,1018.7h-34.888c-2.675,0-4.845-2.17-4.845-4.845c0-2.675,2.17-4.845,4.845-4.845h34.888c2.676,0,4.846,2.17,4.846,4.845&#xA;&#9;C761.06,1016.53,758.89,1018.7,756.214,1018.7z" style="fill: rgb(78, 61, 87);"/>
</svg>