<?xml version="1.0" encoding="utf-8"?>
<!-- Generator: Adobe Illustrator 23.0.3, SVG Export Plug-In . SVG Version: 6.00 Build 0)  -->
<svg version="1.1" id="Capa_1" xmlns="http://www.w3.org/2000/svg" xmlns:xlink="http://www.w3.org/1999/xlink" x="0px" y="0px"
	 viewBox="0 0 1200 1200" enable-background="new 0 0 1200 1200" xml:space="preserve">
<path fill="hsl(290, 13%, 29%)" d="M911.798,60.832C904.812,53.847,895.526,50,885.647,50H600H314.353c-9.878,0-19.165,3.847-26.15,10.832
	c-6.984,6.984-10.831,16.271-10.831,26.149V600v513.019c0,9.878,3.847,19.165,10.832,26.15c6.984,6.984,16.271,10.831,26.149,10.831
	H600h285.647c9.878,0,19.165-3.847,26.15-10.832c6.985-6.985,10.831-16.271,10.831-26.149V600V86.981
	C922.628,77.103,918.782,67.817,911.798,60.832z M913.097,600v513.019c0,7.58-3.072,14.443-8.04,19.41
	c-4.968,4.968-11.83,8.04-19.41,8.04H600H314.353c-7.58,0-14.443-3.072-19.41-8.04c-4.968-4.967-8.04-11.83-8.04-19.41V600V86.981
	c0-7.58,3.072-14.442,8.04-19.41c4.967-4.968,11.83-8.04,19.41-8.04H600h285.647c7.58,0,14.443,3.072,19.41,8.04
	c4.967,4.967,8.04,11.83,8.04,19.41V600z M897.192,86.981c0-3.089-1.203-5.993-3.387-8.177c-2.184-2.184-5.088-3.387-8.177-3.387
	H599.98H314.332c-3.089,0-5.993,1.203-8.177,3.387c-2.185,2.185-3.387,5.089-3.387,8.178V600v428.592
	c0.083,4.429,3.685,7.997,8.134,7.997h577.919c4.501,0,8.411-3.911,8.411-8.411L897.192,600V86.981z M312.299,600V86.981
	c0-0.559,0.201-1.043,0.595-1.438c0.395-0.395,0.879-0.595,1.438-0.595H599.98h285.648c0.559,0,1.042,0.2,1.438,0.596
	c0.395,0.395,0.596,0.879,0.596,1.438v513.02l0.02,210.689h-47.538V701.134h12.773c2.631,0,4.766-2.135,4.766-4.766V664.66
	c0-2.631-2.135-4.766-4.766-4.766h-53.16c2.863-2.875,5.767-6.451,8.7-10.766c17.936-26.378-5.336-111.063-8.048-120.631
	c-0.118-0.415-0.303-0.789-0.515-1.142c0.007-0.029,0.021-0.055,0.028-0.084c0.003-0.012,0.078-0.323,0.081-0.335
	c0.676-2.926,0.222-5.828-0.997-8.34c2.23-1.742,3.904-4.227,4.593-7.191c1.595-6.885-2.709-13.782-9.59-15.376l-6.166-1.428
	l0.037-4.498c1.112,0.087,2.231,0.149,3.361,0.149c13.642,0,28.413-6.09,38.698-12.562c8.634-5.442,15.358-12.953,19.971-22.329
	c0.23-0.462,1.201-2.696,2.373-5.408c1.396-3.23,3.934-9.103,4.629-10.502c0.385-0.571,0.652-1.238,0.76-1.967
	c0.379-2.581-1.39-4.989-3.968-5.398c-0.102-0.016-0.205-0.031-0.301-0.04c-21.634-2.854-50.705,5.02-64.63,25.627
	c-0.231,0.343-0.413,0.71-0.635,1.058l0.275-33.161c1.328,0.894,2.615,1.804,3.782,2.852c2.727,2.454,4.986,4.486,7.611,4.486
	c0.577,0,1.173-0.099,1.796-0.313c1.874-0.642,3.214-2.274,3.583-4.362c0.431-2.414,1.098-4.818,1.806-7.366
	c0.96-3.466,1.931-7.01,2.335-10.712c1.976,0.213,4.049,0.34,6.123,0.34c3.571,0,7.142-0.372,10.201-1.325
	c2.752-0.856,4.638-3.267,4.697-5.988c0.047-2.085-0.983-3.602-1.424-4.254l-1.219-1.806c-0.923-1.374-1.96-2.901-3.055-4.466
	c3.349-0.516,6.673-1.134,9.896-1.767l3.062-0.596c1.592-0.304,3.394-0.652,5.212-1.253c2.178-0.729,4.657-2.544,5.076-5.454
	c0.313-2.187-0.664-4.303-2.615-5.662c-2.15-1.495-4.157-3.14-6.28-4.883c-1.696-1.389-3.422-2.799-5.243-4.147
	c0.579-0.462,1.208-0.943,1.737-1.378l0.652-0.537c2.463-2.032,4.787-3.95,7.282-5.529l0.897-0.583
	c1.17-0.766,3.912-2.566,5.116-3.152c1.88-0.915,3.013-2.932,2.823-5.014c-0.192-2.082-1.672-3.853-3.68-4.409
	c-1.154-0.32-2.417-0.866-3.751-1.446c-1.247-0.54-2.485-1.07-3.717-1.483c-1.992-0.673-3.94-1.464-5.892-2.252
	c-2.131-0.863-4.337-1.753-6.627-2.516c-1.322-0.44-2.588-0.778-3.832-1.069c0.384-0.896,0.771-1.793,1.055-2.664
	c0.925-2.833,1.458-5.684,1.964-8.603c0,0,0.096-0.565,0.099-0.565l1.815-10.378c0.316-1.803-0.016-3.354-0.99-4.614
	c-0.912-1.182-2.265-1.902-3.807-2.023c-0.589-0.05-1.198-0.022-1.986,0.034c-1.443,0.096-2.882,0.254-4.309,0.422l-1.061,0.109
	c-1.3,0.124-2.771,0.264-4.278,0.689c-2.932,0.832-5.721,2.08-8.339,3.689c-0.498-4.554-1.316-8.97-2.043-12.835l-0.462-2.479
	c-0.161-0.878-0.5-2.702-2.042-4.201c-2.026-1.958-5.156-2.358-7.794-0.99c-6.525,3.363-13.245,10.753-17.379,16.949
	c-1.722-2.183-3.512-4.277-5.267-6.286c-2.367-2.712-4.604-5.274-6.618-8.06c-0.853-1.163-2.159-1.942-3.587-2.138
	c-1.427-0.205-2.879,0.202-3.99,1.077c-2.622,2.048-3.621,5.703-4.418,9.271l-0.18,0.794c-0.982,3.987-1.471,7.811-1.544,11.462
	c-1.905-0.871-3.829-1.67-5.735-2.431c-1.632-0.652-3.248-1.294-4.803-1.995c-1.011-0.453-1.992-0.968-2.966-1.489
	c-0.99-0.531-4.452-2.597-5.808-3.407c-1.691-1.008-3.754-0.959-5.392,0.118s-2.498,2.954-2.249,4.874
	c0.31,2.519,0.76,5.938,1.126,7.943c0.347,1.905,0.58,3.822,0.816,5.743c0.264,2.175,0.534,4.35,0.937,6.503
	c0.413,2.227,0.994,4.212,1.679,6.063c-3.372,0.514-6.7,1.144-9.925,1.786c-2.073,0.413-4.142,0.825-6.218,1.198
	c-0.771,0.138-1.46,0.309-2.094,0.5c-7.101-13.819-23.642-20.457-34.802-22.392c-5.422-4.987-11.624-7.763-17.405-9.297
	c8.284-7.253,10.415-16.935,10.942-20.925c17.179-20.223,6.034-43.014-3.463-53.734c0.13-13.485-8.647-20.775-14.787-25.315
	l6.891-33.312c0.338-1.626-0.199-3.31-1.412-4.446c-1.213-1.132-2.935-1.557-4.53-1.111l-29.046,8.07l-20.607-17.744
	c-1.784-1.533-4.421-1.539-6.211-0.006l-20.108,17.235l-27.433-6.003c-1.542-0.341-3.152,0.109-4.297,1.198
	c-1.148,1.086-1.678,2.671-1.424,4.229l5.297,32.198c-6.359,3.876-16.595,10.251-16.417,25.011
	c-9.5,10.726-20.648,33.523-3.444,53.752c0.56,3.907,2.748,13.33,10.982,20.406c-5.992,1.61-12.539,4.539-18.239,9.794
	c-15.044,2.609-39.908,13.744-38.168,39.545c-6.222,6.006-21.66,22.353-20.899,35.667c-26.266,26.227-16.472,69.733-14.059,78.776
	c-0.752,1.87-2.307,5.512-4.603,9.901c-0.038,0.062-0.066,0.127-0.1,0.19c-1.766,3.36-3.949,7.115-6.544,10.826
	c-0.182-0.251-0.412-0.462-0.612-0.699c0.022-0.202,0.053-0.401,0.049-0.609l-5.191-258.724l16.295-23.006
	c1.241-1.75,1.157-4.114-0.199-5.774l-9.109-11.129c-0.903-1.098-2.246-1.741-3.667-1.747c-0.009,0-0.016,0-0.022,0
	c-1.415,0-2.755,0.627-3.661,1.716l-2.2,2.637l-2.724-66.882c-0.056-1.368-0.698-2.646-1.765-3.509
	c-1.064-0.863-2.439-1.226-3.804-0.993l-37.246,6.385c-2.522,0.434-4.254,2.783-3.919,5.321l16.053,121.664l-0.105-0.189
	c-0.844-1.477-2.411-2.392-4.108-2.401c-0.012,0-0.022,0-0.031,0c-1.688,0-3.251,0.894-4.108,2.349l-10.121,17.204
	c-1.008,1.713-0.847,3.872,0.403,5.417l16.251,20.071l12.586,192.027l-3.43,0.795c-6.882,1.595-11.185,8.492-9.59,15.376
	c0.689,2.979,2.375,5.47,4.622,7.213c-0.971,2.036-1.414,4.337-1.198,6.745c-3.849,13.229-27.665,98.573-9.269,123.887
	c3.241,4.461,6.278,7.926,9.1,10.645h-50.783c-2.631,0-4.766,2.135-4.766,4.766v31.708c0,2.631,2.135,4.766,4.766,4.766h18.51
	v109.555h-49.799V600z M779.376,559.179l-15.535-3.599c-1.765-0.41-2.867-2.178-2.46-3.94c0.354-1.517,1.71-2.547,3.205-2.547
	c0.242,0,0.49,0.028,0.738,0.084l15.528,3.599c1.765,0.41,2.87,2.181,2.463,3.943C782.913,558.459,781.086,559.567,779.376,559.179z
	 M779.959,671.021l-9.894-0.683l1.9-103.094l5.258,1.218c0.547,0.126,1.096,0.135,1.645,0.19L779.959,671.021z M783.105,543.08
	l-21.119-4.893c-1.734-0.403-2.861-2.206-2.46-3.94c0.348-1.499,1.737-2.541,3.227-2.541c0.239,0,0.478,0.028,0.714,0.081
	l21.119,4.893c1.765,0.41,2.867,2.178,2.46,3.943c-0.199,0.847-0.717,1.57-1.468,2.038
	C784.827,543.126,783.943,543.272,783.105,543.08z M786.887,527.43l-27.331-6.332c-0.807-0.189-1.499-0.686-1.942-1.399
	c-0.447-0.714-0.589-1.551-0.335-2.656c0.335-1.446,1.626-2.426,3.05-2.426c0.236,0,0.472,0.028,0.707,0.081l6.055,1.403
	c0.003,0,0.005,0.002,0.008,0.002l14.966,3.467l6.302,1.46c1.685,0.391,2.737,2.079,2.355,3.723
	c-0.003,0.012-0.078,0.323-0.078,0.332C790.254,526.769,788.538,527.793,786.887,527.43z M744.668,404.9
	c-1.865,0.481-3.757,0.844-5.647,1.21c-1.446,0.279-2.892,0.562-4.328,0.884c0.192-0.472,0.382-0.946,0.558-1.427
	c0.611-1.666,1.163-3.4,1.719-5.153c0.971-3.068,1.889-5.966,3.177-8.588c0.627-1.272,1.266-2.342,1.951-3.261
	c1.153-1.553,3.529-3.338,6.157-4.4c1.672,2.443,3.656,4.608,5.873,6.498c-1.884,2.325-3.524,5.061-4.838,8.296
	c-0.62,1.53-1.135,3.171-1.557,4.973C746.78,404.295,745.757,404.618,744.668,404.9z M487.752,401.028
	c-0.375-2.606-2.814-4.403-5.392-4.046c-6.97,0.995-10.699,0.012-12.441-0.776c-0.873-6.515,7.977-18.449,16.25-26.863
	c1.409,1.122,3.229,2.345,5.648,3.579c0.692,0.354,1.433,0.521,2.163,0.521c1.734,0,3.407-0.949,4.247-2.6
	c1.198-2.342,0.267-5.215-2.079-6.41c-3.001-1.53-4.554-2.897-5.263-3.641c-1.555-17.681,13.826-25.414,23.663-28.522
	c-0.403,2.847-0.413,6.207,0.498,9.911c2.435,9.903,10.35,18.684,23.53,26.096c0.738,0.416,1.542,0.611,2.333,0.611
	c1.663,0,3.283-0.875,4.157-2.429c1.291-2.293,0.475-5.2-1.818-6.491c-10.543-5.929-17.08-12.801-18.898-19.875
	c-1.473-5.717,0.417-10.081,1.114-11.42c11.808-11.36,29.715-9.488,29.881-9.466c0.021,0.002,0.042-0.001,0.063,0.001
	c2.572,0.405,5.278,0.626,8.14,0.626c1.268,0,2.57-0.048,3.894-0.127c-3.068,4.669-10.558,9.838-20.146,11.217
	c-0.333-0.494-0.659-0.978-0.936-1.401c-1.443-2.203-4.396-2.814-6.599-1.374c-2.2,1.443-2.817,4.396-1.374,6.599
	c0.738,1.123,15.863,24.067,30.688,35.624c-20.231,11.356-78.056,45.384-106.836,78.413c-0.396,0.335-0.741,0.715-1.004,1.147
	c-3.05,3.583-5.758,7.151-8.02,10.673c-2.066-15.06-2.439-39.49,12.379-55.877c3.419,1.647,9.1,2.985,18.113,1.694
	C486.313,406.048,488.122,403.634,487.752,401.028z M605.961,331.236c-0.27-0.586-0.8-0.956-1.511-0.928
	c-3.301,0.143-5.876,1.346-7.654,3.58c-3.307,4.154-2.51,10.164-2.184,11.908c0.23,1.247,0.9,3.087,1.747,5.414
	c1.573,4.322,4.499,12.364,2.764,14.384c-0.509,0.596-1.713,0.5-2.64,0.316c-9.215-1.843-6.401-17.409-6.373-17.567
	c0.121-0.648-0.168-1.303-0.729-1.647c-0.565-0.347-1.281-0.301-1.799,0.093c-0.3,0.233-7.2,5.728-10.149,17.862
	c-7.971-5.278-17.345-16.348-24.047-25.239c13.967-3.63,25.115-13.781,25.115-23.878v-12.382c6.12,3.369,12.791,5.227,19.376,5.227
	c2.116,0,4.22-0.189,6.292-0.571c4.202-0.774,8.297-2.378,12.15-4.649v11.76c0,9.253,9.8,20.517,23.809,24.762
	c-6.679,8.839-16.132,19.964-24.188,25.16c-0.842-5.246-2.954-10.406-6.325-15.008c-8.424-11.501-4.108-16.655-3.937-16.85
	C606.119,332.514,606.231,331.822,605.961,331.236z M560.66,256.485l-0.336-2.593c7.596-3.995,26.848-15.237,36.392-30.871
	c10.134,16.911,29.044,27.44,36.754,31.205l-0.421,3.023c-0.292,2.656-0.8,5.321-1.564,8.141
	c-2.256,8.355-5.774,15.507-10.453,21.259c-5.156,6.339-11.762,10.527-18.594,11.787c-8.284,1.534-17.69-1.43-25.115-7.591
	c-0.322-0.372-0.693-0.695-1.115-0.953c-0.909-0.818-1.802-1.66-2.636-2.576C567.085,280.192,562.974,270.342,560.66,256.485z
	 M625.848,295.587c0.89-0.931,1.752-1.907,2.581-2.926c4.363-5.364,7.815-11.725,10.374-18.902c0.065-0.088,0.149-0.156,0.209-0.251
	c3.627-5.703,9.28-16.199,6.432-22.429c-0.968-2.109-2.748-3.517-5.022-4.137c-1.823-0.787-31.607-14.015-39.116-36.531
	c-0.22-0.66-0.577-1.233-1.02-1.715c17.34,1.023,38.024,8.219,41.623,9.512l0.693,0.508c6.028,4.399,12.86,9.388,12.05,19.946
	c-0.105,1.371,0.385,2.718,1.346,3.701c0.912,0.931,22.14,23.055,3.602,43.405c-0.76,0.831-1.198,1.902-1.241,3.028
	c-0.003,0.096-0.574,9.761-8.073,16.143c-5.619,4.783-13.843,6.674-24.439,5.721V295.587z M640.607,207.679
	c-9.097-3-28.302-8.638-44.249-8.638c-15.448,0-32.258,5.578-40.827,8.867l-3.701-22.484l22.891,5.008
	c1.458,0.32,2.985-0.065,4.12-1.036l18.802-16.115l19.435,16.735c1.204,1.039,2.854,1.412,4.384,0.98l23.977-6.661L640.607,207.679z
	 M554.026,218.815c2.344-1.023,21.381-9.127,38.875-10.134c-0.418,0.507-0.744,1.102-0.926,1.778
	c-5.578,20.558-38.5,36.226-38.832,36.381c-0.065,0.031-0.118,0.075-0.181,0.109c-0.148,0.078-0.289,0.164-0.427,0.256
	c-0.099,0.066-0.202,0.127-0.294,0.199c-2.717,0.883-4.646,2.804-5.43,5.415c-2.053,6.833,5.026,16.805,8.313,20.946
	c2.761,8.066,6.499,14.587,11.4,19.968c0.781,0.858,1.615,1.644,2.445,2.432v13.839c-10.754,0.999-19.115-0.853-24.827-5.614
	c-7.459-6.218-8.082-15.566-8.088-15.631c-0.05-1.111-0.487-2.169-1.238-2.988c-18.445-20.247,2.702-42.477,3.602-43.405
	c0.962-0.98,1.452-2.33,1.346-3.701c-0.816-10.614,5.969-14.75,11.954-18.398C552.556,219.755,553.309,219.282,554.026,218.815z
	 M577.89,376.386c1.223,4.649,5.397,15.022,18.388,15.022c15.978,0,19.09-13.602,19.317-14.716c0.028-0.118,0.036-0.24,0.062-0.358
	c2.823,1.56,7.809,4.36,14.227,8.121l-32.839,37.929l-33.677-37.699C569.897,380.85,574.99,377.989,577.89,376.386z
	 M624.579,370.378c14.74-11.442,29.586-33.908,30.309-35.009c1.446-2.2,0.832-5.153-1.368-6.599
	c-2.197-1.446-5.153-0.835-6.599,1.368c-0.242,0.369-0.532,0.797-0.818,1.222c-8.196-1.564-14.825-6.406-18.074-10.986
	c0.986,0.046,1.974,0.096,2.929,0.096c2.733,0,5.327-0.198,7.795-0.573c2.812-0.325,18.627-1.602,29.427,8.781
	c0.655,1.258,2.551,5.57,1.16,11.23c-1.756,7.142-8.306,14.079-18.944,20.061c-2.293,1.291-3.109,4.198-1.818,6.491
	c0.875,1.554,2.491,2.429,4.157,2.429c0.791,0,1.595-0.195,2.333-0.611c13.177-7.412,21.091-16.192,23.527-26.096
	c0.914-3.715,0.901-7.084,0.494-9.936c10.064,3.15,25.963,11.119,23.56,29.752c-0.208,1.613,0.425,3.227,1.675,4.269
	c0.049,0.041,4.414,3.715,9.205,9.618c-2.152,1.83-4.285,3.594-6.537,5.169c-1.815,1.269-2.516,3.618-1.697,5.672
	c1.694,4.244,6.993,5.464,10.499,6.27l0.841,0.199c4.206,1.064,8.246,1.619,12.095,1.707c-0.291,0.884-0.572,1.765-0.849,2.636
	c-0.512,1.613-1.015,3.211-1.576,4.738c-0.369,1.002-0.794,1.973-1.229,2.941c-0.469,1.046-2.377,4.911-2.947,6.059
	c-0.853,1.706-0.664,3.708,0.493,5.225c0.921,1.207,2.482,1.936,4.012,1.936c0.307,0,0.614-0.028,0.912-0.09
	c1.306-0.264,5.569-1.139,7.778-1.706c0.154-0.039,0.311-0.061,0.465-0.099c6.859,14.869,6.267,32.325,4.645,44.075
	C717.114,424.273,647.256,383.111,624.579,370.378z M764.353,344.338c3.549-1.936,7.443-2.92,11.377-2.92
	c2.262,0,4.536,0.326,6.767,0.98c12.612,3.714,19.85,16.993,16.14,29.605c-3.717,12.606-16.996,19.86-29.605,16.137
	c-6.112-1.796-11.154-5.867-14.204-11.458c-3.047-5.591-3.736-12.035-1.936-18.144C754.692,352.43,758.763,347.385,764.353,344.338z
	 M760.342,309.254c0.81,0.946,1.62,1.877,2.423,2.795c2.063,2.361,4.012,4.592,5.811,6.968c1.089,1.436,2.051,2.997,2.857,4.641
	c0.001,0.002,0.003,0.004,0.004,0.006c1.499,3.064,2.054,5.854,1.737,8.346c-2.7,0.209-5.365,0.744-7.954,1.613
	c-1.282-3.465-3.291-6.728-5.703-9.118c-0.09-0.689-0.174-1.393-0.251-2.104C758.834,318.441,759.197,314.02,760.342,309.254z
	 M780.865,321.41c0.379-0.887,0.791-1.706,1.226-2.429c2.615-4.356,7.201-9.876,11.641-13.298
	c1.123,5.997,2.389,13.201,2.079,19.552c-0.211,4.309-1.132,7.673-2.733,10c-0.26,0.376-0.556,0.707-0.855,1.038
	c-2.184-1.239-4.522-2.276-7.032-3.014c-0.823-0.243-1.654-0.425-2.484-0.603C783.05,329.07,782.445,325.27,780.865,321.41z
	 M823.188,326.88l-4.79-0.254c-0.462,2.659-0.906,5.042-1.635,7.276c-0.555,1.697-1.405,3.518-2.525,5.411
	c-0.195,0.326-0.413,0.639-0.63,0.956l-0.307,0.456c0,0,0,0,0,0c-1.924,2.857-4.021,4.896-6.233,6.056
	c-0.924,0.483-1.907,0.865-2.863,1.132c-1.274-2.09-2.764-4.047-4.474-5.82c0.403-0.479,0.839-0.93,1.197-1.448
	c2.398-3.484,3.807-7.8,4.282-13.161c1.03-1.042,2.116-1.976,3.239-2.783c2.284-1.635,4.781-2.845,7.424-3.596
	c0.67-0.189,1.595-0.279,2.575-0.372l0.996-0.102l-0.953,5.439L823.188,326.88z M830.085,359.624l-0.645,0.531
	c-1.924,1.579-4.22,3.407-6.664,4.967c-0.003,0.002-0.005,0.005-0.009,0.007c-1.791,1.137-3.28,1.915-4.686,2.438
	c-2.382,0.883-5.825,1.248-9.058,0.477c0.324-3.874-0.079-7.695-1.053-11.334c1.462-0.499,2.7-1.06,3.52-1.491
	c2.957-1.548,5.675-3.884,8.104-6.959c1.831,0.199,3.838,0.658,5.988,1.374c2.057,0.686,4.064,1.502,6.072,2.311
	c1.852,0.748,3.704,1.495,5.591,2.159C834.68,355.833,832.346,357.757,830.085,359.624z M832.958,380.412
	c0.354,0.289,0.707,0.58,1.064,0.872l-1.306,0.254c-3.785,0.742-7.698,1.508-11.498,2.02c-1.896,0.251-3.608,0.375-5.222,0.375
	c-0.096,0-0.201,0.002-0.285,0c-2.451-0.019-4.53-0.344-6.354-0.993c-1.633-0.582-2.92-1.383-3.95-2.378
	c0.539-1.046,1.044-2.116,1.476-3.234c5.413,1.282,10.798,0.557,14.525-0.829c1.288-0.481,2.581-1.08,3.956-1.831
	C827.969,376.322,830.407,378.324,832.958,380.412z M799.824,388.373c1.798,1.484,3.903,2.681,6.34,3.546
	c2.206,0.785,4.573,1.266,7.176,1.455c1.945,2.451,3.732,5.029,5.371,7.452c-4.213,0.397-9.218-0.074-13.077-0.884
	c-0.01-0.002-0.019-0.001-0.029-0.003c-0.003-0.001-0.005-0.002-0.009-0.003c-0.546-0.115-1.098-0.23-1.598-0.36
	c-3.812-0.98-8.012-3.41-10.147-6.298C796.015,391.883,798.023,390.242,799.824,388.373z M770.413,404.413
	c0.195,1.136,0.503,2.259,0.934,3.391c-2.172,4.7-5.786,8.7-10.124,11.144c-1.725,0.974-3.549,1.632-5.665,2.206
	c0.05-0.906,0.093-1.818,0.137-2.733c0.174-3.611,0.338-7.024,0.912-10.307c0-0.002,0-0.003,0-0.005
	c0.376-2.162,0.871-3.979,1.514-5.561c1.129-2.779,2.546-5.068,4.151-6.787c1.318,0.58,2.664,1.109,4.068,1.522
	c1.329,0.392,2.665,0.679,3.999,0.899C769.916,400.49,770.101,402.613,770.413,404.413z M766.792,502.883
	c0.354-1.517,1.71-2.547,3.205-2.547c0.242,0,0.49,0.028,0.738,0.084l21.119,4.893c1.734,0.403,2.861,2.206,2.46,3.937
	c-0.409,1.762-2.158,2.865-3.942,2.463l-21.125-4.894C767.517,506.413,766.392,504.612,766.792,502.883z M773.102,421.751
	c1.512-1.519,2.87-3.195,4.082-4.987c0.467,0.509,0.93,1.017,1.448,1.533c0.101,0.101,0.206,0.183,0.308,0.282l-0.611,73.818
	l-5.21-1.207v-69.276C773.118,421.859,773.103,421.807,773.102,421.751z M780.788,405.62c-0.001-0.002-0.003-0.004-0.004-0.006
	c-0.506-1.011-0.828-1.936-0.983-2.826c-0.35-2.022-0.206-3.22,0.534-4.483c1.623-0.227,3.215-0.576,4.774-1.034
	c3.108,5.334,9.032,9.186,14.824,11.049c-0.239,3.202-1.163,6.528-2.125,9.997c-0.177,0.633-0.354,1.272-0.531,1.917
	c-1.865-1.517-3.754-2.746-5.591-3.94c-2.311-1.499-4.492-2.916-6.329-4.747C783.208,409.405,781.715,407.469,780.788,405.62z
	 M750.665,343.309c-1.476-0.975-3.083-1.789-4.8-2.4c-2.609-0.928-5.442-1.446-8.6-1.564c-1.046-1.871-1.837-4.229-2.361-7.049
	c-0.366-1.961-0.605-3.937-0.847-5.917c-0.195-1.589-0.391-3.18-0.639-4.762c0.574,0.289,1.151,0.568,1.737,0.831
	c1.675,0.754,3.422,1.455,5.188,2.159c4.362,1.741,8.482,3.382,11.681,6c0.01,0.009,0.023,0.013,0.033,0.022
	c0.111,0.089,0.226,0.181,0.292,0.223c1.607,1.379,3.376,4.154,4.269,7.099C754.402,339.501,752.419,341.306,750.665,343.309z
	 M734.876,348.865c3.086-0.074,5.61,0.248,7.797,1.024c1.004,0.357,1.957,0.842,2.819,1.42c-0.671,1.463-1.276,2.965-1.739,4.537
	c-0.475,1.614-0.786,3.247-1.015,4.883c-2.973-0.149-6.047,0.264-9.226,1.381c-0.813-0.211-1.526-0.441-2.194-0.698
	c-4.893-1.889-8.883-5.169-13.112-8.641c-0.434-0.36-0.875-0.72-1.315-1.083c0.751-0.146,1.505-0.298,2.259-0.447
	c3.686-0.735,7.496-1.492,11.231-1.995C731.935,349.035,733.445,348.908,734.876,348.865z M722.084,381.128
	c2.491-2.147,4.843-4.176,7.35-6.05c2.048-1.533,4.136-2.74,6.205-3.583c0.002-0.001,0.003-0.002,0.005-0.003h0.001
	c2.569-1.054,4.957-1.457,7.14-1.25c0.275,1.818,0.682,3.615,1.26,5.375c-3.836,1.664-7.366,4.262-9.598,7.262
	c-0.552,0.745-1.077,1.536-1.582,2.386c-4.198,0.403-8.867-0.037-13.893-1.309l-0.155-0.037
	C719.924,382.987,721.01,382.053,722.084,381.128z M749.996,431.385c0.641,0.199,1.252,0.275,1.786,0.275
	c0.769,0,1.387-0.14,1.737-0.214c3.13-0.697,6.602-1.513,10.068-3.071v64.181c-1.808,1.05-3.328,2.545-4.451,4.363
	c-2.749-3.831-5.068-7.748-6.93-11.26c-0.048-0.111-0.111-0.213-0.168-0.32c-2.37-4.502-3.971-8.249-4.736-10.154
	C748.776,469.641,753.051,451.034,749.996,431.385z M792.599,558.869c0.714-3.081,0.195-6.139-1.159-8.75
	c1.53-1.131,2.763-2.55,3.646-4.196c7.366,30.605,16.491,81.666,5.489,97.845c-4.645,6.831-8.406,10.578-11.24,12.636l-0.968-90.693
	C790.47,563.938,791.971,561.587,792.599,558.869z M789.925,480.699c1.052-4.083,2.802-9.879,3.224-11.039
	c0.912-2.305,2.097-4.542,3.525-6.652c10.325-15.28,31.625-22.276,49.089-21.979c-0.735,1.691-1.52,3.506-2.228,5.141
	c-1.064,2.457-1.939,4.493-2.172,4.977c-3.881,7.884-9.28,13.927-16.503,18.476C815.813,475.316,801.926,481.221,789.925,480.699z
	 M387.365,142.391l27.38-4.694l3.009,73.826c0.081,1.967,1.365,3.686,3.233,4.319c1.868,0.633,3.928,0.053,5.191-1.464l6.422-7.71
	l3.155,3.853l-15.103,21.324c-0.589,0.831-0.897,1.831-0.878,2.851l5.139,256.153c-1.027-0.015-2.059,0.051-3.088,0.288
	l-8.279,1.918l-12.583-191.979c-0.065-0.984-0.431-1.924-1.052-2.69l-15.125-18.681l4.278-7.272l8.064,14.114
	c1.132,1.976,3.497,2.873,5.662,2.153c2.156-0.729,3.5-2.882,3.202-5.141L387.365,142.391z M423.979,500.419
	c0.236-0.053,0.475-0.081,0.714-0.081c1.489,0,2.879,1.046,3.227,2.544c0.195,0.844,0.047,1.722-0.419,2.47
	c-0.468,0.749-1.189,1.266-2.034,1.466l-21.129,4.895c-1.784,0.395-3.526-0.698-3.938-2.46c-0.4-1.734,0.726-3.537,2.46-3.94
	L423.979,500.419z M403.274,550.119c-1.354,2.612-1.873,5.671-1.159,8.753c0.674,2.913,2.355,5.4,4.706,7.203l3.279,93.03
	c-3.404-1.046-9.38-4.807-17.119-15.459c-11.179-15.381-1.791-66.414,6.168-98.608C400.038,547.066,401.469,548.784,403.274,550.119
	z M432.728,538.187l-21.122,4.893c-0.844,0.192-1.722,0.047-2.47-0.419c-0.751-0.469-1.269-1.191-1.468-2.035
	c-0.406-1.768,0.695-3.537,2.46-3.946l21.119-4.893c0.236-0.053,0.475-0.081,0.714-0.081c1.489,0,2.879,1.042,3.227,2.541
	C435.589,535.981,434.463,537.784,432.728,538.187z M432.908,554.112c-0.465,0.751-1.188,1.269-2.035,1.468
	c-0.003,0-0.003,0-0.003,0l-0.029,0.007c-0.013,0.003-0.026,0.005-0.038,0.009l-15.464,3.583c-1.71,0.385-3.537-0.723-3.94-2.457
	c-0.406-1.765,0.698-3.537,2.46-3.946l15.532-3.599c0.242-0.056,0.487-0.084,0.732-0.084c0.605,0,1.207,0.174,1.741,0.506
	c0.751,0.468,1.269,1.191,1.467,2.038C433.526,552.484,433.377,553.365,432.908,554.112z M410.464,669.426l0.782,22.177h-62.892
	v-22.177H410.464z M371.629,701.134h39.953l8.606,244.12h-48.558V701.134z M416.446,568.583c0.349-0.052,0.698-0.04,1.046-0.121
	l9.899-2.294l15.837,442.283l-11.238,1.095L416.446,568.583z M435.158,521.098l-27.331,6.332c-1.675,0.385-3.366-0.664-3.829-2.643
	c-0.382-1.654,0.692-3.372,2.346-3.757l0.133-0.031c0.006-0.002,0.012-0.002,0.019-0.003l21.116-4.893
	c0.001,0,0.002-0.001,0.002-0.001l6.063-1.405c0.23-0.053,0.465-0.078,0.698-0.078c0.577,0,1.151,0.161,1.66,0.481
	c0.714,0.444,1.21,1.136,1.467,2.24c0.186,0.807,0.043,1.644-0.403,2.358C436.656,520.412,435.964,520.909,435.158,521.098z
	 M312.299,1027.058v-12.324h87.082c2.631,0,4.766-2.135,4.766-4.766s-2.135-4.766-4.766-4.766h-87.082v-18.494h19.39
	c2.631,0,4.766-2.135,4.766-4.766s-2.135-4.766-4.766-4.766h-19.39v-16.754h21.848c2.631,0,4.766-2.135,4.766-4.766
	s-2.135-4.766-4.766-4.766h-21.848v-19.013h29.688c2.631,0,4.766-2.135,4.766-4.766s-2.135-4.766-4.766-4.766h-29.688v-17.626h19.39
	c2.631,0,4.766-2.135,4.766-4.766s-2.135-4.766-4.766-4.766h-19.39v-16.757h21.848c2.631,0,4.766-2.135,4.766-4.766
	c0-2.631-2.135-4.766-4.766-4.766h-21.848V849.89h29.688c2.631,0,4.766-2.135,4.766-4.766s-2.135-4.766-4.766-4.766h-29.688v-20.139
	h49.799V950.02c0,2.631,2.135,4.766,4.766,4.766h53.66l2.121,60.165c0.047,1.315,0.633,2.55,1.623,3.419
	c0.872,0.763,1.989,1.179,3.14,1.179c0.155,0,0.307-0.006,0.462-0.022l20.744-2.026c2.507-0.245,4.39-2.398,4.3-4.914l-1.426-39.822
	c4.481-0.35,9.417-3.09,13.998-5.65c1.446-0.809,2.939-1.639,4.45-2.432c-5.778,8.171-8.262,14.821-5.67,20.479
	c2.913,6.37,10.896,9.087,26.695,9.087c19.813,0,28.029-9.834,31.187-15.725c6.573,2.916,13.735,5.049,21.761,5.049
	c2.631,0,4.766-2.135,4.766-4.766s-2.135-4.766-4.766-4.766c-12.026,0-22.202-6.013-32.047-11.824
	c-8.017-4.738-16.31-9.633-25.419-11.073c-9.28-1.477-18.342,3.587-25.609,7.651c-2.974,1.662-7.723,4.288-9.687,4.465
	l-3.072-85.766c9.535,12.523,26.265,32.156,48.658,49.344c19.251,14.771,32.698,18.572,41.441,18.572
	c8.234,0,12.296-3.372,13.093-4.12c1.92-1.799,2.085-4.877,0.285-6.795c-1.803-1.927-4.747-2.082-6.671-0.279
	c-0.112,0.093-11.579,8.665-42.347-14.939c-31.725-24.351-52.195-54.679-55.079-59.079l-6.481-180.986
	c0.126-0.12,0.26-0.227,0.375-0.363c0.13-0.155,13.273-15.504,33.604-17.055c14.349-1.073,29.009,4.824,43.594,17.582
	c33.818,29.589,59.036,34.606,72.25,34.606c6.354,0,9.931-1.16,10.356-1.306c2.467-0.85,3.767-3.521,2.941-6
	c-0.822-2.479-3.521-3.819-6-3.025c-0.273,0.084-27.852,8.293-73.274-31.448c-16.627-14.548-33.694-21.271-50.727-19.9
	c-15.264,1.201-26.873,8.617-33.575,14.179l-0.277-7.731c2.884-2.534,6.019-5.755,9.332-9.506c0.104-0.075,0.226-0.106,0.326-0.19
	c13.244-11.312,24.846-17.636,34.667-20.95c0.015-0.005,0.03-0.002,0.045-0.008c0.041-0.015,0.081-0.034,0.123-0.049
	c23.193-7.761,36.331,1.392,37.13,1.976c2.094,1.564,5.067,1.154,6.652-0.937c1.589-2.094,1.179-5.085-0.918-6.677
	c-0.699-0.532-9.966-7.294-26.133-6.998c5.073-6.225,9.661-14.454,13.729-24.655c14.948-37.495,18.861-92.447,12.752-104.346
	c-9.984-19.453-4.685-46.07-4.632-46.337c0.531-2.575-1.129-5.098-3.704-5.628c-2.581-0.515-5.094,1.123-5.628,3.701
	c-0.254,1.219-6.053,30.132,5.485,52.613c1.865,3.634,2.359,17.253,0.744,34.565c-1.592,2.78-8.631,15.002-18.341,30.999
	c0.885-9.395,0.847-17.207,0.825-18.956c-0.034-2.609-2.159-4.703-4.766-4.703c-0.019,0-0.04,0-0.062,0
	c-2.631,0.034-4.738,2.194-4.703,4.828c0.107,8.541-0.868,30.426-5.949,42.478c-5.883,9.28-12.12,18.842-18.35,27.957
	c2.224-9.511,3.591-17.562,3.894-19.401c0.425-2.597-1.334-5.048-3.931-5.476c-2.572-0.428-5.048,1.331-5.476,3.931
	c-1.593,9.694-6.623,34.525-12.499,45.796c-3.892,4.974-7.618,9.418-11.069,13.102l-0.59-16.466
	c19.21-20.415,20.429-85.374,20.472-88.133c0.04-2.634-2.06-4.8-4.691-4.84c-2.501,0.05-4.8,2.06-4.84,4.691
	c-0.226,14.681-2.828,50.868-11.549,71.301l-1.761-49.189c1.662-1.023,3.108-2.38,4.173-4.089c1.815-2.91,2.389-6.348,1.616-9.674
	c-0.421-1.82-1.23-3.442-2.294-4.84c3.478-3.013,5.262-7.763,4.153-12.55c-0.374-1.616-1.06-3.075-1.95-4.364
	c1.018-0.852,1.942-1.826,2.667-2.986c1.793-2.876,2.361-6.267,1.53-9.854c-0.76-3.286-2.764-6.084-5.637-7.877
	c-0.531-0.331-1.095-0.575-1.657-0.821c3.949-4.909,7.219-10.126,9.762-14.781c2.27-0.668,6.927-1.444,11.069,1.637
	c5.619,4.176,14.086,18.373,7.663,66.544c-0.348,2.609,1.486,5.004,4.095,5.355c0.214,0.028,0.425,0.04,0.636,0.04
	c2.352,0,4.399-1.741,4.719-4.136c5.408-40.579,1.514-66.001-11.573-75.56c-3.958-2.892-8.079-3.868-11.679-3.98
	c1.055-2.443,1.645-4.042,1.723-4.257c0.023-0.065,0.029-0.132,0.05-0.197c0.01-0.033,0.034-0.058,0.043-0.092
	c1.856-6.383,6.121-13.226,11.998-20.235c1.759-0.551,6.83-1.687,11.839,1.514c6.292,4.03,13.89,15.618,14.337,47.947
	c0.037,2.609,2.163,4.7,4.766,4.7c0.022,0,0.043,0,0.065,0c2.631-0.037,4.738-2.2,4.7-4.831c-0.406-29.36-6.708-48.149-18.73-55.843
	c-2.696-1.726-5.393-2.702-7.925-3.207c21.807-21.518,55.093-43.291,78.043-57.157l38.519,43.12c0.906,1.015,2.2,1.592,3.556,1.592
	c0.012,0,0.025,0,0.037,0c1.368-0.009,2.668-0.611,3.565-1.647l37.499-43.314c23.965,14.459,59.464,37.689,81.253,60.241
	c-10.897,4.234-29.445,17.816-29.445,61.242c0,2.631,2.135,4.766,4.766,4.766c2.631,0,4.766-2.135,4.766-4.766
	c0-45.014,21.279-52.292,26.909-53.431c5.478,6.684,9.485,13.208,11.259,19.309c0.01,0.033,0.033,0.058,0.043,0.092
	c0.021,0.065,0.026,0.132,0.05,0.197c0.087,0.24,0.797,2.177,2.102,5.132c-3.47,0.393-7.478,1.647-11.341,4.74
	c-13.291,10.642-17.244,36.949-11.746,78.185c0.32,2.395,2.367,4.136,4.719,4.136c0.211,0,0.422-0.012,0.636-0.04
	c2.609-0.351,4.443-2.746,4.095-5.355c-6.562-49.21,2.277-64.596,8.132-69.389c3.879-3.176,8.008-3.105,10.222-2.757
	c2.586,4.702,5.898,9.951,9.903,14.868c-0.294,0.153-0.604,0.263-0.889,0.44c-2.873,1.793-4.877,4.592-5.706,8.175
	c-0.763,3.289-0.195,6.68,1.598,9.556c0.724,1.16,1.648,2.135,2.667,2.987c-0.889,1.29-1.576,2.747-1.95,4.363
	c-1.109,4.786,0.675,9.537,4.152,12.549c-1.064,1.4-1.874,3.024-2.297,4.844c-1.595,6.885,2.709,13.782,9.59,15.376l0.783,0.182
	l-1.067,57.863c-13.861-14.688-17.618-63.999-17.897-81.773c-0.04-2.606-2.166-4.691-4.766-4.691c-0.025,0-0.05,0-0.074,0
	c-2.631,0.04-4.731,2.209-4.691,4.84c0.043,2.761,1.266,67.863,20.533,88.203c0.937,0.99,2.197,1.489,3.459,1.489
	c1.176,0,2.355-0.434,3.276-1.306c0.016-0.015,0.021-0.036,0.036-0.052l-0.423,22.934l-0.79-0.606
	c-4.99-4.302-10.9-10.773-17.24-18.478c-0.194-0.319-0.345-0.659-0.621-0.935c-0.032-0.032-0.156-0.154-0.227-0.225
	c-6.418-9.019-10.576-35.39-11.656-45.079c-0.292-2.615-2.671-4.521-5.265-4.207c-2.615,0.289-4.499,2.646-4.21,5.262
	c0.209,1.879,1.257,10.779,3.34,20.873c-5.672-7.813-11.335-15.923-16.728-23.833c-0.06-0.102-0.102-0.209-0.17-0.307
	c-7.632-10.989-8.188-35.909-7.756-44.581c0.13-2.628-1.893-4.868-4.52-4.998c-2.674-0.056-4.868,1.893-4.998,4.52
	c-0.036,0.708-0.44,9.474,0.576,20.033c-8.984-13.796-15.461-24.198-17.134-26.899c-2.001-19.4-1.917-36.554,0.809-42.524
	c10.415-22.807,5.628-51.084,5.42-52.275c-0.453-2.591-2.901-4.328-5.516-3.872c-2.594,0.453-4.325,2.923-3.872,5.516
	c0.047,0.264,4.499,26.527-4.7,46.672c-3.552,7.781-3.695,27.407-1.368,48.942c0.002,0.009,0.002,0.019,0.003,0.029
	c2.538,23.473,8.01,49.208,15.235,64.372c-7.96,2.513-14.882,7.509-19.228,11.217c-4.724-9.482-14.56-15.11-16.937-16.356
	c-3.501-15.288-9.979-24.181-12.804-27.466c-1.241-16.701-5.684-30.703-9.28-38.27c1.139-1.291,2.032-2.661,2.82-4.047l3.86,1.829
	c0.661,0.313,1.356,0.459,2.038,0.459c1.784,0,3.497-1.005,4.31-2.724c1.126-2.38,0.112-5.222-2.265-6.348l-4.351-2.061l6.221-1.364
	c2.572-0.562,4.198-3.103,3.633-5.675c-0.562-2.566-3.075-4.213-5.675-3.633l-2.762,0.606c1.929-6.56,2.857-16.634,1.205-22.197
	c-1.073-3.615-3.106-5.147-4.623-5.799c-5.836-2.504-13.685,2.405-17.53,5.461c-2.783-1.263-6.757-2.318-11.784-2.411
	c-4.688,0.09-8.064,1.083-10.363,2.156c-4.275-3.441-10.955-7.552-16.403-5.206c-1.517,0.652-3.549,2.184-4.623,5.799
	c-1.783,5.993-0.567,17.203,1.669,23.627l-4.691-1.013c-2.569-0.568-5.107,1.08-5.662,3.652c-0.555,2.572,1.08,5.107,3.652,5.662
	l6.699,1.446l-4.121,0.726c-2.594,0.456-4.325,2.929-3.869,5.519c0.41,2.315,2.42,3.94,4.688,3.94c0.276,0,0.552-0.022,0.831-0.071
	l6.313-1.112c0.43,0.717,0.869,1.433,1.406,2.123c-3.301,6.168-9.739,20.319-11.163,39.021
	c-3.543,4.679-14.278,21.256-14.278,50.386c0,10.986,2.054,19.627,6.283,26.412c2.888,4.635,6.729,8.147,11.113,10.158
	c4.551,2.082,9.801,2.631,14.433,3.115l1.057,0.111c1.539,0.306,3.246,0.472,5.151,0.472c4.728,0,8.557-1.449,11.374-4.309
	c0.417-0.423,0.806-0.873,1.173-1.348c0.458,0.642,0.945,1.257,1.495,1.814c2.712,2.743,6.407,4.133,10.986,4.133
	c5.048,0,8.807-1.089,11.281-3.205l1.716-0.375c3.963-0.853,7.751-1.679,10.947-3.527c1.681,0.909,3.539,1.402,5.53,1.402
	c0.428,0,0.866-0.022,1.306-0.065c9.302-0.94,18.709-11.824,21.883-25.314c0.45-1.91,0.591-3.716,0.601-5.471
	c2.2-2.24,17.503-17.184,30.642-13.312c14.286,4.201,36.777,25.58,41.246,29.927c0.063,0.077,0.128,0.159,0.19,0.235
	c0.112,0.146,0.222,0.304,0.337,0.444c0.045,0.055,0.102,0.092,0.149,0.145c6.835,8.308,13.26,15.327,18.755,20.062l6.588,5.062
	l-0.19,10.299c-0.047,2.538,1.905,4.666,4.437,4.84l19.565,1.35c0.112,0.009,0.22,0.012,0.329,0.012c1.213,0,2.383-0.462,3.27-1.3
	c0.968-0.912,1.508-2.187,1.495-3.515l-0.071-6.655h58.676v22.177h-80.31c-0.444-0.796-0.893-1.582-1.371-2.29
	c-0.062-0.093-0.127-0.183-0.195-0.27l-17.613-22.5c-0.546-0.701-1.132-1.368-1.756-1.983c-6.792-6.736-42.391-39.462-76.578-22.376
	c-9.665,4.834-17.182,10.325-24.451,15.637c-18.426,13.465-34.346,25.084-78.849,17.325c-2.557-0.459-5.06,1.281-5.513,3.875
	c-0.453,2.594,1.281,5.06,3.875,5.513c48.493,8.461,66.767-4.883,86.112-19.019c6.95-5.079,14.138-10.332,23.089-14.805
	c28.975-14.486,61.937,16.98,65.61,20.623c0.341,0.338,0.655,0.701,0.953,1.083l17.508,22.363
	c3.789,5.694,6.315,15.086,7.899,26.908v0.609c0,0.51,0.102,0.992,0.25,1.452c5.141,42.048-0.902,112.667-4.897,159.277
	c-2.187,25.509-3.767,43.942-3.127,51.224c0.413,4.688,0.804,8.914,1.111,12.233c0.351,3.788,0.593,6.354,0.617,6.909
	c0,4.009-1.253,7.024-3.729,8.954c-4.142,3.239-11.759,3.689-21.439,1.266c-8.232-2.058-14.655-5.397-19.259-8.463
	c-0.13-0.152-0.258-0.304-0.389-0.456c-0.638-0.739-1.456-1.231-2.332-1.473c-0.997-0.752-1.862-1.455-2.606-2.095
	c13.191-18.024,18.252-83.126,17.848-109.297c-0.04-2.606-2.166-4.691-4.766-4.691c-0.025,0-0.05,0-0.074,0
	c-2.631,0.04-4.731,2.209-4.691,4.84c0.689,44.584-9.274,100.337-16.32,104.411c-3.86,0.894-8.42,0.372-14.191-0.289
	c-9.296-1.06-21.423-2.434-38.349,1.291c33.13-46.738,50.285-134.069,50.285-134.991c0-2.631-2.135-4.766-4.766-4.766
	c-2.519,0-4.583,1.955-4.753,4.43c-1.359,10.583-27.995,127.085-69.696,150.68c-6.255,3.537-12.46,4.726-18.798,3.658
	c25.59-22.473,37.399-59.286,38.093-61.509c0.785-2.513-0.617-5.184-3.127-5.969c-2.532-0.794-5.188,0.62-5.969,3.127
	c-0.227,0.72-23.034,71.992-71.586,71.992c-2.631,0-4.766,2.135-4.766,4.766s2.135,4.766,4.766,4.766
	c12.624,0,23.611-3.931,33.09-10.004c4.661,1.825,9.308,2.79,13.92,2.79c7.344,0,14.601-2.308,21.703-6.922
	c3.964-2.574,7.763-5.827,11.407-9.602c0.02,0,0.039,0.009,0.06,0.009c0.484,0,0.98-0.074,1.468-0.233
	c8.152-2.636,15.185-4.022,21.389-4.666c0.885,6.587,3.341,15.007,8.023,22.385h-45.878c-2.631,0-4.766,2.135-4.766,4.766
	s2.135,4.766,4.766,4.766h54.112c0.036,0,0.069-0.01,0.105-0.01c5.477,4.443,12.51,7.398,21.499,7.398
	c16.791,0,25.236-2.799,28.24-9.36c1.86-4.064,0.97-8.723-1.457-13.646c1.745,0.583,3.544,1.136,5.457,1.615
	c5.166,1.291,9.587,1.818,13.363,1.818c8.017,0,13.124-2.373,16.254-4.815c4.508-3.522,7.006-8.723,7.329-15.075h65.399
	c2.631,0,4.766-2.135,4.766-4.766V820.221h47.538l0.002,20.139h-30.221c-2.631,0-4.766,2.135-4.766,4.766s2.135,4.766,4.766,4.766
	h30.222l0.002,19.013h-22.384c-2.631,0-4.766,2.135-4.766,4.766c0,2.631,2.135,4.766,4.766,4.766h22.385l0.002,16.757h-19.929
	c-2.631,0-4.766,2.135-4.766,4.766s2.135,4.766,4.766,4.766h19.93l0.002,17.626h-30.229c-2.631,0-4.766,2.135-4.766,4.766
	s2.135,4.766,4.766,4.766h30.23l0.002,19.013h-22.392c-2.631,0-4.766,2.135-4.766,4.766s2.135,4.766,4.766,4.766h22.392
	l0.002,16.754h-19.937c-2.631,0-4.766,2.135-4.766,4.766s2.135,4.766,4.766,4.766h19.938l0.002,18.494H800.07
	c-2.631,0-4.766,2.135-4.766,4.766s2.135,4.766,4.766,4.766h87.629l0.001,12.324H312.299z M485.309,960.634
	c7.193,1.236,14.247,5.385,21.707,9.792c2.142,1.265,4.36,2.557,6.631,3.823c-2.097,3.725-7.922,10.47-22.687,10.47
	c-15.625,0-17.759-2.935-18.029-3.521C472.381,979.992,472.549,975.57,485.309,960.634z M468.928,624.484
	c7.44-10.375,15.054-21.761,22.255-32.952c0.324-0.248,0.628-0.531,0.888-0.87c1.307-1.699,2.451-3.714,3.457-5.94
	c8.083-12.755,15.438-24.876,21.187-34.533c-2.366,12.539-5.754,25.453-10.375,37.042c-6.922,17.36-15.388,28.306-24.507,31.725
	C477.771,620.308,473.457,622.139,468.928,624.484z M710.555,606.513c-5.014-3.205-10.016-5.824-14.49-7.14
	c-2.235-0.657-4.468-0.929-6.679-0.966c-5.357-9.597-9.702-25.518-12.7-42.332C685.277,569.478,697.596,588.245,710.555,606.513z
	 M627.057,643.735c-1.004,0.386-2.128,0.731-3.434,1.044c-0.662-2.657-1.98-5.036-3.015-6.59
	c0.928-10.344,3.279-45.865,3.388-47.482c0.174-2.625-1.815-4.896-4.443-5.07c-2.541-0.174-4.896,1.815-5.07,4.443
	c-0.028,0.422-2.805,42.356-3.531,48.915c-0.14,1.26,0.23,2.519,1.021,3.506c1.433,1.787,2.758,4.703,2.606,5.442
	c-0.009,0.009-0.999,0.912-5.11,0.912c-2.619,0-3.655-0.745-4.207-1.303c-2.048-2.069-2.898-7.194-3.217-14.289
	c0.365-6.501,0.266-14.328,0.139-23.668c-0.047-3.4-0.096-6.999-0.127-10.797c-0.002-0.164-0.034-0.318-0.052-0.477
	c-0.017-0.155-0.019-0.313-0.05-0.463c-0.033-0.155-0.092-0.299-0.139-0.448c-0.047-0.148-0.08-0.301-0.14-0.443
	c-0.063-0.147-0.15-0.278-0.227-0.417c-0.072-0.13-0.131-0.267-0.214-0.39c-0.092-0.136-0.207-0.253-0.313-0.379
	c-0.09-0.107-0.17-0.224-0.269-0.323c-0.119-0.118-0.257-0.214-0.387-0.32c-0.107-0.086-0.204-0.183-0.318-0.26
	c-0.148-0.1-0.314-0.174-0.473-0.257c-0.113-0.059-0.216-0.131-0.334-0.18c-0.175-0.074-0.363-0.117-0.548-0.17
	c-0.116-0.033-0.226-0.082-0.346-0.107c-0.309-0.063-0.629-0.096-0.957-0.096c-0.012,0-0.025,0-0.037,0
	c-0.156,0.002-0.303,0.033-0.455,0.05c-0.163,0.017-0.33,0.02-0.487,0.053c-0.157,0.033-0.303,0.093-0.454,0.141
	c-0.146,0.046-0.298,0.08-0.437,0.139c-0.162,0.07-0.31,0.164-0.463,0.251c-0.114,0.064-0.235,0.116-0.343,0.19
	c-0.158,0.107-0.297,0.238-0.44,0.363c-0.086,0.075-0.182,0.139-0.262,0.219c-0.141,0.142-0.259,0.303-0.381,0.461
	c-0.064,0.083-0.14,0.157-0.198,0.244c-0.109,0.162-0.192,0.34-0.28,0.515c-0.051,0.1-0.114,0.192-0.158,0.297
	c-0.073,0.174-0.117,0.363-0.17,0.547c-0.033,0.117-0.081,0.228-0.105,0.348c-0.036,0.175-0.039,0.36-0.055,0.542
	c-0.011,0.135-0.041,0.265-0.041,0.403c0,5.268-0.053,10.142-0.102,14.629c-0.088,7.882-0.155,14.481,0.078,20.032
	c-0.409,6.724-1.373,11.472-3.473,13.6c-0.673,0.686-1.806,1.471-4.589,1.471c-1.415,0.001-2.45-0.096-3.198-0.22
	c-0.25-0.079-0.515-0.127-0.782-0.164c-0.663-0.171-0.926-0.338-0.941-0.351c-0.18-0.853,1.021-3.646,2.69-5.718
	c0.788-0.962,1.167-2.197,1.055-3.435c-0.586-6.571-2.417-47.187-2.435-47.597c-0.118-2.628-2.386-4.744-4.973-4.545
	c-2.628,0.118-4.666,2.346-4.545,4.973c0.068,1.567,1.62,35.999,2.321,46.185c-1.35,1.972-3.199,5.298-3.555,8.856
	c-0.816-0.235-1.604-0.494-2.309-0.817c-3.382-1.551-5.668-4.409-6.99-6.531c-3.258-5.231-4.843-12.221-4.843-21.374
	c0-30.247,12.842-45.267,12.953-45.397c0.717-0.797,1.139-1.815,1.204-2.885c1.101-18.181,7.85-33.229,11.663-39.257
	c1.253-1.983,0.878-4.582-0.884-6.131c-5.966-5.231-4.114-14.765-4.102-14.84c0.261-1.21-0.031-2.578-0.689-3.63
	c-1.7-2.709-3.193-14.446-2.187-18.578c1.945,0.614,5.585,3.022,8.34,5.609c1.914,1.796,4.781,1.855,6.584-0.053
	c0.022-0.019,2.181-1.862,7.502-1.964c5.492,0.102,8.42,1.812,8.901,2.119c0.782,0.766,1.806,1.244,2.904,1.347
	c1.275,0.109,2.532-0.282,3.503-1.101c0.285-0.239,0.583-0.481,0.903-0.729c0.149-0.115,0.292-0.242,0.428-0.375
	c2.135-2.104,6.385-4.539,8.293-5.004c1.083,3.99-0.425,15.988-2.141,18.724c-0.599,0.897-0.872,1.995-0.782,3.072
	c0.009,0.099,0.788,10.251-5.979,15.656c-1.88,1.502-2.346,4.173-1.083,6.224c3.205,5.2,8.709,20.381,9.835,38.99
	c0.071,1.176,0.599,2.308,1.443,3.137c0.133,0.133,13.583,13.67,13.583,43.718c0,1.442-0.037,2.792-0.072,4.147
	C631.695,626.034,624.416,636.569,627.057,643.735z M644.433,625.444c0.037-0.044,0.06-0.094,0.095-0.139
	c0.099-0.125,0.183-0.259,0.269-0.394c0.084-0.133,0.169-0.263,0.238-0.401c0.067-0.133,0.12-0.274,0.175-0.414
	c0.059-0.151,0.118-0.301,0.161-0.456c0.039-0.14,0.062-0.284,0.088-0.429c0.029-0.165,0.058-0.328,0.069-0.494
	c0.004-0.056,0.021-0.107,0.023-0.164c0.074-1.936,0.105-3.962,0.105-6.072c0-3.107-0.151-6.029-0.387-8.832
	c4.518,3.833,9.366,9.899,7.585,17.469c-2.485,10.564-9.575,17.61-13.564,18.014c-0.583,0.053-1.989,0.205-3.32-2.65
	C635.562,638.406,639.673,631.097,644.433,625.444z M776.09,722.096v-20.962h54.522v244.12h-61.259
	c-0.302-3.258-0.676-7.325-1.075-11.839c-0.568-6.456,1.064-25.485,3.13-49.576C775.672,834.11,781.57,765.275,776.09,722.096z
	 M720.368,980.925c-0.292,0.633-2.597,3.794-19.574,3.794c-21.378,0-26.95-22.192-28.268-30.238
	c5.63,0.034,10.518,0.582,14.955,1.089c5.316,0.604,10.024,1.076,14.593,0.528c1.561,1.538,4.091,3.786,7.59,6.223
	C720.859,975.563,720.911,979.741,720.368,980.925z M356.489,223.533c0.137-0.99,0.732-1.858,1.607-2.342
	c0.875-0.484,1.921-0.524,2.833-0.121c7.549,3.369,20.492,14.827,15.466,34.079c-0.23,0.881-0.828,1.62-1.641,2.032
	c-0.45,0.226-0.94,0.341-1.433,0.341c-0.397,0-0.794-0.074-1.173-0.223C371.955,257.221,352.89,249.331,356.489,223.533z
	 M334.643,265.365c-0.521-0.853-0.608-1.899-0.239-2.83c0.369-0.928,1.151-1.626,2.116-1.889c7.524-2.051,23.843-1.427,31.69,15.643
	c0.382,0.828,0.388,1.778,0.022,2.612c-0.369,0.831-1.077,1.468-1.945,1.744c-0.065,0.022-2.423,0.735-6.007,0.735
	C353.684,281.38,342.93,278.964,334.643,265.365z M456.817,123.779c0.841,0.54,1.374,1.446,1.446,2.442
	c0.019,0.242,1.468,24.486-23.3,30.452c-0.245,0.059-0.496,0.087-0.745,0.087c-0.645,0-1.281-0.195-1.821-0.574
	c-0.745-0.521-1.232-1.34-1.334-2.243c-0.025-0.211-2.119-21.243,22.934-30.477C454.933,123.124,455.979,123.233,456.817,123.779z
	 M465.932,242.22c0.019,0.261,1.576,26.226-24.966,32.617c-0.248,0.059-0.496,0.087-0.745,0.087c-0.645,0-1.281-0.195-1.821-0.574
	c-0.745-0.521-1.232-1.34-1.334-2.243c-0.028-0.226-2.268-22.742,24.6-32.642c0.937-0.344,1.983-0.233,2.82,0.313
	C465.327,240.318,465.861,241.224,465.932,242.22z M481.144,175.598c0.58,0.807,0.754,1.834,0.465,2.783
	c-0.068,0.226-6.587,20.759-29.205,20.759c-1.84,0-3.782-0.137-5.842-0.428c-0.89-0.127-1.688-0.63-2.19-1.378
	c-0.5-0.748-0.661-1.675-0.441-2.55c0.059-0.214,5.796-21.181,34.715-20.502C479.639,174.307,480.564,174.795,481.144,175.598z
	 M592.598,508.393c-0.763,1.831-2.535,2.932-4.403,2.932c-0.611,0-1.232-0.118-1.831-0.366l-1.517-0.633
	c-2.429-1.015-3.577-3.804-2.566-6.233c1.011-2.426,3.804-3.571,6.233-2.566l1.517,0.633
	C592.461,503.174,593.609,505.964,592.598,508.393z M609.51,510.326l-1.52,0.633c-0.599,0.248-1.219,0.366-1.827,0.366
	c-1.868,0-3.639-1.101-4.403-2.935c-1.011-2.429,0.136-5.219,2.569-6.23l1.52-0.633c2.442-1.008,5.222,0.137,6.23,2.569
	C613.09,506.525,611.942,509.314,609.51,510.326z M610.044,703.955c-1.381-2.24-0.683-5.178,1.561-6.556l6.075-3.739
	c2.237-1.381,5.175-0.686,6.556,1.561c1.381,2.24,0.683,5.178-1.561,6.556l-6.075,3.739c-0.779,0.481-1.641,0.707-2.494,0.707
	C612.507,706.223,610.943,705.419,610.044,703.955z M522.027,712.189c-2.029-1.672-2.318-4.672-0.645-6.705
	c1.669-2.035,4.672-2.321,6.705-0.652c0.478,0.394,48.115,38.987,86.698,20.949c2.386-1.123,5.219-0.09,6.335,2.296
	s0.087,5.222-2.296,6.335c-8.796,4.114-17.855,5.771-26.735,5.771C556.493,740.183,523.733,713.597,522.027,712.189z
	 M554.684,791.475c-31.727-4.914-72.005-51.019-73.705-52.98c-1.722-1.989-1.508-4.998,0.481-6.72
	c1.986-1.725,4.998-1.508,6.723,0.478c0.391,0.453,39.679,45.422,67.959,49.803c34.733,5.374,56.34-16.589,56.554-16.81
	c1.831-1.896,4.846-1.945,6.739-0.13c1.896,1.827,1.955,4.843,0.13,6.739c-0.906,0.94-20.244,20.598-52.375,20.598
	C563.213,792.452,559.043,792.151,554.684,791.475z M638.063,768.007c29.046-67.075,64.866-73.413,66.377-73.649
	c2.606-0.416,5.042,1.365,5.445,3.968c0.406,2.588-1.35,5.017-3.931,5.442c-0.54,0.099-32.524,6.55-59.141,68.024
	c-28.86,66.65-71.279,80.996-73.069,81.573c-0.487,0.155-0.98,0.23-1.464,0.23c-2.014,0-3.884-1.284-4.536-3.301
	c-0.807-2.507,0.568-5.191,3.072-6C571.199,844.166,611.055,830.391,638.063,768.007z M714.678,711.965
	c2.187-1.464,5.147-0.872,6.608,1.322c1.458,2.184,0.872,5.138-1.309,6.599c-0.388,0.267-25.755,18.057-52.282,76.931
	c-37.628,83.521-61.26,128.918-78.352,129.632c-0.068,0.003-0.133,0.003-0.202,0.003c-2.541,0-4.651-2.004-4.759-4.567
	c-0.109-2.628,1.933-4.849,4.564-4.961c14.455-0.602,53.42-87.089,70.062-124.022C686.907,730.978,713.558,712.713,714.678,711.965z
	 M470.67,770.886c-0.915-2.466,0.341-5.212,2.808-6.128c2.457-0.906,5.209,0.338,6.128,2.808
	c16.717,45.009,59.591,70.835,60.022,71.089c2.265,1.343,3.013,4.263,1.672,6.528c-0.887,1.505-2.476,2.339-4.105,2.339
	c-0.822,0-1.657-0.214-2.417-0.664C532.898,845.752,488.59,819.138,470.67,770.886z M546.689,896.389
	c0,2.631-2.135,4.766-4.766,4.766c-36.964,0-69.699-66.637-71.074-69.473c-1.148-2.367-0.158-5.219,2.209-6.367
	c2.37-1.148,5.219-0.161,6.366,2.209c8.656,17.827,36.753,64.099,62.498,64.099C544.554,891.623,546.689,893.758,546.689,896.389z
	 M730.759,743.494c1.027-2.42,3.822-3.552,6.245-2.525c2.423,1.027,3.556,3.822,2.529,6.245
	c-0.158,0.378-15.969,38.245-12.258,72.65c0.282,2.619-1.61,4.967-4.226,5.25c-0.174,0.019-0.347,0.028-0.518,0.028
	c-2.401,0-4.468-1.812-4.731-4.254C713.819,783.976,730.064,745.129,730.759,743.494z M743.911,820.376
	c0-5.091,3.348-30.356,3.729-33.219c0.347-2.612,2.743-4.437,5.355-4.095c2.609,0.351,4.443,2.746,4.095,5.355
	c-1.468,10.996-3.649,28.581-3.649,31.96c0,2.631-2.135,4.766-4.766,4.766S743.911,823.007,743.911,820.376z M387.133,982.2
	c0,2.631-2.135,4.766-4.766,4.766h-22.751c-2.631,0-4.766-2.135-4.766-4.766s2.135-4.766,4.766-4.766h22.751
	C384.998,977.434,387.133,979.569,387.133,982.2z M812.316,982.2c0-2.631,2.135-4.766,4.766-4.766h22.751
	c2.631,0,4.766,2.135,4.766,4.766s-2.135,4.766-4.766,4.766h-22.751C814.451,986.965,812.316,984.831,812.316,982.2z
	 M609.107,1009.968c0,2.631-2.135,4.766-4.766,4.766h-80.558c-2.631,0-4.766-2.135-4.766-4.766s2.135-4.766,4.766-4.766h80.558
	C606.972,1005.202,609.107,1007.337,609.107,1009.968z M609.017,282.947c0.472,2.588-1.244,5.07-3.835,5.541
	c-2.972,0.543-5.777,0.723-8.2,0.723c-4.8,0-8.113-0.714-8.318-0.757c-2.572-0.568-4.195-3.112-3.627-5.681
	c0.565-2.566,3.099-4.188,5.665-3.63c0.062,0.012,5.87,1.226,12.773-0.031C606.044,278.638,608.548,280.354,609.017,282.947z
	 M581.214,260.236c-3.41,0-5.951-0.928-6.376-1.095c-2.451-0.956-3.664-3.72-2.709-6.171c0.959-2.454,3.732-3.67,6.171-2.709
	c0.003,0,3.146,1.111,6.05-0.186c2.401-1.08,5.222,0.003,6.292,2.408c1.073,2.401-0.003,5.219-2.408,6.292
	C585.76,259.883,583.321,260.236,581.214,260.236z M603.184,252.331c1.154-2.367,4.009-3.338,6.376-2.187
	c2.721,1.328,5.721,0.195,5.746,0.183c2.426-1.049,5.222,0.068,6.267,2.482c1.046,2.417-0.068,5.222-2.482,6.267
	c-0.438,0.189-3.065,1.257-6.584,1.257c-2.144,0-4.62-0.397-7.136-1.626C603.007,257.55,602.03,254.698,603.184,252.331z
	 M590.37,268.033c0.94-2.408,3.608-3.633,6.031-2.768c0.109,0.025,1.008,0.059,1.495-0.078c2.519-0.707,5.163,0.723,5.901,3.23
	c0.738,2.507-0.664,5.138-3.165,5.901c-0.301,0.09-1.889,0.546-3.624,0.546c-2.054,0-3.521-0.509-3.922-0.664
	C590.634,273.246,589.418,270.484,590.37,268.033z M430.24,108.564c-0.676-2.544,0.835-5.153,3.379-5.83l17.641-4.694
	c2.529-0.695,5.153,0.835,5.83,3.379s-0.835,5.153-3.379,5.83l-17.641,4.694c-0.41,0.112-0.822,0.161-1.229,0.161
	C432.734,112.104,430.808,110.695,430.24,108.564z M507.516,179.656c-1.787-1.93-1.672-4.946,0.258-6.736l23.778-22.035
	c1.933-1.787,4.942-1.678,6.736,0.258c1.787,1.93,1.672,4.946-0.258,6.736l-23.778,22.035c-0.918,0.85-2.079,1.269-3.239,1.269
	C509.734,181.183,508.456,180.671,507.516,179.656z M464.151,153.967c-1.52-2.15-1.008-5.125,1.142-6.643l25.941-18.333
	c2.144-1.52,5.122-1.011,6.639,1.142c1.52,2.147,1.008,5.122-1.142,6.64l-25.941,18.333c-0.835,0.593-1.793,0.875-2.746,0.875
	C466.549,155.981,465.079,155.279,464.151,153.967z M742.074,100.457c0.695-2.541,3.31-4.033,5.855-3.341l20.576,5.625
	c2.538,0.695,4.033,3.317,3.341,5.855c-0.58,2.119-2.501,3.509-4.595,3.509c-0.416,0-0.838-0.053-1.26-0.168l-20.576-5.625
	C742.877,105.616,741.382,102.995,742.074,100.457z M665.518,157.845c-1.914-1.809-1.998-4.825-0.189-6.736
	c1.809-1.917,4.831-1.995,6.736-0.189l24.532,23.204c1.914,1.809,1.998,4.825,0.189,6.736c-0.937,0.993-2.2,1.492-3.462,1.492
	c-1.176,0-2.355-0.431-3.273-1.303L665.518,157.845z M705.792,128.243c1.486-2.172,4.455-2.724,6.624-1.238l27.818,19.053
	c2.172,1.486,2.727,4.452,1.238,6.624c-0.921,1.347-2.417,2.073-3.934,2.073c-0.928,0-1.868-0.27-2.69-0.835l-27.818-19.053
	C704.858,133.381,704.303,130.415,705.792,128.243z M350.19,1087.467c0-6.236-2.215-11.56-6.643-15.966
	c-4.406-4.424-9.727-6.64-15.966-6.64c-6.218,0-11.538,2.215-15.966,6.64c-4.406,4.406-6.608,9.73-6.608,15.966
	c0,6.218,2.203,11.542,6.608,15.966c4.427,4.409,9.748,6.612,15.966,6.612c4.126,0,7.738,0.723,10.837,2.175
	c0.965,0.441,1.831,0.943,2.594,1.508c0.242,0.161,0.462,0.332,0.664,0.512c0.062,0.04,0.121,0.09,0.183,0.152l0.028,0.031
	l0.031,0.031c0.946,1.024,2.113,1.539,3.503,1.539c1.225,0,2.302-0.425,3.227-1.269c0.968-0.884,1.471-1.983,1.511-3.292
	c0.059-1.306-0.354-2.445-1.238-3.41l-0.09-0.09l-0.121-0.121c-0.102-0.121-0.211-0.239-0.332-0.363
	c-0.363-0.323-0.754-0.642-1.176-0.965c-1.229-0.965-2.619-1.831-4.167-2.597c2.234-2.11,3.974-4.555,5.222-7.334
	C349.545,1093.675,350.19,1090.647,350.19,1087.467z M336.849,1096.703c-2.575,2.557-5.665,3.832-9.267,3.832
	c-3.602,0-6.68-1.275-9.233-3.832c-2.557-2.553-3.835-5.631-3.835-9.236c0-3.599,1.278-6.677,3.835-9.233
	c2.553-2.557,5.631-3.835,9.233-3.835c3.602,0,6.692,1.278,9.267,3.835c2.553,2.557,3.832,5.634,3.832,9.233
	C340.681,1091.072,339.403,1094.15,336.849,1096.703z M396.67,1066.283c0.925,0.925,1.387,2.041,1.387,3.348v20.797
	c0,5.411-1.92,10.031-5.765,13.853c-3.822,3.844-8.442,5.765-13.853,5.765c-5.414,0-10.031-1.921-13.853-5.765
	c-3.844-3.822-5.765-8.442-5.765-13.853v-20.797c0-1.306,0.462-2.423,1.387-3.348c0.925-0.949,2.054-1.421,3.382-1.421
	c1.306,0,2.423,0.472,3.351,1.421c0.925,0.925,1.387,2.041,1.387,3.348v20.797c0,2.799,0.987,5.181,2.957,7.155
	c1.973,1.97,4.356,2.954,7.155,2.954c2.777,0,5.15-0.984,7.124-2.954c1.992-1.973,2.988-4.356,2.988-7.155v-20.797
	c0-1.306,0.462-2.423,1.387-3.348c0.928-0.949,2.045-1.421,3.351-1.421C394.598,1064.862,395.724,1065.333,396.67,1066.283z
	 M418.581,1074.368v8.334h19.016c1.306,0,2.432,0.459,3.379,1.387c0.925,0.928,1.39,2.051,1.39,3.379
	c0,1.309-0.465,2.426-1.39,3.351c-0.946,0.925-2.073,1.39-3.379,1.39h-19.016v8.327h24.96c1.309,0,2.436,0.465,3.382,1.39
	c0.925,0.925,1.387,2.042,1.387,3.351c0,1.328-0.462,2.457-1.387,3.382c-0.946,0.925-2.073,1.387-3.382,1.387h-29.698
	c-1.328,0-2.457-0.462-3.382-1.387c-0.925-0.925-1.387-2.054-1.387-3.382v-35.646c0-1.306,0.462-2.423,1.387-3.348
	c0.925-0.949,2.054-1.421,3.382-1.421h29.698c1.309,0,2.436,0.472,3.382,1.421c0.925,0.925,1.387,2.041,1.387,3.348
	c0,1.309-0.462,2.426-1.387,3.351c-0.946,0.928-2.073,1.387-3.382,1.387H418.581z M466.45,1074.368v8.334h19.013
	c1.309,0,2.436,0.459,3.382,1.387c0.925,0.928,1.387,2.051,1.387,3.379c0,1.309-0.462,2.426-1.387,3.351
	c-0.946,0.925-2.073,1.39-3.382,1.39H466.45v8.327h24.96c1.306,0,2.432,0.465,3.379,1.39c0.925,0.925,1.39,2.042,1.39,3.351
	c0,1.328-0.465,2.457-1.39,3.382c-0.946,0.925-2.073,1.387-3.379,1.387h-29.701c-1.328,0-2.454-0.462-3.379-1.387
	c-0.928-0.925-1.39-2.054-1.39-3.382v-35.646c0-1.306,0.462-2.423,1.39-3.348c0.925-0.949,2.051-1.421,3.379-1.421h29.701
	c1.306,0,2.432,0.472,3.379,1.421c0.925,0.925,1.39,2.041,1.39,3.348c0,1.309-0.465,2.426-1.39,3.351
	c-0.946,0.928-2.073,1.387-3.379,1.387H466.45z M542.659,1066.283c0.925,0.925,1.387,2.041,1.387,3.348v35.646
	c0,1.005-0.292,1.924-0.875,2.746c-0.565,0.825-1.319,1.409-2.265,1.753c-0.521,0.18-1.064,0.27-1.629,0.27
	c-1.489,0-2.706-0.574-3.652-1.722l-21.309-25.562v22.515c0,1.328-0.462,2.457-1.387,3.382c-0.928,0.925-2.045,1.387-3.351,1.387
	c-1.328,0-2.457-0.462-3.382-1.387c-0.925-0.925-1.387-2.054-1.387-3.382v-35.646c0-1.005,0.292-1.921,0.875-2.746
	c0.562-0.807,1.319-1.378,2.262-1.719c0.946-0.341,1.902-0.385,2.87-0.124c0.965,0.264,1.768,0.776,2.414,1.539l21.308,25.565
	v-22.515c0-1.306,0.462-2.423,1.387-3.348c0.928-0.949,2.045-1.421,3.351-1.421C540.586,1064.862,541.712,1065.333,542.659,1066.283
	z M706.875,1071.743l-17.837,35.673c-0.403,0.807-0.987,1.44-1.75,1.905c-0.766,0.481-1.592,0.723-2.476,0.723
	c-0.906,0-1.741-0.242-2.504-0.723c-0.766-0.465-1.35-1.098-1.75-1.905l-4.679-9.326l-4.648,9.326
	c-0.403,0.807-0.987,1.44-1.753,1.905c-0.763,0.481-1.598,0.723-2.504,0.723s-1.741-0.242-2.507-0.723
	c-0.763-0.465-1.347-1.098-1.75-1.905l-17.837-35.611c-0.583-1.188-0.664-2.408-0.242-3.655c0.403-1.247,1.188-2.159,2.355-2.743
	c1.188-0.583,2.404-0.664,3.652-0.242c1.247,0.403,2.163,1.198,2.746,2.383l13.583,27.104l3.593-7.186l-7.849-15.662
	c-0.583-1.188-0.673-2.408-0.27-3.655c0.422-1.247,1.216-2.159,2.383-2.743c1.188-0.583,2.404-0.664,3.652-0.242
	c1.229,0.403,2.144,1.198,2.749,2.383l4.648,9.295l4.679-9.357c0.583-1.167,1.499-1.961,2.746-2.383
	c1.247-0.403,2.454-0.31,3.621,0.273s1.961,1.499,2.386,2.746c0.422,1.247,0.332,2.454-0.273,3.621l-7.846,15.724l3.59,7.186
	l13.583-27.166c0.605-1.167,1.52-1.961,2.746-2.383c1.247-0.403,1.871-0.602,1.871-0.602s0.596,0.292,1.781,0.875
	c1.167,0.583,1.964,1.499,2.386,2.746C707.551,1069.37,707.458,1070.577,706.875,1071.743z M730.175,1067.487
	c-0.4-0.804-0.984-1.446-1.75-1.93c-0.763-0.462-1.598-0.695-2.504-0.695s-1.741,0.233-2.507,0.695
	c-0.763,0.484-1.346,1.126-1.75,1.93l-17.837,35.677c-0.583,1.167-0.664,2.374-0.242,3.621c0.403,1.247,1.198,2.166,2.383,2.749
	c1.17,0.583,2.377,0.664,3.624,0.242c1.247-0.403,2.162-1.198,2.746-2.386l3.14-6.276h20.855l3.168,6.276
	c0.403,0.825,0.996,1.48,1.781,1.964c0.766,0.459,1.589,0.692,2.476,0.692c0.745,0,1.449-0.171,2.113-0.512
	c1.167-0.583,1.961-1.502,2.383-2.749c0.425-1.247,0.332-2.454-0.27-3.621L730.175,1067.487z M720.247,1091.603l5.675-11.346
	l5.675,11.346H720.247z M793.831,1066.283c0.925,0.925,1.387,2.041,1.387,3.348v35.646c0,1.005-0.292,1.924-0.875,2.746
	c-0.565,0.825-1.319,1.409-2.265,1.753c-0.521,0.18-1.064,0.27-1.629,0.27c-1.489,0-2.705-0.574-3.652-1.722l-21.308-25.562v22.515
	c0,1.328-0.462,2.457-1.387,3.382c-0.928,0.925-2.045,1.387-3.351,1.387c-1.328,0-2.457-0.462-3.382-1.387
	c-0.925-0.925-1.387-2.054-1.387-3.382v-35.646c0-1.005,0.292-1.921,0.875-2.746c0.562-0.807,1.319-1.378,2.262-1.719
	c0.946-0.341,1.902-0.385,2.87-0.124c0.965,0.264,1.768,0.776,2.414,1.539l21.309,25.565v-22.515c0-1.306,0.462-2.423,1.387-3.348
	c0.928-0.949,2.045-1.421,3.351-1.421C791.758,1064.862,792.885,1065.333,793.831,1066.283z M822.865,1064.862h-11.861
	c-1.328,0-2.457,0.472-3.382,1.421c-0.925,0.925-1.387,2.041-1.387,3.348v35.646c0,1.328,0.462,2.457,1.387,3.382
	c0.925,0.925,2.054,1.387,3.382,1.387h11.861c6.236,0,11.56-2.203,15.966-6.612c4.427-4.424,6.64-9.748,6.64-15.966
	c0-6.236-2.212-11.56-6.64-15.966C834.425,1067.077,829.101,1064.862,822.865,1064.862z M832.129,1096.703
	c-2.553,2.557-5.644,3.832-9.264,3.832h-7.123v-26.167h7.123c3.621,0,6.711,1.291,9.264,3.866c2.557,2.557,3.835,5.634,3.835,9.233
	C835.964,1091.072,834.686,1094.15,832.129,1096.703z M862.46,1075.609c-0.825,0.804-1.235,1.781-1.235,2.926
	c0,1.145,0.41,2.131,1.235,2.957c0.807,0.807,1.781,1.21,2.929,1.21h11.892c3.763,0,6.981,1.337,9.658,4.015
	c2.674,2.674,4.015,5.895,4.015,9.655c0,3.763-1.34,6.981-4.015,9.658c-2.677,2.677-5.895,4.015-9.658,4.015h-20.797
	c-1.328,0-2.454-0.462-3.379-1.387c-0.928-0.925-1.39-2.054-1.39-3.382c0-1.309,0.462-2.426,1.39-3.351
	c0.925-0.925,2.051-1.39,3.379-1.39h20.797c1.148,0,2.122-0.4,2.926-1.204c0.825-0.825,1.238-1.812,1.238-2.96
	s-0.413-2.122-1.238-2.929c-0.804-0.822-1.778-1.235-2.926-1.235h-11.892c-3.763,0-6.981-1.34-9.658-4.015
	c-2.677-2.656-4.015-5.876-4.015-9.658c0-3.763,1.337-6.984,4.015-9.658c2.678-2.674,5.895-4.015,9.658-4.015h20.797
	c1.306,0,2.432,0.472,3.379,1.421c0.925,0.925,1.39,2.041,1.39,3.348c0,1.309-0.465,2.426-1.39,3.351
	c-0.946,0.928-2.073,1.387-3.379,1.387h-20.797C864.241,1074.368,863.267,1074.784,862.46,1075.609z M580.147,1070.164
	c-5.855,0-11.027,2.315-14.564,6.516c-3.081,3.658-4.775,8.507-4.775,13.654c0,9.95,6.643,20.021,19.338,20.021
	c5.814,0,10.943-2.311,14.436-6.506c3.028-3.636,4.697-8.461,4.697-13.589C599.281,1080.272,592.706,1070.164,580.147,1070.164z
	 M587.261,1097.749c-1.7,2.042-4.095,3.075-7.114,3.075c-7.238,0-9.807-5.65-9.807-10.49c0-2.864,0.925-5.603,2.535-7.518
	c1.744-2.069,4.192-3.121,7.272-3.121c7.58,0,9.602,6.64,9.602,10.564C589.75,1093.12,588.841,1095.85,587.261,1097.749z
	 M628.845,1075.231c0,2.631-2.135,4.766-4.766,4.766h-11.126v7.688h9.016c2.631,0,4.766,2.135,4.766,4.766s-2.135,4.766-4.766,4.766
	h-9.016v7.552c0,2.631-2.135,4.766-4.766,4.766s-4.766-2.135-4.766-4.766v-29.536c0-2.631,2.135-4.766,4.766-4.766h15.891
	C626.711,1070.465,628.845,1072.6,628.845,1075.231z"/>
</svg>
