<?xml version="1.0" encoding="utf-8"?>
<!-- Generator: Adobe Illustrator 23.0.3, SVG Export Plug-In . SVG Version: 6.00 Build 0)  -->
<svg version="1.1" id="Capa_1" xmlns="http://www.w3.org/2000/svg" xmlns:xlink="http://www.w3.org/1999/xlink" x="0px" y="0px"
	 viewBox="0 0 1200 1200" enable-background="new 0 0 1200 1200" xml:space="preserve">
<path fill="hsl(290, 13%, 29%)" d="M676.65,388.054c1.266-2.308,4.161-3.146,6.472-1.886c10.952,6.01,17.654,13.589,21.091,23.85
	c3.314,9.894,1.477,21.104-4.914,29.983c-6.097,8.47-15.252,13.326-25.122,13.326c-14.076,0-21.476-6.118-25.205-11.253
	c-4.669-6.429-6.109-14.926-3.754-22.171c3.717-11.436,16.621-15.162,26.45-12.038c9.37,2.975,13.794,11.027,11.002,20.04
	c-0.776,2.513-3.441,3.934-5.96,3.143c-2.516-0.779-3.922-3.447-3.143-5.96c1.542-4.983-1.75-7.176-4.781-8.138
	c-4.598-1.452-12.395-0.593-14.501,5.901c-1.07,3.289-1.083,8.83,2.401,13.623c3.478,4.79,9.528,7.322,17.492,7.322
	c6.767,0,13.102-3.413,17.384-9.36c4.604-6.401,5.957-14.396,3.615-21.389c-2.665-7.958-7.797-13.67-16.639-18.519
	C676.228,393.26,675.384,390.363,676.65,388.054z M659.635,386.407c2.519,0.773,5.178-0.645,5.954-3.162
	c0.769-2.516-0.645-5.181-3.161-5.954c-2.507-0.766-6.292-1.824-10.108-2.51c-25.91-4.645-43.523,2.271-65.821,11.033l-1.288,0.506
	c-2.448,0.962-3.655,3.729-2.693,6.18c0.738,1.877,2.535,3.022,4.437,3.022c0.58,0,1.17-0.105,1.744-0.329l1.288-0.506
	c21.712-8.535,37.386-14.706,60.652-10.524C653.986,384.766,657.38,385.715,659.635,386.407z M586.657,367.174
	c0.763,1.831,2.535,2.932,4.399,2.932c0.611,0,1.232-0.118,1.831-0.366c0.431-0.177,43.126-17.626,76.202-3.807
	c2.429,1.021,5.219-0.133,6.233-2.56c1.015-2.429-0.13-5.219-2.56-6.233c-36.809-15.373-81.654,3.016-83.546,3.804
	C586.787,361.959,585.642,364.748,586.657,367.174z M381.182,584.596c-2.408-1.077-5.225,0.016-6.289,2.423l-2.929,6.596
	c-1.067,2.404,0.016,5.222,2.423,6.289c0.627,0.279,1.284,0.41,1.93,0.41c1.827,0,3.571-1.055,4.359-2.833l2.929-6.596
	C384.673,588.481,383.59,585.664,381.182,584.596z M392.913,610.301c0.109,0.006,0.214,0.009,0.323,0.009
	c2.485,0,4.582-1.93,4.75-4.449c0.568-8.554,12.178-20.461,28.23-28.959c9.314-4.93,21.808-13.31,22.798-29.077l0.143-2.42
	c0.562-9.875,1.005-17.675,9.032-23.341c13.648-9.637,18.265-19.878,15.944-35.354c-1.17-7.822-0.009-16,0.003-16.084
	c0.379-2.603-1.424-5.023-4.027-5.402c-2.584-0.382-5.017,1.418-5.405,4.018c-0.056,0.391-1.384,9.621,0.003,18.879
	c1.768,11.799-1.374,18.643-12.016,26.155c-11.78,8.318-12.457,20.148-13.049,30.585l-0.14,2.367
	c-0.531,8.479-6.003,15.035-17.747,21.25c-19.416,10.279-32.478,24.703-33.281,36.75
	C388.299,607.853,390.288,610.124,392.913,610.301z M479.276,456.112c0.565,0,1.139-0.099,1.694-0.31
	c15.659-5.96,22.975-17.796,23.276-18.299c1.365-2.249,0.648-5.181-1.604-6.543c-2.249-1.362-5.184-0.655-6.543,1.604
	c-0.059,0.093-5.889,9.522-18.516,14.328c-2.46,0.937-3.695,3.692-2.761,6.149C475.547,454.943,477.356,456.112,479.276,456.112z
	 M430.318,481.6c0.053,0,0.109,0,0.161-0.003c2.631-0.087,4.691-2.29,4.604-4.921c-0.617-18.491,6.295-27.467,6.456-27.672
	c1.657-2.02,1.378-5.004-0.636-6.68c-2.02-1.682-5.023-1.412-6.711,0.611c-0.385,0.459-9.388,11.532-8.634,34.057
	C425.645,479.571,427.758,481.6,430.318,481.6z M580.399,352.48c0.661,0,1.331-0.137,1.97-0.428
	c10.552-4.803,12.978-5.414,20.188-7.229l3.767-0.956c2.547-0.658,4.083-3.255,3.428-5.805c-0.658-2.55-3.258-4.083-5.805-3.428
	l-3.717,0.946c-7.623,1.917-10.474,2.637-21.808,7.797c-2.398,1.092-3.453,3.915-2.364,6.311
	C576.859,351.444,578.587,352.48,580.399,352.48z M387.766,1065.319c-1.238,0-2.296,0.45-3.174,1.347
	c-0.878,0.875-1.315,1.933-1.315,3.174v19.698c0,2.65-0.943,4.908-2.83,6.779c-1.868,1.868-4.117,2.802-6.748,2.802
	c-2.65,0-4.908-0.934-6.776-2.802c-1.871-1.871-2.805-4.13-2.805-6.779v-19.698c0-1.241-0.437-2.299-1.315-3.174
	c-0.875-0.897-1.933-1.347-3.171-1.347c-1.26,0-2.327,0.45-3.205,1.347c-0.875,0.875-1.315,1.933-1.315,3.174v19.698
	c0,5.129,1.821,9.503,5.464,13.124c3.621,3.642,7.995,5.464,13.124,5.464c5.125,0,9.503-1.821,13.124-5.464
	c3.639-3.621,5.461-7.995,5.461-13.124v-19.698c0-1.241-0.437-2.299-1.316-3.174
	C390.071,1065.769,389.004,1065.319,387.766,1065.319z M639.03,1074.326h16.524c1.238,0,2.305-0.438,3.202-1.312
	c0.878-0.878,1.315-1.936,1.315-3.174c0-1.241-0.438-2.299-1.315-3.174c-0.897-0.897-1.964-1.347-3.202-1.347H639.03
	c-3.565,0-6.615,1.269-9.15,3.804c-2.535,2.535-3.804,5.585-3.804,9.15c0,3.583,1.269,6.633,3.804,9.149
	c2.535,2.538,5.585,3.804,9.15,3.804h8.088c1.086,0,2.01,0.391,2.774,1.173c0.782,0.763,1.173,1.688,1.173,2.774
	c0,1.086-0.391,2.02-1.173,2.802c-0.763,0.763-1.688,1.145-2.774,1.145h-16.524c-1.257,0-2.324,0.438-3.202,1.315
	c-0.875,0.875-1.315,1.933-1.315,3.174c0,1.257,0.441,2.324,1.315,3.202c0.878,0.875,1.945,1.315,3.202,1.315h16.524
	c3.565,0,6.615-1.269,9.15-3.804s3.804-5.585,3.804-9.15c0-3.565-1.269-6.615-3.804-9.149c-2.535-2.535-5.585-3.804-9.15-3.804
	h-8.088c-1.086,0-2.01-0.382-2.774-1.145c-0.782-0.779-1.173-1.716-1.173-2.802c0-1.086,0.391-2.01,1.173-2.774
	C637.019,1074.717,637.944,1074.326,639.03,1074.326z M601.596,1072.17h-14.837c-2.194,0-3.971,1.778-3.971,3.971v27.582
	c0,2.193,1.778,3.971,3.971,3.971s3.971-1.778,3.971-3.971v-7.533h8.892c2.194,0,3.971-1.778,3.971-3.971
	c0-2.193-1.778-3.971-3.971-3.971h-8.892v-8.135h10.865c2.193,0,3.971-1.778,3.971-3.971S603.789,1072.17,601.596,1072.17z
	 M516.287,1065.319c-1.241,0-2.299,0.45-3.174,1.347c-0.878,0.875-1.315,1.933-1.315,3.174v21.33l-20.188-24.219
	c-0.611-0.726-1.371-1.21-2.287-1.458c-0.915-0.248-1.821-0.211-2.718,0.115c-0.897,0.323-1.61,0.866-2.144,1.629
	c-0.552,0.782-0.828,1.647-0.828,2.603v33.768c0,1.257,0.437,2.324,1.315,3.202c0.875,0.875,1.945,1.315,3.202,1.315
	c1.238,0,2.296-0.441,3.174-1.315c0.878-0.878,1.315-1.945,1.315-3.202v-21.333l20.185,24.219c0.897,1.089,2.051,1.632,3.462,1.632
	c0.531,0,1.046-0.087,1.542-0.257c0.897-0.326,1.61-0.878,2.144-1.66c0.555-0.782,0.831-1.647,0.831-2.6v-33.768
	c0-1.241-0.441-2.299-1.315-3.174C518.592,1065.769,517.525,1065.319,516.287,1065.319z M541.995,459.528
	c-0.056,0.043-5.768,4.282-17.688,5.814c-2.054,0.261-3.701,1.821-4.077,3.86c-0.379,2.035,0.602,4.08,2.426,5.063l12.578,6.767
	c0.714,0.382,1.489,0.568,2.256,0.568c1.393,0,2.764-0.611,3.695-1.75c1.486-1.824,3.314-5.752,2.346-10.198
	c2.6-1.294,4.015-2.364,4.331-2.612c2.054-1.62,2.398-4.573,0.8-6.643C547.065,458.328,544.077,457.949,541.995,459.528z
	 M577.668,1090.175c0,4.676-1.517,9.072-4.272,12.382c-3.171,3.804-7.828,5.901-13.112,5.901c-11.542,0-17.579-9.162-17.579-18.212
	c0-4.694,1.542-9.112,4.347-12.441c3.208-3.813,7.908-5.913,13.232-5.913C571.696,1071.891,577.668,1081.09,577.668,1090.175z
	 M569.726,1090.175c0-3.841-1.989-10.341-9.441-10.341c-7.607,0-9.637,6.543-9.637,10.412c0,3.813,2.029,10.27,9.637,10.27
	c2.969,0,5.327-1.024,7.009-3.044C568.839,1095.616,569.726,1092.958,569.726,1090.175z M922.628,86.981V600v513.019
	c0,9.879-3.847,19.165-10.832,26.149c-6.985,6.985-16.271,10.832-26.149,10.832H600H314.352c-9.879,0-19.165-3.847-26.149-10.831
	c-6.985-6.985-10.832-16.271-10.832-26.15V600V86.981c0-9.878,3.847-19.165,10.831-26.149C295.187,53.847,304.474,50,314.352,50H600
	h285.647c9.878,0,19.165,3.847,26.148,10.831C918.781,67.816,922.628,77.103,922.628,86.981z M913.097,86.981
	c0-7.58-3.072-14.442-8.04-19.41c-4.967-4.968-11.829-8.04-19.41-8.04H600H314.352c-7.58,0-14.443,3.072-19.41,8.04
	c-4.968,4.967-8.04,11.83-8.04,19.41V600v513.019c0,7.58,3.072,14.443,8.04,19.41c4.967,4.968,11.83,8.04,19.41,8.04H600h285.647
	c7.58,0,14.443-3.072,19.41-8.04c4.968-4.967,8.04-11.83,8.04-19.41V600V86.981z M760.764,1071.611
	c4.192,4.173,6.289,9.218,6.289,15.125c0,5.892-2.097,10.933-6.289,15.125c-4.176,4.176-9.218,6.264-15.128,6.264
	c-5.889,0-10.93-2.088-15.125-6.264c-4.173-4.192-6.261-9.233-6.261-15.125c0-5.907,2.088-10.952,6.261-15.125
	c4.195-4.195,9.236-6.292,15.125-6.292C751.546,1065.319,756.588,1067.416,760.764,1071.611z M758.046,1086.736
	c0-3.413-1.21-6.329-3.63-8.749c-2.442-2.439-5.367-3.661-8.78-3.661c-3.41,0-6.329,1.222-8.749,3.661
	c-2.42,2.42-3.63,5.336-3.63,8.749s1.21,6.329,3.63,8.749c2.42,2.423,5.34,3.633,8.749,3.633c3.413,0,6.339-1.21,8.78-3.633
	C756.836,1093.065,758.046,1090.149,758.046,1086.736z M472.082,1074.326c1.238,0,2.305-0.438,3.202-1.312
	c0.875-0.878,1.316-1.936,1.316-3.174c0-1.241-0.441-2.299-1.316-3.174c-0.897-0.897-1.964-1.347-3.202-1.347h-24.96
	c-1.257,0-2.327,0.45-3.202,1.347c-0.878,0.875-1.315,1.933-1.315,3.174v33.768c0,1.257,0.437,2.324,1.315,3.202
	c0.875,0.875,1.945,1.315,3.202,1.315h24.96c1.238,0,2.305-0.441,3.202-1.315c0.875-0.878,1.316-1.945,1.316-3.202
	c0-1.241-0.441-2.299-1.316-3.174c-0.897-0.878-1.964-1.315-3.202-1.315h-20.471v-7.893h14.837c1.238,0,2.305-0.438,3.202-1.316
	c0.878-0.875,1.315-1.933,1.315-3.174c0-1.256-0.437-2.324-1.315-3.202c-0.897-0.878-1.964-1.316-3.202-1.316h-14.837v-7.893
	H472.082z M866.838,1074.326h16.521c1.241,0,2.308-0.438,3.205-1.312c0.875-0.878,1.315-1.936,1.315-3.174
	c0-1.241-0.441-2.299-1.315-3.174c-0.897-0.897-1.964-1.347-3.205-1.347h-16.521c-3.565,0-6.615,1.269-9.15,3.804
	c-2.538,2.535-3.804,5.585-3.804,9.15c0,3.583,1.266,6.633,3.804,9.149c2.535,2.538,5.585,3.804,9.15,3.804h8.088
	c1.086,0,2.01,0.391,2.774,1.173c0.782,0.763,1.173,1.688,1.173,2.774c0,1.086-0.391,2.02-1.173,2.802
	c-0.763,0.763-1.688,1.145-2.774,1.145h-16.524c-1.26,0-2.327,0.438-3.202,1.315c-0.878,0.875-1.315,1.933-1.315,3.174
	c0,1.257,0.437,2.324,1.315,3.202c0.875,0.875,1.942,1.315,3.202,1.315h16.524c3.565,0,6.615-1.269,9.149-3.804
	s3.804-5.585,3.804-9.15c0-3.565-1.269-6.615-3.804-9.149c-2.535-2.535-5.585-3.804-9.149-3.804h-8.088
	c-1.089,0-2.014-0.382-2.774-1.145c-0.782-0.779-1.173-1.716-1.173-2.802c0-1.086,0.391-2.01,1.173-2.774
	C864.824,1074.717,865.749,1074.326,866.838,1074.326z M842.818,1071.611c4.195,4.173,6.292,9.218,6.292,15.125
	c0,5.892-2.097,10.933-6.292,15.125c-4.173,4.176-9.218,6.264-15.125,6.264h-8.061c-1.257,0-2.327-0.441-3.202-1.315
	c-0.878-0.878-1.315-1.945-1.315-3.202v-33.768c0-1.241,0.438-2.299,1.315-3.174c0.875-0.897,1.945-1.347,3.202-1.347h8.061
	C833.6,1065.319,838.645,1067.416,842.818,1071.611z M840.103,1086.736c0-3.413-1.213-6.329-3.633-8.749
	c-2.42-2.439-5.346-3.661-8.777-3.661h-3.571v24.793h3.571c3.431,0,6.357-1.21,8.777-3.633
	C838.89,1093.065,840.103,1090.149,840.103,1086.736z M800.734,1094.4l6.031,6.034c0.878,0.875,1.315,1.933,1.315,3.174
	c0,1.257-0.438,2.324-1.315,3.202c-0.897,0.875-1.964,1.315-3.202,1.315s-2.296-0.441-3.174-1.315l-9.95-9.95h-7.347v6.748
	c0,1.257-0.438,2.324-1.315,3.202c-0.875,0.875-1.933,1.315-3.171,1.315c-1.26,0-2.327-0.441-3.205-1.315
	c-0.875-0.878-1.315-1.945-1.315-3.202v-33.768c0-1.241,0.441-2.299,1.315-3.174c0.878-0.897,1.945-1.347,3.205-1.347h13.692
	c4.347,0,8.064,1.545,11.151,4.632c3.09,3.09,4.632,6.807,4.632,11.154c0,2.743-0.676,5.308-2.029,7.691
	C804.755,1091.101,802.984,1092.969,800.734,1094.4z M799.075,1081.105c0-1.868-0.667-3.463-2.001-4.775
	c-1.315-1.334-2.907-2.004-4.775-2.004h-9.205v13.527h9.205c1.868,0,3.459-0.658,4.775-1.973
	C798.407,1084.546,799.075,1082.954,799.075,1081.105z M721.754,1065.805c-2.249-1.106-4.858-0.318-6.057,2.002l-12.87,25.736
	l-3.4-6.807l7.434-14.895c0.571-1.108,0.658-2.249,0.258-3.432c-0.4-1.182-1.154-2.051-2.259-2.603
	c-1.108-0.552-2.249-0.639-3.431-0.258c-1.182,0.4-2.051,1.154-2.603,2.259l-4.43,8.864l-4.406-8.805
	c-0.571-1.126-1.44-1.877-2.6-2.259c-1.182-0.4-2.336-0.326-3.459,0.227c-1.108,0.555-1.858,1.421-2.259,2.603
	c-0.382,1.182-0.298,2.336,0.258,3.459l7.434,14.84l-3.404,6.807l-12.866-25.677c-0.555-1.126-1.421-1.877-2.603-2.259
	c-1.182-0.4-2.336-0.326-3.459,0.227c-1.104,0.555-1.849,1.421-2.231,2.603c-0.4,1.182-0.323,2.336,0.23,3.459l16.9,33.74
	c0.379,0.763,0.931,1.362,1.657,1.803c0.723,0.456,1.514,0.686,2.373,0.686c0.856,0,1.647-0.229,2.373-0.686
	c0.723-0.441,1.275-1.039,1.657-1.803l4.406-8.836l4.43,8.836c0.382,0.763,0.934,1.362,1.66,1.803
	c0.723,0.456,1.514,0.686,2.373,0.686c0.838,0,1.62-0.229,2.342-0.686c0.726-0.441,1.278-1.039,1.66-1.803l16.9-33.796
	c0.552-1.108,0.636-2.249,0.254-3.432C723.615,1067.227,722.864,1066.358,721.754,1065.805z M525.393,890.399
	c-2.631,0.099-4.682,2.311-4.583,4.942c0,0.003,0.546,14.492,1.567,43.237c0.09,2.575,2.206,4.598,4.759,4.598
	c0.056,0,0.115,0,0.171-0.003c2.631-0.093,4.688-2.302,4.595-4.93c-1.021-28.767-1.567-43.262-1.567-43.262
	C530.236,892.35,528.04,890.213,525.393,890.399z M575.729,892.633c-0.875-2.46-3.559-3.745-6.031-2.888
	c-2.47,0.847-3.791,3.546-2.969,6.025c0.019,0.056,0.484,1.471,2.178,8.064c0.555,2.15,2.491,3.577,4.614,3.577
	c0.394,0,0.791-0.047,1.191-0.149c2.547-0.658,4.083-3.255,3.428-5.805C576.368,894.575,575.847,892.965,575.729,892.633z
	 M449.526,828.136c-2.526-0.717-5.169,0.738-5.892,3.273c-0.918,3.211-22.522,79.088-27.175,117.231
	c-0.316,2.612,1.542,4.989,4.154,5.309c0.195,0.022,0.391,0.034,0.583,0.034c2.373,0,4.43-1.772,4.725-4.188
	c4.561-37.402,26.654-114.988,26.878-115.766C453.522,831.496,452.057,828.859,449.526,828.136z M485.159,859.677
	c-2.591-0.329-4.995,1.523-5.321,4.136c0,0-0.4,3.186-1.061,8.759c-0.31,2.612,1.554,4.983,4.17,5.293
	c0.189,0.025,0.379,0.034,0.568,0.034c2.38,0,4.437-1.781,4.725-4.204c0.658-5.526,1.055-8.69,1.055-8.696
	C489.62,862.386,487.768,860.003,485.159,859.677z M838.465,308.486c-12.761-5.405-27.684-5.156-39.933,0.664
	c-9.112,4.328-19.537,13.794-17.468,34.311c1.244,12.327,11.514,22.273,24.973,24.191c1.44,0.205,2.845,0.304,4.21,0.304
	c11.098,0,19.524-6.612,21.104-17.064c0.63-4.164,0.155-8.225-0.329-11.296c-0.406-2.597-2.814-4.375-5.448-3.965
	c-2.6,0.406-4.375,2.848-3.965,5.448c0.375,2.395,0.751,5.513,0.316,8.389c-1.182,7.822-8.585,9.602-14.542,8.746
	c-7.688-1.092-15.941-6.841-16.838-15.708c-1.247-12.376,2.591-20.241,12.075-24.746c9.683-4.598,21.994-4.784,32.127-0.5
	c2.442,1.033,5.222-0.105,6.245-2.529C842.02,312.308,840.888,309.509,838.465,308.486z M346.247,1095.343
	c-1.182,2.631-2.83,4.949-4.945,6.95c1.468,0.723,2.783,1.542,3.946,2.457c0.4,0.307,0.773,0.611,1.114,0.915
	c0.115,0.115,0.22,0.23,0.316,0.344l0.112,0.115l0.087,0.084c0.838,0.915,1.229,1.992,1.173,3.233
	c-0.037,1.238-0.515,2.277-1.43,3.115c-0.878,0.8-1.896,1.201-3.059,1.201c-1.315,0-2.42-0.484-3.317-1.458l-0.028-0.028
	l-0.028-0.028c-0.059-0.059-0.115-0.105-0.174-0.143c-0.189-0.174-0.4-0.335-0.627-0.487c-0.726-0.534-1.545-1.011-2.46-1.43
	c-2.935-1.371-6.357-2.057-10.266-2.057c-5.889,0-10.93-2.088-15.125-6.264c-4.173-4.192-6.261-9.233-6.261-15.125
	c0-5.907,2.088-10.952,6.261-15.125c4.195-4.195,9.236-6.292,15.125-6.292c5.91,0,10.952,2.097,15.128,6.292
	c4.192,4.173,6.289,9.218,6.289,15.125C348.078,1089.749,347.466,1092.619,346.247,1095.343z M339.071,1086.736
	c0-3.413-1.21-6.329-3.63-8.749c-2.442-2.42-5.367-3.63-8.78-3.63c-3.41,0-6.329,1.21-8.749,3.63c-2.42,2.42-3.63,5.336-3.63,8.749
	s1.21,6.329,3.63,8.749c2.42,2.423,5.34,3.633,8.749,3.633c3.413,0,6.339-1.21,8.78-3.633
	C337.861,1093.065,339.071,1090.149,339.071,1086.736z M431.053,1074.326c1.238,0,2.305-0.438,3.202-1.312
	c0.878-0.878,1.315-1.936,1.315-3.174c0-1.241-0.437-2.299-1.315-3.174c-0.897-0.897-1.964-1.347-3.202-1.347h-24.957
	c-1.26,0-2.327,0.45-3.205,1.347c-0.875,0.875-1.315,1.933-1.315,3.174v33.768c0,1.257,0.441,2.324,1.315,3.202
	c0.878,0.875,1.945,1.315,3.205,1.315h24.957c1.238,0,2.305-0.441,3.202-1.315c0.878-0.878,1.315-1.945,1.315-3.202
	c0-1.241-0.437-2.299-1.315-3.174c-0.897-0.878-1.964-1.315-3.202-1.315h-20.471v-7.893h14.837c1.241,0,2.308-0.438,3.205-1.316
	c0.875-0.875,1.315-1.933,1.315-3.174c0-1.256-0.441-2.324-1.315-3.202c-0.897-0.878-1.964-1.316-3.205-1.316h-14.837v-7.893
	H431.053z M897.192,600l0.04,428.178c0,4.501-3.91,8.411-8.411,8.411H316.393c-4.449,0-8.705-4.069-8.705-8.612v-50.886
	c-0.181-0.751-0.203-1.542,0-2.318v-99.49c-0.191-0.743-0.183-1.529,0-2.294V599.385l-3.766-392.259
	c-0.775-1.428-0.75-3.086-0.043-4.45l-1.111-115.695c0-3.089,1.203-5.993,3.388-8.178c2.184-2.184,5.088-3.387,8.177-3.387H599.98
	h285.648c3.089,0,5.993,1.203,8.177,3.387c2.184,2.184,3.387,5.088,3.387,8.177V600z M749.871,840.792
	c-0.642,0.749-7.715,1.382-8.495,1.91v14.498c22.017-9.98,63.591-12.138,87.291,17.768c15.207-7.186,41.311-12.921,59.02,3.01
	l-0.026-277.976V218.364c-15.79,18.368-37.156,15.846-54.3,8.964c-6.816,6.075-27.238,22.134-52.564,22.134
	c-10.394,0-21.619-2.771-33.067-9.982v130.176c12.366,4.61,24.88,6.978,33.471,8.144c2.609,0.354,4.437,2.755,4.083,5.361
	c-0.323,2.392-2.367,4.126-4.716,4.126c-0.214,0-0.428-0.012-0.645-0.043c-8.318-1.127-20.133-3.327-32.192-7.458v13.487
	c37.547,13.628,74.473,13.458,94.545-0.627c11.231-7.877,16.825-19.664,16.624-35.028c-0.168-12.807-3.525-23.061-9.975-30.483
	c-1.728-1.989-1.517-4.998,0.469-6.723c1.989-1.731,5.001-1.514,6.723,0.468c7.971,9.171,12.116,21.488,12.314,36.614
	c0.239,18.442-6.913,33.297-20.682,42.955c-11.901,8.349-28.268,12.534-46.998,12.534c-16.338,0-34.477-3.22-53.02-9.602v186.08
	l22.062-38.544c-0.012-5.529,1.176-24.876,16.915-47.069c7.688-10.837,15.612-16.915,23.545-18.066
	c6.37-0.912,10.524,1.725,11.495,2.426c0.639,0.451,2.014,1.625,3.016,3.704c3.26-2.251,7.322-4.969,11.448-7.507l0.949-0.586
	c6.447-3.981,12.534-7.744,18.656-6.146c3.394,0.884,6.214,3.31,8.38,7.207c1.309,2.349,1.728,4.496,1.415,6.546
	c3.531-0.493,6.556-0.006,8.737,1.88c4.126,3.58,4.679,7.514,4.418,10.189c-0.254,2.612-1.371,5.144-3.155,7.614
	c0.347,0.071,0.686,0.158,1.015,0.261c2.966,0.934,5.194,3.047,6.27,5.957c2.386,6.45-1.911,12.848-8.222,18.327
	c0.459,0.475,0.878,1.033,1.25,1.679c2.035,3.531,2.581,7.102,1.626,10.617c-1.737,6.388-8.495,12.637-21.914,20.263
	c-21.302,12.106-40.25,14.529-47.73,15.004c-6.263,15.825-36.785,92.378-60.178,140.56V755.4c11.797-0.777,22.82-2.547,37.098-4.853
	l3.977-0.642c1.468-0.226,2.951,0.227,4.027,1.238c1.077,1.018,1.62,2.476,1.471,3.946c-0.108,1.069-2.839,23.534-37.185,28.458
	c0.081,0.186,0.204,0.338,0.277,0.53c1.733,4.547,0.878,10.025-0.911,13.57c0.349,0.58,0.631,1.137,0.818,1.614
	c1.474,3.773,0.704,8.191-2.014,11.526c-0.168,0.205-0.374,0.354-0.551,0.546c0.408,0.669,0.725,1.313,0.939,1.862
	c1.719,4.409,0.751,10.062-2.349,13.748c-0.202,0.241-0.433,0.422-0.647,0.639C753.58,831.675,752.962,837.176,749.871,840.792z
	 M779.345,551.787c0.068,0.946-0.146,1.886-0.617,2.709l-30.998,54.152v35.421c5.848,4.795,13.888,11.204,18.799,14.737
	c17.953-42.006,33.421-81.39,33.653-81.984c0.726-1.852,2.522-2.988,4.511-3.025c0.177-0.047,21.653,0.102,46.235-13.869
	c13.186-7.496,16.754-12.01,17.424-14.48c0.177-0.648,0.248-1.418-0.313-2.643c-1.737,0.031-5.073,1.381-8.203,2.836
	c-3.705,2.032-7.021,3.608-9.196,4.595l-0.503,0.245c-2.355,1.163-5.212,0.18-6.376-2.181c-0.332-0.673-0.487-1.387-0.487-2.091
	c-0.003-1.762,0.977-3.456,2.668-4.285l0.568-0.279c0.878-0.431,1.893-0.952,2.994-1.52c1.737-0.897,3.599-1.855,5.507-2.764
	c11.427-6.363,20.058-13.723,18.947-16.726c-1.564-1.073-7.139,0.481-14.318,3.99c-3.77,2.417-7.862,4.812-12.063,7.214
	c-1.266,0.723-2.423,1.384-3.431,1.976c-0.006,0.003-0.012,0.009-0.022,0.012c-2.274,1.319-5.243,0.568-6.559-1.706
	c-1.322-2.277-0.593-5.166,1.685-6.484c2.792-1.948,8.97-6.056,15.836-9.45c6.968-4.552,13.831-9.888,14.197-13.62
	c0.031-0.31,0.093-0.956-1.176-2.057c-3.5-0.999-20.223,8.368-34.876,19.925c-2.042,1.61-4.989,1.291-6.64-0.717
	c-1.644-2.007-1.387-4.958,0.589-6.643c0,0,1.468-1.257,1.834-1.539c5.008-3.847,9.429-7.018,13.329-9.817
	c7.468-5.355,14.523-10.415,13.527-12.206c-0.586-1.055-1.489-2.364-2.46-2.619c-2.162-0.565-6.99,2.411-11.241,5.035l-0.962,0.593
	c-6.93,4.265-13.868,9.197-16.557,11.14c-1.632,4.486-4.87,9.515-9.671,15.036c2.183,3.549,6.487,11.84,8.699,24.948
	c0.438,2.597-1.312,5.054-3.906,5.495c-0.27,0.043-0.537,0.065-0.8,0.065c-2.284,0-4.3-1.644-4.694-3.971
	c-1.018-6.032-2.518-10.807-3.963-14.437c-0.226,1.88-0.39,3.858-0.551,5.933c-0.531,6.792-1.129,14.492-4.769,21.476
	c-1.216,2.33-4.089,3.239-6.429,2.023c-2.333-1.216-3.239-4.092-2.023-6.429c2.74-5.259,3.236-11.641,3.717-17.812
	c0.633-8.104,1.288-16.487,6.944-22.847c9.91-11.151,9.584-16.341,8.914-17.244c-0.028-0.019-0.056-0.04-0.084-0.062
	c-2.705-1.846-10.881-1.511-21.551,13.53C778.163,532.374,779.333,551.597,779.345,551.787z M747.73,656.344v16.121
	c3.994,3.618,7.068,6.325,9.298,8.252c1.896-4.304,3.788-8.644,5.665-12.986C758.625,664.959,752.643,660.284,747.73,656.344z
	 M747.73,685.254v16.156c1.74-3.79,3.494-7.663,5.257-11.599C751.725,688.74,749.984,687.239,747.73,685.254z M313.425,204.217
	c18.999,26.632,56.361,8.946,57.975,8.157c1.843-0.894,4.043-0.518,5.479,0.937c17.145,17.359,35.304,26.164,53.976,26.17
	c0.006,0,0.016,0,0.022,0c27.861,0,47.814-19.844,48.012-20.043c0.987-0.999,2.37-1.511,3.763-1.402
	c1.399,0.109,2.681,0.825,3.5,1.967c5.941,8.265,13.074,13.059,21.203,14.238c15.184,2.225,29.096-8.439,29.233-8.544
	c1.12-0.869,2.563-1.195,3.94-0.887c1.381,0.301,2.553,1.201,3.208,2.454c8.498,16.335,22.916,26.077,42.856,28.956l1.12,0.168
	c41.469,6.683,60.401-27.529,61.186-28.99c0.686-1.275,1.917-2.175,3.341-2.432c1.412-0.267,2.888,0.133,3.987,1.086
	c16.596,14.418,34.026,17.762,51.822,9.953c0.049-0.022,0.1-0.029,0.149-0.048v-50.161c0-0.676,0.143-1.343,0.422-1.958
	l15.013-33.291c0.04-0.09,0.1-0.165,0.145-0.251c0.078-0.148,0.157-0.294,0.25-0.433c0.088-0.132,0.186-0.254,0.285-0.375
	c0.094-0.114,0.188-0.227,0.294-0.333c0.122-0.122,0.25-0.232,0.384-0.34c0.105-0.085,0.209-0.169,0.322-0.245
	c0.157-0.106,0.321-0.196,0.489-0.283c0.075-0.039,0.139-0.09,0.217-0.126c0.038-0.017,0.078-0.022,0.116-0.038
	c0.185-0.078,0.376-0.135,0.57-0.189c0.107-0.03,0.214-0.066,0.322-0.088c0.197-0.04,0.397-0.058,0.599-0.073
	c0.106-0.008,0.213-0.023,0.319-0.023c0.194-0.001,0.387,0.021,0.582,0.044c0.116,0.014,0.231,0.021,0.345,0.043
	c0.169,0.033,0.334,0.085,0.501,0.137c0.14,0.043,0.28,0.084,0.415,0.14c0.05,0.021,0.101,0.029,0.151,0.051
	c0.098,0.044,0.179,0.108,0.273,0.158c0.138,0.074,0.275,0.148,0.406,0.235c0.135,0.09,0.258,0.188,0.382,0.29
	c0.116,0.095,0.229,0.191,0.337,0.298c0.115,0.115,0.218,0.237,0.32,0.362c0.094,0.115,0.186,0.231,0.27,0.356
	c0.092,0.138,0.17,0.281,0.247,0.427c0.047,0.089,0.109,0.167,0.151,0.26l14.989,33.288c0.276,0.617,0.419,1.284,0.419,1.958v1.468
	c13.051,9.958,25.875,14.268,38.149,12.723c18.001-2.271,29.068-16.5,29.177-16.642c1.598-2.088,4.583-2.501,6.674-0.906
	c2.091,1.589,2.507,4.567,0.922,6.661c-0.537,0.714-13.44,17.486-35.444,20.325c-2.1,0.27-4.21,0.406-6.323,0.406
	c-10.955,0-22.059-3.696-33.154-10.915v28.995c40.979,31.217,79.57-7.791,81.201-9.48c1.387-1.43,3.525-1.858,5.355-1.052
	c37.104,16.363,48.776-7.214,53.166-16.087l0.209-0.419V86.981c0-0.559-0.2-1.042-0.596-1.438c-0.396-0.395-0.879-0.596-1.437-0.596
	H599.98H314.333c-0.559,0-1.042,0.2-1.437,0.595c-0.396,0.395-0.596,0.879-0.596,1.438L313.425,204.217z M727.972,164.107
	l-10.244,22.711v167.936c0.029,0.301,0.029,0.602,0,0.905v399.811c3.853,0.119,7.81,0.224,12.032,0.315
	c2.937,0.069,5.72,0.062,8.439,0.017V186.818L727.972,164.107z M317.218,599.294l0,253.509c5.88-14.361,12.759-35.813,14.403-60.477
	c5.112-76.672,32.194-117.143,38.153-125.193c-1.672-9.858-1.222-19.558,0.076-26.917c-3.384-1.862-6.451-4.37-9.031-7.574
	c-11.517-14.3-11.123-37.383,1.002-58.806c7.372-13.022,14.595-20.536,20.964-27.166c9.066-9.435,16.226-16.884,21.69-37.175
	c1.948-7.238,2.079-15.075,2.218-23.372c0.282-16.775,0.628-35.673,15.166-57.378c-0.206-0.29-0.453-0.542-0.631-0.858
	c-2.454-4.362-14.21-20.275-18.532-26.037c-0.089-0.119-0.142-0.255-0.219-0.38l-8.512-3.275c-2.457-0.946-3.683-3.704-2.74-6.159
	c0.946-2.46,3.714-3.67,6.159-2.74l6.66,2.562c8.091-20.414,17.917-23.652,24.977-22.521c2.812,0.453,5.349,1.745,7.514,3.459
	c0.823-0.942,1.72-1.665,2.56-2.193c7.025-4.399,19.404-1.53,28.148,1.445c-0.041-0.033-0.092-0.043-0.132-0.077l-3.583-3.075
	c-1.998-1.716-2.228-4.722-0.515-6.72c1.713-2.001,4.716-2.228,6.72-0.515l2.383,2.045l1.505-2.758
	c1.26-2.311,4.151-3.168,6.466-1.899c2.308,1.26,3.162,4.154,1.899,6.466l-2.194,4.022c7.547-5.921,18.676-13.015,26.953-11.251
	c1.583,0.339,3.478,1.096,5.21,2.625c1.518-2.174,3.468-4.076,5.903-5.312c6.389-3.236,16.731-3.14,30.656,13.838l5.561-4.469
	c2.042-1.651,5.048-1.328,6.698,0.729c1.651,2.051,1.322,5.051-0.729,6.698l-7.112,5.715c-0.035,0.142-0.044,0.288-0.093,0.428
	c-1.929,5.561-6.515,19.076-8.679,26.515c3.022,1.673,4.738,3.935,5.682,5.78c2.145,4.193,1.852,8.852,1.234,12.022
	c6.316,3.718,17.082,14.053,14.505,40.895c-0.509,5.293,1.799,8.16,4.716,11.787c3.279,4.074,7.359,9.14,5.088,17.235
	c-1.663,5.926-6.304,8.718-9.376,10.564c-0.732,0.441-1.772,1.064-2.287,1.489c0.658,4.3-0.469,7.068-2.296,11.563
	c-1.455,3.577-3.655,8.982-6.339,18.454c-0.63,2.212-2.404,5.15-7.31,6.565c-8.603,2.476-25.091-0.847-34.969-5.482
	c-1.961,8.026-3.602,20.182,1.219,25.004c2.016,2.018,3.316,3.138,5.002,3.992c4.809-4.703,16.633-12.009,40.47-5.205
	c25.482,7.282,64.543,38.993,66.342,53.858c0.225,1.864-0.136,3.572-0.923,5.021c0.297,0.258,0.636,0.561,0.926,0.811
	c16.835,14.539,60.919,41.435,74.639,49.691l7.71-13.317V384.663c-3.739-2.32-7.41-4.738-10.893-7.26
	c-2.737-1.979-5.647-3.782-8.65-5.364c-2.327-1.226-3.22-4.108-1.995-6.438c1.229-2.33,4.108-3.214,6.438-1.995
	c3.397,1.79,6.692,3.835,9.792,6.075c1.726,1.249,3.508,2.468,5.309,3.67v-15.626c-19.545-13.016-43.688-25.668-81.511-19.281
	c-2.578,0.441-5.057-1.309-5.492-3.903c-0.441-2.594,1.306-5.054,3.903-5.492c36.323-6.146,61.675,3.99,83.099,17.35V246.191
	c-13.788,5.036-33.115,6.429-54-9.502c-6.85,9.568-25.159,30.079-56.088,30.083c-3.785,0-7.747-0.304-11.911-0.977l-0.968-0.143
	c-21.25-3.068-37.153-12.953-47.352-29.412c-6.323,3.736-18.485,9.395-31.895,7.434c-9.267-1.347-17.421-6.035-24.296-13.958
	c-7.791,6.453-26.332,19.267-50.718,19.298c-0.031,0-0.062,0-0.093,0c-20.437,0.003-40.07-8.963-58.406-26.66
	c-14.879,6.286-40.699,10.925-58.91-4.06L317.218,599.294z M663.551,751.422c1.167-1.294,2.932-1.858,4.632-1.449
	c13.282,3.131,25.709,4.433,40.014,5.122v-11.663c-8.649-1.339-32.805-7.38-80.076-34.589c3.04,14.04,8.692,41.614,9.39,55.602
	c0.65,13.006,3.96,31.267,5.108,37.314c12.116-1.515,21.894-3.014,24.36-3.961c7.324-5.088,15.463-10.549,22.897-15.101
	c-12.863-3.909-22.655-13.216-27.288-26.517C662.018,754.537,662.387,752.713,663.551,751.422z M627.992,764.921
	c-0.9-18.01-10.965-62.107-11.067-62.551c-0.01-0.046-0.008-0.091-0.017-0.137c-1.77-1.063-3.566-2.15-5.393-3.269
	c-0.56,0.947-1.402,1.686-2.437,2.065c2.017,10.119,5.182,25.989,7.404,37.088c2.243,11.219,4.887,33.018,6.816,48.937
	c0.825,6.81,1.565,12.923,2.092,16.697c2.598-0.279,5.191-0.567,7.741-0.859C631.838,796.056,628.658,778.215,627.992,764.921z
	 M708.197,733.802v-58.996l-1.727,2.983c-2.353,5.646-8.314,20.766-9.368,27.094c-0.388,2.333-2.408,3.984-4.694,3.984
	c-0.261,0-0.524-0.022-0.788-0.065c-2.597-0.431-4.35-2.885-3.919-5.482c1.097-6.588,5.973-19.278,8.527-25.653
	c-13.134-7.881-58.696-35.571-76.61-51.039c-1.224-1.059-2.565-2.241-3.907-3.424c-0.149,0.004-0.291,0.024-0.443,0.024
	c-11.517,0-28.081-10.834-45.493-23.049l-1.734-1.216c-0.561-0.392-1.202-0.728-1.789-1.1c3.812,15.037,0.461,32.795-19.308,45.362
	c-8.988,5.715-18.051,7.784-26.468,7.784c-13.061,0-24.532-4.98-31.763-9.067c0.137,19.435-4.731,30.797-8.97,38.15
	c-11.43,19.81-32.273,30.954-54.655,30.958c-5.766,0-11.632-0.821-17.469-2.342c26.56,52.279,109.007,155.415,121.932,159.087
	c2.6-0.489,6.719-1.274,11.831-2.257c2.57-27.408,7.24-46.68,9.811-55.753c-4.884,0.676-9.696,1.774-14.509,3.439
	c-2.501,0.853-5.203-0.465-6.062-2.947c-0.859-2.488,0.459-5.203,2.947-6.062c1.2-0.415,2.399-0.785,3.599-1.139
	c-20.864-19.184-56.614-72.629-57.035-73.261c-11.647-17.471-11.982-27.43-11.982-28.506c0-2.631,2.135-4.766,4.766-4.766
	c2.609,0,4.725,2.094,4.766,4.694c0.007,0.138,0.126,1.916,1.162,5.178c2.22-3.388,4.681-5.637,5.205-6.094
	c1.983-1.734,4.998-1.53,6.723,0.45c1.728,1.976,1.533,4.98-0.437,6.714c-1.843,1.635-6.453,6.903-5.675,11.57
	c0.001,0.004,0,0.009,0.001,0.012c0.99,1.708,2.112,3.525,3.403,5.461c19.385,29.075,52.27,72.711,61.259,75.917
	c7.82-1.122,15.735-1.235,23.895-0.78c2.255-31.797,6.501-43.551,11.402-57.025c1.446-3.974,2.941-8.085,4.44-12.919
	c5.234-16.884,3.566-33.082-0.399-46.432c-0.074-0.214-0.144-0.428-0.187-0.65c-5.273-17.313-14.349-29.697-17.003-32.304
	c-1.322-0.847-2.197-2.327-2.197-4.015c0-2.631,2.135-4.766,4.766-4.766c2.225,0,3.711,0.946,7.632,6.267
	c2.599,3.527,10.377,14.906,15.497,30.838C665.33,722.849,697.897,731.942,708.197,733.802z M561.376,808.969
	c-1.818,5.906-7.26,25.38-10.231,54.679c3.801-0.738,7.881-1.534,12.118-2.365c0.088-17.12,5.804-41.285,8.622-52.171
	C568.308,808.927,564.813,808.872,561.376,808.969z M424.026,405.205c4.099-5.433,9.872-15.178,9.872-19.844
	c0-1.666-2.696-6.019-6.388-6.612c-5.253-0.844-11.008,6.376-15.674,19.407c4.067,5.464,15.004,20.263,17.703,25.06
	c0.073,0.13,0.254,0.247,0.393,0.37c0.369,0.147,0.729,0.325,1.065,0.57c0.053,0.039,0.093,0.089,0.144,0.13
	c2.9,1.17,9.165,1.715,15.936,0.742c1.073-0.152,1.269-0.614,1.247-1.362c-0.096-2.913-5.234-9.314-20.511-10.49
	c-1.263-0.096-2.377-0.679-3.165-1.548C422.822,409.993,422.524,407.2,424.026,405.205z M467.093,405.118
	c-3.701,4.067-8.867,11.905-8.2,15.811c0.105,0.608,0.369,1.263,1.595,1.92c1.123,0.608,2.172,0.692,3.407,0.289
	c1.214-0.399,2.465-1.218,3.695-2.294c0.02-0.019,0.036-0.039,0.056-0.058c0.009-0.008,0.02-0.01,0.029-0.018
	c3.211-2.84,6.251-7.402,8.134-10.958l-4.785-26.114c-8.877-3.789-22.561-7.706-26.864-5.016c-0.329,0.208-0.943,0.593-0.984,2.367
	c-0.307,12.708,20.899,16.115,21.113,16.146c1.734,0.267,3.186,1.471,3.77,3.124C468.644,401.976,468.275,403.822,467.093,405.118z
	 M416.226,486.282c-0.152,8.904-0.292,17.315-2.547,25.689c-6.1,22.655-14.802,31.711-24.02,41.302
	c-6.273,6.531-12.761,13.282-19.54,25.261c-12.379,21.87-8.746,39.595-1.874,48.13c5.734,7.12,14.582,9.481,24.275,6.481
	c11.889-3.68,15.134-12.997,18.572-22.857c3.531-10.13,7.533-21.609,21.858-24.119c29.018-5.079,29.18-27.607,28.919-32.071
	c-0.779-13.248,1.824-21.104,19.974-35.472c12.029-9.525,9.457-20.455,8.591-23.114c-6.832-7.766-9.668-15.054-8.427-21.675
	c1.468-7.834,7.964-11.287,8.7-11.656c23.136-11.57,46.408-35.326,50.705-39.825c0.484-1.731,1.052-5.048-0.062-7.204
	c-0.165-0.318-0.438-0.694-0.837-1.069c-5.433,6.27-17.173,8.76-21.284,9.455c-0.686,0.118-1.365,0.174-2.026,0.174
	c-2.194,0-4.215-0.646-5.918-1.771c-2.388,2.235-5.363,3.57-8.757,3.769c-0.313,0.019-0.63,0.028-0.946,0.028
	c-7.142,0-14.68-4.559-19.348-7.99c-1.92,3.106-4.665,6.926-8.05,9.963c-0.01,0.009-0.012,0.022-0.022,0.031
	c-2.023,1.896-2.584,4.071-3.484,8.073c-1.216,5.423-2.885,12.848-11.253,20.8c-8.138,7.735-7.564,16.276-7.099,23.139
	c0.102,1.53,0.192,2.929,0.192,4.164c0,0.85,0.047,1.675,0.093,2.498c0.434,7.887-0.357,14.787-14.526,25.736
	c-5.616,4.341-6.571,11.706-7.679,20.232c-0.689,5.318-1.402,10.816-3.348,16.093c-2.975,8.082-9.168,11.669-15.159,15.134
	c-6.075,3.521-12.358,7.158-18.197,15.916c-0.918,1.378-2.429,2.122-3.968,2.122c-0.909,0-1.827-0.258-2.64-0.8
	c-2.19-1.458-2.783-4.418-1.322-6.608c7.071-10.605,14.989-15.19,21.352-18.876c5.541-3.208,9.202-5.33,10.992-10.183
	c1.573-4.272,2.218-9.23,2.839-14.024c1.263-9.733,2.569-19.798,11.303-26.546c11.328-8.755,11.11-12.69,10.837-17.672
	c-0.056-0.993-0.109-1.995-0.109-3.022c0-1.046-0.084-2.231-0.171-3.525c-0.503-7.431-1.343-19.866,10.043-30.684
	c6.267-5.957,7.412-11.055,8.517-15.981c0.065-0.288,0.132-0.577,0.198-0.866c-1.922-0.13-3.81-0.654-5.603-1.616
	c-0.244-0.131-0.43-0.307-0.662-0.448c-1.661,1.931-4.041,3.262-6.883,3.669c-1.762,0.251-4.949,0.614-8.572,0.614
	c-3.205,0-6.74-0.31-9.948-1.212C416.808,453.319,416.497,470.067,416.226,486.282z M490.098,396.279
	c-0.037-1.762,0.897-3.4,2.432-4.26c0.183-0.105,18.802-10.806,14.008-22.581c-0.645-1.585-1.359-1.741-1.784-1.831
	c-5.115-1.049-16.937,7.186-24.436,13.934l4.833,26.379c4.309,3.661,11.846,8.622,16.826,8.273c1.362-0.081,2.346-0.552,3.196-1.533
	c0.912-1.052,0.928-1.756,0.81-2.364c-0.769-3.915-8.374-9.398-13.27-11.87C491.144,399.633,490.139,398.038,490.098,396.279z
	 M534.921,394.529c-0.484,1.077-1.368,1.976-2.547,2.457c-14.194,5.774-17.139,13.434-16.341,16.239
	c0.205,0.72,0.518,1.089,1.604,0.918c8.576-1.455,15.727-4.995,16.152-7.071c1.108-5.392,7.015-22.819,9.224-29.264
	c-8.417-10.992-16.127-16.087-20.843-13.707c-3.332,1.691-4.576,6.658-4.071,8.244c1.427,4.458,9.894,11.976,15.448,15.888
	C535.588,389.671,536.156,392.417,534.921,394.529z M556.096,462.842c2.111-21.978-6.068-29.502-9.843-31.777
	c-2.405,2.453-6.19,6.201-10.985,10.568c3.074-0.458,4.807-0.426,4.996-0.41c2.631,0.071,4.704,2.265,4.629,4.896
	c-0.074,2.615-2.302,4.592-4.862,4.632c-0.003,0-0.003,0-0.006,0c-0.372,0-9.78,0.105-25.39,7.79
	c-6.245,4.526-12.924,8.794-19.666,12.166c-0.071,0.037-3.041,1.663-3.611,4.977c-0.633,3.667,1.703,8.551,6.754,14.12
	c0.351,0.385,0.636,0.825,0.844,1.303c2.923,6.723,4.344,22.689-11.2,34.991c-16.456,13.031-16.925,18.1-16.375,27.442
	c0.56,9.513-2.36,20.552-10.599,29.093c5.203,2.018,11.828,5.951,17.196,13.565c0.048,0.055,0.105,0.097,0.151,0.154
	c0.239,0.298,16.89,20.617,42.471,23.328c8.405,0.872,13.986-2.74,16.503-10.803c3.385-10.835-0.477-23.652-4.719-26.085
	c-4.893-2.228-9.663-4.766-14.093-7.903c-4.818-1.621-7.373-3.59-11.001-7.217c-11.569-11.573-2.857-37.659-1.824-40.597
	c0.527-1.505,1.772-2.643,3.317-3.037c1.545-0.394,3.183,0.009,4.368,1.073c5.526,4.977,28.721,9.736,32.859,6.829
	c2.395-8.413,4.418-13.737,5.903-17.44c-3.373-0.279-8.219-0.908-13.107-2.324c-2.529-0.729-3.984-3.372-3.252-5.901
	c0.729-2.529,3.372-3.996,5.901-3.252c4.971,1.437,9.969,1.914,12.752,2.078c-0.406-5.468,4.099-8.249,6.894-9.931
	c2.78-1.672,4.514-2.839,5.11-4.97c0.909-3.239-0.292-4.902-3.335-8.684C559.646,477.499,555.218,472.001,556.096,462.842z
	 M546.199,611.722c-3.543,11.337-11.892,17.62-23.173,17.62c-1.117,0-2.259-0.062-3.431-0.186
	c-13.852-1.468-25.217-7.203-33.523-13.002c0.098,0.502,0.208,0.987,0.298,1.504c0.784,4.508,1.345,8.714,1.728,12.659
	c6.093,4.32,30.564,19.591,53.734,4.865c23.528-14.957,16.008-35.715,11.897-43.638c-2.399-1.004-4.852-1.996-7.377-2.984
	C548.358,595.727,548.527,604.269,546.199,611.722z M558.599,583.268c0.268,0.089,0.526,0.198,0.775,0.333
	c5.016,2.18,9.878,4.576,14.134,7.555l1.741,1.219c9.174,6.435,32.748,22.95,40.929,21.339
	c-2.839-8.579-33.623-37.495-59.293-44.829c-15.975-4.567-24.638-1.765-28.879,0.962c6.518,3.841,13.893,6.726,21.07,9.537
	C552.25,580.627,555.445,581.917,558.599,583.268z M402.025,696.894c26.741,10.946,55.943,1.865,69.461-21.566
	c5.026-8.715,11.064-24.005,5.495-56.039c-4.877-28.05-25.038-29.248-25.239-29.254c-0.22-0.01-0.429-0.055-0.64-0.093
	c-4.589,2.51-10.023,4.481-16.508,5.616c-8.402,1.471-10.868,7.44-14.501,17.868c-3.468,9.952-7.746,22.194-22.003,27.847
	c-1.087,8.301-1.971,29.546,16.174,34.614c9.637,2.69,21.699,1.359,29.347-3.236c9.227-5.538,11.585-16.087,11.939-23.958
	c0.344-7.654,0.558-15.749-0.921-23.186c-1.039-5.215-3.894-12.485-8.51-15.811c-0.537-0.385-0.742-0.441-0.763-0.447
	c-2.532-0.593-4.201-3.121-3.649-5.662c0.549-2.544,2.972-4.17,5.507-3.686c1.992,0.397,3.506,1.365,4.471,2.06
	c8.634,6.214,11.591,18.169,12.289,21.684c1.691,8.482,1.468,17.238,1.095,25.475c-0.655,14.632-6.379,25.596-16.549,31.702
	c-6.487,3.897-15.1,5.969-23.691,5.972c-4.483,0-8.96-0.565-13.127-1.731c-19.313-5.389-24.757-24.026-23.428-41.353
	c-1.265,0.14-2.523,0.235-3.76,0.235c-1.877,0-3.704-0.202-5.496-0.516C377.427,654.65,375.56,686.07,402.025,696.894z
	 M382.427,694.616c-4.153-4.53-7.198-9.722-9.322-15.212c-9.23,15.154-27.918,52.721-31.971,113.555
	c-2.828,42.413-19.881,74.971-23.915,82.147v77.021c14.457-37.827,34.311-104.058,40.251-158.187
	C364.669,728.364,378.173,701.643,382.427,694.616z M616.086,1027.058c-13.294-100.175-30.859-147.685-35.719-159.434
	c-22.596,4.489-44.442,8.674-49.489,9.62c-0.295,0.056-0.608,0.081-0.934,0.081c-9.488,0.003-32.155-23.341-67.428-69.448
	c-12.867-16.815-27.868-37.572-40.833-57.269c7.699,28.537,16.107,66.127,10.881,78.385
	c-33.026,77.468-45.272,176.702-47.611,198.065h20.178c1.215-10.145,6.107-50.316,8.619-61.204c0.593-2.563,3.149-4.148,5.715-3.574
	c2.566,0.593,4.164,3.152,3.574,5.715c-2.292,9.935-6.911,47.501-8.308,59.063h23.609c-2.39-56.408,21.872-177.091,22.917-182.239
	c0.521-2.578,3.034-4.244,5.616-3.723c2.578,0.521,4.247,3.034,3.723,5.616c-0.253,1.251-25.199,125.286-22.726,180.346h17.545
	c0.105-37.219,6.215-91.479,10.275-127.503l0.928-8.234c0.292-2.615,2.64-4.542,5.265-4.204c2.615,0.292,4.499,2.65,4.204,5.265
	l-0.925,8.24c-4.038,35.811-10.111,89.743-10.216,126.436h21.977c-1.307-22.601,2.736-139.454,2.917-144.642
	c0.093-2.631,2.296-4.731,4.927-4.598c2.631,0.09,4.691,2.299,4.598,4.927c-1.238,35.577-4.088,128.423-2.909,144.313h18.594
	c-0.019-8.894-0.302-35.626-1.444-67.887c-0.093-2.628,1.964-4.837,4.595-4.93c2.606-0.239,4.837,1.964,4.93,4.595
	c1.148,32.399,1.431,59.282,1.45,68.222h20.269c-1.042-46.865-10.609-124.466-10.705-125.251c-0.326-2.612,1.53-4.992,4.142-5.315
	c2.597-0.335,4.992,1.53,5.315,4.142c0.099,0.79,9.754,79.092,10.784,126.423h26.541c-4.592-48.58-11.461-79.846-17.571-105.351
	c-0.611-2.56,0.965-5.132,3.525-5.746c2.55-0.617,5.132,0.968,5.746,3.525c6.221,25.983,13.226,57.862,17.877,107.572H616.086z
	 M633.229,846.64l12.665-1.851c0.186-0.072,0.366-0.153,0.565-0.203c0.522-0.13,1.041-0.148,1.548-0.106l15.28-2.233
	c0.72-0.112,1.446-0.047,2.135,0.174c0.13,0.043,14.359,4.399,30.176,0.171c4.908-1.309,8.728-4.589,11.796-7.226
	c3.351-2.885,6.242-5.355,10.043-4.607c1.458,0.292,4.601,0.828,8.24,1.449c0.977,0.167,1.955,0.335,2.932,0.503
	c2.55,0.438,5.101,0.879,7.647,1.341c1.096,0.199,2.201,0.379,3.291,0.597c0.911,0.182,2.082,0.683,2.936,0.063
	c0.722-0.524,0.903-1.727,1.051-2.535c0.086-0.465,0.189-0.97,0.133-1.443c-0.071-0.599-0.439-0.909-0.999-1.057
	c-0.984-0.261-1.991-0.385-2.987-0.583c-1.056-0.211-2.114-0.419-3.167-0.642c-2.248-0.466-4.495-0.935-6.744-1.402
	c-2.577-0.536-4.231-3.061-3.693-5.638c0.533-2.551,3.015-4.2,5.573-3.703l0.423,0.082c0.086,0,0.187,0.039,0.271,0.056
	c2.386,0.497,4.772,0.993,7.158,1.488c1.099,0.228,2.197,0.456,3.297,0.682c0.667,0.138,1.331,0.261,1.995,0.42
	c0.437,0.105,0.886,0.194,1.334,0.153c0.513-0.047,1.011-0.281,1.254-0.75c0.251-0.484,0.263-1.034,0.361-1.56
	c0.19-1.018-0.316-2-1.201-2.505c-0.873-0.498-1.937-0.748-2.912-0.957c-2.163-0.465-4.363-0.797-6.539-1.196
	c-2.204-0.404-4.409-0.811-6.612-1.219c-2.033-0.377-3.376-2.334-2.996-4.367l0.294-1.573c0.403-2.157,2.482-3.575,4.637-3.162
	l14.272,2.731c0.146,0.028,0.292,0.04,0.437,0.04c1.126,0,2.125-0.8,2.339-1.948c0.242-1.294-0.438-3.228-1.731-3.47
	c-1.751-0.327-3.505-0.639-5.257-0.959c-2.975-0.543-5.949-1.086-8.923-1.628c-1.017-0.186-2.288-0.398-3.429-0.802
	c-1.829-0.648-3.327-1.791-2.927-4.115c0.427-2.484,2.322-3.765,4.776-3.514l15.763,2.934c0.149,0.028,0.295,0.04,0.441,0.04
	c1.126,0,2.522-1.198,2.737-2.342c0.242-1.294,0.92-3.498-4.297-4.378c-5.166-0.871-30.868-5.032-34.991-3.996
	c-0.815,0.111-2.414,0.802-4.528,1.887c-0.412,0.313-0.874,0.554-1.376,0.721c-7.972,4.287-21.844,13.153-33.663,21.375
	c-0.164,0.115-0.338,0.22-0.518,0.313c-5.572,2.907-39.732,6.543-54.159,7.974c-0.155,0.016-0.31,0.022-0.468,0.022
	c-0.186,0-0.372-0.012-0.558-0.034c-5.122-0.602-10.074-1.253-14.883-1.886c-7.017-0.921-13.611-1.78-19.919-2.402
	c-2.404,9.15-8.221,32.859-8.721,49.54c25.148-4.972,52.543-10.559,59.785-12.629C632.827,846.726,633.016,846.686,633.229,846.64z
	 M698.055,851.8c-1.251,0.334-2.486,0.608-3.711,0.856c4.444,0.496,15.439,1.589,20.208,3.48v-9.237
	C711.754,848.869,702.079,850.728,698.055,851.8z M663.653,851.828l-10.086,1.473c0.591,2.308,1.362,5.303,2.289,8.854
	c4.154-2.62,11.156-6.333,19.971-8.368C670.008,853.368,665.62,852.354,663.653,851.828z M686.534,1027.058
	c-0.37-5.581-3.051-40.114-14.498-74.468c-11.713-35.14-24.24-83.355-27.952-97.904l-8.979,1.312
	c1.153,8.907,4.513,33.432,7.785,43.787c4.514,14.306,10.57,38.258,14.728,58.248c2.55,12.257,10.226,54.722,10.647,69.026H686.534z
	 M887.7,1027.058l-0.012-134.396c-0.203-0.215-0.41-0.428-0.575-0.687c-17.942-28.125-55.936-7.657-57.55-6.767
	c-2.119,1.17-4.787,0.558-6.19-1.415c-23.327-32.892-65.306-25.13-81.998-15.95v3.592c0.471,0.174,0.927,0.406,1.337,0.735
	l9.556,5.855c1.199,0.959,1.806,2.42,1.746,3.914c6.644-2.082,19.579-2.644,26.05-1.609c18.069,2.876,28.302,17.027,28.727,17.629
	c1.526,2.144,1.021,5.119-1.126,6.643c-0.838,0.596-1.799,0.881-2.755,0.881c-1.486,0-2.951-0.692-3.878-1.992
	c-0.084-0.118-8.486-11.573-22.574-13.766c-16.971-2.643-32.238,9.613-48.996,9.613c-10.624,0-21.265-2.047-25.672-8.827
	c-1.92-2.954-3.473-9.317-0.291-11.863c0.012-0.01,9.556-5.852,9.556-5.852c0.458-0.365,0.966-0.625,1.495-0.799v-5.44
	c-24.184-11.862-51.884,2.236-56.126,5.355c5.652,21.272,14.363,52.791,22.653,77.661c12.413,37.249,14.783,73.565,15.009,77.483
	H887.7z M424.593,214.226c2.104,0.27,4.21,0.406,6.326,0.406c13.267,0,26.75-5.33,40.175-15.901
	c2.069-1.629,2.426-4.626,0.797-6.692c-1.629-2.069-4.629-2.426-6.692-0.797c-13.44,10.583-26.651,15.125-39.279,13.546
	c-17.917-2.262-28.963-16.369-29.17-16.639c-1.589-2.1-4.579-2.51-6.671-0.921c-2.1,1.585-2.516,4.573-0.928,6.674
	C389.689,194.615,402.593,211.387,424.593,214.226z M596.299,235.259c0.003,0,0.006,0,0.006,0
	c30.821-0.003,42.226-26.152,42.698-27.265c1.021-2.417-0.109-5.2-2.522-6.23c-2.411-1.033-5.209,0.093-6.252,2.504
	c-0.375,0.875-9.537,21.457-33.924,21.461c-0.003,0-0.003,0-0.006,0c-23.021,0-33.651-19.019-34.107-19.856
	c-1.244-2.308-4.126-3.177-6.444-1.939c-2.321,1.241-3.196,4.13-1.952,6.45C554.34,211.397,567.439,235.259,596.299,235.259z"/>
</svg>
