<?xml version="1.0" encoding="utf-8"?>
<!-- Generator: Adobe Illustrator 23.0.3, SVG Export Plug-In . SVG Version: 6.00 Build 0)  -->
<svg version="1.1" id="Capa_1" xmlns="http://www.w3.org/2000/svg" xmlns:xlink="http://www.w3.org/1999/xlink" x="0px" y="0px"
	 viewBox="0 0 1200 1200" enable-background="new 0 0 1200 1200" xml:space="preserve">
<path fill="hsl(290, 13%, 29%)" d="M911.791,60.82C904.814,53.843,895.537,50,885.67,50H600H314.33c-9.867,0-19.144,3.843-26.121,10.82
	c-6.977,6.977-10.82,16.253-10.82,26.121V600v513.059c0,9.867,3.843,19.144,10.82,26.121c6.977,6.977,16.254,10.82,26.121,10.82H600
	h285.67c9.867,0,19.144-3.842,26.121-10.82c6.977-6.977,10.82-16.254,10.82-26.121V600V86.941
	C922.61,77.074,918.768,67.797,911.791,60.82z M913.121,600v513.059c0,7.581-3.073,14.444-8.04,19.411
	c-4.968,4.968-11.831,8.04-19.411,8.04H600H314.33c-7.581,0-14.444-3.073-19.411-8.04c-4.968-4.968-8.04-11.831-8.04-19.411V600
	V86.941c0-7.58,3.073-14.443,8.04-19.411c4.968-4.968,11.83-8.041,19.411-8.041H600h285.67c7.58,0,14.444,3.072,19.411,8.041
	c4.968,4.968,8.04,11.831,8.04,19.411V600z M456.913,1068.824c1.024,1.024,1.536,2.259,1.536,3.705c0,1.446-0.512,2.681-1.536,3.702
	c-1.046,1.024-2.29,1.536-3.736,1.536h-11.176v34.162c0,1.468-0.512,2.715-1.536,3.736c-1.021,1.024-2.256,1.536-3.701,1.536
	c-1.446,0-2.694-0.512-3.736-1.536c-1.024-1.021-1.536-2.268-1.536-3.736v-34.162h-11.142c-1.467,0-2.715-0.512-3.736-1.536
	c-1.024-1.021-1.535-2.256-1.535-3.702c0-1.446,0.511-2.681,1.535-3.705c1.021-1.042,2.269-1.567,3.736-1.567h32.828
	C454.624,1067.257,455.868,1067.781,456.913,1068.824z M513.527,1068.824c1.024,1.024,1.536,2.259,1.536,3.705v39.399
	c0,1.468-0.512,2.715-1.536,3.736c-1.046,1.024-2.29,1.536-3.736,1.536c-1.446,0-2.681-0.512-3.705-1.536
	c-1.02-1.021-1.533-2.268-1.533-3.736v-14.447h-22.353v14.447c0,1.468-0.512,2.715-1.536,3.736c-1.02,1.024-2.256,1.536-3.701,1.536
	c-1.468,0-2.715-0.512-3.736-1.536c-1.024-1.021-1.536-2.268-1.536-3.736v-39.399c0-1.446,0.512-2.681,1.536-3.705
	c1.021-1.042,2.268-1.567,3.736-1.567c1.446,0,2.681,0.524,3.701,1.567c1.024,1.024,1.536,2.259,1.536,3.705v14.443h22.353v-14.443
	c0-1.446,0.513-2.681,1.533-3.705c1.024-1.042,2.259-1.567,3.705-1.567C511.237,1067.257,512.481,1067.781,513.527,1068.824z
	 M542.753,1077.766v9.206h21.018c1.446,0,2.69,0.512,3.736,1.536c1.024,1.024,1.536,2.268,1.536,3.736
	c0,1.446-0.512,2.681-1.536,3.705c-1.046,1.024-2.29,1.533-3.736,1.533h-21.018v9.209h27.591c1.446,0,2.69,0.512,3.735,1.533
	c1.024,1.024,1.536,2.259,1.536,3.705c0,1.468-0.512,2.715-1.536,3.736c-1.046,1.024-2.29,1.536-3.735,1.536h-32.828
	c-1.467,0-2.715-0.512-3.736-1.536c-1.024-1.021-1.535-2.268-1.535-3.736v-39.399c0-1.446,0.511-2.681,1.535-3.705
	c1.021-1.042,2.269-1.567,3.736-1.567h32.828c1.446,0,2.69,0.524,3.735,1.567c1.024,1.024,1.536,2.259,1.536,3.705
	c0,1.446-0.512,2.681-1.536,3.702c-1.046,1.024-2.29,1.536-3.735,1.536H542.753z M634.963,1079.135
	c-0.913,0.887-1.368,1.967-1.368,3.236c0,1.266,0.456,2.358,1.368,3.267c0.887,0.891,1.967,1.334,3.236,1.334h13.144
	c4.158,0,7.717,1.48,10.677,4.437c2.957,2.96,4.437,6.519,4.437,10.677c0,4.161-1.48,7.72-4.437,10.677
	c-2.96,2.957-6.519,4.437-10.677,4.437h-22.986c-1.467,0-2.714-0.512-3.735-1.536c-1.024-1.021-1.537-2.268-1.537-3.736
	c0-1.446,0.513-2.681,1.537-3.705c1.021-1.021,2.268-1.533,3.735-1.533h22.986c1.269,0,2.346-0.444,3.236-1.334
	c0.912-0.912,1.368-2.001,1.368-3.27c0-1.266-0.456-2.346-1.368-3.236c-0.89-0.912-1.968-1.368-3.236-1.368h-13.144
	c-4.161,0-7.719-1.477-10.677-4.437c-2.957-2.935-4.437-6.494-4.437-10.674c0-4.161,1.48-7.72,4.437-10.677
	c2.958-2.957,6.516-4.437,10.677-4.437h22.986c1.446,0,2.69,0.524,3.736,1.567c1.024,1.024,1.536,2.259,1.536,3.705
	c0,1.446-0.512,2.681-1.536,3.702c-1.046,1.024-2.29,1.536-3.736,1.536h-22.986C636.929,1077.766,635.85,1078.222,634.963,1079.135z
	 M722.837,1068.824c1.021,1.024,1.533,2.259,1.533,3.705v22.986c0,5.982-2.122,11.086-6.37,15.313
	c-4.226,4.248-9.33,6.373-15.315,6.373c-5.982,0-11.086-2.125-15.312-6.373c-4.248-4.226-6.37-9.33-6.37-15.313v-22.986
	c0-1.446,0.509-2.681,1.532-3.705c1.024-1.042,2.269-1.567,3.736-1.567c1.446,0,2.681,0.524,3.705,1.567
	c1.021,1.024,1.533,2.259,1.533,3.705v22.986c0,3.09,1.092,5.728,3.27,7.906c2.181,2.181,4.816,3.27,7.906,3.27
	c3.072,0,5.694-1.089,7.875-3.27c2.199-2.178,3.301-4.816,3.301-7.906v-22.986c0-1.446,0.512-2.681,1.536-3.705
	c1.021-1.042,2.256-1.567,3.702-1.567C720.544,1067.257,721.791,1067.781,722.837,1068.824z M783.386,1068.824
	c1.024,1.024,1.536,2.259,1.536,3.705v39.399c0,1.111-0.323,2.126-0.968,3.035c-0.623,0.912-1.459,1.557-2.504,1.936
	c-0.577,0.199-1.178,0.301-1.799,0.301c-1.648,0-2.992-0.636-4.037-1.902l-23.553-28.257v24.888c0,1.468-0.513,2.715-1.537,3.736
	c-1.021,1.024-2.256,1.536-3.701,1.536c-1.468,0-2.715-0.512-3.736-1.536c-1.024-1.021-1.536-2.268-1.536-3.736v-39.399
	c0-1.114,0.323-2.126,0.968-3.038c0.621-0.887,1.455-1.524,2.5-1.899c1.046-0.379,2.104-0.425,3.171-0.133
	c1.067,0.288,1.955,0.856,2.668,1.7l23.554,28.257v-24.888c0-1.446,0.511-2.681,1.532-3.705c1.024-1.042,2.26-1.567,3.705-1.567
	C781.095,1067.257,782.34,1067.781,783.386,1068.824z M538.048,153.881l13.612-16.347l-13.612-16.347
	c-0.934-1.112-1.334-2.391-1.202-3.837c0.134-1.446,0.758-2.636,1.871-3.57c1.111-0.934,2.389-1.334,3.836-1.201
	c1.446,0.133,2.634,0.757,3.568,1.868l12.377,14.88l12.377-14.88c0.938-1.111,2.126-1.734,3.572-1.868
	c1.446-0.133,2.724,0.267,3.836,1.201c1.114,0.934,1.734,2.124,1.87,3.57c0.134,1.446-0.27,2.724-1.203,3.837l-13.61,16.347
	l13.61,16.347c0.934,1.112,1.337,2.391,1.203,3.837c-0.136,1.446-0.757,2.625-1.87,3.536c-0.978,0.824-2.1,1.235-3.37,1.235
	c-1.623,0-2.966-0.635-4.037-1.902l-12.377-14.845l-12.377,14.845c-1.067,1.267-2.411,1.902-4.036,1.902
	c-1.287,0-2.411-0.411-3.367-1.235c-1.114-0.911-1.737-2.09-1.871-3.536C536.713,156.272,537.113,154.994,538.048,153.881z
	 M596.262,160.954c-1.024-1.022-1.532-2.268-1.532-3.737v-39.399c0-1.446,0.508-2.679,1.532-3.703
	c1.024-1.044,2.269-1.567,3.736-1.567c1.446,0,2.681,0.523,3.705,1.567c1.021,1.024,1.532,2.257,1.532,3.703v39.399
	c0,1.469-0.511,2.715-1.532,3.737c-1.024,1.022-2.26,1.534-3.705,1.534C598.531,162.489,597.286,161.977,596.262,160.954z
	 M621.051,153.881l13.612-16.347l-13.612-16.347c-0.934-1.112-1.334-2.391-1.201-3.837c0.133-1.446,0.757-2.636,1.867-3.57
	c1.111-0.934,2.389-1.334,3.839-1.201c1.443,0.133,2.634,0.757,3.568,1.868l12.377,14.88l12.377-14.88
	c0.934-1.111,2.122-1.734,3.568-1.868c1.446-0.133,2.724,0.267,3.839,1.201c1.11,0.934,1.734,2.124,1.868,3.57
	c0.133,1.446-0.267,2.724-1.201,3.837l-13.612,16.347l13.612,16.347c0.934,1.112,1.334,2.391,1.201,3.837
	c-0.134,1.446-0.758,2.625-1.868,3.536c-0.981,0.824-2.1,1.235-3.37,1.235c-1.622,0-2.969-0.635-4.036-1.902l-12.377-14.845
	l-12.377,14.845c-1.067,1.267-2.414,1.902-4.037,1.902c-1.29,0-2.414-0.411-3.37-1.235c-1.11-0.911-1.734-2.09-1.867-3.536
	C619.717,156.272,620.117,154.994,621.051,153.881z M897.215,87.703c0-3.072-1.194-5.958-3.354-8.138
	c-0.302-0.692-0.752-1.33-1.385-1.832c-0.978-0.777-2.171-1.093-3.331-1.004c-1.121-0.356-2.286-0.592-3.496-0.592H599.98H314.31
	c-3.09,0-5.993,1.203-8.178,3.387c-2.185,2.185-3.387,5.089-3.387,8.178v513.059v320.719c-0.08,0.489-0.074,0.965,0,1.455v106.451
	c0.083,4.429,3.685,7.998,8.134,7.998h577.964c4.501,0,8.412-3.911,8.412-8.412l-0.039-428.211V87.703z M312.277,935.509
	c23.952,32.025,19.58,61.132,19.501,61.618c-0.03,0.177-0.025,0.35-0.036,0.525l-19.465,28.501V935.509z M380.803,1027.69
	c-0.135,0.042-0.253,0.111-0.382,0.164h-39.694l42.657-16.59c2.451-0.956,3.667-3.717,2.715-6.172
	c-0.959-2.451-3.724-3.661-6.172-2.715l-54.295,21.116l11.825-17.314c0.246-0.123,0.49-0.259,0.718-0.428
	c0.344-0.251,33.374-24.184,76.252-10.596C407.474,1005.83,393.701,1023.647,380.803,1027.69z M558.391,1027.853l-14.786-20.164
	c-1.558-2.129-4.546-2.578-6.662-1.027c-2.122,1.558-2.581,4.539-1.027,6.662l10.654,14.53h-18.132
	c-0.12-0.246-0.255-0.49-0.422-0.719c-8.07-11.006-9.033-35.465-8.573-49.183c34.93,11.89,50.284,39.923,54.775,49.902H558.391z
	 M599.784,979.171c-0.003,0-0.006,0-0.009,0c-3.227-0.022-9.501-9.737-9.497-27.46c0-2.181-1.48-4.083-3.597-4.62
	c-0.391-0.099-0.781-0.146-1.169-0.146c-1.719,0-3.345,0.934-4.192,2.498c-7.502,13.879-15.967,18.645-18.62,17.425
	c-2.532-1.176-4.381-10.404,0.952-24.596c0.711-1.89,0.152-4.024-1.396-5.324c-1.558-1.303-3.755-1.486-5.489-0.456
	c-13.081,7.72-22.498,7.493-24.093,5.194c-1.666-2.395,1.849-11.983,14.512-21.776c1.531-1.182,2.195-3.174,1.676-5.039
	c-0.514-1.865-2.107-3.233-4.027-3.463c-13.084-1.564-20.295-6.556-20.277-9.411h-0.006c0.003-0.112,0-0.236-0.003-0.375
	c0.019-2.855,7.301-7.751,20.423-9.132c1.924-0.205,3.534-1.551,4.077-3.407c0.539-1.859-0.097-3.86-1.611-5.064
	c-12.523-9.963-15.908-19.601-14.211-21.971c1.623-2.268,11.043-2.371,24.025,5.52c1.722,1.052,3.925,0.903,5.492-0.382
	c1.564-1.278,2.154-3.404,1.468-5.306c-5.141-14.264-3.168-23.46-0.618-24.602c2.492-1.126,10.643,3.472,17.841,16.665
	c1.03,1.89,3.189,2.852,5.297,2.349c2.094-0.503,3.59-2.346,3.649-4.499c0.475-17.05,6.742-26.318,9.84-26.318
	c0.003,0,0.009,0,0.012,0c3.223,0.022,9.494,9.734,9.491,27.46c0,2.181,1.48,4.083,3.596,4.62c2.122,0.534,4.322-0.434,5.361-2.352
	c7.499-13.867,15.995-18.639,18.62-17.425c2.535,1.176,4.382,10.401-0.952,24.593c-0.71,1.89-0.152,4.024,1.396,5.324
	c1.554,1.3,3.745,1.48,5.486,0.456c13.084-7.723,22.505-7.487,24.099-5.194c1.667,2.395-1.853,11.986-14.511,21.779
	c-1.53,1.185-2.194,3.177-1.676,5.042c0.515,1.865,2.107,3.23,4.027,3.46c13.085,1.561,20.293,6.556,20.274,9.411
	c0,0.006,0,0.009,0,0.012c0-0.233,0.019-0.469,0.056-0.701c-0.056,0.348-0.066,0.707-0.043,1.058
	c-0.019,2.861-7.304,7.757-20.427,9.135c-1.924,0.205-3.534,1.548-4.077,3.407c-0.54,1.859,0.096,3.86,1.61,5.064
	c12.523,9.963,15.908,19.601,14.211,21.971c-1.629,2.277-11.053,2.374-24.022-5.52c-1.725-1.046-3.925-0.9-5.495,0.382
	c-1.564,1.278-2.154,3.404-1.468,5.306c5.141,14.264,3.168,23.46,0.618,24.602c-2.507,1.117-10.646-3.472-17.841-16.662
	c-1.03-1.893-3.198-2.845-5.297-2.355c-2.094,0.506-3.59,2.349-3.649,4.502C609.145,969.903,602.881,979.171,599.784,979.171z
	 M674.317,1027.134c-0.168,0.229-0.302,0.473-0.423,0.719h-17.767l10.129-17.22c1.334-2.268,0.577-5.191-1.691-6.525
	c-2.265-1.331-5.191-0.577-6.525,1.691l-12.973,22.054h-16.961c4.45-9.968,19.714-37.986,54.788-49.905
	C683.356,991.66,682.403,1016.11,674.317,1027.134z M684.959,1027.853c10.003-19.948,7.237-55.021,7.103-56.635
	c-0.117-1.409-0.856-2.696-2.017-3.506c-1.16-0.813-2.625-1.07-3.987-0.695c-49.705,13.558-66.242,55.236-68.256,60.836h-12.225
	l0.686-41.09c5.5-3.488,9.339-11.337,11.328-20.531c7.574,8.976,15.996,12.836,22.713,9.833c7.167-3.208,9.789-13.044,7.416-25.803
	c12.06,4.89,22.231,4.279,26.805-2.119c4.905-6.851,1.328-17.785-8.654-28.27c11.821-3.118,19.063-9.277,19.116-16.82
	c0-0.05-0.006-0.193-0.012-0.326c0-0.006,0-0.009,0-0.015c0.049-7.512-7.099-13.761-18.862-17.041
	c10.128-10.348,13.854-21.236,9.042-28.155c-4.493-6.454-14.655-7.205-26.774-2.482c2.547-12.725,0.056-22.595-7.065-25.899
	c-6.758-3.137-15.508,0.915-23.309,10.1c-2.439-12.867-8.424-23.228-17.714-23.29c-0.028,0-0.052,0-0.081,0
	c-9.023,0-15.107,10.013-17.803,22.471c-7.577-8.973-16.005-12.836-22.712-9.836c-7.168,3.211-9.79,13.047-7.416,25.803
	c-12.054-4.878-22.228-4.273-26.805,2.119c-4.902,6.854-1.325,17.788,8.654,28.27c-11.824,3.115-19.063,9.253-19.11,16.684
	c-0.006,0.202,0,0.4,0.007,0.447c0,0.009,0,0.022,0,0.034c-0.05,7.509,7.102,13.758,18.865,17.038
	c-10.128,10.348-13.857,21.236-9.042,28.152c4.487,6.463,14.655,7.202,26.771,2.489c-2.544,12.722-0.056,22.592,7.066,25.899
	c6.764,3.137,15.514-0.915,23.311-10.1c2.165,11.415,7.124,20.841,14.707,22.869l-0.66,39.571h-11.508
	c-2.016-5.6-18.556-47.278-68.259-60.836c-1.371-0.375-2.83-0.118-3.987,0.695c-1.161,0.81-1.9,2.098-2.017,3.506
	c-0.134,1.614-2.9,36.687,7.103,56.635H398.974c14.882-12.374,26.131-31.788,26.748-32.864c0.689-1.207,0.819-2.656,0.354-3.965
	c-0.466-1.31-1.477-2.352-2.774-2.852c-31.253-12.049-57.944-5.863-74.162,0.9l26.818-39.266c0.293,0.169,0.547,0.394,0.858,0.539
	c6.748,3.131,15.511-0.909,23.311-10.097c2.439,12.864,8.422,23.225,17.715,23.29c0.028,0,0.052,0,0.08,0
	c9.026,0,15.108-10.01,17.804-22.471c7.571,8.976,15.989,12.836,22.712,9.833c7.168-3.211,9.789-13.044,7.413-25.803
	c12.06,4.887,22.231,4.279,26.805-2.119c4.906-6.851,1.328-17.785-8.65-28.27c11.822-3.115,19.061-9.268,19.113-16.786
	c0-0.009-0.009-0.211-0.012-0.304c0-0.025,0-0.047,0-0.068c0.052-7.515-7.096-13.764-18.862-17.044
	c10.128-10.348,13.854-21.236,9.042-28.155c-4.487-6.457-14.651-7.195-26.774-2.482c2.548-12.725,0.056-22.595-7.065-25.899
	c-6.765-3.143-15.511,0.912-23.309,10.097c-2.439-12.864-8.421-23.225-17.714-23.287c-0.028,0-0.052,0-0.081,0
	c-9.023,0-15.108,10.013-17.803,22.471c-7.577-8.976-16.007-12.839-22.712-9.836c-7.165,3.211-9.789,13.044-7.416,25.803
	c-12.046-4.878-22.226-4.276-26.805,2.119c-4.903,6.857-1.325,17.792,8.657,28.27c-11.822,3.121-19.064,9.281-19.117,16.82
	c0,0.152,0.006,0.301,0.012,0.316c0,0.009,0,0.019,0,0.025c-0.052,7.512,7.097,13.761,18.859,17.041
	c-10.124,10.345-13.85,21.232-9.038,28.155c4.487,6.457,14.657,7.199,26.771,2.485c-1.353,6.763-1.24,12.676,0.191,17.269
	l-28.521,41.761c-1.272-14.853-7.202-38.646-29.144-62.912V703.977l98.062-79.818c2.042-1.663,2.349-4.663,0.686-6.705
	c-1.663-2.043-4.667-2.349-6.705-0.689l-92.042,74.919v-90.921V483.393h73.956c2.631,0,4.765-2.133,4.765-4.766
	c0-2.633-2.134-4.766-4.765-4.766h-73.956V260.107l95.433,69.109c0.845,0.611,1.822,0.906,2.793,0.906
	c1.477,0,2.932-0.684,3.863-1.97c1.545-2.132,1.068-5.112-1.064-6.656l-99.51-72.061c-0.47-0.34-0.985-0.566-1.514-0.714V91.891
	l84.201,106.032c0.941,1.185,2.334,1.803,3.736,1.803c1.039,0,2.085-0.338,2.96-1.033c2.063-1.637,2.405-4.636,0.77-6.696
	L319.508,85.67h128.717l67.721,132.054c0.844,1.646,2.514,2.593,4.245,2.593c0.732,0,1.477-0.169,2.172-0.526
	c2.343-1.202,3.267-4.074,2.066-6.417L458.939,85.67H599.98h142.711l-67.12,130.881c-1.201,2.343-0.276,5.214,2.066,6.417
	c0.695,0.357,1.439,0.526,2.172,0.526c1.731,0,3.4-0.946,4.245-2.593l68.631-133.828c0.232-0.453,0.361-0.927,0.439-1.404h126.965
	l-86.956,109.504c-1.635,2.06-1.293,5.059,0.77,6.696c0.875,0.695,1.92,1.033,2.96,1.033c1.402,0,2.795-0.617,3.736-1.803
	l87.085-109.666v162.597l-97.553,70.642c-2.132,1.544-2.609,4.524-1.064,6.656c0.93,1.288,2.386,1.97,3.863,1.97
	c0.968,0,1.949-0.295,2.793-0.906l91.962-66.594v211.239h-67.307c-2.631,0-4.766,2.133-4.766,4.766c0,2.633,2.135,4.766,4.766,4.766
	h67.307v114.193l0.009,93.865l-91.757-74.687c-2.042-1.66-5.048-1.354-6.705,0.689c-1.663,2.042-1.356,5.042,0.686,6.705
	l97.777,79.587l0.02,216.355c-20.73,20.395-25.389,42.77-25.641,57.926l-31.637-47.112c0.027-2.776-0.252-5.792-0.846-8.994
	c12.039,4.884,22.225,4.276,26.805-2.119c4.902-6.854,1.327-17.788-8.651-28.267c11.822-3.115,19.061-9.253,19.108-16.684
	c0.006-0.155,0-0.276-0.009-0.425c0-0.019,0-0.037,0-0.053c0.053-7.515-7.097-13.764-18.859-17.044
	c10.128-10.348,13.854-21.236,9.038-28.155c-4.49-6.46-14.667-7.199-26.771-2.482c2.548-12.725,0.056-22.595-7.064-25.899
	c-6.752-3.134-15.511,0.909-23.312,10.097c-2.439-12.864-8.421-23.225-17.715-23.287c-0.028,0-0.052,0-0.08,0
	c-9.023,0-15.105,10.013-17.801,22.468c-7.58-8.973-16.01-12.836-22.716-9.833c-7.168,3.211-9.789,13.047-7.413,25.803
	c-12.051-4.878-22.228-4.276-26.805,2.119c-4.906,6.854-1.328,17.788,8.654,28.27c-11.823,3.121-19.065,9.277-19.117,16.82
	c0,0.152,0.006,0.301,0.012,0.316c0,0.009,0,0.019,0,0.028c-0.049,7.512,7.1,13.758,18.862,17.038
	c-10.128,10.348-13.854,21.236-9.041,28.155c4.487,6.46,14.664,7.208,26.774,2.482c-2.544,12.725-0.056,22.595,7.065,25.899
	c6.746,3.134,15.505-0.909,23.309-10.1c2.439,12.864,8.424,23.228,17.714,23.293c0.029,0,0.053,0,0.081,0
	c9.023,0,15.108-10.013,17.803-22.471c7.572,8.976,16.001,12.836,22.713,9.833c2.095-0.939,3.753-2.503,5.06-4.483l25.808,38.432
	c-12.881-4.919-35.861-9.017-67.869,3.322c-1.297,0.5-2.311,1.542-2.774,2.852c-0.466,1.309-0.335,2.758,0.354,3.965
	c0.617,1.076,11.867,20.49,26.751,32.864H684.959z M366.992,889.704c-0.516-1.868-2.107-3.233-4.028-3.463
	c-13.084-1.561-20.292-6.553-20.274-9.439h-0.003c0-0.09-0.003-0.199-0.009-0.341c0.019-2.858,7.304-7.754,20.426-9.135
	c1.924-0.205,3.534-1.551,4.077-3.407c0.54-1.859-0.097-3.86-1.611-5.064c-12.523-9.963-15.911-19.601-14.214-21.971
	c1.626-2.274,11.05-2.374,24.025,5.52c1.722,1.052,3.925,0.9,5.492-0.379c1.565-1.281,2.154-3.407,1.468-5.309
	c-5.138-14.264-3.165-23.46-0.618-24.602c2.517-1.132,10.643,3.472,17.841,16.665c1.027,1.89,3.19,2.855,5.297,2.349
	c2.094-0.503,3.59-2.346,3.649-4.499c0.475-17.05,6.742-26.318,9.839-26.318c0.003,0,0.009,0,0.012,0
	c3.225,0.022,9.498,9.731,9.492,27.454c0,2.184,1.48,4.086,3.596,4.623c2.107,0.537,4.322-0.434,5.361-2.352
	c7.5-13.863,15.998-18.645,18.62-17.422c2.535,1.176,4.382,10.401-0.952,24.593c-0.71,1.89-0.152,4.024,1.396,5.324
	c1.551,1.3,3.748,1.48,5.486,0.456c13.081-7.717,22.502-7.49,24.099-5.194c1.666,2.395-1.853,11.986-14.512,21.779
	c-1.53,1.185-2.194,3.177-1.676,5.042c0.515,1.865,2.107,3.23,4.027,3.46c13.085,1.561,20.292,6.553,20.274,9.408
	c0,0.013,0,0.022,0,0.034h0.003c0,0.09,0.003,0.199,0.009,0.338c-0.019,2.861-7.304,7.757-20.425,9.135
	c-1.924,0.205-3.534,1.548-4.077,3.407c-0.54,1.859,0.096,3.86,1.61,5.064c12.523,9.963,15.908,19.601,14.211,21.971
	c-1.629,2.274-11.052,2.374-24.022-5.52c-1.725-1.046-3.925-0.9-5.495,0.382c-1.564,1.278-2.153,3.404-1.467,5.306
	c5.141,14.264,3.168,23.46,0.62,24.602c-2.517,1.123-10.649-3.472-17.844-16.662c-1.03-1.893-3.199-2.861-5.297-2.352
	c-2.094,0.503-3.589,2.349-3.649,4.502c-0.472,17.05-6.739,26.318-9.836,26.318c-0.003,0-0.006,0-0.009,0
	c-3.227-0.022-9.501-9.737-9.497-27.46c0-2.181-1.48-4.083-3.596-4.62c-0.391-0.099-0.782-0.146-1.17-0.146
	c-1.719,0-3.344,0.934-4.192,2.498c-7.502,13.876-15.988,18.642-18.62,17.422c-2.535-1.176-4.382-10.398,0.953-24.593
	c0.71-1.89,0.151-4.024-1.396-5.324c-1.555-1.303-3.755-1.483-5.489-0.456c-13.081,7.72-22.496,7.493-24.094,5.194
	c-1.666-2.395,1.849-11.986,14.512-21.779C366.846,893.561,367.51,891.569,366.992,889.704z M817.658,917.599
	c5.138,14.264,3.165,23.46,0.618,24.602c-2.535,1.123-10.646-3.472-17.841-16.662c-1.03-1.893-3.193-2.852-5.297-2.355
	c-2.094,0.506-3.59,2.349-3.649,4.502c-0.475,17.053-6.742,26.321-9.839,26.321c-0.003,0-0.006,0-0.009,0
	c-3.224-0.022-9.498-9.737-9.495-27.46c0-2.181-1.48-4.083-3.595-4.62c-0.392-0.099-0.782-0.146-1.171-0.146
	c-1.719,0-3.344,0.934-4.192,2.498c-7.503,13.876-16.013,18.642-18.62,17.422c-2.535-1.176-4.382-10.398,0.952-24.593
	c0.711-1.89,0.152-4.024-1.396-5.324c-1.555-1.303-3.748-1.483-5.489-0.456c-13.081,7.72-22.502,7.493-24.096,5.194
	c-1.666-2.395,1.853-11.986,14.512-21.779c1.529-1.185,2.193-3.177,1.675-5.042c-0.515-1.865-2.107-3.23-4.027-3.46
	c-13.084-1.561-20.292-6.553-20.274-9.439h-0.003c0-0.09-0.003-0.199-0.009-0.341c0.019-2.858,7.304-7.754,20.425-9.135
	c1.924-0.205,3.534-1.551,4.077-3.407c0.541-1.859-0.096-3.86-1.61-5.064c-12.523-9.963-15.908-19.601-14.211-21.971
	c1.623-2.277,11.046-2.377,24.025,5.52c1.722,1.052,3.928,0.903,5.492-0.382c1.564-1.278,2.153-3.404,1.467-5.306
	c-5.141-14.264-3.168-23.46-0.62-24.602c2.507-1.139,10.643,3.469,17.844,16.665c1.03,1.89,3.19,2.855,5.297,2.349
	c2.094-0.503,3.589-2.346,3.649-4.499c0.475-17.05,6.739-26.318,9.836-26.318c0.003,0,0.009,0,0.012,0
	c3.224,0.022,9.498,9.731,9.495,27.457c0,2.181,1.48,4.083,3.595,4.62c2.123,0.537,4.323-0.434,5.362-2.352
	c7.502-13.876,16.017-18.632,18.62-17.422c2.535,1.176,4.382,10.401-0.953,24.593c-0.71,1.89-0.151,4.024,1.397,5.324
	c1.551,1.3,3.748,1.48,5.485,0.456c13.082-7.717,22.499-7.49,24.097-5.194c1.666,2.395-1.849,11.986-14.512,21.779
	c-1.529,1.182-2.193,3.174-1.675,5.039c0.515,1.868,2.107,3.233,4.027,3.463c13.084,1.561,20.292,6.553,20.274,9.408
	c0,0.013,0,0.022,0,0.034h0.003c0,0.09,0.003,0.199,0.009,0.341c-0.018,2.858-7.301,7.754-20.423,9.132
	c-1.924,0.205-3.534,1.548-4.077,3.407c-0.541,1.859,0.096,3.86,1.61,5.064c12.523,9.963,15.908,19.601,14.211,21.971
	c-1.626,2.271-11.046,2.38-24.022-5.52c-1.725-1.046-3.928-0.9-5.495,0.379C817.562,913.568,816.972,915.696,817.658,917.599z
	 M822.808,1010.45l52.209,17.403h-46.961c-0.129-0.053-0.248-0.121-0.382-0.164c-13.867-4.347-27.69-23.476-33.632-32.589
	c41.708-14,64.079,2.783,65.097,3.571c1.115,0.877,2.501,1.159,3.802,0.921l12.275,18.28l-49.392-16.464
	c-2.498-0.841-5.201,0.518-6.029,3.013C818.964,1006.919,820.311,1009.619,822.808,1010.45z M873.29,997.91
	c-0.002-0.421-0.039-0.846-0.158-1.27c-0.093-0.331-8.168-30.64,14.582-59.171l0.008,81.932L873.29,997.91z M599.651,930.959
	c-16.19-0.11-29.225-13.323-29.116-29.514c0.11-16.19,13.324-29.226,29.514-29.117c16.19,0.11,29.226,13.324,29.116,29.514
	C629.055,918.032,615.841,931.068,599.651,930.959z M388.666,876.281c0.11-16.19,13.324-29.226,29.514-29.117
	c16.19,0.11,29.226,13.324,29.116,29.514c-0.11,16.19-13.324,29.226-29.513,29.117C401.592,905.685,388.557,892.471,388.666,876.281
	z M811.032,876.678c-0.109,16.19-13.323,29.226-29.513,29.117c-16.19-0.11-29.226-13.323-29.116-29.514
	c0.109-16.19,13.323-29.226,29.514-29.117C798.106,847.274,811.142,860.488,811.032,876.678z M744.786,688.458
	c0.255,0.143,0.52,0.251,0.792,0.345c2.875,0.985,5.966-0.94,6.268-4.006c0.011-0.104,0.019-0.204,0.022-0.309
	c0.014-0.411-0.01-0.823-0.106-1.258L724.001,565.87l114.296-5.83c1.961-0.099,3.659-1.392,4.279-3.253
	c0.621-1.862,0.038-3.914-1.47-5.169l-91.244-75.929l91.034-67.392c1.588-1.177,2.286-3.213,1.753-5.118
	c-0.534-1.904-2.191-3.281-4.161-3.46l-118.396-10.71l32.457-112.543c0.552-1.914-0.146-3.972-1.75-5.155
	c-1.601-1.182-3.776-1.243-5.443-0.15L644.75,337.09c0,0-40.297-107.265-40.324-107.313c-0.156-0.401-0.371-0.769-0.624-1.11
	c-0.056-0.075-0.114-0.144-0.174-0.215c-2.331-2.766-6.757-1.836-8.098,1.373l-39.202,104.353c0,0-99.642-63.674-100.121-63.967
	c-2.842-1.739-6.96,0.079-7.233,3.688c-0.008,0.093-0.012,0.182-0.013,0.276c-0.008,0.429,0.027,0.857,0.137,1.293l29.746,113.116
	c0,0-117.366,11.138-117.394,11.145c-0.425,0.043-0.834,0.153-1.229,0.305c-0.087,0.034-0.169,0.071-0.253,0.11
	c-0.354,0.161-0.693,0.355-1.07,0.647c-1.887,1.459-2.225,4.227-0.995,6.195c0.055,0.087,0.113,0.169,0.174,0.253
	c0.242,0.337,0.514,0.655,0.855,0.935l85.155,69.187c-18.925,16.173-37.849,32.346-56.772,48.521
	c-6.093,5.207-12.184,10.414-18.277,15.623c-2.506,2.142-20.051,14.594-8.016,16.967c0.175,0.035,0.337,0.107,0.518,0.121
	l108.655,8.904l-22.018,115.942c-0.351,1.855,0.422,3.739,1.974,4.812c0.813,0.562,1.759,0.844,2.708,0.844
	c0.863,0,1.725-0.233,2.489-0.701l98.177-60.137l41.536,101.082c0.732,1.781,2.464,2.944,4.409,2.954
	c1.914,0,3.646-1.148,4.391-2.914l42.63-101.102l98.144,60.117C744.684,688.422,744.738,688.431,744.786,688.458z M816.826,543.815
	l-95.439-32.016c0.859-4.299,2.435-12.69,2.839-17.133l17.748-13.138L816.826,543.815z M811.672,406.864l-97.563,25.843
	c-6.101-13.791-14.612-26.28-25.009-36.93L811.672,406.864z M727.799,294.061l-63.042,82.26c-2.187-1.34-4.426-2.601-6.699-3.808
	l-9.872-26.279L727.799,294.061z M563.169,343.075c0.002-0.005,0.003-0.009,0.005-0.014l31.862-84.819l-0.703,99.84
	c-14.023,0.576-27.449,3.474-39.924,8.31L563.169,343.075z M473.264,292.411l79.636,50.89l-10.752,28.623
	c-2.229,1.154-4.426,2.36-6.575,3.642L473.264,292.411z M387.33,406.842l123.227-11.694c-11.196,11.313-20.261,24.736-26.526,39.621
	L387.33,406.842z M385.204,540.219l66.401-56.748l24.297,19.741c0.188,1.166,0.402,2.323,0.622,3.478L385.204,540.219z
	 M461.487,664.434l24.426-128.623c7.684,16.524,18.861,31.097,32.587,42.774L461.487,664.434z M603.763,705.073l-0.002-96.74
	c3.084-0.103,6.145-0.296,9.17-0.619c0.012,0.007,0.021,0.018,0.032,0.025l25.307,15.501L603.763,705.073z M599.529,598.909
	c-63.803,0-115.713-51.909-115.713-115.714c0-63.805,51.91-115.713,115.713-115.713c63.804,0,115.714,51.909,115.714,115.713
	C715.242,547,663.332,598.909,599.529,598.909z M678.791,580.088c12.212-10.009,22.492-22.281,30.223-36.162l4.406,18.627
	c0.003,0.01,0.005,0.02,0.008,0.03l23.448,99.126L678.791,580.088z M529.93,709.111l-27.577,71.3
	c-0.733,1.89-2.535,3.047-4.446,3.047c-0.575,0-1.154-0.102-1.719-0.32c-2.454-0.949-3.677-3.711-2.727-6.165l27.577-71.3
	c0.953-2.457,3.721-3.672,6.165-2.726C529.657,703.897,530.88,706.656,529.93,709.111z M701.653,783.628l-29.61-74.476
	c-0.974-2.446,0.22-5.217,2.668-6.19c2.442-0.968,5.216,0.22,6.187,2.668l29.611,74.479c0.974,2.445-0.221,5.216-2.669,6.187
	c-0.578,0.23-1.173,0.338-1.759,0.338C704.188,786.635,702.394,785.499,701.653,783.628z M635.027,532.107
	c-1.827,0.551-3.775,1.004-5.758,1.393c-0.071-0.003-0.138-0.021-0.21-0.021c-0.022-0.003-0.04-0.003-0.056,0
	c-1.578,0-5.396-2.153-7.929-3.58c-3.616-2.037-7.044-3.952-10.277-4.297c-0.718-0.153-1.458-0.253-2.227-0.253
	c-3.017,0-5.686,1.268-7.478,3.216c-1.982-1.641-4.365-3.235-7.225-3.216c-0.101,0.002-0.201,0.035-0.301,0.04
	c-0.147-0.006-0.286-0.04-0.434-0.04c-2.114,0-4.059,0.625-5.658,1.659c-1.468,0.639-2.944,1.375-4.458,2.162
	c-3.393,1.759-7.236,3.725-10.059,3.549c-3.106-0.637-5.09-1.138-5.145-1.152c-2.545-0.658-5.124,0.883-5.776,3.416
	c-0.649,2.539,0.88,5.124,3.416,5.776c0.329,0.084,4.309,1.092,9.988,2.105c2.531,7.024,10.627,18.43,26.303,18.43
	c15.518,0,23.706-11.031,26.371-17.941c3.279-0.535,6.582-1.237,9.654-2.164c2.508-0.757,3.929-3.404,3.169-5.912
	C640.183,532.768,637.532,531.344,635.027,532.107z M601.745,551.805c-7.575,0-12.124-3.835-14.698-7.32
	c3.234,0.318,6.58,0.528,9.867,0.528l8.896,0.012c0.08,0,0.352,0.003,0.794,0.003c1.569,0,5.266-0.044,9.903-0.365
	C613.885,548.068,609.301,551.805,601.745,551.805z M583.276,505.116c1.804-2.4,5.304-3.166,7.92-3.385
	c0.92-0.068,1.853,0.12,2.666,0.562c2.644,1.439,6.576,3.043,7.985,3.043c1.649,0,5.236-1.476,7.141-2.474
	c0.312-0.164,0.646-0.293,0.985-0.383c1.483-0.392,5.239-1.112,8.047,0.785c1.517,1.019,2.477,2.588,2.706,4.417
	c0.327,2.598-1.517,4.97-4.117,5.297c-1.517,0.182-2.938-0.349-3.938-1.344c-2.008,0.992-6.901,3.191-10.823,3.191
	c-3.642,0-8.442-2.122-11.083-3.447c-0.207,0.046-0.395,0.093-0.544,0.139c-1.649,1.47-4.161,1.625-6.002,0.244
	C582.124,510.185,581.701,507.214,583.276,505.116z M571.343,467.567c2.633,2.108,3.665,4.266,3.77,4.495
	c1.019,2.385,3.765,3.503,6.181,2.508c2.419-1.007,3.565-3.784,2.558-6.202c-0.246-0.591-6.217-14.367-25.809-14.474l-0.959-4.031
	c-0.605-2.548-3.157-4.136-5.711-3.518c-2.551,0.605-4.127,3.163-3.518,5.711l0.748,3.144c-0.632,0.191-1.229,0.408-1.818,0.633
	l-2.486-3.366c-1.56-2.11-4.528-2.551-6.635-1.001c-2.11,1.557-2.558,4.528-1.001,6.635l2.003,2.713
	c-0.483,0.443-0.942,0.887-1.363,1.336l-2.796-1.865c-2.181-1.455-5.124-0.868-6.579,1.316c-1.455,2.178-0.865,5.124,1.316,6.579
	l2.935,1.958c-0.057,0.153-0.092,0.255-0.106,0.297c-0.825,2.487,0.522,5.171,3.012,5.995c0.494,0.164,0.998,0.241,1.492,0.241
	c1.989,0,3.843-1.26,4.504-3.253c0.019-0.055,1.101-3.153,4.331-5.894c1.619,5.671,6.791,9.86,12.973,9.86
	C564.55,477.385,569.71,473.216,571.343,467.567z M558.383,467.896c-2.239,0-4.059-1.819-4.059-4.059
	c0-0.067,0.031-0.125,0.034-0.191c1.08-0.16,2.215-0.272,3.463-0.272c1.69,0,3.223,0.14,4.621,0.378c0,0.031,0,0.053,0,0.086
	C562.442,466.076,560.623,467.896,558.383,467.896z M529.839,443.185c-0.911,0.846-2.07,1.263-3.225,1.263
	c-1.273,0-2.545-0.51-3.481-1.52c-1.779-1.921-1.665-4.924,0.256-6.706c0.485-0.448,12.087-11.027,30.546-13.007
	c13.579-1.461,22.416,1.455,28.594,4.148c2.4,1.05,3.497,3.849,2.449,6.249c-1.053,2.397-3.846,3.493-6.249,2.449
	c-5.415-2.366-12.47-4.615-23.781-3.413C539.584,434.298,529.935,443.095,529.839,443.185z M666.929,460.285l-2.796,1.865
	c-0.421-0.449-0.88-0.893-1.363-1.336l2.003-2.713c1.557-2.107,1.109-5.078-1.001-6.635c-2.104-1.551-5.075-1.109-6.635,1.001
	l-2.486,3.366c-0.588-0.225-1.185-0.441-1.818-0.633l0.748-3.144c0.609-2.548-0.967-5.106-3.518-5.711
	c-2.545-0.621-5.103,0.97-5.711,3.518l-0.959,4.031c-19.592,0.107-25.563,13.886-25.806,14.474
	c-1.007,2.419,0.139,5.195,2.558,6.202c2.428,1.004,5.202-0.142,6.202-2.558c0.019-0.044,1.002-2.284,3.738-4.472
	c1.624,5.662,6.791,9.843,12.967,9.843c6.175,0,11.342-4.181,12.967-9.842c3.141,2.671,4.266,5.674,4.337,5.876
	c0.661,1.992,2.514,3.253,4.504,3.253c0.494,0,0.998-0.077,1.492-0.241c2.49-0.825,3.836-3.509,3.012-5.995
	c-0.014-0.042-0.049-0.144-0.106-0.297l2.935-1.958c2.181-1.455,2.771-4.402,1.316-6.579
	C672.051,459.417,669.107,458.827,666.929,460.285z M647.111,463.837c0,2.239-1.819,4.059-4.059,4.059
	c-2.239,0-4.059-1.819-4.059-4.059c0-0.038-0.001-0.059-0.001-0.095c1.395-0.234,2.932-0.368,4.622-0.368
	c1.248,0,2.383,0.112,3.463,0.273C647.08,463.712,647.111,463.77,647.111,463.837z M678.046,436.222
	c1.921,1.782,2.036,4.785,0.256,6.706c-0.936,1.01-2.209,1.52-3.481,1.52c-1.149,0-2.301-0.414-3.212-1.254
	c-0.111-0.099-9.918-8.914-25.122-10.545c-11.321-1.198-18.363,1.047-23.781,3.413c-2.4,1.044-5.195-0.053-6.249-2.449
	c-1.047-2.4,0.049-5.199,2.45-6.249c6.175-2.694,15-5.612,28.594-4.148C665.959,425.195,677.561,435.774,678.046,436.222z"/>
</svg>
