<?xml version="1.0" encoding="utf-8"?>
<!-- Generator: Adobe Illustrator 23.0.3, SVG Export Plug-In . SVG Version: 6.00 Build 0)  -->
<svg version="1.1" id="Capa_1" xmlns="http://www.w3.org/2000/svg" xmlns:xlink="http://www.w3.org/1999/xlink" x="0px" y="0px"
	 viewBox="0 0 1200 1200" enable-background="new 0 0 1200 1200" xml:space="preserve">
<path fill="hsl(290, 13%, 29%)" d="M369.001,1066.066c1.021,1.024,1.533,2.259,1.533,3.704s-0.512,2.681-1.533,3.701
	c-1.046,1.024-2.293,1.536-3.739,1.536h-11.175v34.159c0,1.468-0.512,2.715-1.533,3.735c-1.024,1.024-2.259,1.536-3.704,1.536
	s-2.69-0.512-3.736-1.536c-1.024-1.021-1.533-2.268-1.533-3.735v-34.159h-11.144c-1.468,0-2.712-0.512-3.736-1.536
	c-1.024-1.021-1.533-2.255-1.533-3.701s0.509-2.681,1.533-3.704c1.024-1.042,2.268-1.567,3.736-1.567h32.825
	C366.708,1064.5,367.955,1065.024,369.001,1066.066z M418.536,1075.008c1.446,0,2.693-0.512,3.739-1.536
	c1.021-1.021,1.533-2.255,1.533-3.701s-0.512-2.681-1.533-3.704c-1.046-1.042-2.293-1.567-3.739-1.567h-32.825
	c-1.468,0-2.712,0.524-3.736,1.567c-1.024,1.024-1.533,2.259-1.533,3.704v39.396c0,1.468,0.509,2.715,1.533,3.735
	c1.024,1.024,2.268,1.536,3.736,1.536h32.825c1.446,0,2.693-0.512,3.739-1.536c1.021-1.021,1.533-2.268,1.533-3.735
	c0-1.446-0.512-2.681-1.533-3.704c-1.046-1.021-2.293-1.533-3.739-1.533h-27.588v-9.208h21.017c1.446,0,2.69-0.509,3.736-1.533
	c1.024-1.024,1.536-2.259,1.536-3.704c0-1.468-0.512-2.712-1.536-3.735c-1.046-1.024-2.29-1.536-3.736-1.536h-21.017v-9.205H418.536
	z M481.686,1064.9c-0.98-0.4-1.992-0.5-3.037-0.301c-1.024,0.223-1.911,0.714-2.668,1.468l-16.012,15.981l-15.978-15.981
	c-0.757-0.754-1.657-1.244-2.702-1.468c-1.046-0.199-2.057-0.099-3.034,0.301c-0.98,0.422-1.759,1.067-2.336,1.936
	c-0.602,0.887-0.9,1.868-0.9,2.935v39.396c0,1.468,0.509,2.715,1.533,3.735c1.024,1.024,2.268,1.536,3.736,1.536
	c1.446,0,2.681-0.512,3.704-1.536c1.021-1.021,1.533-2.268,1.533-3.735v-26.719l10.744,10.741c1.021,1.024,2.256,1.533,3.701,1.533
	c1.468,0,2.715-0.509,3.736-1.533l10.741-10.741v26.719c0,1.468,0.512,2.715,1.536,3.735c1.024,1.024,2.256,1.536,3.701,1.536
	s2.681-0.512,3.704-1.536c1.046-1.021,1.567-2.268,1.567-3.735v-39.396c0-1.067-0.298-2.048-0.9-2.935
	C483.476,1065.967,482.685,1065.322,481.686,1064.9z M536.726,1069.904c3.602,3.602,5.405,7.939,5.405,13.009
	s-1.803,9.398-5.405,12.978c-3.602,3.602-7.939,5.401-13.009,5.401h-14.446v7.874c0,1.468-0.512,2.715-1.536,3.735
	c-1.021,1.024-2.256,1.536-3.701,1.536c-1.468,0-2.715-0.512-3.736-1.536c-1.024-1.021-1.536-2.268-1.536-3.735v-39.396
	c0-1.446,0.512-2.681,1.536-3.704c1.021-1.042,2.268-1.567,3.736-1.567h19.683C528.786,1064.5,533.124,1066.302,536.726,1069.904z
	 M531.622,1082.913c0-2.178-0.779-4.036-2.336-5.569c-1.533-1.557-3.391-2.336-5.569-2.336h-14.446v15.78h14.446
	c2.178,0,4.036-0.769,5.569-2.302C530.843,1086.928,531.622,1085.07,531.622,1082.913z M591.434,1075.008
	c1.446,0,2.693-0.512,3.739-1.536c1.021-1.021,1.533-2.255,1.533-3.701s-0.512-2.681-1.533-3.704
	c-1.046-1.042-2.293-1.567-3.739-1.567h-32.825c-1.468,0-2.712,0.524-3.736,1.567c-1.024,1.024-1.533,2.259-1.533,3.704v39.396
	c0,1.468,0.509,2.715,1.533,3.735c1.024,1.024,2.268,1.536,3.736,1.536h32.825c1.446,0,2.693-0.512,3.739-1.536
	c1.021-1.021,1.533-2.268,1.533-3.735c0-1.446-0.512-2.681-1.533-3.704c-1.046-1.021-2.293-1.533-3.739-1.533h-27.588v-9.208h21.017
	c1.446,0,2.69-0.509,3.736-1.533c1.024-1.024,1.536-2.259,1.536-3.704c0-1.468-0.512-2.712-1.536-3.735
	c-1.046-1.024-2.29-1.536-3.736-1.536h-21.017v-9.205H591.434z M642.707,1098.426l7.04,7.037c1.021,1.024,1.533,2.259,1.533,3.704
	c0,1.468-0.512,2.715-1.533,3.735c-1.046,1.024-2.293,1.536-3.739,1.536s-2.681-0.512-3.701-1.536l-11.61-11.61H618.42v7.874
	c0,1.468-0.512,2.715-1.533,3.735c-1.024,1.024-2.259,1.536-3.704,1.536c-1.468,0-2.712-0.512-3.736-1.536
	c-1.024-1.021-1.533-2.268-1.533-3.735v-39.396c0-1.446,0.509-2.681,1.533-3.704c1.024-1.042,2.268-1.567,3.736-1.567h19.683
	c5.07,0,9.407,1.803,13.009,5.405c3.605,3.602,5.405,7.939,5.405,13.009c0,3.202-0.788,6.193-2.367,8.973
	C647.398,1094.579,645.332,1096.757,642.707,1098.426z M640.771,1082.913c0-2.178-0.779-4.036-2.333-5.569
	c-1.536-1.557-3.394-2.336-5.572-2.336H618.42v15.78h14.446c2.178,0,4.036-0.769,5.572-2.302
	C639.992,1086.928,640.771,1085.07,640.771,1082.913z M707.889,1106.831c0.667,1.291,0.766,2.625,0.301,4.005
	c-0.468,1.378-1.346,2.389-2.637,3.034c-0.732,0.379-1.511,0.568-2.333,0.568c-0.98,0-1.893-0.257-2.737-0.769
	c-0.866-0.534-1.523-1.253-1.967-2.166l-3.503-6.941h-23.052l-3.469,6.941c-0.645,1.312-1.657,2.19-3.037,2.634
	c-1.378,0.469-2.712,0.379-4.002-0.267c-1.312-0.645-2.19-1.657-2.634-3.034c-0.469-1.381-0.379-2.715,0.267-4.005l19.714-39.431
	c0.447-0.887,1.089-1.601,1.936-2.135c0.844-0.512,1.768-0.766,2.768-0.766c1.002,0,1.924,0.255,2.771,0.766
	c0.844,0.534,1.489,1.247,1.933,2.135L707.889,1106.831z M689.776,1094.055l-6.273-12.541l-6.27,12.541H689.776z M756.46,1064.5
	c-1.446,0-2.681,0.524-3.704,1.567c-1.021,1.024-1.533,2.259-1.533,3.704v24.886l-23.552-28.255c-0.714-0.844-1.601-1.412-2.668-1.7
	c-1.067-0.292-2.125-0.245-3.171,0.133c-1.046,0.375-1.88,1.011-2.501,1.899c-0.645,0.912-0.968,1.924-0.968,3.037v39.396
	c0,1.468,0.512,2.715,1.536,3.735c1.021,1.024,2.268,1.536,3.735,1.536c1.446,0,2.681-0.512,3.701-1.536
	c1.024-1.021,1.536-2.268,1.536-3.735v-24.886l23.552,28.255c1.046,1.266,2.389,1.902,4.036,1.902c0.621,0,1.222-0.102,1.799-0.301
	c1.046-0.379,1.88-1.024,2.504-1.936c0.645-0.909,0.968-1.924,0.968-3.034v-39.396c0-1.446-0.512-2.681-1.536-3.704
	C759.15,1065.024,757.905,1064.5,756.46,1064.5z M797.891,1075.008c3.981,0,7.381,1.412,10.208,4.235
	c1.021,1.046,2.268,1.57,3.735,1.57c1.446,0,2.681-0.524,3.701-1.57c1.024-1.021,1.536-2.256,1.536-3.701s-0.512-2.681-1.536-3.704
	c-4.868-4.89-10.75-7.338-17.644-7.338s-12.776,2.448-17.647,7.338c-4.871,4.849-7.307,10.732-7.307,17.647
	c0,6.894,2.436,12.776,7.307,17.647c4.871,4.871,10.754,7.307,17.647,7.307s12.776-2.435,17.644-7.307
	c1.024-1.024,1.536-2.268,1.536-3.735c0-1.446-0.512-2.681-1.536-3.704c-1.021-1.021-2.256-1.533-3.701-1.533
	c-1.468,0-2.715,0.512-3.735,1.533c-2.826,2.826-6.227,4.238-10.208,4.238c-3.984,0-7.384-1.412-10.207-4.238
	c-2.826-2.823-4.238-6.227-4.238-10.208c0-4.002,1.412-7.415,4.238-10.242C790.507,1076.42,793.908,1075.008,797.891,1075.008z
	 M865.608,1075.008c1.446,0,2.69-0.512,3.736-1.536c1.024-1.021,1.536-2.255,1.536-3.701s-0.512-2.681-1.536-3.704
	c-1.046-1.042-2.29-1.567-3.736-1.567h-32.825c-1.468,0-2.715,0.524-3.735,1.567c-1.024,1.024-1.536,2.259-1.536,3.704v39.396
	c0,1.468,0.512,2.715,1.536,3.735c1.021,1.024,2.268,1.536,3.735,1.536h32.825c1.446,0,2.69-0.512,3.736-1.536
	c1.024-1.021,1.536-2.268,1.536-3.735c0-1.446-0.512-2.681-1.536-3.704c-1.046-1.021-2.29-1.533-3.736-1.533H838.02v-9.208h21.017
	c1.446,0,2.69-0.509,3.735-1.533c1.024-1.024,1.536-2.259,1.536-3.704c0-1.468-0.512-2.712-1.536-3.735
	c-1.046-1.024-2.29-1.536-3.735-1.536H838.02v-9.205H865.608z M922.628,86.981V600v513.019c0,9.878-3.846,19.164-10.831,26.149
	c-6.985,6.985-16.271,10.832-26.149,10.832H600H314.352c-9.878,0-19.165-3.847-26.149-10.831
	c-6.985-6.985-10.831-16.271-10.831-26.15V600V86.981c0-9.878,3.847-19.165,10.831-26.149C295.187,53.847,304.474,50,314.352,50H600
	h285.648c9.878,0,19.165,3.847,26.149,10.832C918.782,67.817,922.628,77.103,922.628,86.981z M913.097,86.981
	c0-7.58-3.072-14.442-8.04-19.41c-4.967-4.968-11.83-8.04-19.41-8.04H600H314.352c-7.58,0-14.442,3.072-19.41,8.04
	c-4.968,4.967-8.04,11.83-8.04,19.41V600v513.019c0,7.58,3.072,14.443,8.04,19.41c4.967,4.968,11.83,8.04,19.41,8.04H600h285.648
	c7.58,0,14.443-3.072,19.41-8.04c4.967-4.967,8.04-11.83,8.04-19.41V600V86.981z M897.212,600l0.04,428.177
	c0,4.501-3.91,8.411-8.411,8.411h-0.019H310.922h-0.02c-4.449,0-8.051-3.568-8.134-7.997V600V86.981
	c0-3.089,1.203-5.993,3.388-8.178c2.184-2.184,5.088-3.387,8.177-3.387h0.02H599.98H600h285.628h0.02
	c3.089,0,5.993,1.203,8.177,3.387c2.184,2.184,3.387,5.088,3.387,8.177V600z M887.701,1027.058l-0.04-427.057V86.981
	c0-0.559-0.2-1.042-0.596-1.438c-0.396-0.395-0.879-0.596-1.438-0.596H600h-0.02H314.352c-0.559,0-1.042,0.2-1.437,0.595
	c-0.396,0.396-0.596,0.88-0.596,1.438V600v427.057H887.701z M531.566,156.989c0.133,1.446,0.757,2.625,1.868,3.537
	c0.956,0.822,2.079,1.235,3.369,1.235c1.623,0,2.969-0.636,4.036-1.902l12.376-14.846l12.376,14.846
	c1.067,1.266,2.414,1.902,4.036,1.902c1.269,0,2.389-0.413,3.369-1.235c1.111-0.912,1.734-2.091,1.868-3.537
	s-0.267-2.724-1.201-3.835l-13.611-16.347l13.611-16.344c0.934-1.114,1.334-2.392,1.201-3.838s-0.757-2.634-1.868-3.568
	c-1.114-0.934-2.392-1.334-3.838-1.201c-1.446,0.133-2.634,0.757-3.568,1.868l-12.376,14.877l-12.376-14.877
	c-0.934-1.111-2.125-1.734-3.568-1.868c-1.449-0.133-2.727,0.267-3.838,1.201s-1.734,2.122-1.868,3.568
	c-0.133,1.446,0.267,2.724,1.201,3.838l13.611,16.344l-13.611,16.347C531.833,154.265,531.433,155.544,531.566,156.989z
	 M594.713,161.761c1.446,0,2.681-0.512,3.701-1.536c1.024-1.021,1.536-2.268,1.536-3.736v-39.397c0-1.446-0.512-2.681-1.536-3.704
	c-1.021-1.042-2.256-1.567-3.701-1.567c-1.468,0-2.715,0.524-3.735,1.567c-1.024,1.024-1.536,2.259-1.536,3.704v39.397
	c0,1.468,0.512,2.715,1.536,3.736C591.998,161.249,593.245,161.761,594.713,161.761z M633.477,158.857
	c0.444,0.89,1.089,1.592,1.933,2.104c0.847,0.534,1.768,0.8,2.771,0.8c0.999,0,1.924-0.267,2.768-0.8
	c0.847-0.512,1.489-1.213,1.936-2.104l19.683-39.431c0.667-1.288,0.766-2.622,0.298-4.002c-0.465-1.378-1.343-2.389-2.634-3.034
	c-1.291-0.645-2.625-0.745-4.002-0.301c-1.381,0.468-2.392,1.347-3.037,2.634l-15.01,30.024l-15.013-29.955
	c-0.645-1.312-1.657-2.19-3.034-2.634c-1.381-0.468-2.724-0.379-4.036,0.267c-1.291,0.645-2.156,1.657-2.603,3.034
	c-0.465,1.381-0.379,2.724,0.267,4.036L633.477,158.857z M688.891,962.489c0.137,2.59-0.44,5.191-1.664,7.519
	c-7.25,13.973-36.827,22.239-69.471,24.379c-0.179,0.012-0.357,0.026-0.536,0.038c-2.602,0.166-5.237,0.291-7.897,0.378
	c-0.117,0.004-0.234,0.01-0.351,0.014c-2.79,0.088-5.589,0.134-8.387,0.134c-13.151,0-26.341-0.984-38.38-2.912
	c-1.778-0.285-3.539-0.583-5.263-0.909c-8.517-1.612-16.321-3.728-22.957-6.343c-6.625-2.613-12.065-5.721-15.848-9.315
	c-0.541-0.513-1.047-1.036-1.519-1.57c-2.829-3.198-4.392-6.751-4.392-10.654c0-12.84,16.504-20.025,26.858-23.335
	c6.323-2.022,12.796-3.539,19.327-4.712c3.403-0.611,6.823-1.124,10.251-1.572c2.872-0.375,8.778,0.168,11.221-1.238
	c3.633-2.091,1.742-13.339,1.742-17.979v-26.718l-13.543-23.307c-0.033-0.056-0.046-0.12-0.085-0.192
	c-0.104-0.198-0.19-0.404-0.287-0.671c-0.033-0.091-0.068-0.18-0.102-0.301c-0.068-0.251-0.106-0.51-0.142-0.852
	c-0.003-0.032-0.014-0.062-0.024-0.177c-0.007-0.155,0.018-0.315,0.027-0.472c0.009-0.169,0.004-0.337,0.048-0.58
	c0.013-0.065,0.033-0.128,0.095-0.336c0.057-0.224,0.119-0.444,0.215-0.669c0.016-0.038,0.02-0.08,0.037-0.117
	c0,0,8.076-17.768,8.078-17.775c-0.011,0.055-15.196-8.52-16.283-9.293c-7.877-5.6-14.925-12.347-20.931-19.915
	c-18.548-23.374-26.308-53.737-26.7-83.192c-0.036-2.707-0.213-5.552,0.46-8.199c0.057-0.227,0.131-0.45,0.2-0.674
	c0.104-0.341,0.213-0.681,0.341-1.015c1.823-4.736,6.081-8.441,10.266-11.085c9.756-6.163,20.928-9.14,32.137-11.349
	c4.88-0.962,9.972-1.751,15.198-2.37c1.051-0.124,2.107-0.241,3.166-0.352c0.041-0.004,0.081-0.009,0.122-0.013
	c2.152-0.223,4.316-0.419,6.489-0.585c-3.619-2.99-7.319-6.948-9.31-11.665H384.405V251.351h138.559l-10.122-26.754
	c-0.636-1.685-0.27-3.583,0.946-4.908c1.216-1.325,3.078-1.852,4.806-1.365l50.73,14.309c0,0,26.968-33.393,26.979-33.405
	c0.1-0.123,0.217-0.22,0.326-0.33c0.121-0.122,0.23-0.252,0.376-0.372c0.05-0.04,0.107-0.065,0.158-0.103
	c0.205-0.152,0.412-0.297,0.632-0.412c0.077-0.04,0.161-0.064,0.24-0.1c0.203-0.092,0.407-0.183,0.619-0.245
	c0.103-0.03,0.211-0.041,0.316-0.064c0.194-0.043,0.388-0.089,0.584-0.108c0.111-0.01,0.223-0.001,0.334-0.003
	c0.194-0.004,0.388-0.013,0.581,0.006c0.114,0.011,0.225,0.043,0.338,0.062c0.187,0.032,0.375,0.059,0.558,0.114
	c0.135,0.04,0.264,0.104,0.396,0.157c0.153,0.061,0.31,0.112,0.456,0.189c0.169,0.089,0.327,0.207,0.487,0.318
	c0.095,0.066,0.198,0.115,0.304,0.204c0.115,0.093,0.206,0.204,0.309,0.306c0.128,0.125,0.262,0.239,0.389,0.393l26.971,33.393
	l50.73-14.309c1.737-0.484,3.593,0.04,4.806,1.365c1.216,1.328,1.582,3.224,0.946,4.908l-10.123,26.754h138.558v87.631
	c9.058-0.811,18.307,7.236,26.856,23.404c7.98,15.091,14.554,35.776,18.516,58.238c4.249,24.126,7.992,53.184-1.057,76.712
	c-3.642,9.469-12.334,19.36-23.444,14.712c-10.013-4.19-16.343-15.698-20.871-24.913v195.403H625.401
	c3.55,4.387,9.276,8.023,11.93,9.379c0.151,0.077,0.281,0.178,0.42,0.269c0.031,0.017,0.074,0.041,0.108,0.059
	c2.479,1.344,4.878,2.925,7.118,4.641c0.066,0.05,0.131,0.102,0.197,0.153c0.437,0.338,0.872,0.683,1.314,1.05
	c0.136,0.017,0.271,0.016,0.407,0.046c13.743,2.944,41.016,8.869,40.473,27.644c0.001,28.635-5.74,50.607-13.876,67.398
	c-0.064,0.132-0.131,0.259-0.195,0.39c-14.037,28.695-35.054,42.096-46.248,47.496c-0.032,0.015-0.064,0.031-0.095,0.046
	c-0.605,0.299-1.153,0.546-1.702,0.795c-0.225,0.101-0.466,0.214-0.676,0.315l8.526,18.267c0.028,0.06,0.034,0.124,0.06,0.185
	c0.096,0.231,0.169,0.467,0.232,0.719c0.023,0.093,0.048,0.184,0.079,0.327c0.008,0.047,0.027,0.09,0.033,0.14
	c0.038,0.279,0.04,0.554,0.029,0.827c-0.001,0.034,0.006,0.07,0.004,0.104c-0.022,0.358-0.09,0.712-0.192,1.058
	c-0.027,0.092-0.068,0.178-0.101,0.267c-0.09,0.248-0.197,0.49-0.329,0.724c-0.029,0.052-0.042,0.11-0.073,0.16l-4.599,7.481
	l-9.394,15.28l0.003,44.414c4.236,0.301,8.456,0.719,12.611,1.244c0.211,0.027,0.425,0.051,0.636,0.078
	c0.759,0.098,1.513,0.205,2.266,0.31c11.631,1.637,23.695,4.121,34.529,8.762c7.344,3.147,16.845,8.41,19.375,16.479
	C688.625,960.175,688.829,961.331,688.891,962.489z M806.064,462.828c-1.324-4.207-2.517-8.451-3.578-12.641l-43.854,7.73
	l-0.003,0.001l-12.779,10.785l-7.819,6.599c-0.05,0.042-0.11,0.066-0.161,0.106c-0.085,0.066-0.18,0.117-0.268,0.177
	c-0.014,0.009-0.027,0.018-0.041,0.027c0,0-0.001,0-0.001,0c-0.094,0.062-0.185,0.131-0.282,0.186
	c-0.1,0.056-0.197,0.118-0.302,0.168c-0.127,0.06-0.26,0.106-0.393,0.155c-0.088,0.032-0.178,0.059-0.268,0.086
	c-0.039,0.012-0.077,0.027-0.116,0.037c-0.071,0.019-0.137,0.051-0.209,0.067c-0.315,0.069-0.64,0.11-0.975,0.114
	c-0.002,0-0.005,0.001-0.007,0.001c-0.002,0-0.002,0-0.004,0c-0.017,0-0.032,0-0.046,0c-0.008,0-0.016-0.002-0.023-0.002
	c-0.078,0-0.15-0.019-0.226-0.023c-0.014-0.001-0.027-0.005-0.041-0.005c-0.005-0.001-0.011-0.001-0.017-0.002
	c-0.255-0.017-0.505-0.045-0.748-0.1c-0.009-0.002-0.018-0.002-0.026-0.003c-0.005-0.001-0.009-0.003-0.014-0.004
	c-0.031-0.007-0.062-0.005-0.093-0.013l-18.83-4.846c0,0,0,0,0,0c-1.133,5.029-3.538,13.075-8.505,22.285l67.237,116.459
	c0.853,1.474,0.853,3.292,0,4.766c-0.85,1.474-2.423,2.383-4.126,2.383H642.593c6.019,4.118,14.628,11.72,14.628,21.526
	c0,14.809-19.525,22.447-20.356,22.767c-0.046,0.017-0.093,0.01-0.139,0.026c-0.038,0.016-0.071,0.04-0.109,0.055
	c-0.225,0.087-0.478,0.191-0.75,0.308c-0.007,0.003-0.012,0.005-0.019,0.008c-3.628,1.57-11.033,5.764-12.987,10.999h183.203
	V462.828z M656.625,561.271c0,14.809-19.531,22.444-20.362,22.764c-0.04,0.015-0.081,0.008-0.121,0.022
	c-0.02,0.008-0.038,0.016-0.059,0.024c-0.007,0.003-0.012,0.005-0.019,0.008c-4.083,1.718-13.692,7.123-13.692,13.638
	c0,3.556,2.73,7.126,5.952,10.062H761.29l-60.533-104.846c-10.028,14.496-26.625,30.227-54.015,41.176
	C652.252,549.604,656.625,555.693,656.625,561.271z M628.048,529.351c2.7,1.764,6.578,4.441,10.611,7.638
	c2.827-1.025,5.537-2.105,8.135-3.233c0.122-7.431,0.227-30.555-2.685-47.065c-0.456-2.594,1.275-5.063,3.866-5.523
	c2.566-0.45,5.066,1.272,5.523,3.866c2.599,14.742,2.923,33.789,2.879,44.088c4.005-2.148,7.716-4.401,11.109-6.743
	c-0.176-5.045-0.932-24.518-2.478-33.278c-0.456-2.594,1.275-5.063,3.866-5.523c2.563-0.459,5.067,1.272,5.523,3.866
	c1.226,6.954,1.964,19.489,2.341,27.757c3.859-3.35,7.252-6.774,10.182-10.189c-0.002-0.172-0.018-0.341-0.001-0.516
	c0.011-0.124,1.037-11.045-1.064-27.368c-0.319-2.475-0.705-5.067-1.182-7.772c-0.456-2.594,1.275-5.063,3.866-5.523
	c0.208-0.036,0.413-0.036,0.619-0.045c2.356-0.102,4.484,1.528,4.904,3.911c0.383,2.172,0.7,4.257,0.985,6.289
	c0.937,6.686,1.388,12.575,1.569,17.393c1.569-2.697,2.894-5.289,4.009-7.733c4.389-9.625,5.55-16.845,5.746-18.305
	c-0.072-1.513-0.432-7.787-1.75-15.251c-1.346-7.634-3.602-16.049-4.143-18.021c-1.062-2.062-6.342-11.51-17.805-21.145
	c1.841,5.847,3.826,13.308,5.38,22.117c0.456,2.594-1.275,5.063-3.866,5.523c-0.279,0.05-0.558,0.071-0.835,0.071
	c-2.268,0-4.278-1.626-4.688-3.937c-3.217-18.26-8.43-30.522-9.64-33.211c-4.003-2.262-8.445-4.375-13.36-6.235
	c1.879,6.023,4.327,14.203,5.921,20.774c0.496,2.047,0.919,3.953,1.204,5.566c0.456,2.594-1.275,5.063-3.866,5.523
	c-0.279,0.05-0.558,0.071-0.835,0.071c-0.412,0-0.799-0.109-1.186-0.211c-1.743-0.458-3.167-1.835-3.502-3.726
	c-0.191-1.08-0.458-2.332-0.766-3.666c-2.101-9.104-6.526-23.013-8.092-27.85c-2.891-0.741-5.935-1.373-9.094-1.916
	c-1.496-0.257-3.013-0.496-4.57-0.703c3.401,9.089,10.264,28.509,13.029,44.192c0.456,2.594-1.275,5.063-3.866,5.523
	c-0.279,0.05-0.558,0.071-0.835,0.071c-2.268,0-4.278-1.626-4.688-3.937c-3.219-18.272-12.667-42.861-14.221-46.831
	c-7.234-0.373-15.066-0.192-23.505,0.641c3.894,3.867,7.732,9.287,11.432,16.247c7.958,14.97,14.508,35.49,18.439,57.779
	C631.111,488.042,631.589,512.04,628.048,529.351z M578.421,382.398c0.613-0.504,1.345-0.878,2.182-1.027
	c0.721-0.127,1.411-0.217,2.125-0.335c1.642-0.272,3.286-0.544,4.89-0.77c6.504-0.916,13.07-1.499,19.636-1.699
	c1.257-0.038,2.496-0.059,3.725-0.068c0.745-0.006,1.486-0.008,2.221-0.004c3.269,0.022,6.545,0.137,9.807,0.371
	c0.379,0.027,0.75,0.061,1.127,0.091c1.507,0.12,3.001,0.253,4.462,0.416c0.238,0.027,0.47,0.059,0.707,0.087
	c0.059,0.007,0.117,0.015,0.177,0.022L600,328.425L438.709,607.788h133.969c-1.842-2.998-3.075-6.368-3.075-10.059
	c0-8.59,6.209-14.634,13.02-18.906c6.632-4.16,17.811-6.801,20.65-14.96c5.09-14.633-20.964-21.496-28.054-29.466
	c-0.176-0.198-0.354-0.393-0.526-0.596c-3.405-4.018-6.614-10.561-5.383-16.117c0.045-0.206,0.107-0.409,0.162-0.614
	c0.182-0.666,0.408-1.325,0.69-1.975c0.06-0.141,0.115-0.284,0.18-0.424c0.775-1.669,1.839-3.272,3.088-4.794
	c-0.068-0.196-0.129-0.399-0.196-0.596c-1.836-5.372-3.516-10.955-4.996-16.764c-0.047-0.184-0.087-0.375-0.133-0.559
	c-0.716-2.823-1.396-5.686-2.023-8.599c-0.333-1.549-0.617-3.143-0.925-4.715c-0.315-1.61-0.659-3.193-0.946-4.827
	c-0.483-2.74-0.921-5.489-1.315-8.237c-0.014-0.094-0.025-0.188-0.039-0.282c-1.208-8.466-1.983-16.998-2.274-25.545
	c-0.006-0.175-0.014-0.354-0.02-0.529C559.662,410.605,564.826,386.64,578.421,382.398z M714.007,448.436
	c0.963,5.478,1.443,10.257,1.682,13.342l14.296,3.681c-0.263-5.593-0.852-14.03-2.174-21.521
	c-1.295-7.348-3.353-15.145-4.851-20.394l-12.549,8.793C711.379,436.057,712.938,442.385,714.007,448.436z M737.199,442.281
	c1.172,6.651,1.801,13.844,2.138,19.445l12.03-10.152l-3.87-21.951l-14.543-5.751C734.381,429.085,736.054,435.789,737.199,442.281z
	 M806.064,368.157c-1.797,9.882-2.469,23.286-1.041,39.916c0.352-0.391,0.697-0.784,1.041-1.178
	c4.193-4.799,7.787-9.796,9.531-13.589c0.863-1.878,1.282-3.464,1.086-4.576c-0.456-2.591,1.275-5.063,3.866-5.523
	c2.566-0.45,5.067,1.272,5.523,3.866c1.246,7.06-4.667,16.258-10.474,23.336c-4.013,4.892-7.977,8.781-9.491,10.215
	c-0.012,0.011-0.028,0.017-0.04,0.028c-0.67,0.623-1.505,1.045-2.408,1.207l-46.406,8.18l3.154,17.886l45.66-8.048l0.745-0.131
	c0.987-0.164,1.995-0.034,2.892,0.397c1.089,0.524,3.244,1.594,5.895,3.066c8.379,4.653,21.853,13.415,23.437,22.399
	c0.456,2.594-1.275,5.063-3.866,5.523c-2.591,0.453-5.063-1.272-5.523-3.866c-0.591-3.351-7.009-8.53-14.048-12.952
	c-0.851-0.535-1.709-1.057-2.57-1.565c0.828,2.995,1.688,5.84,2.57,8.573c9.457,29.308,21.642,43.575,27.833,42.441
	c9.118-1.607,16.63-33.384,8.15-81.48c-3.791-21.513-10.028-41.202-17.554-55.44c-7.676-14.52-14.458-18.982-17.97-18.336
	c-0.153,0.027-0.306,0.122-0.459,0.168C811.879,349.79,808.187,356.482,806.064,368.157z M525.1,230.061l8.055,21.29l3.606,9.531
	l3.126,8.262h58.735c0.482,0,0.939,0.093,1.378,0.227c0.439-0.133,0.895-0.227,1.378-0.227h58.735l3.126-8.262l3.606-9.531
	l8.055-21.29l-44.659,12.596c-1.834,0.518-3.804-0.105-5.001-1.592L600,209.819l-25.236,31.247
	c-1.198,1.486-3.174,2.107-5.001,1.592L525.1,230.061z M589.963,652.794c0.06-0.023,0.122-0.029,0.182-0.049
	c0.024-0.01,0.044-0.025,0.069-0.035c2.544-0.985,8.318-3.945,11.68-7.914c1.528-1.805,2.558-3.818,2.558-5.949
	c0-0.096-0.023-0.191-0.027-0.287c-0.293-7.025-11.095-14.114-14.921-16.067c-0.151-0.077-0.279-0.179-0.418-0.27
	c-1.394-0.748-4.315-2.44-7.492-4.905H430.456c-1.703,0-3.276-0.909-4.126-2.383c-0.853-1.474-0.853-3.292,0-4.766l169.543-293.659
	c0.85-1.474,2.423-2.383,4.126-2.383s3.276,0.909,4.126,2.383l37.523,64.992c35.955,7.781,55.203,28.649,63.133,39.697
	c0.056,0.079,0.113,0.157,0.168,0.235c0.524,0.736,1.016,1.442,1.439,2.079c0,0,0.001,0.001,0.001,0.001l16.509-11.566
	c0.048-0.034,0.105-0.05,0.154-0.082c0.002-0.001,0.004-0.003,0.006-0.004c0.204-0.132,0.422-0.244,0.65-0.344
	c0.004-0.002,0.009-0.004,0.012-0.006c0.012-0.006,0.023-0.013,0.036-0.019c0.089-0.039,0.174-0.086,0.265-0.119
	c0.001,0,0.002-0.001,0.003-0.001c0.012-0.004,0.025-0.005,0.036-0.009c0.04-0.014,0.073-0.036,0.112-0.049
	c0.233-0.075,0.466-0.112,0.7-0.15c0.021-0.003,0.041-0.012,0.062-0.015c0.012-0.002,0.026-0.006,0.038-0.008
	c0.041-0.006,0.08-0.021,0.122-0.026c0.002,0,0.004,0,0.007,0c0,0,0,0,0,0c0.356-0.04,0.709-0.033,1.056,0.006
	c0.001,0,0.002,0,0.002,0.001c0.003,0,0.007,0,0.01,0c0.081,0.009,0.159,0.032,0.24,0.045c0.01,0.002,0.019,0.006,0.029,0.008
	c0.008,0.002,0.016,0.003,0.024,0.005c0.242,0.043,0.478,0.104,0.709,0.183c0.021,0.007,0.043,0.009,0.063,0.016
	c0.007,0.002,0.013,0.006,0.02,0.008c0.042,0.016,0.087,0.017,0.129,0.034l14.701,5.813l10.142,4.01L789,414.764l6.971-1.228
	c0,0,0,0,0-0.001c-0.158-1.517-0.296-3.035-0.424-4.552c-1.364-16.133-1.026-32.073,1.554-44.673
	c1.814-8.859,4.739-16.053,8.963-20.497v-82.931H673.431l-5.568,14.716c-0.701,1.852-2.476,3.078-4.458,3.078h-62.027
	c-0.482,0-0.939-0.093-1.378-0.227c-0.439,0.133-0.895,0.227-1.378,0.227h-62.027c-1.983,0-3.757-1.226-4.458-3.078l-5.568-14.716
	H393.936v412.125h175.879C571.866,659.874,589.183,653.094,589.963,652.794z M576.499,746.262
	c7.428,0.714,15.221,1.089,23.206,1.089c0.006,0,0.012,0,0.019,0c8.035-0.001,15.502-0.384,22.457-1.02
	c0.143-0.133,0.277-0.274,0.44-0.392c1.607-1.163,3.304-2.327,5.035-3.512c9.851-6.742,20.04-13.713,20.036-25.748
	c-0.003-7.12-11.07-14.377-14.948-16.357c-0.151-0.077-0.279-0.179-0.418-0.27c-3.135-1.683-14.007-8.084-17.989-17.514
	c-0.919-2.176-1.493-4.503-1.493-6.981c0-0.877,0.079-1.724,0.208-2.55c2.049-13.133,19.369-19.916,20.151-20.216
	c0.063-0.024,0.128-0.03,0.191-0.052c0.02-0.008,0.037-0.021,0.057-0.029c3.692-1.427,14.238-7.043,14.238-13.865
	c0-7.161-11.064-14.384-14.942-16.351c-0.157-0.079-0.29-0.184-0.434-0.278c-1.397-0.75-4.309-2.438-7.479-4.897
	c-3.161-2.453-6.545-5.671-8.917-9.531c-1.843-2.999-3.077-6.37-3.077-10.062c0-14.809,19.531-22.444,20.362-22.764
	c0.063-0.024,0.129-0.031,0.192-0.052c4.078-1.712,13.698-7.121,13.698-13.639c0-5.572-13.937-17.62-26.847-25.587
	c-1.515-0.934-2.301-2.578-2.239-4.238c-0.018-0.437,0.002-0.879,0.111-1.325c2.574-10.561,3.3-24.855,2.229-40.569l-26.799,16.353
	c-0.023,0.014-0.048,0.017-0.071,0.031c-0.03,0.018-0.054,0.042-0.085,0.059c-7.027,3.943-14.855,10.726-14.855,14.154
	c0,7.12,11.067,14.377,14.945,16.357c0.151,0.077,0.279,0.179,0.418,0.27c3.858,2.072,19.482,11.279,19.482,24.495
	c0,14.809-19.525,22.447-20.356,22.767c-0.047,0.018-0.095,0.01-0.142,0.026c-4.04,1.684-13.752,7.113-13.752,13.666
	c0,3.555,2.728,7.124,5.949,10.059c3.266,2.977,7.04,5.302,8.993,6.292c0.157,0.08,0.29,0.184,0.434,0.278
	c0.996,0.535,2.754,1.535,4.839,2.961c6.019,4.117,14.631,11.72,14.633,21.529c0,14.809-19.531,22.444-20.362,22.764
	c-0.043,0.016-0.086,0.009-0.129,0.024c-0.042,0.017-0.077,0.044-0.119,0.06c-3.225,1.25-11.644,5.678-13.748,11.312
	c-0.309,0.827-0.486,1.68-0.486,2.553c0,2.386,1.241,4.775,3.023,6.978c3.566,4.409,9.333,8.061,11.919,9.373
	c0.144,0.073,0.266,0.171,0.4,0.257c3.822,2.049,19.503,11.268,19.503,24.508c0.003,14.485-18.633,22.09-20.228,22.716
	C592.697,739.875,585.359,743.171,576.499,746.262z M583.388,834.938c1.497,0.191,7.739,0.926,15.324,0.926
	c7.747,0,16.424-0.761,18.462-0.95c2.256-0.706,12.807-4.404,24.497-14.51c-6.277,0.882-14.503,1.65-24.164,1.651
	c-2.631,0-4.766-2.131-4.766-4.766c0-2.631,2.131-4.766,4.766-4.766c20.859-0.003,34.857-3.853,34.994-3.894
	c0.186-0.051,0.372-0.067,0.558-0.095c2.684-3.357,5.298-7.12,7.772-11.316c-8.196,1.049-20.008,2.392-26.796,2.392
	c-2.631,0-4.766-2.135-4.766-4.766s2.135-4.766,4.766-4.766c8.361,0,25.908-2.327,32.142-3.192
	c1.721-3.831,3.307-7.956,4.722-12.387c-10.03,1.823-29.152,4.894-44.326,4.894c-2.631,0-4.766-2.135-4.766-4.766
	s2.135-4.766,4.766-4.766c17.036,0,40.211-4.245,47.132-5.592c1.656-7.113,2.878-14.91,3.544-23.458
	c-15.531,10.591-46.653,16.066-77.525,16.068c-0.006,0-0.012,0-0.019,0c-22.627,0-43.964-2.885-60.085-8.123
	c-7.213-2.343-13.042-5.058-17.47-8.078c0.7,8.543,1.979,16.341,3.704,23.461c3.662,0.74,30,5.913,48.775,5.913
	c2.631,0,4.766,2.135,4.766,4.766s-2.135,4.766-4.766,4.766c-15.962,0-36.327-3.401-45.841-5.169
	c1.456,4.385,3.078,8.478,4.84,12.28c4.318,0.611,24.403,3.385,33.542,3.385c2.631,0,4.766,2.135,4.766,4.766
	c0,2.631-2.135,4.766-4.766,4.766c-7.141,0-19.812-1.482-28.014-2.548c2.697,4.45,5.554,8.41,8.479,11.929
	c0.037,0.009,0.075,0.009,0.112,0.019c0.136,0.04,14.138,3.891,34.997,3.891c2.631,0,4.766,2.135,4.766,4.766
	s-2.135,4.766-4.766,4.766c-9.218,0-17.108-0.7-23.268-1.53C571.229,830.734,581.59,834.364,583.388,834.938z M579.173,858.176
	c5.553,0.713,13.965,1.597,21.574,1.597c7.46,0,15.494-0.673,20.923-1.237l-6.482-13.885c-3.832,0.309-10.333,0.745-16.477,0.745
	c-5.563,0-10.351-0.357-13.43-0.658L579.173,858.176z M589.135,881.646h22.286l8.191-13.326c-5.382,0.5-12.273,0.984-18.864,0.984
	c-6.754,0-13.948-0.629-19.524-1.27L589.135,881.646z M679.41,963.241c0-7.047-19.315-17.68-55.687-21.092
	c5.828,6.16,12.832,12.088,16.706,12.088c2.631,0,4.766,2.135,4.766,4.766s-2.135,4.766-4.766,4.766
	c-11.898,0-27.16-18.774-30.098-22.537c-0.651-0.838-1.008-1.868-1.008-2.932l-0.003-47.122h-18.162v47.122
	c0,1.064-0.354,2.094-1.008,2.932c-2.938,3.763-18.2,22.54-30.095,22.54c-2.631,0-4.766-2.135-4.766-4.766s2.135-4.766,4.766-4.766
	c3.862,0,10.833-5.891,16.648-12.031c-35.902,3.506-54.947,14.147-54.944,21.041c0,9.258,29.99,22.171,78.827,22.171
	C649.424,985.418,679.41,972.499,679.41,963.241z M346.835,140.704c5.617,0,10.188,4.57,10.188,10.188
	c0,2.428,1.969,4.397,4.397,4.397c2.428,0,4.397-1.969,4.397-4.397c0-5.618,4.571-10.188,10.189-10.188
	c2.429,0,4.397-1.969,4.397-4.397c0-2.428-1.969-4.397-4.397-4.397c-5.618,0-10.189-4.571-10.189-10.188
	c0-2.428-1.969-4.397-4.397-4.397c-2.428,0-4.397,1.969-4.397,4.397c0,5.618-4.571,10.188-10.188,10.188
	c-2.428,0-4.397,1.969-4.397,4.397C342.438,138.735,344.407,140.704,346.835,140.704z M428.05,193.014
	c5.617,0,10.188,4.57,10.188,10.188c0,2.428,1.969,4.397,4.397,4.397s4.397-1.969,4.397-4.397c0-5.618,4.571-10.188,10.189-10.188
	c2.429,0,4.397-1.969,4.397-4.397c0-2.428-1.969-4.397-4.397-4.397c-5.618,0-10.189-4.571-10.189-10.188
	c0-2.428-1.969-4.397-4.397-4.397s-4.397,1.969-4.397,4.397c0,5.618-4.571,10.188-10.188,10.188c-2.428,0-4.397,1.969-4.397,4.397
	C423.652,191.046,425.621,193.014,428.05,193.014z M823.744,140.704c5.619,0,10.189,4.57,10.189,10.188
	c0,2.428,1.969,4.397,4.397,4.397s4.397-1.969,4.397-4.397c0-5.618,4.57-10.188,10.187-10.188c2.429,0,4.397-1.969,4.397-4.397
	c0-2.428-1.969-4.397-4.397-4.397c-5.617,0-10.187-4.571-10.187-10.188c0-2.428-1.969-4.397-4.397-4.397s-4.397,1.969-4.397,4.397
	c0,5.618-4.57,10.188-10.189,10.188c-2.428,0-4.396,1.969-4.396,4.397C819.347,138.735,821.316,140.704,823.744,140.704z
	 M742.529,193.014c5.619,0,10.189,4.57,10.189,10.188c0,2.428,1.969,4.397,4.397,4.397c2.428,0,4.397-1.969,4.397-4.397
	c0-5.618,4.57-10.188,10.188-10.188c2.428,0,4.396-1.969,4.396-4.397c0-2.428-1.969-4.397-4.396-4.397
	c-5.618,0-10.188-4.571-10.188-10.188c0-2.428-1.969-4.397-4.397-4.397c-2.428,0-4.397,1.969-4.397,4.397
	c0,5.618-4.57,10.188-10.189,10.188c-2.428,0-4.396,1.969-4.396,4.397C738.133,191.046,740.101,193.014,742.529,193.014z
	 M376.651,732.846c-2.428,0-4.397,1.969-4.397,4.397c0,5.618-4.57,10.188-10.188,10.188c-2.428,0-4.397,1.969-4.397,4.397
	c0,2.428,1.969,4.397,4.397,4.397c5.618,0,10.188,4.57,10.188,10.188c0,2.428,1.969,4.397,4.397,4.397s4.397-1.969,4.397-4.397
	c0-5.618,4.57-10.188,10.189-10.188c2.428,0,4.397-1.969,4.397-4.397c0-2.428-1.969-4.397-4.397-4.397
	c-5.618,0-10.189-4.571-10.189-10.188C381.049,734.815,379.08,732.846,376.651,732.846z M414.112,845.284
	c-5.618,0-10.189-4.571-10.189-10.189c0-2.428-1.969-4.397-4.397-4.397c-2.428,0-4.396,1.969-4.396,4.397
	c0,5.618-4.571,10.189-10.188,10.189c-2.429,0-4.397,1.969-4.397,4.397s1.969,4.397,4.397,4.397c5.617,0,10.188,4.57,10.188,10.188
	c0,2.428,1.969,4.397,4.396,4.397c2.429,0,4.397-1.969,4.397-4.397c0-5.618,4.571-10.188,10.189-10.188
	c2.428,0,4.397-1.969,4.397-4.397S416.54,845.284,414.112,845.284z M822.628,849.681c0-2.428-1.969-4.397-4.397-4.397
	c-5.618,0-10.189-4.571-10.189-10.189c0-2.428-1.969-4.397-4.397-4.397s-4.397,1.969-4.397,4.397
	c0,5.618-4.571,10.189-10.188,10.189c-2.428,0-4.397,1.969-4.397,4.397s1.969,4.397,4.397,4.397c5.617,0,10.188,4.57,10.188,10.188
	c0,2.428,1.969,4.397,4.397,4.397s4.397-1.969,4.397-4.397c0-5.618,4.571-10.188,10.189-10.188
	C820.66,854.078,822.628,852.109,822.628,849.681z M499.384,903.234c-5.619,0-10.189-4.571-10.189-10.189
	c0-2.428-1.969-4.397-4.397-4.397c-2.428,0-4.397,1.969-4.397,4.397c0,5.618-4.57,10.189-10.188,10.189
	c-2.428,0-4.397,1.969-4.397,4.397c0,2.428,1.969,4.397,4.397,4.397c5.617,0,10.188,4.57,10.188,10.188
	c0,2.428,1.969,4.397,4.397,4.397c2.428,0,4.397-1.969,4.397-4.397c0-5.618,4.57-10.188,10.189-10.188
	c2.428,0,4.396-1.969,4.396-4.397C503.78,905.202,501.812,903.234,499.384,903.234z M729.656,903.234
	c-5.619,0-10.189-4.571-10.189-10.189c0-2.428-1.969-4.397-4.397-4.397s-4.397,1.969-4.397,4.397c0,5.618-4.57,10.189-10.188,10.189
	c-2.428,0-4.397,1.969-4.397,4.397c0,2.428,1.969,4.397,4.397,4.397c5.618,0,10.188,4.57,10.188,10.188
	c0,2.428,1.969,4.397,4.397,4.397s4.397-1.969,4.397-4.397c0-5.618,4.57-10.188,10.189-10.188c2.428,0,4.397-1.969,4.397-4.397
	C734.052,905.202,732.083,903.234,729.656,903.234z M385.137,956.608c-5.618,0-10.189-4.571-10.189-10.188
	c0-2.428-1.969-4.397-4.396-4.397c-2.429,0-4.397,1.969-4.397,4.397c0,5.618-4.57,10.188-10.188,10.188
	c-2.428,0-4.396,1.969-4.396,4.397s1.969,4.397,4.396,4.397c5.618,0,10.188,4.57,10.188,10.188c0,2.428,1.969,4.397,4.397,4.397
	c2.428,0,4.396-1.969,4.396-4.397c0-5.618,4.571-10.188,10.189-10.188c2.428,0,4.397-1.969,4.397-4.397
	S387.566,956.608,385.137,956.608z M847.908,956.608c-5.619,0-10.19-4.571-10.19-10.188c0-2.428-1.969-4.397-4.397-4.397
	s-4.397,1.969-4.397,4.397c0,5.618-4.571,10.188-10.188,10.188c-2.428,0-4.397,1.969-4.397,4.397s1.969,4.397,4.397,4.397
	c5.617,0,10.188,4.57,10.188,10.188c0,2.428,1.969,4.397,4.397,4.397s4.397-1.969,4.397-4.397c0-5.618,4.571-10.188,10.19-10.188
	c2.428,0,4.396-1.969,4.396-4.397S850.336,956.608,847.908,956.608z M823.47,732.846c-2.428,0-4.397,1.969-4.397,4.397
	c0,5.618-4.571,10.188-10.188,10.188c-2.428,0-4.397,1.969-4.397,4.397c0,2.428,1.969,4.397,4.397,4.397
	c5.617,0,10.188,4.57,10.188,10.188c0,2.428,1.969,4.397,4.397,4.397c2.428,0,4.397-1.969,4.397-4.397
	c0-5.618,4.571-10.188,10.189-10.188c2.429,0,4.397-1.969,4.397-4.397c0-2.428-1.969-4.397-4.397-4.397
	c-5.618,0-10.189-4.571-10.189-10.188C827.867,734.815,825.898,732.846,823.47,732.846z M353.599,393.048
	c0-5.618,4.571-10.188,10.189-10.188c2.428,0,4.397-1.969,4.397-4.397c0-2.428-1.969-4.397-4.397-4.397
	c-5.618,0-10.189-4.571-10.189-10.189c0-2.428-1.969-4.397-4.396-4.397c-2.429,0-4.397,1.969-4.397,4.397
	c0,5.618-4.571,10.189-10.188,10.189c-2.428,0-4.397,1.969-4.397,4.397c0,2.428,1.969,4.397,4.397,4.397
	c5.617,0,10.188,4.57,10.188,10.188c0,2.428,1.969,4.397,4.397,4.397C351.63,397.444,353.599,395.476,353.599,393.048z
	 M865.506,578.413c-5.619,0-10.189-4.571-10.189-10.189c0-2.428-1.969-4.397-4.397-4.397s-4.397,1.969-4.397,4.397
	c0,5.618-4.57,10.189-10.188,10.189c-2.428,0-4.397,1.969-4.397,4.397s1.969,4.397,4.397,4.397c5.617,0,10.188,4.57,10.188,10.188
	c0,2.428,1.969,4.397,4.397,4.397s4.397-1.969,4.397-4.397c0-5.618,4.57-10.188,10.189-10.188c2.428,0,4.396-1.969,4.396-4.397
	S867.934,578.413,865.506,578.413z"/>
</svg>
