<?xml version="1.0" encoding="utf-8"?>
<!-- Generator: Adobe Illustrator 23.0.3, SVG Export Plug-In . SVG Version: 6.00 Build 0)  -->
<svg version="1.1" id="Capa_1" xmlns="http://www.w3.org/2000/svg" xmlns:xlink="http://www.w3.org/1999/xlink" x="0px" y="0px"
	 viewBox="0 0 1200 1200" enable-background="new 0 0 1200 1200" xml:space="preserve">
<path fill="hsl(290, 13%, 29%)" d="M884.561,59.489c7.556,0,14.399,3.056,19.361,8.001c4.972,4.955,8.053,11.807,8.065,19.381l0.858,512.606
	l0.857,512.606c0.013,7.574-3.046,14.436-8.001,19.408c-4.955,4.972-11.807,8.053-19.381,8.066l-285.418,0.477l-285.417,0.478
	c-0.015,0-0.031,0-0.046,0c-7.557,0-14.4-3.056-19.362-8.001c-4.972-4.955-8.053-11.807-8.066-19.381l-0.857-512.606l-0.857-512.606
	c-0.013-7.574,3.046-14.436,8.001-19.408c4.955-4.972,11.807-8.053,19.381-8.066l285.417-0.477l285.418-0.477
	C884.529,59.489,884.546,59.489,884.561,59.489 M884.562,50h-0.048l-285.434,0.477l-285.417,0.477
	c-9.86,0.016-19.125,3.872-26.086,10.856c-6.961,6.984-10.785,16.261-10.769,26.122l0.857,512.606l0.857,512.606
	c0.017,9.86,3.872,19.124,10.856,26.086c6.968,6.945,16.223,10.769,26.06,10.769l285.479-0.478l285.418-0.477
	c9.862-0.017,19.126-3.872,26.086-10.857c6.961-6.984,10.786-16.261,10.769-26.122l-0.857-512.606l-0.858-512.606
	c-0.016-9.86-3.872-19.124-10.856-26.086C903.652,53.824,894.398,50,884.562,50L884.562,50z M386.91,1066.084h-32.799
	c-1.466,0-2.713,0.521-3.733,1.566c-1.023,1.023-1.535,2.254-1.535,3.698c0,1.445,0.512,2.678,1.535,3.702
	c1.02,1.023,2.266,1.531,3.733,1.531h11.132v34.132c0,1.469,0.512,2.713,1.535,3.736c1.042,1.02,2.288,1.531,3.733,1.531
	s2.678-0.511,3.698-1.531c1.023-1.023,1.535-2.266,1.535-3.736v-34.132h11.167c1.445,0,2.688-0.508,3.732-1.531
	c1.023-1.023,1.535-2.257,1.535-3.702c0-1.445-0.512-2.675-1.535-3.698C389.597,1066.604,388.354,1066.084,386.91,1066.084z
	 M443.474,1066.084c-1.445,0-2.678,0.521-3.702,1.566c-1.02,1.023-1.531,2.254-1.531,3.698v14.434h-22.333v-14.434
	c0-1.445-0.512-2.675-1.535-3.698c-1.02-1.045-2.254-1.566-3.698-1.566c-1.466,0-2.713,0.521-3.733,1.566
	c-1.023,1.023-1.535,2.254-1.535,3.698v39.365c0,1.469,0.512,2.713,1.535,3.736c1.02,1.02,2.266,1.531,3.733,1.531
	c1.445,0,2.678-0.511,3.698-1.531c1.023-1.023,1.535-2.266,1.535-3.736v-14.431h22.333v14.431c0,1.469,0.512,2.713,1.531,3.736
	c1.023,1.02,2.257,1.531,3.702,1.531s2.688-0.511,3.732-1.531c1.023-1.023,1.535-2.266,1.535-3.736v-39.365
	c0-1.445-0.512-2.675-1.535-3.698C446.162,1066.604,444.918,1066.084,443.474,1066.084z M503.972,1076.58
	c1.445,0,2.688-0.508,3.733-1.531c1.023-1.023,1.535-2.257,1.535-3.702c0-1.445-0.512-2.675-1.535-3.698
	c-1.045-1.045-2.288-1.566-3.733-1.566h-32.799c-1.466,0-2.713,0.521-3.732,1.566c-1.023,1.023-1.535,2.254-1.535,3.698v39.365
	c0,1.469,0.512,2.713,1.535,3.736c1.02,1.02,2.266,1.531,3.732,1.531h32.799c1.445,0,2.688-0.511,3.733-1.531
	c1.023-1.023,1.535-2.266,1.535-3.736c0-1.442-0.512-2.675-1.535-3.698c-1.045-1.023-2.288-1.535-3.733-1.535h-27.566v-9.198h21
	c1.445,0,2.688-0.511,3.733-1.535c1.023-1.02,1.535-2.254,1.535-3.698c0-1.466-0.512-2.713-1.535-3.733
	c-1.045-1.023-2.288-1.535-3.733-1.535h-21v-9.201H503.972z M622.032,1066.648c-1.311-0.645-1.969-0.967-1.969-0.967
	s-0.688,0.223-2.065,0.67c-1.355,0.465-2.368,1.342-3.035,2.632l-14.998,30l-3.965-7.933l8.665-17.367
	c0.667-1.29,0.766-2.623,0.301-3.999c-0.468-1.38-1.345-2.39-2.635-3.035c-1.287-0.645-2.62-0.744-3.999-0.298
	c-1.376,0.465-2.387,1.342-3.032,2.632l-5.168,10.333l-5.134-10.267c-0.667-1.308-1.677-2.189-3.032-2.632
	c-1.38-0.468-2.722-0.378-4.033,0.267c-1.29,0.645-2.167,1.655-2.632,3.032c-0.446,1.38-0.347,2.725,0.298,4.033l8.668,17.302
	l-3.968,7.933l-14.998-29.934c-0.645-1.308-1.655-2.189-3.035-2.632c-1.376-0.468-2.722-0.378-4.03,0.267
	c-1.29,0.645-2.158,1.655-2.601,3.032c-0.468,1.38-0.378,2.725,0.267,4.033l19.698,39.334c0.446,0.89,1.088,1.587,1.934,2.099
	c0.843,0.533,1.767,0.8,2.765,0.8c1.001,0,1.922-0.267,2.768-0.8c0.843-0.511,1.488-1.209,1.931-2.099l5.134-10.302l5.168,10.302
	c0.443,0.89,1.088,1.587,1.931,2.099c0.846,0.533,1.767,0.8,2.768,0.8c0.977,0,1.888-0.267,2.731-0.8
	c0.846-0.511,1.491-1.209,1.934-2.099l19.698-39.399c0.645-1.29,0.747-2.623,0.301-3.999
	C624.199,1068.303,623.319,1067.293,622.032,1066.648z M660.464,1066.084c-6.867,0-12.744,2.443-17.633,7.332
	c-4.864,4.867-7.298,10.745-7.298,17.633c0,6.867,2.434,12.744,7.298,17.633c4.889,4.864,10.767,7.297,17.633,7.297
	c6.888,0,12.766-2.433,17.633-7.297c4.889-4.889,7.332-10.767,7.332-17.633c0-6.888-2.443-12.766-7.332-17.633
	C673.23,1068.526,667.352,1066.084,660.464,1066.084z M670.697,1101.248c-2.846,2.821-6.256,4.232-10.233,4.232
	s-7.378-1.411-10.199-4.232c-2.821-2.821-4.232-6.222-4.232-10.199s1.411-7.378,4.232-10.199c2.821-2.846,6.222-4.269,10.199-4.269
	s7.388,1.423,10.233,4.269c2.821,2.821,4.235,6.222,4.235,10.199S673.519,1098.427,670.697,1101.248z M740.927,1093.448
	c1.578-2.778,2.368-5.766,2.368-8.965c0-5.069-1.801-9.399-5.4-13.002c-3.599-3.599-7.933-5.397-12.999-5.397h-19.667
	c-1.466,0-2.713,0.521-3.732,1.566c-1.023,1.023-1.535,2.254-1.535,3.698v39.365c0,1.469,0.511,2.713,1.535,3.736
	c1.02,1.02,2.266,1.531,3.732,1.531c1.445,0,2.678-0.511,3.698-1.531c1.023-1.023,1.534-2.266,1.534-3.736v-7.865h12.267
	l11.597,11.601c1.023,1.02,2.257,1.531,3.702,1.531s2.688-0.511,3.732-1.531c1.023-1.023,1.535-2.266,1.535-3.736
	c0-1.442-0.512-2.675-1.535-3.698l-7.034-7.034C737.349,1098.315,739.417,1096.136,740.927,1093.448z M730.461,1090.047
	c-1.531,1.535-3.388,2.3-5.565,2.3h-14.434v-15.767h14.434c2.176,0,4.033,0.778,5.565,2.334c1.556,1.535,2.334,3.388,2.334,5.568
	C732.795,1086.637,732.017,1088.494,730.461,1090.047z M789.325,1105.479h-21v-34.132c0-1.445-0.512-2.675-1.535-3.698
	c-1.02-1.045-2.254-1.566-3.698-1.566c-1.466,0-2.713,0.521-3.732,1.566c-1.023,1.023-1.535,2.254-1.535,3.698v39.365
	c0,1.469,0.512,2.713,1.535,3.736c1.02,1.02,2.266,1.531,3.732,1.531h26.233c1.445,0,2.688-0.511,3.732-1.531
	c1.023-1.023,1.535-2.266,1.535-3.736c0-1.442-0.511-2.675-1.535-3.698C792.013,1105.991,790.77,1105.479,789.325,1105.479z
	 M826.188,1066.084h-13.098c-1.466,0-2.713,0.521-3.732,1.566c-1.023,1.023-1.535,2.254-1.535,3.698v39.365
	c0,1.469,0.511,2.713,1.535,3.736c1.02,1.02,2.266,1.531,3.732,1.531h13.098c6.888,0,12.766-2.433,17.633-7.297
	c4.889-4.889,7.335-10.767,7.335-17.633c0-6.888-2.446-12.766-7.335-17.633C838.955,1068.526,833.077,1066.084,826.188,1066.084z
	 M836.422,1101.248c-2.821,2.821-6.231,4.232-10.233,4.232h-7.865v-28.899h7.865c4.002,0,7.412,1.423,10.233,4.269
	c2.824,2.821,4.235,6.222,4.235,10.199S839.246,1098.427,836.422,1101.248z M538.232,157.345c0.133,1.445,0.756,2.623,1.869,3.533
	c0.955,0.823,2.077,1.234,3.364,1.234c1.624,0,2.967-0.634,4.033-1.9l12.366-14.832l12.366,14.832c1.07,1.266,2.412,1.9,4.033,1.9
	c1.268,0,2.39-0.411,3.367-1.234c1.113-0.91,1.733-2.088,1.869-3.533c0.133-1.445-0.27-2.722-1.203-3.833l-13.597-16.333
	l13.597-16.333c0.933-1.111,1.336-2.389,1.203-3.833c-0.136-1.445-0.756-2.634-1.869-3.567c-1.11-0.933-2.387-1.333-3.832-1.2
	s-2.632,0.756-3.568,1.866l-12.366,14.866l-12.366-14.866c-0.933-1.11-2.12-1.733-3.565-1.866s-2.722,0.267-3.832,1.2
	c-1.113,0.933-1.736,2.122-1.869,3.567c-0.133,1.445,0.267,2.722,1.2,3.833l13.6,16.333l-13.6,16.333
	C538.499,154.623,538.099,155.901,538.232,157.345z M593.464,157.345c0.133,1.445,0.756,2.623,1.866,3.533
	c0.955,0.823,2.077,1.234,3.367,1.234c1.621,0,2.967-0.634,4.033-1.9l12.366-14.832l12.366,14.832c1.066,1.266,2.412,1.9,4.033,1.9
	c1.268,0,2.387-0.411,3.367-1.234c1.11-0.91,1.733-2.088,1.866-3.533s-0.267-2.722-1.2-3.833l-13.6-16.333l13.6-16.333
	c0.933-1.111,1.333-2.389,1.2-3.833c-0.133-1.445-0.756-2.634-1.866-3.567c-1.113-0.933-2.39-1.333-3.835-1.2
	s-2.632,0.756-3.565,1.866l-12.366,14.866l-12.366-14.866c-0.933-1.11-2.124-1.733-3.565-1.866c-1.448-0.133-2.725,0.267-3.835,1.2
	c-1.11,0.933-1.733,2.122-1.866,3.567c-0.133,1.445,0.267,2.722,1.2,3.833l13.6,16.333l-13.6,16.333
	C593.73,154.623,593.33,155.901,593.464,157.345z M656.56,162.112c1.445,0,2.678-0.512,3.701-1.533
	c1.02-1.021,1.531-2.266,1.531-3.734V117.48c0-1.445-0.511-2.677-1.531-3.7c-1.023-1.043-2.257-1.566-3.701-1.566
	c-1.466,0-2.709,0.522-3.733,1.566c-1.023,1.023-1.531,2.255-1.531,3.7v39.365c0,1.468,0.508,2.713,1.531,3.734
	C653.85,161.6,655.093,162.112,656.56,162.112z M896.953,600V87.393c0-3.087-1.202-5.988-3.385-8.171
	c-2.182-2.183-5.084-3.385-8.171-3.385H599.98H314.562c-3.087,0-5.988,1.202-8.17,3.384c-2.183,2.183-3.385,5.085-3.385,8.171V600
	v428.247c0.083,4.425,3.682,7.991,8.127,7.991h577.454c4.497,0,8.404-3.907,8.404-8.404L896.953,600z M312.531,1026.714V600V87.393
	c0-0.559,0.2-1.042,0.595-1.437c0.395-0.395,0.878-0.595,1.436-0.595H599.98h285.418c0.558,0,1.042,0.2,1.437,0.595
	c0.395,0.395,0.595,0.878,0.595,1.437v512.608l0.039,426.713H312.531z M381.827,337.677c0-2.426-1.967-4.393-4.394-4.393
	s-4.393,1.967-4.393,4.393c0,5.613-4.567,10.18-10.18,10.18c-2.426,0-4.393,1.967-4.393,4.393c0,2.426,1.967,4.393,4.393,4.393
	c5.613,0,10.18,4.566,10.18,10.18c0,2.426,1.967,4.393,4.393,4.393s4.394-1.967,4.394-4.393c0-5.613,4.567-10.18,10.181-10.18
	c2.426,0,4.393-1.967,4.393-4.393c0-2.426-1.967-4.393-4.393-4.393C386.394,347.857,381.827,343.29,381.827,337.677z
	 M832.452,337.677c0-2.426-1.967-4.393-4.393-4.393c-2.426,0-4.394,1.967-4.394,4.393c0,5.613-4.567,10.18-10.18,10.18
	c-2.426,0-4.393,1.967-4.393,4.393c0,2.426,1.967,4.393,4.393,4.393c5.613,0,10.18,4.566,10.18,10.18
	c0,2.426,1.967,4.393,4.394,4.393c2.426,0,4.393-1.967,4.393-4.393c0-5.613,4.567-10.18,10.181-10.18
	c2.426,0,4.393-1.967,4.393-4.393c0-2.426-1.967-4.393-4.393-4.393C837.018,347.857,832.452,343.29,832.452,337.677z
	 M361.435,810.931c5.613,0,10.18,4.566,10.18,10.18c0,2.426,1.967,4.393,4.393,4.393c2.427,0,4.394-1.967,4.394-4.393
	c0-5.613,4.567-10.18,10.181-10.18c2.427,0,4.394-1.967,4.394-4.393c0-2.426-1.967-4.393-4.394-4.393
	c-5.613,0-10.181-4.567-10.181-10.18c0-2.426-1.967-4.393-4.394-4.393c-2.426,0-4.393,1.967-4.393,4.393
	c0,5.613-4.567,10.18-10.18,10.18c-2.426,0-4.394,1.967-4.394,4.393C357.041,808.964,359.009,810.931,361.435,810.931z
	 M828.384,791.964c0-2.426-1.967-4.393-4.393-4.393c-2.426,0-4.394,1.967-4.394,4.393c0,5.613-4.567,10.18-10.18,10.18
	c-2.426,0-4.393,1.967-4.393,4.393c0,2.426,1.967,4.393,4.393,4.393c5.613,0,10.18,4.566,10.18,10.18
	c0,2.426,1.967,4.393,4.394,4.393c2.426,0,4.393-1.967,4.393-4.393c0-5.613,4.567-10.18,10.181-10.18
	c2.426,0,4.393-1.967,4.393-4.393c0-2.426-1.967-4.393-4.393-4.393C832.951,802.145,828.384,797.578,828.384,791.964z
	 M402.293,244.273c0-2.426-1.967-4.393-4.394-4.393c-5.613,0-10.181-4.567-10.181-10.18c0-2.426-1.967-4.393-4.393-4.393
	c-2.426,0-4.393,1.967-4.393,4.393c0,5.613-4.567,10.18-10.18,10.18c-2.426,0-4.393,1.967-4.393,4.393s1.967,4.393,4.393,4.393
	c5.613,0,10.18,4.566,10.18,10.18c0,2.426,1.967,4.393,4.393,4.393c2.426,0,4.393-1.967,4.393-4.393
	c0-5.613,4.567-10.18,10.181-10.18C400.326,248.666,402.293,246.699,402.293,244.273z M834.455,239.88
	c-5.613,0-10.181-4.567-10.181-10.18c0-2.426-1.967-4.393-4.393-4.393s-4.393,1.967-4.393,4.393c0,5.613-4.567,10.18-10.18,10.18
	c-2.426,0-4.394,1.967-4.394,4.393s1.967,4.393,4.394,4.393c5.613,0,10.18,4.566,10.18,10.18c0,2.426,1.967,4.393,4.393,4.393
	s4.393-1.967,4.393-4.393c0-5.613,4.567-10.18,10.181-10.18c2.427,0,4.394-1.967,4.394-4.393S836.881,239.88,834.455,239.88z
	 M463.664,279.743c5.613,0,10.18,4.567,10.18,10.18c0,2.426,1.967,4.393,4.393,4.393c2.426,0,4.394-1.967,4.394-4.393
	c0-5.613,4.567-10.18,10.181-10.18c2.426,0,4.393-1.967,4.393-4.393c0-2.426-1.967-4.393-4.393-4.393
	c-5.614,0-10.181-4.567-10.181-10.18c0-2.426-1.967-4.393-4.394-4.393c-2.426,0-4.393,1.967-4.393,4.393
	c0,5.613-4.567,10.18-10.18,10.18c-2.426,0-4.393,1.967-4.393,4.393C459.271,277.776,461.238,279.743,463.664,279.743z
	 M707.189,279.743c5.613,0,10.18,4.567,10.18,10.18c0,2.426,1.967,4.393,4.393,4.393c2.426,0,4.394-1.967,4.394-4.393
	c0-5.613,4.567-10.18,10.181-10.18c2.426,0,4.393-1.967,4.393-4.393c0-2.426-1.967-4.393-4.393-4.393
	c-5.614,0-10.181-4.567-10.181-10.18c0-2.426-1.967-4.393-4.394-4.393c-2.426,0-4.393,1.967-4.393,4.393
	c0,5.613-4.567,10.18-10.18,10.18c-2.427,0-4.394,1.967-4.394,4.393C702.795,277.776,704.762,279.743,707.189,279.743z
	 M482.517,838.715c-5.614,0-10.181-4.567-10.181-10.18c0-2.426-1.967-4.393-4.393-4.393c-2.427,0-4.394,1.967-4.394,4.393
	c0,5.613-4.567,10.18-10.18,10.18c-2.426,0-4.393,1.967-4.393,4.393s1.967,4.393,4.393,4.393c5.613,0,10.18,4.567,10.18,10.18
	c0,2.426,1.967,4.393,4.394,4.393c2.426,0,4.393-1.967,4.393-4.393c0-5.613,4.567-10.18,10.181-10.18
	c2.426,0,4.393-1.967,4.393-4.393S484.943,838.715,482.517,838.715z M746.63,838.715c-5.613,0-10.181-4.567-10.181-10.18
	c0-2.426-1.967-4.393-4.393-4.393s-4.393,1.967-4.393,4.393c0,5.613-4.567,10.18-10.18,10.18c-2.426,0-4.393,1.967-4.393,4.393
	s1.967,4.393,4.393,4.393c5.613,0,10.18,4.567,10.18,10.18c0,2.426,1.967,4.393,4.393,4.393s4.393-1.967,4.393-4.393
	c0-5.613,4.567-10.18,10.181-10.18c2.427,0,4.394-1.967,4.394-4.393S749.057,838.715,746.63,838.715z M585.427,241.809
	c5.613,0,10.18,4.566,10.18,10.18c0,2.426,1.967,4.393,4.393,4.393c2.426,0,4.394-1.967,4.394-4.393
	c0-5.613,4.567-10.18,10.181-10.18c2.426,0,4.393-1.967,4.393-4.393c0-2.426-1.967-4.393-4.393-4.393
	c-5.614,0-10.181-4.567-10.181-10.18c0-2.426-1.967-4.393-4.394-4.393c-2.426,0-4.393,1.967-4.393,4.393
	c0,5.613-4.567,10.18-10.18,10.18c-2.427,0-4.394,1.967-4.394,4.393C581.033,239.842,583,241.809,585.427,241.809z M614.574,888.998
	c-5.614,0-10.181-4.567-10.181-10.18c0-2.426-1.967-4.393-4.394-4.393c-2.426,0-4.393,1.967-4.393,4.393
	c0,5.613-4.567,10.18-10.18,10.18c-2.427,0-4.394,1.967-4.394,4.393c0,2.426,1.967,4.393,4.394,4.393
	c5.613,0,10.18,4.566,10.18,10.18c0,2.426,1.967,4.393,4.393,4.393c2.426,0,4.394-1.967,4.394-4.393
	c0-5.613,4.567-10.18,10.181-10.18c2.426,0,4.393-1.967,4.393-4.393C618.967,890.966,617,888.998,614.574,888.998z M531.148,955.282
	c-5.614,0-10.181-4.567-10.181-10.18c0-2.426-1.967-4.393-4.394-4.393c-2.426,0-4.393,1.967-4.393,4.393
	c0,5.613-4.567,10.18-10.18,10.18c-2.427,0-4.394,1.967-4.394,4.393c0,2.426,1.967,4.393,4.394,4.393
	c5.613,0,10.18,4.566,10.18,10.18c0,2.426,1.967,4.393,4.393,4.393c2.427,0,4.394-1.967,4.394-4.393
	c0-5.613,4.567-10.18,10.181-10.18c2.426,0,4.394-1.967,4.394-4.393C535.542,957.249,533.574,955.282,531.148,955.282z
	 M697.999,955.282c-5.614,0-10.181-4.567-10.181-10.18c0-2.426-1.967-4.393-4.393-4.393s-4.393,1.967-4.393,4.393
	c0,5.613-4.567,10.18-10.18,10.18c-2.426,0-4.393,1.967-4.393,4.393c0,2.426,1.967,4.393,4.393,4.393
	c5.613,0,10.18,4.566,10.18,10.18c0,2.426,1.967,4.393,4.393,4.393s4.393-1.967,4.393-4.393c0-5.613,4.567-10.18,10.181-10.18
	c2.426,0,4.393-1.967,4.393-4.393C702.392,957.249,700.425,955.282,697.999,955.282z M635.16,336.502
	c-3.444-12.854-16.009-17.046-27.216-20.783l-3.112-1.046c-4.198-1.426-7.533-2.99-10.503-4.382
	c-6.12-2.868-12.438-5.833-21.505-4.69c-13.126,1.641-21.549,9.551-25.377,14.084c-53.098,11.639-101.413,41.189-136.202,83.341
	c-36.023,43.654-55.86,98.914-55.86,155.604c0,134.882,109.737,244.617,244.618,244.617s244.615-109.735,244.615-244.617
	C844.617,443.523,745.203,338.592,635.16,336.502z M633.455,354.601c36.879,8.06,76.712,37.334,100.089,60.493
	c32.266,31.957,53.114,86.395,53.114,138.688c0,100.505-81.768,182.273-182.273,182.273s-182.269-81.768-182.269-182.273
	c0-83.415,55.991-155.649,136.441-176.433c5.673,3.914,11.734,5.896,18.049,5.896c11.092-0.002,20.647-5.949,27.746-10.367
	c1.153-0.719,2.26-1.409,3.326-2.034c2.269-1.336,5.087-2.42,7.812-3.467C621.491,365.065,629.39,362.024,633.455,354.601z
	 M600.002,793.723c-129.633,0-235.095-105.462-235.095-235.093c0-54.482,19.066-107.591,53.684-149.543
	c33.785-40.935,80.838-69.504,132.491-80.444l1.724-0.364l1.073-1.4c2.368-3.095,9.071-10.446,20.132-11.828
	c0.967-0.122,1.888-0.18,2.768-0.18c4.873,0,8.621,1.755,13.535,4.058c3.01,1.411,6.758,3.165,11.455,4.763l3.156,1.06
	c12.741,4.25,20.6,7.344,21.524,16.999l0.171,3.939l-0.611,2.108c-1.603,5.558-6.789,7.938-13.938,10.692
	c-2.942,1.13-6.275,2.413-9.217,4.143c-1.128,0.662-2.31,1.397-3.658,2.237c-6.337,3.943-14.22,8.851-22.59,8.852
	c-4.929,0-9.545-1.731-14.115-5.293l-1.82-1.42l-2.241,0.552c-85.866,21.093-145.837,97.67-145.837,186.222
	c0,105.756,86.037,191.796,191.793,191.796s191.796-86.04,191.796-191.796c0-54.706-21.955-111.8-55.935-145.454
	c-10.727-10.626-24.846-22.485-40.575-33.159l11.675-10.178c70.686,34.432,123.747,111.296,123.747,193.638
	C835.093,688.261,729.632,793.723,600.002,793.723z M586.501,333.407c-1.714-6.857-23.428-8.571-23.428-8.571
	C575.644,340.835,586.501,333.407,586.501,333.407z M565.955,364.313c0,0,21.419-3.954,22.414-10.951
	C588.369,353.362,576.801,347.098,565.955,364.313z M849.978,985.224c-0.9-0.649-1.94-0.962-2.97-0.962
	c-1.579,0-3.134,0.734-4.129,2.114c-1.376,1.907-4.14,3.963-6.952,3.963c-0.275,0-0.65,0.023-1.102,0.059
	c-0.405,0.035-0.802,0.063-1.169,0.063c-0.686,0-1.271-0.097-1.628-0.427c-0.323-0.298-1.377-1.612-1.377-6.045
	c0-4.916,3.066-11.063,6.31-17.568c4.58-9.18,9.769-19.584,9.769-31.902c0-12.768-7.76-25.649-25.094-25.649
	c-6.597,0-12.214,2.248-16.241,6.498c-4.474,4.72-6.905,11.98-6.505,19.422c0.185,3.445,0.983,6.644,2.048,9.649
	c-0.449-0.031-0.896-0.069-1.353-0.069c-10.698,0-19.401,8.703-19.401,19.399c0,10.699,8.703,19.402,19.401,19.402
	c10.697,0,19.4-8.703,19.4-19.402c0-3.02-0.714-5.87-1.951-8.422c-0.813-1.984-1.794-3.981-2.809-6.025
	c-2.408-4.85-4.9-9.865-5.179-15.079c-0.197-3.635,0.68-8.663,3.729-11.881c2.119-2.238,5.017-3.324,8.86-3.324
	c13.849,0,14.925,11.848,14.925,15.479c0,9.924-4.423,18.79-8.7,27.363c-3.794,7.607-7.379,14.794-7.379,22.107
	c0,6.131,1.569,10.686,4.661,13.53c2.878,2.648,6.278,3.108,8.586,3.108c0.803,0,1.474-0.056,1.945-0.093l0.255-0.027
	c6.864,0,12.479-4.409,15.201-8.187C852.77,990.044,852.255,986.866,849.978,985.224z M799.584,973.002
	c-5.09,0-9.231-4.141-9.231-9.233c0-5.088,4.141-9.229,9.231-9.229c3.591,0,6.676,2.082,8.201,5.083
	c0.613,1.563,1.03,2.987,1.03,4.146C808.815,968.861,804.674,973.002,799.584,973.002z M423.961,913.656
	c-8.881,0-13.833,7.414-18.621,14.586c-5.212,7.806-10.136,15.179-19.763,15.179c-9.628,0-14.551-7.373-19.763-15.179
	c-4.788-7.172-9.74-14.586-18.621-14.586c-2.677,0-4.846,2.171-4.846,4.846c0,2.676,2.169,4.846,4.846,4.846
	c3.45,0,6.291,3.884,10.562,10.276c3.235,4.845,6.914,10.346,12.105,14.267c-8.637,5.308-14.429,14.815-14.429,25.676
	c0,16.624,13.524,30.147,30.147,30.147c16.622,0,30.146-13.523,30.146-30.147c0-10.86-5.792-20.368-14.429-25.676
	c5.191-3.921,8.87-9.422,12.105-14.267c4.27-6.392,7.112-10.276,10.562-10.276c2.677,0,4.846-2.171,4.846-4.846
	C428.808,915.827,426.638,913.656,423.961,913.656z M406.031,973.567c0,11.279-9.177,20.454-20.454,20.454
	c-11.278,0-20.454-9.175-20.454-20.454c0-11.279,9.177-20.454,20.454-20.454C396.855,953.113,406.031,962.288,406.031,973.567z
	 M343.293,136.99c0.751,0,1.51-0.205,2.189-0.632l16.14-10.195l3.726,8.389c0.501,1.124,1.478,1.967,2.666,2.294
	c0.359,0.099,0.727,0.148,1.092,0.148c0.839,0,1.669-0.257,2.372-0.753l13.844-9.772l3.329,7.995
	c0.479,1.151,1.459,2.024,2.658,2.369c0.372,0.108,0.754,0.16,1.134,0.16c0.841,0,1.674-0.258,2.375-0.752l13.945-9.845l3.621,8.156
	c0.683,1.531,2.184,2.441,3.761,2.441c0.557,0,1.124-0.112,1.667-0.353c2.075-0.924,3.009-3.354,2.088-5.428l-5.658-12.733
	c-0.501-1.124-1.478-1.967-2.666-2.294c-0.358-0.1-0.726-0.149-1.092-0.149c-0.839,0-1.671,0.258-2.372,0.754l-13.846,9.775
	l-3.33-7.998c-0.479-1.151-1.459-2.024-2.658-2.369c-0.372-0.107-0.755-0.16-1.136-0.16c-0.839,0-1.671,0.256-2.373,0.751
	l-13.943,9.845l-3.622-8.156c-0.487-1.089-1.421-1.916-2.564-2.264c-0.388-0.117-0.789-0.175-1.188-0.175
	c-0.77,0-1.535,0.214-2.201,0.632l-20.161,12.733c-1.919,1.213-2.494,3.753-1.282,5.672
	C340.595,136.316,341.931,136.99,343.293,136.99z M345.482,168.408l16.14-10.193l3.726,8.386c0.501,1.124,1.478,1.967,2.666,2.294
	c0.358,0.099,0.724,0.147,1.089,0.147c0.84,0,1.671-0.258,2.375-0.752l13.844-9.772l3.329,7.995
	c0.482,1.151,1.459,2.024,2.658,2.369c0.372,0.107,0.753,0.159,1.134,0.159c0.841,0,1.675-0.257,2.375-0.751l13.945-9.842
	l3.621,8.153c0.683,1.531,2.184,2.441,3.761,2.441c0.557,0,1.124-0.112,1.667-0.353c2.075-0.923,3.009-3.354,2.088-5.428
	l-5.658-12.73c-0.501-1.124-1.478-1.967-2.666-2.294c-0.358-0.098-0.725-0.147-1.09-0.147c-0.84,0-1.672,0.256-2.373,0.752
	l-13.846,9.772l-3.33-7.995c-0.482-1.151-1.459-2.024-2.658-2.369c-0.372-0.107-0.755-0.16-1.136-0.16
	c-0.839,0-1.671,0.256-2.373,0.751l-13.943,9.842l-3.622-8.153c-0.487-1.092-1.421-1.916-2.564-2.264
	c-0.388-0.117-0.789-0.175-1.188-0.175c-0.77,0-1.535,0.214-2.201,0.632l-20.161,12.73c-1.919,1.213-2.494,3.753-1.282,5.672
	c0.783,1.24,2.12,1.915,3.482,1.915C344.044,169.041,344.803,168.837,345.482,168.408z M855.497,171.587
	c-0.951-0.861-2.146-1.286-3.336-1.286c-1.353,0-2.7,0.549-3.68,1.629c-1.609,1.773-1.609,4.346-0.254,6.21
	c-5.638-0.777-7.508-3.246-7.508-11.068v-37.194c0-12.668-2.131-20.521-12.744-20.521c-3.567,0-7.849,2.054-11.469,5.942
	c-1.826-3.809-5.038-5.942-10.548-5.942c-3.785,0-8.378,2.312-12.128,6.68c-2.945-5.99-7.207-8.066-7.916-8.374
	c-0.648-0.279-1.33-0.411-2.003-0.411c-1.935,0-3.799,1.096-4.607,2.963c-1.09,2.519-0.008,5.408,2.51,6.498
	c0.202,0.103,4.934,2.704,4.934,13.166v40.557c0,2.743,2.224,4.968,4.968,4.968c2.744,0,4.967-2.225,4.967-4.968v-33.413
	c0-12.811,7.644-17.659,9.274-17.73c0.916,0,1.319,0.058,1.417,0.058c0.021,0,0.028-0.003,0.024-0.009
	c0.157,0.174,1.368,1.809,1.368,10.536v40.557c0,2.743,2.224,4.968,4.967,4.968c2.744,0,4.968-2.225,4.968-4.968v-33.413
	c0-12.811,7.643-17.659,9.273-17.73c0.916,0,1.318,0.058,1.417,0.058c0.021,0,0.029-0.003,0.024-0.009
	c0.154,0.171,1.368,1.799,1.368,10.537v37.194c0,16.444,8.936,20.218,18.072,21.089l-0.078,0.072
	c-2.008,1.869-2.123,5.013-0.254,7.021c0.978,1.051,2.306,1.585,3.639,1.585c1.211,0,2.424-0.44,3.381-1.329l9.038-8.406
	c1.019-0.948,1.593-2.28,1.585-3.671c-0.008-1.391-0.6-2.713-1.63-3.648L855.497,171.587z M657.786,475.049l10.04,2.412
	l-3.755,8.993c-0.216,0.518-0.1,1.115,0.296,1.514c0.266,0.269,0.623,0.412,0.988,0.412c0.176,0,0.353-0.033,0.524-0.102
	l9.078-3.693l2.413,10.045c0.131,0.546,0.577,0.959,1.132,1.048c0.074,0.012,0.147,0.017,0.22,0.017c0.476,0,0.927-0.245,1.182-0.66
	l5.696-9.226l7.596,6.858c0.261,0.236,0.595,0.358,0.932,0.358c0.211,0,0.424-0.048,0.621-0.147c0.512-0.256,0.815-0.8,0.763-1.37
	l-0.966-10.543l9.938,1.483c0.069,0.01,0.137,0.015,0.206,0.015c0.498,0,0.964-0.267,1.212-0.711
	c0.282-0.504,0.224-1.13-0.147-1.573l-6.789-8.101l9.154-5.161c0.505-0.285,0.78-0.852,0.691-1.424
	c-0.089-0.572-0.524-1.03-1.09-1.147l-10.54-2.195l4.215-9.29c0.24-0.527,0.127-1.148-0.283-1.557
	c-0.408-0.409-1.029-0.522-1.557-0.283l-9.021,4.094l-2.286-10.378c-0.123-0.559-0.576-0.986-1.142-1.074
	c-0.565-0.088-1.128,0.178-1.416,0.673l-5.286,9.059l-8.175-6.74c-0.434-0.357-1.038-0.419-1.534-0.157
	c-0.496,0.262-0.786,0.796-0.735,1.355l0.883,9.722l-9.851-0.772c-0.558-0.047-1.09,0.253-1.346,0.753
	c-0.256,0.5-0.186,1.104,0.177,1.532l6.325,7.455l-8.818,6.004c-0.455,0.309-0.684,0.858-0.585,1.399
	S657.251,474.92,657.786,475.049z M557.854,498.498l0.425-0.424c0.543-0.543,0.543-1.423,0-1.966l-4.887-4.887
	c-0.543-0.543-1.423-0.543-1.966,0l-13.228,13.228c-0.543,0.543-0.543,1.423,0,1.966l4.887,4.887
	c0.271,0.271,0.627,0.407,0.983,0.407c0.356,0,0.711-0.136,0.983-0.407l0.694-0.694l43.428,42.29l-47.505,48.784l-1.133-1.133
	c-0.543-0.543-1.423-0.543-1.966,0l-46.986,46.986c-0.543,0.543-0.543,1.423,0,1.966l12.019,12.02
	c0.261,0.261,0.614,0.407,0.983,0.407c0.369,0,0.722-0.147,0.983-0.407l15.662-15.662c0.011-0.009,0.023-0.016,0.034-0.025
	c0.032-0.029,0.056-0.062,0.084-0.093l7.992-7.992c0.029-0.023,0.061-0.042,0.09-0.068c0.066-0.061,0.124-0.128,0.176-0.198
	l19.286-19.286c0.093-0.06,0.182-0.128,0.261-0.212c0.062-0.066,0.116-0.138,0.163-0.212l3.238-3.238
	c0.26-0.261,0.407-0.614,0.407-0.983c0-0.369-0.147-0.722-0.407-0.983l-1.481-1.481L600,563.441l48.927,47.645l-1.481,1.481
	c-0.261,0.261-0.408,0.614-0.408,0.983c0,0.369,0.147,0.722,0.408,0.983l3.238,3.238c0.047,0.074,0.1,0.145,0.163,0.212
	c0.079,0.084,0.168,0.152,0.261,0.212l19.286,19.286c0.052,0.07,0.11,0.137,0.176,0.198c0.028,0.026,0.06,0.045,0.09,0.068
	l7.992,7.992c0.028,0.031,0.052,0.064,0.084,0.093c0.011,0.01,0.023,0.016,0.034,0.025l15.662,15.662
	c0.261,0.261,0.614,0.407,0.983,0.407c0.368,0,0.722-0.147,0.983-0.407l12.02-12.02c0.543-0.543,0.543-1.423,0-1.966l-46.986-46.986
	c-0.543-0.543-1.423-0.543-1.966,0l-1.133,1.133l-47.506-48.784l43.428-42.29l0.693,0.694c0.272,0.271,0.628,0.407,0.983,0.407
	c0.356,0,0.711-0.136,0.983-0.407l4.887-4.887c0.543-0.543,0.543-1.423,0-1.966l-13.228-13.228c-0.543-0.543-1.423-0.543-1.965,0
	l-4.887,4.887c-0.543,0.543-0.543,1.423,0,1.966l0.424,0.424L600,541.778L557.854,498.498z M501.035,472.081l-6.788,8.101
	c-0.371,0.443-0.429,1.069-0.147,1.573c0.248,0.443,0.715,0.711,1.212,0.711c0.068,0,0.137-0.005,0.206-0.015l9.938-1.483
	l-0.966,10.543c-0.053,0.57,0.25,1.114,0.762,1.37c0.197,0.099,0.41,0.147,0.621,0.147c0.337,0,0.671-0.122,0.932-0.358l7.595-6.858
	l5.696,9.226c0.256,0.414,0.706,0.66,1.182,0.66c0.074,0,0.147-0.006,0.221-0.017c0.553-0.089,1.001-0.502,1.132-1.048l2.413-10.045
	l9.078,3.693c0.17,0.069,0.348,0.102,0.523,0.102c0.365,0,0.722-0.143,0.988-0.412c0.395-0.399,0.512-0.996,0.295-1.514
	l-3.755-8.993l10.04-2.412c0.535-0.128,0.944-0.56,1.043-1.102c0.1-0.541-0.131-1.09-0.585-1.399l-8.819-6.004l6.325-7.455
	c0.364-0.428,0.433-1.033,0.177-1.532c-0.256-0.5-0.788-0.8-1.346-0.753l-9.851,0.772l0.883-9.722
	c0.051-0.559-0.24-1.093-0.735-1.355c-0.496-0.262-1.1-0.201-1.533,0.157l-8.176,6.74l-5.286-9.059
	c-0.288-0.494-0.851-0.76-1.416-0.673c-0.566,0.089-1.019,0.515-1.142,1.074l-2.286,10.378l-9.021-4.094
	c-0.528-0.239-1.149-0.126-1.558,0.283c-0.409,0.41-0.522,1.03-0.283,1.557l4.216,9.29l-10.541,2.195
	c-0.567,0.118-1.001,0.575-1.09,1.147c-0.089,0.572,0.187,1.14,0.691,1.424L501.035,472.081z"/>
</svg>
