<svg version="1.1" id="Capa_1" xmlns="http://www.w3.org/2000/svg" xmlns:xlink="http://www.w3.org/1999/xlink" x="0px" y="0px" viewBox="0 0 1200 1200" enable-background="new 0 0 1200 1200" xml:space="preserve">
<path fill="#4e3d57" d="M911.797,60.831C904.813,53.847,895.526,50,885.648,50H600H314.352c-9.878,0-19.165,3.847-26.149,10.831&#xA;&#9;c-6.985,6.985-10.831,16.272-10.831,26.149V600v513.019c0,9.878,3.846,19.164,10.831,26.149c6.985,6.985,16.272,10.832,26.15,10.832&#xA;&#9;H600h285.648c9.878,0,19.165-3.847,26.149-10.832c6.985-6.984,10.831-16.271,10.831-26.149V600V86.981&#xA;&#9;C922.628,77.103,918.781,67.816,911.797,60.831z M913.097,600v513.019c0,7.58-3.072,14.443-8.04,19.41&#xA;&#9;c-4.967,4.968-11.83,8.04-19.41,8.04H600H314.352c-7.58,0-14.442-3.072-19.41-8.04c-4.967-4.967-8.04-11.83-8.04-19.41V600V86.981&#xA;&#9;c0-7.58,3.072-14.442,8.04-19.41c4.968-4.968,11.83-8.04,19.41-8.04H600h285.648c7.58,0,14.443,3.072,19.41,8.04&#xA;&#9;c4.968,4.967,8.04,11.83,8.04,19.41V600z M608.541,439.616c-0.096-1.896-0.236-8.383,1.939-12.289&#xA;&#9;c1.275-2.305,4.185-3.137,6.478-1.849c2.302,1.278,3.13,4.179,1.849,6.478c-0.524,0.946-0.881,4.372-0.748,7.189&#xA;&#9;c0.124,2.628-1.902,4.862-4.527,4.989c-0.081,0.006-0.158,0.006-0.236,0.006C610.772,444.139,608.668,442.163,608.541,439.616z&#xA;&#9; M582.783,856.109c-1.672-2.029-1.325-5.082,0.707-6.757c0.707-0.586,4.657-3.518,12.727-3.776&#xA;&#9;c7.66-0.285,12.376,2.252,12.888,2.535c2.302,1.275,3.137,4.176,1.862,6.478c-1.269,2.284-4.139,3.118-6.429,1.889&#xA;&#9;c-0.152-0.078-3.174-1.477-8.017-1.378c-4.88,0.158-7.003,1.638-7.089,1.7c-0.875,0.723-1.921,1.07-2.96,1.07&#xA;&#9;C585.101,857.871,583.736,857.263,582.783,856.109z M605.035,864.74c0,1.654-0.794,5.535-8.15,5.836&#xA;&#9;c-0.192,0.006-0.379,0.012-0.562,0.012c-3.67,0-5.755-1.542-6.326-2.035c-1.995-1.719-2.215-4.728-0.496-6.72&#xA;&#9;c1.589-1.849,4.3-2.178,6.283-0.835c0.105,0.028,0.338,0.078,0.707,0.053c0.357-0.012,0.63-0.037,0.838-0.059&#xA;&#9;c0.81-0.639,1.831-1.018,2.941-1.018C602.9,859.975,605.035,862.109,605.035,864.74z M572.861,885.627&#xA;&#9;c-1.79-1.88-1.781-4.812,0.065-6.636c0.422-0.416,4.278-4.061,10.242-4.061c5.43,0,8.132,1.831,8.83,2.389l-5.969,7.434&#xA;&#9;c0,0,0.09,0.099,0.31,0.22c-0.009-0.006-0.949-0.512-3.171-0.512c-2.082,0-3.587,1.353-3.602,1.365&#xA;&#9;c-0.922,0.844-2.097,1.266-3.267,1.266C575.042,887.091,573.789,886.604,572.861,885.627z M622.378,875.245&#xA;&#9;c2.206,1.433,2.836,4.384,1.405,6.593c-1.433,2.206-4.381,2.833-6.593,1.405c-4.266-2.774-7.12-0.745-7.896-0.059&#xA;&#9;c-0.915,0.813-2.069,1.219-3.22,1.219c-1.278,0-2.55-0.503-3.481-1.505c-1.762-1.902-1.719-4.831,0.146-6.633&#xA;&#9;C605.69,873.424,613.586,869.546,622.378,875.245z M610.269,726.049c5.163,28.578,1.945,41.348,1.806,41.879&#xA;&#9;c-0.562,2.138-2.491,3.552-4.604,3.552c-0.4,0-0.81-0.05-1.216-0.158c-2.535-0.667-4.052-3.255-3.404-5.789&#xA;&#9;c0.062-0.264,2.727-11.843-1.964-37.789c-4.536-25.103-5.454-39.732-4.099-65.232c0.14-2.625,2.324-4.558,5.014-4.505&#xA;&#9;c2.628,0.14,4.645,2.386,4.505,5.014C604.995,687.657,605.885,701.793,610.269,726.049z M551.652,776.54&#xA;&#9;c-0.971-1.055-9.429-11.154-7.235-40.268c1.036-13.701,2.268-24.982,3.258-34.045c1.589-14.542,2.637-24.15,1.502-30.576&#xA;&#9;c-0.456-2.591,1.272-5.063,3.866-5.523c2.575-0.447,5.063,1.272,5.523,3.866c1.371,7.763,0.261,17.911-1.415,33.269&#xA;&#9;c-0.984,8.991-2.206,20.182-3.227,33.728c-1.874,24.814,4.753,33.104,4.821,33.185c1.651,1.986,1.455,4.977-0.49,6.677&#xA;&#9;c-0.915,0.8-2.041,1.201-3.161,1.201C553.83,778.054,552.58,777.548,551.652,776.54z M546.328,582.502&#xA;&#9;c1.219,2.33,0.316,5.209-2.014,6.429c-3.332,1.744-7.549,4.415-8.517,5.616c-0.943,1.17-2.321,1.775-3.714,1.775&#xA;&#9;c-1.049,0-2.107-0.344-2.988-1.055c-2.051-1.654-2.37-4.654-0.72-6.702c2.665-3.307,9.494-7.021,11.523-8.079&#xA;&#9;C542.226,579.266,545.109,580.166,546.328,582.502z M624.352,892.387c1.095-2.339,3.872-3.438,6.249-2.411&#xA;&#9;c2.367,1.033,3.506,3.708,2.535,6.1c-0.257,0.632-1.541,3.447-5.018,6.562c1.016,2.051,2.203,4.651,2.974,7.009&#xA;&#9;c0.819,2.501-0.546,5.191-3.05,6.01c-0.49,0.161-0.99,0.236-1.48,0.236c-2.007,0-3.872-1.275-4.53-3.286&#xA;&#9;c-0.501-1.534-1.262-3.262-1.998-4.799c-1.022,0.464-2.141,0.901-3.319,1.318c1.295,4.092,2.344,8.623,3.107,13.576&#xA;&#9;c0.4,2.603-1.384,5.036-3.984,5.436c-0.248,0.037-0.49,0.056-0.732,0.056c-2.311,0-4.341-1.685-4.704-4.04&#xA;&#9;c-0.726-4.711-1.713-8.974-2.941-12.729c-0.705,0.114-1.433,0.214-2.175,0.309c0.06,1.058,0.114,2.225,0.146,3.467l0.012,0.599&#xA;&#9;c0.099,3.925,0.211,8.377-0.307,11.653c-0.369,2.346-2.398,4.021-4.7,4.021c-0.248,0-0.5-0.019-0.751-0.059&#xA;&#9;c-2.6-0.41-4.375-2.851-3.962-5.451c0.382-2.417,0.276-6.581,0.192-9.925l-0.016-0.599c-0.026-1.089-0.073-2.124-0.126-3.067&#xA;&#9;c-0.216,0.002-0.45,0.014-0.662,0.014c-0.75,0-1.452-0.025-2.162-0.046c-0.256,1.639-0.483,3.604-0.462,5.445&#xA;&#9;c0.028,2.631-2.082,4.79-4.713,4.818c-0.019,0-0.037,0-0.053,0c-2.609,0-4.738-2.1-4.766-4.713&#xA;&#9;c-0.025-2.262,0.218-4.581,0.509-6.552c-8.957-1.757-12.705-5.17-13.27-5.735c-1.865-1.858-1.865-4.877-0.006-6.739&#xA;&#9;c1.827-1.834,4.775-1.865,6.646-0.096c0.307,0.254,6.646,5.259,24.448,3.826c9.202-0.743,14.867-3.12,18.288-5.395&#xA;&#9;c0.035-0.021,0.062-0.049,0.098-0.069c0.013-0.008,0.027-0.011,0.04-0.018C623.175,894.773,624.267,892.566,624.352,892.387z&#xA;&#9; M661.105,853.112c-1.728-1.986-1.523-4.995,0.462-6.723l12.873-11.216c1.989-1.734,4.995-1.523,6.723,0.462&#xA;&#9;s1.523,4.995-0.462,6.723l-12.873,11.216c-0.903,0.788-2.02,1.173-3.127,1.173C663.37,854.747,662.048,854.194,661.105,853.112z&#xA;&#9; M677.657,867.951l15.479-6.754c2.411-1.052,5.222,0.05,6.273,2.463c1.052,2.411-0.05,5.222-2.463,6.273l-15.479,6.754&#xA;&#9;c-0.621,0.27-1.266,0.397-1.902,0.397c-1.837,0-3.59-1.067-4.372-2.861C674.142,871.814,675.243,869.003,677.657,867.951z&#xA;&#9; M708.382,895.871c0.279,2.619-1.616,4.964-4.232,5.243l-16.658,1.775c-0.174,0.019-0.344,0.028-0.512,0.028&#xA;&#9;c-2.404,0-4.471-1.815-4.731-4.26c-0.279-2.619,1.616-4.964,4.232-5.243l16.658-1.775&#xA;&#9;C705.807,891.342,708.103,893.256,708.382,895.871z M707.262,929.295c-0.459,2.262-2.445,3.822-4.666,3.822&#xA;&#9;c-0.313,0-0.63-0.031-0.949-0.093l-16.285-3.289c-2.581-0.521-4.251-3.037-3.729-5.616c0.524-2.581,3.019-4.232,5.616-3.729&#xA;&#9;l16.285,3.289C706.114,924.201,707.783,926.717,707.262,929.295z M696.148,960.833c-0.869,1.576-2.498,2.463-4.176,2.463&#xA;&#9;c-0.779,0-1.57-0.189-2.299-0.593l-14.483-7.995c-2.305-1.272-3.143-4.173-1.871-6.475c1.272-2.305,4.179-3.143,6.475-1.871&#xA;&#9;l14.483,7.995C696.583,955.63,697.42,958.531,696.148,960.833z M676.23,980.835c1.815,1.905,1.744,4.921-0.164,6.736&#xA;&#9;c-0.921,0.878-2.104,1.315-3.286,1.315c-1.257,0-2.513-0.496-3.45-1.48l-11.421-11.988c-1.815-1.905-1.744-4.921,0.164-6.736&#xA;&#9;c1.899-1.812,4.918-1.744,6.736,0.164L676.23,980.835z M651.055,1000.664c1.16,2.364,0.183,5.219-2.181,6.376&#xA;&#9;c-0.676,0.332-1.39,0.487-2.094,0.487c-1.762,0-3.456-0.98-4.282-2.668l-7.291-14.877c-1.16-2.364-0.183-5.219,2.181-6.376&#xA;&#9;c2.373-1.164,5.222-0.18,6.376,2.181L651.055,1000.664z M621.091,1012.007c0.394,2.6-1.396,5.029-3.999,5.426&#xA;&#9;c-0.242,0.034-0.481,0.053-0.72,0.053c-2.315,0-4.347-1.691-4.707-4.052l-2.501-16.478c-0.394-2.6,1.396-5.029,3.999-5.426&#xA;&#9;c2.584-0.36,5.029,1.396,5.426,3.999L621.091,1012.007z M591.688,997.226l-2.591,16.593c-0.369,2.352-2.395,4.03-4.704,4.03&#xA;&#9;c-0.245,0-0.493-0.019-0.742-0.056c-2.6-0.406-4.378-2.845-3.974-5.445l2.591-16.593c0.41-2.603,2.876-4.356,5.445-3.974&#xA;&#9;C590.313,992.188,592.091,994.626,591.688,997.226z M565.576,990.72l-7.539,15.212c-0.831,1.679-2.519,2.65-4.272,2.65&#xA;&#9;c-0.711,0-1.433-0.158-2.113-0.496c-2.358-1.167-3.323-4.027-2.153-6.385l7.539-15.212c1.17-2.358,4.033-3.326,6.385-2.153&#xA;&#9;C565.781,985.502,566.746,988.362,565.576,990.72z M542.549,969.952c1.899,1.824,1.958,4.843,0.136,6.739l-11.898,12.382&#xA;&#9;c-0.937,0.974-2.187,1.464-3.438,1.464c-1.188,0-2.377-0.441-3.301-1.328c-1.899-1.824-1.958-4.843-0.137-6.739l11.898-12.382&#xA;&#9;C537.641,968.189,540.653,968.133,542.549,969.952z M525.054,956.505l-15.187,8.299c-0.726,0.397-1.511,0.583-2.284,0.583&#xA;&#9;c-1.685,0-3.32-0.897-4.185-2.479c-1.263-2.311-0.413-5.206,1.896-6.469l15.187-8.299c2.311-1.26,5.206-0.413,6.469,1.896&#xA;&#9;C528.212,952.348,527.362,955.242,525.054,956.505z M514.365,931.982l-17.163,3.385c-0.31,0.062-0.621,0.09-0.928,0.09&#xA;&#9;c-2.228,0-4.223-1.573-4.669-3.844c-0.509-2.581,1.173-5.088,3.754-5.597l17.163-3.385c2.56-0.503,5.088,1.17,5.597,3.754&#xA;&#9;C518.628,928.967,516.947,931.473,514.365,931.982z M493.978,903.488c-2.619-0.292-4.502-2.646-4.213-5.262&#xA;&#9;c0.292-2.619,2.712-4.496,5.262-4.213l17.505,1.942c2.619,0.292,4.502,2.646,4.213,5.262c-0.273,2.439-2.336,4.241-4.731,4.241&#xA;&#9;c-0.177,0-0.354-0.009-0.531-0.028L493.978,903.488z M498.046,865.823c1.064-2.408,3.872-3.497,6.286-2.432l16.192,7.151&#xA;&#9;c2.408,1.064,3.497,3.878,2.432,6.286c-0.788,1.781-2.532,2.839-4.362,2.839c-0.642,0-1.297-0.13-1.924-0.406l-16.192-7.151&#xA;&#9;C498.07,871.045,496.981,868.231,498.046,865.823z M516.115,844.142c-1.976-1.737-2.172-4.75-0.434-6.726&#xA;&#9;c1.737-1.973,4.744-2.172,6.726-0.434l13.332,11.718c1.976,1.737,2.172,4.75,0.434,6.726c-0.943,1.07-2.259,1.62-3.583,1.62&#xA;&#9;c-1.117,0-2.237-0.391-3.143-1.185L516.115,844.142z M355.014,108.26c0.329-0.847,1.002-1.517,1.855-1.837&#xA;&#9;c0.853-0.313,1.803-0.258,2.606,0.174c0.192,0.105,19.196,10.589,12.395,37.175c-0.248,0.968-0.934,1.762-1.858,2.144&#xA;&#9;c-0.391,0.164-0.807,0.245-1.219,0.245c-0.558,0-1.117-0.149-1.61-0.437C366.965,145.597,345.619,132.69,355.014,108.26z&#xA;&#9; M397.209,143.146c-0.074-0.242-7.071-24.185,16.372-35.822c0.816-0.406,1.768-0.441,2.606-0.099&#xA;&#9;c0.844,0.344,1.502,1.033,1.803,1.889c0.071,0.208,6.981,20.784-16.009,35.767c-0.521,0.341-1.126,0.515-1.734,0.515&#xA;&#9;c-0.366,0-0.732-0.062-1.086-0.192C398.223,144.865,397.5,144.101,397.209,143.146z M433.915,161.184&#xA;&#9;c-0.084-0.236-7.995-23.896,14.989-36.424c0.8-0.441,1.75-0.512,2.603-0.199c0.856,0.31,1.536,0.974,1.871,1.821&#xA;&#9;c0.081,0.202,7.769,20.496-14.626,36.353c-0.543,0.385-1.188,0.583-1.837,0.583c-0.326,0-0.652-0.05-0.968-0.152&#xA;&#9;C434.995,162.863,434.244,162.127,433.915,161.184z M387.011,286.122c-0.012-0.217-1.151-21.895,25.019-30.16&#xA;&#9;c0.956-0.304,1.989-0.137,2.802,0.444c0.813,0.58,1.306,1.508,1.331,2.507c0.006,0.251,0.323,25.193-25.382,30.12&#xA;&#9;c-0.199,0.037-0.4,0.056-0.599,0.056c-0.698,0-1.381-0.23-1.942-0.661C387.519,287.869,387.073,287.031,387.011,286.122z&#xA;&#9; M433.062,308.352c-0.078-0.205-7.468-20.713,15.283-36.26c0.828-0.562,1.865-0.707,2.811-0.388c0.946,0.32,1.688,1.067,2.001,2.017&#xA;&#9;c0.078,0.239,7.629,24.119-15.649,36.325c-0.459,0.242-0.965,0.363-1.474,0.363c-0.382,0-0.766-0.068-1.129-0.208&#xA;&#9;C434.052,309.875,433.382,309.202,433.062,308.352z M502.082,119.349c0.028-0.999,0.524-1.927,1.34-2.504&#xA;&#9;c0.813-0.583,1.858-0.745,2.802-0.434c0.242,0.074,23.912,7.946,20.142,33.846c-0.13,0.903-0.642,1.703-1.402,2.203&#xA;&#9;c-0.524,0.341-1.129,0.518-1.741,0.518c-0.282,0-0.562-0.037-0.838-0.112C522.174,152.807,501.322,146.779,502.082,119.349z&#xA;&#9; M516.667,283.289c-0.016-0.217-1.371-21.976,24.824-30.532c0.946-0.31,1.992-0.158,2.808,0.416&#xA;&#9;c0.819,0.571,1.319,1.495,1.353,2.494c0.009,0.251,0.574,25.295-25.187,30.495c-0.211,0.04-0.422,0.062-0.63,0.062&#xA;&#9;c-0.686,0-1.359-0.223-1.917-0.642C517.192,285.033,516.736,284.198,516.667,283.289z M559.843,301.126&#xA;&#9;c-0.102-0.195-10.059-19.587,10.515-37.92c0.745-0.664,1.772-0.937,2.736-0.745c0.98,0.195,1.809,0.841,2.243,1.744&#xA;&#9;c0.109,0.227,10.657,22.947-10.865,38.031c-0.54,0.375-1.179,0.574-1.824,0.574c-0.248,0-0.496-0.028-0.742-0.087&#xA;&#9;C561.022,302.51,560.268,301.929,559.843,301.126z M473.476,174.972c-0.137-0.168-13.555-17.229,3.062-39.065&#xA;&#9;c0.605-0.794,1.505-1.145,2.547-1.253c0.999,0.006,1.936,0.481,2.532,1.281c0.149,0.202,14.787,20.406-3.385,39.245&#xA;&#9;c-0.599,0.621-1.427,0.971-2.287,0.971c-0.047,0-0.093,0-0.137-0.003C474.897,176.108,474.05,175.679,473.476,174.972z&#xA;&#9; M333.485,240.35c0.379-0.921,1.17-1.616,2.135-1.868c0.977-0.248,1.995-0.031,2.777,0.586c0.199,0.155,19.552,15.895,6.866,38.785&#xA;&#9;c-0.444,0.797-1.204,1.365-2.094,1.564c-0.226,0.05-0.456,0.074-0.686,0.074c-0.667,0-1.322-0.208-1.868-0.608&#xA;&#9;C340.438,278.756,323.066,265.735,333.485,240.35z M708.317,156.661c-0.105-0.189-10.508-19.345,9.63-38.155&#xA;&#9;c0.729-0.683,1.744-0.993,2.721-0.807c0.984,0.174,1.827,0.797,2.28,1.688c0.115,0.226,11.191,22.695-9.978,38.28&#xA;&#9;c-0.549,0.403-1.21,0.617-1.883,0.617c-0.223,0-0.447-0.025-0.67-0.071C709.527,158.02,708.763,157.455,708.317,156.661z&#xA;&#9; M722.948,273.864c0.115,0.227,11.191,22.692-9.978,38.276c-0.549,0.403-1.21,0.617-1.883,0.617c-0.223,0-0.447-0.025-0.67-0.071&#xA;&#9;c-0.89-0.192-1.654-0.757-2.1-1.551c-0.105-0.189-10.508-19.345,9.63-38.152c0.729-0.683,1.744-0.987,2.721-0.807&#xA;&#9;C721.651,272.35,722.495,272.973,722.948,273.864z M665.38,126.047c0.137-0.99,0.732-1.858,1.607-2.342s1.924-0.524,2.833-0.121&#xA;&#9;c0.233,0.102,22.981,10.589,16.344,36.021c-0.23,0.881-0.828,1.62-1.638,2.032c-0.45,0.226-0.943,0.341-1.437,0.341&#xA;&#9;c-0.397,0-0.794-0.074-1.173-0.223C681.712,161.674,661.573,153.341,665.38,126.047z M766.875,263.495&#xA;&#9;c0.434-0.9,1.263-1.542,2.243-1.737c0.971-0.202,1.995,0.078,2.737,0.748c0.189,0.168,18.665,17.086,4.592,39.285&#xA;&#9;c-0.487,0.769-1.281,1.294-2.181,1.436c-0.168,0.028-0.335,0.04-0.503,0.04c-0.729,0-1.446-0.251-2.017-0.723&#xA;&#9;C771.575,302.404,754.933,288.331,766.875,263.495z M830.738,163.586c-0.034-0.217-3.059-21.805,22.401-32.357&#xA;&#9;c0.925-0.382,1.973-0.307,2.83,0.199c0.862,0.509,1.433,1.39,1.545,2.383c0.028,0.251,2.519,25.174-22.77,32.344&#xA;&#9;c-0.282,0.081-0.574,0.121-0.866,0.121c-0.602,0-1.198-0.171-1.716-0.503C831.396,165.28,830.878,164.485,830.738,163.586z&#xA;&#9; M806.119,142.004c-0.137-0.171-13.453-17.427,3.441-39.201c0.611-0.791,1.616-1.312,2.557-1.229c0.999,0.016,1.933,0.5,2.522,1.306&#xA;&#9;c0.149,0.205,14.654,20.623-3.766,39.375c-0.599,0.608-1.415,0.949-2.265,0.949c-0.056,0-0.112,0-0.168-0.003&#xA;&#9;C807.531,143.152,806.687,142.718,806.119,142.004z M735.669,113.888c-0.186-0.98,0.099-1.992,0.773-2.73&#xA;&#9;c0.673-0.742,1.644-1.139,2.646-1.024c0.251,0.022,25.162,2.671,27.014,28.891c0.065,0.909-0.264,1.799-0.9,2.448&#xA;&#9;c-0.599,0.611-1.418,0.952-2.268,0.952c-0.056,0-0.112,0-0.164-0.003C762.55,142.41,740.804,140.965,735.669,113.888z&#xA;&#9; M813.091,274.968c-0.093-0.199-9.109-20.043,12.314-37.377c0.773-0.63,1.803-0.859,2.771-0.611&#xA;&#9;c0.968,0.242,1.768,0.928,2.156,1.846c0.096,0.233,9.55,23.431-12.671,37.473c-0.512,0.323-1.101,0.49-1.697,0.49&#xA;&#9;c-0.298,0-0.596-0.04-0.887-0.127C814.201,276.408,813.478,275.79,813.091,274.968z M877.63,246.123&#xA;&#9;c0.016,0.251,1.216,25.274-24.411,31.122c-0.236,0.056-0.472,0.081-0.707,0.081c-0.658,0-1.306-0.205-1.852-0.596&#xA;&#9;c-0.738-0.531-1.216-1.353-1.309-2.259c-0.022-0.217-1.924-21.932,24.045-31.153c0.949-0.341,1.989-0.205,2.817,0.344&#xA;&#9;C877.047,244.215,877.572,245.124,877.63,246.123z M365.252,1061.673c1.021,1.024,1.533,2.259,1.533,3.704v39.397&#xA;&#9;c0,1.471-0.512,2.715-1.533,3.735c-1.046,1.024-2.293,1.536-3.739,1.536s-2.681-0.512-3.701-1.536&#xA;&#9;c-1.024-1.021-1.536-2.265-1.536-3.735v-14.446h-22.351v14.446c0,1.471-0.512,2.715-1.533,3.735&#xA;&#9;c-1.024,1.024-2.259,1.536-3.704,1.536c-1.467,0-2.712-0.512-3.736-1.536c-1.024-1.021-1.533-2.265-1.533-3.735v-39.397&#xA;&#9;c0-1.446,0.509-2.681,1.533-3.704c1.024-1.042,2.268-1.564,3.736-1.564c1.446,0,2.681,0.521,3.704,1.564&#xA;&#9;c1.021,1.024,1.533,2.259,1.533,3.704v14.446h22.351v-14.446c0-1.446,0.512-2.681,1.536-3.704c1.021-1.042,2.256-1.564,3.701-1.564&#xA;&#9;S364.207,1060.631,365.252,1061.673z M408.015,1063.007c-0.444-0.887-1.089-1.601-1.933-2.135c-0.847-0.509-1.768-0.763-2.771-0.763&#xA;&#9;c-0.999,0-1.924,0.254-2.767,0.763c-0.847,0.534-1.489,1.247-1.936,2.135l-19.714,39.434c-0.645,1.291-0.735,2.625-0.267,4.002&#xA;&#9;c0.444,1.377,1.322,2.389,2.634,3.034c1.291,0.645,2.625,0.735,4.002,0.267c1.381-0.444,2.392-1.322,3.037-2.634l3.469-6.94h23.052&#xA;&#9;l3.503,6.94c0.444,0.912,1.101,1.635,1.967,2.169c0.844,0.509,1.756,0.766,2.736,0.766c0.822,0,1.601-0.189,2.333-0.568&#xA;&#9;c1.291-0.645,2.169-1.657,2.637-3.034c0.465-1.378,0.366-2.712-0.301-4.002L408.015,1063.007z M397.041,1089.665l6.27-12.544&#xA;&#9;l6.273,12.544H397.041z M481.673,1061.673c1.021,1.024,1.533,2.259,1.533,3.704v39.397c0,1.111-0.323,2.125-0.968,3.034&#xA;&#9;c-0.621,0.912-1.455,1.557-2.501,1.936c-0.58,0.198-1.179,0.301-1.803,0.301c-1.644,0-2.991-0.636-4.036-1.902l-23.552-28.255&#xA;&#9;v24.886c0,1.471-0.512,2.715-1.533,3.735c-1.024,1.024-2.259,1.536-3.704,1.536c-1.467,0-2.712-0.512-3.736-1.536&#xA;&#9;c-1.024-1.021-1.533-2.265-1.533-3.735v-39.397c0-1.111,0.32-2.122,0.965-3.034c0.624-0.89,1.458-1.526,2.504-1.902&#xA;&#9;c1.046-0.379,2.1-0.425,3.168-0.133c1.067,0.289,1.958,0.856,2.668,1.7l23.552,28.255v-24.886c0-1.446,0.512-2.681,1.536-3.704&#xA;&#9;c1.021-1.042,2.256-1.564,3.701-1.564S480.628,1060.631,481.673,1061.673z M544.389,1081.291c1.089,1.046,1.632,2.299,1.632,3.77&#xA;&#9;v0.031c0,6.875-2.445,12.758-7.338,17.647c-4.871,4.871-10.754,7.307-17.647,7.307c-6.872,0-12.755-2.436-17.647-7.307&#xA;&#9;c-4.868-4.89-7.303-10.772-7.303-17.647c0-6.894,2.436-12.776,7.303-17.647c4.893-4.89,10.775-7.334,17.647-7.334&#xA;&#9;c6.894,0,12.776,2.432,17.647,7.303c1.046,1.024,1.567,2.268,1.567,3.736c0,1.446-0.512,2.681-1.533,3.704&#xA;&#9;c-1.024,1.024-2.268,1.533-3.739,1.533c-1.446,0.025-2.677-0.49-3.701-1.533c-2.823-2.823-6.239-4.238-10.242-4.238&#xA;&#9;c-3.981,0-7.384,1.424-10.207,4.269c-2.823,2.826-4.235,6.23-4.235,10.207c0,3.984,1.412,7.384,4.235,10.208&#xA;&#9;c2.823,2.826,6.227,4.238,10.207,4.238c3.025,0,5.771-0.856,8.24-2.569c2.423-1.688,4.17-3.903,5.237-6.64h-13.478&#xA;&#9;c-1.446,0-2.681-0.509-3.701-1.533c-1.024-1.024-1.536-2.259-1.536-3.705s0.512-2.687,1.536-3.735&#xA;&#9;c1.021-1.024,2.256-1.533,3.701-1.533h19.515C542.04,1079.78,543.318,1080.267,544.389,1081.291z M569.405,1070.615v9.208h21.017&#xA;&#9;c1.446,0,2.69,0.509,3.736,1.533c1.024,1.024,1.536,2.271,1.536,3.735c0,1.446-0.512,2.681-1.536,3.705&#xA;&#9;c-1.046,1.024-2.29,1.533-3.736,1.533h-21.017v9.208h27.588c1.446,0,2.693,0.512,3.739,1.533c1.021,1.024,1.533,2.259,1.533,3.705&#xA;&#9;c0,1.471-0.512,2.715-1.533,3.735c-1.046,1.024-2.293,1.536-3.739,1.536h-32.825c-1.467,0-2.712-0.512-3.735-1.536&#xA;&#9;c-1.024-1.021-1.533-2.265-1.533-3.735v-39.397c0-1.446,0.509-2.681,1.533-3.704c1.024-1.042,2.268-1.564,3.735-1.564h32.825&#xA;&#9;c1.446,0,2.693,0.521,3.739,1.564c1.021,1.024,1.533,2.259,1.533,3.704s-0.512,2.681-1.533,3.704&#xA;&#9;c-1.046,1.024-2.293,1.533-3.739,1.533H569.405z M633.52,1060.109h-13.108c-1.468,0-2.715,0.521-3.735,1.564&#xA;&#9;c-1.024,1.024-1.536,2.259-1.536,3.704v39.397c0,1.471,0.512,2.715,1.536,3.735c1.021,1.024,2.268,1.536,3.735,1.536h13.108&#xA;&#9;c6.894,0,12.776-2.436,17.647-7.307c4.893-4.89,7.341-10.772,7.341-17.647c0-6.894-2.448-12.776-7.341-17.647&#xA;&#9;C646.296,1062.554,640.414,1060.109,633.52,1060.109z M643.761,1095.299c-2.823,2.826-6.236,4.238-10.242,4.238h-7.871v-28.922&#xA;&#9;h7.871c4.005,0,7.418,1.424,10.242,4.269c2.826,2.826,4.238,6.23,4.238,10.207C647.999,1089.075,646.588,1092.475,643.761,1095.299z&#xA;&#9; M752.646,1062.443c0.599,0.887,0.9,1.868,0.9,2.935v39.397c0,1.471-0.524,2.715-1.57,3.735c-1.021,1.024-2.256,1.536-3.701,1.536&#xA;&#9;s-2.681-0.512-3.701-1.536c-1.024-1.021-1.536-2.265-1.536-3.735v-26.719l-10.741,10.741c-1.024,1.024-2.268,1.533-3.736,1.533&#xA;&#9;c-1.446,0-2.681-0.509-3.704-1.533l-10.741-10.741v26.719c0,1.471-0.512,2.715-1.536,3.735c-1.021,1.024-2.256,1.536-3.701,1.536&#xA;&#9;c-1.468,0-2.715-0.512-3.736-1.536c-1.024-1.021-1.536-2.265-1.536-3.735v-39.397c0-1.067,0.301-2.048,0.9-2.935&#xA;&#9;c0.58-0.869,1.359-1.514,2.336-1.936c0.977-0.397,1.989-0.5,3.034-0.298c1.046,0.22,1.948,0.71,2.702,1.464l15.981,15.981&#xA;&#9;l16.012-15.981c0.754-0.754,1.644-1.244,2.668-1.464c1.046-0.202,2.057-0.099,3.034,0.298&#xA;&#9;C751.278,1060.928,752.066,1061.574,752.646,1062.443z M794.742,1063.007c-0.444-0.887-1.089-1.601-1.933-2.135&#xA;&#9;c-0.847-0.509-1.768-0.763-2.771-0.763c-0.999,0-1.924,0.254-2.768,0.763c-0.847,0.534-1.489,1.247-1.936,2.135l-19.714,39.434&#xA;&#9;c-0.645,1.291-0.735,2.625-0.267,4.002c0.444,1.377,1.322,2.389,2.634,3.034c1.291,0.645,2.625,0.735,4.002,0.267&#xA;&#9;c1.381-0.444,2.392-1.322,3.037-2.634l3.469-6.94h23.052l3.503,6.94c0.444,0.912,1.101,1.635,1.967,2.169&#xA;&#9;c0.844,0.509,1.756,0.766,2.736,0.766c0.822,0,1.601-0.189,2.333-0.568c1.291-0.645,2.169-1.657,2.637-3.034&#xA;&#9;c0.465-1.378,0.366-2.712-0.301-4.002L794.742,1063.007z M783.768,1089.665l6.27-12.544l6.273,12.544H783.768z M868.4,1061.673&#xA;&#9;c1.021,1.024,1.533,2.259,1.533,3.704v39.397c0,1.111-0.323,2.125-0.968,3.034c-0.621,0.912-1.455,1.557-2.501,1.936&#xA;&#9;c-0.58,0.198-1.179,0.301-1.803,0.301c-1.644,0-2.991-0.636-4.036-1.902l-23.552-28.255v24.886c0,1.471-0.512,2.715-1.533,3.735&#xA;&#9;c-1.024,1.024-2.259,1.536-3.704,1.536c-1.468,0-2.712-0.512-3.736-1.536c-1.024-1.021-1.533-2.265-1.533-3.735v-39.397&#xA;&#9;c0-1.111,0.32-2.122,0.965-3.034c0.624-0.89,1.458-1.526,2.504-1.902c1.046-0.379,2.1-0.425,3.168-0.133&#xA;&#9;c1.067,0.289,1.958,0.856,2.668,1.7l23.552,28.255v-24.886c0-1.446,0.512-2.681,1.536-3.704c1.021-1.042,2.256-1.564,3.701-1.564&#xA;&#9;S867.355,1060.631,868.4,1061.673z M548.509,148.761l13.611-16.344l-13.611-16.347c-0.934-1.111-1.334-2.389-1.201-3.835&#xA;&#9;s0.757-2.637,1.871-3.571c1.111-0.934,2.389-1.334,3.835-1.201c1.446,0.133,2.634,0.757,3.568,1.868l12.376,14.88l12.376-14.88&#xA;&#9;c0.937-1.111,2.125-1.734,3.571-1.868c1.446-0.133,2.724,0.267,3.835,1.201c1.114,0.934,1.734,2.125,1.871,3.571&#xA;&#9;c0.133,1.446-0.27,2.724-1.204,3.835l-13.608,16.347l13.608,16.344c0.934,1.114,1.337,2.392,1.204,3.838&#xA;&#9;c-0.137,1.446-0.757,2.625-1.871,3.534c-0.977,0.825-2.1,1.235-3.369,1.235c-1.623,0-2.966-0.633-4.036-1.902l-12.376-14.843&#xA;&#9;l-12.376,14.843c-1.067,1.269-2.411,1.902-4.036,1.902c-1.288,0-2.411-0.41-3.366-1.235c-1.114-0.909-1.737-2.088-1.871-3.534&#xA;&#9;S547.575,149.875,548.509,148.761z M606.72,155.835c-1.024-1.024-1.533-2.268-1.533-3.739V112.7c0-1.446,0.509-2.678,1.533-3.701&#xA;&#9;c1.024-1.046,2.268-1.567,3.735-1.567c1.446,0,2.681,0.521,3.705,1.567c1.021,1.024,1.533,2.256,1.533,3.701v39.397&#xA;&#9;c0,1.471-0.512,2.715-1.533,3.739c-1.024,1.021-2.259,1.533-3.705,1.533C608.988,157.368,607.743,156.856,606.72,155.835z&#xA;&#9; M634.441,155.835c-1.024-1.024-1.533-2.268-1.533-3.739V112.7c0-1.446,0.509-2.678,1.533-3.701&#xA;&#9;c1.024-1.046,2.268-1.567,3.736-1.567c1.446,0,2.681,0.521,3.704,1.567c1.021,1.024,1.533,2.256,1.533,3.701v39.397&#xA;&#9;c0,1.471-0.512,2.715-1.533,3.739c-1.024,1.021-2.259,1.533-3.704,1.533C636.709,157.368,635.465,156.856,634.441,155.835z&#xA;&#9; M416.484,367.247c0-2.428,1.969-4.397,4.397-4.397s4.397,1.969,4.397,4.397c0,5.618,4.57,10.188,10.189,10.188&#xA;&#9;c2.428,0,4.397,1.969,4.397,4.397c0,2.428-1.969,4.397-4.397,4.397c-5.619,0-10.189,4.57-10.189,10.188&#xA;&#9;c0,2.428-1.969,4.397-4.397,4.397s-4.397-1.969-4.397-4.397c0-5.618-4.57-10.188-10.188-10.188c-2.428,0-4.397-1.969-4.397-4.397&#xA;&#9;c0-2.428,1.969-4.397,4.397-4.397C411.913,377.436,416.484,372.865,416.484,367.247z M798.233,381.832&#xA;&#9;c0,2.428-1.969,4.397-4.396,4.397c-5.619,0-10.189,4.57-10.189,10.188c0,2.428-1.969,4.397-4.397,4.397&#xA;&#9;c-2.429,0-4.397-1.969-4.397-4.397c0-5.618-4.57-10.188-10.188-10.188c-2.428,0-4.396-1.969-4.396-4.397&#xA;&#9;c0-2.428,1.969-4.397,4.396-4.397c5.618,0,10.188-4.571,10.188-10.188c0-2.428,1.969-4.397,4.397-4.397&#xA;&#9;c2.428,0,4.397,1.969,4.397,4.397c0,5.618,4.57,10.188,10.189,10.188C796.265,377.436,798.233,379.404,798.233,381.832z&#xA;&#9; M379.848,554.386c0,2.428-1.969,4.397-4.397,4.397c-5.618,0-10.189,4.57-10.189,10.188c0,2.428-1.969,4.397-4.397,4.397&#xA;&#9;c-2.428,0-4.397-1.969-4.397-4.397c0-5.618-4.57-10.188-10.188-10.188c-2.428,0-4.397-1.969-4.397-4.397&#xA;&#9;c0-2.428,1.969-4.397,4.397-4.397c5.618,0,10.188-4.571,10.188-10.189c0-2.428,1.969-4.397,4.397-4.397&#xA;&#9;c2.428,0,4.397,1.969,4.397,4.397c0,5.618,4.571,10.189,10.189,10.189C377.879,549.989,379.848,551.958,379.848,554.386z&#xA;&#9; M807.084,558.783c-2.428,0-4.397-1.969-4.397-4.397c0-2.428,1.969-4.397,4.397-4.397c5.617,0,10.188-4.571,10.188-10.189&#xA;&#9;c0-2.428,1.969-4.397,4.396-4.397c2.429,0,4.397,1.969,4.397,4.397c0,5.618,4.571,10.189,10.189,10.189&#xA;&#9;c2.429,0,4.397,1.969,4.397,4.397c0,2.428-1.969,4.397-4.397,4.397c-5.618,0-10.189,4.57-10.189,10.188&#xA;&#9;c0,2.428-1.969,4.397-4.397,4.397c-2.428,0-4.396-1.969-4.396-4.397C817.272,563.353,812.701,558.783,807.084,558.783z&#xA;&#9; M770.265,659.855c-5.618,0-10.189,4.57-10.189,10.188c0,2.428-1.969,4.397-4.397,4.397s-4.397-1.969-4.397-4.397&#xA;&#9;c0-5.618-4.571-10.188-10.188-10.188c-2.428,0-4.397-1.969-4.397-4.397c0-2.428,1.969-4.397,4.397-4.397&#xA;&#9;c5.617,0,10.188-4.571,10.188-10.188c0-2.428,1.969-4.397,4.397-4.397s4.397,1.969,4.397,4.397c0,5.618,4.571,10.188,10.189,10.188&#xA;&#9;c2.428,0,4.397,1.969,4.397,4.397C774.662,657.887,772.694,659.855,770.265,659.855z M451.363,651.062&#xA;&#9;c2.428,0,4.397,1.969,4.397,4.397c0,2.428-1.969,4.397-4.397,4.397c-5.619,0-10.189,4.57-10.189,10.188&#xA;&#9;c0,2.428-1.969,4.397-4.397,4.397s-4.397-1.969-4.397-4.397c0-5.618-4.571-10.188-10.188-10.188c-2.428,0-4.397-1.969-4.397-4.397&#xA;&#9;c0-2.428,1.969-4.397,4.397-4.397c5.617,0,10.188-4.571,10.188-10.188c0-2.428,1.969-4.397,4.397-4.397s4.397,1.969,4.397,4.397&#xA;&#9;C441.173,646.491,445.744,651.062,451.363,651.062z M340.796,767.218c-2.428,0-4.396-1.969-4.396-4.397s1.969-4.397,4.396-4.397&#xA;&#9;c5.618,0,10.188-4.571,10.188-10.188c0-2.428,1.969-4.397,4.397-4.397c2.428,0,4.397,1.969,4.397,4.397&#xA;&#9;c0,5.618,4.57,10.188,10.189,10.188c2.428,0,4.396,1.969,4.396,4.397s-1.969,4.397-4.396,4.397c-5.619,0-10.189,4.57-10.189,10.188&#xA;&#9;c0,2.428-1.969,4.397-4.397,4.397c-2.428,0-4.397-1.969-4.397-4.397C350.984,771.788,346.414,767.218,340.796,767.218z&#xA;&#9; M846.379,762.822c0,2.428-1.969,4.397-4.397,4.397c-5.619,0-10.189,4.57-10.189,10.188c0,2.428-1.969,4.397-4.397,4.397&#xA;&#9;c-2.428,0-4.397-1.969-4.397-4.397c0-5.618-4.57-10.188-10.188-10.188c-2.428,0-4.397-1.969-4.397-4.397s1.969-4.397,4.397-4.397&#xA;&#9;c5.618,0,10.188-4.571,10.188-10.188c0-2.428,1.969-4.397,4.397-4.397c2.428,0,4.397,1.969,4.397,4.397&#xA;&#9;c0,5.618,4.57,10.188,10.189,10.188C844.41,758.425,846.379,760.393,846.379,762.822z M792.773,874.426&#xA;&#9;c0,2.428-1.969,4.397-4.397,4.397c-5.618,0-10.189,4.57-10.189,10.188c0,2.428-1.969,4.397-4.396,4.397&#xA;&#9;c-2.429,0-4.397-1.969-4.397-4.397c0-5.618-4.571-10.188-10.188-10.188c-2.428,0-4.397-1.969-4.397-4.397s1.969-4.397,4.397-4.397&#xA;&#9;c5.617,0,10.188-4.571,10.188-10.188c0-2.428,1.969-4.397,4.397-4.397c2.428,0,4.396,1.969,4.396,4.397&#xA;&#9;c0,5.618,4.571,10.188,10.189,10.188C790.805,870.029,792.773,871.998,792.773,874.426z M422.914,874.426&#xA;&#9;c0,2.428-1.969,4.397-4.397,4.397c-5.618,0-10.189,4.57-10.189,10.188c0,2.428-1.969,4.397-4.396,4.397&#xA;&#9;c-2.429,0-4.397-1.969-4.397-4.397c0-5.618-4.571-10.188-10.188-10.188c-2.428,0-4.396-1.969-4.396-4.397s1.969-4.397,4.396-4.397&#xA;&#9;c5.617,0,10.188-4.571,10.188-10.188c0-2.428,1.969-4.397,4.397-4.397c2.428,0,4.396,1.969,4.396,4.397&#xA;&#9;c0,5.618,4.571,10.188,10.189,10.188C420.946,870.029,422.914,871.998,422.914,874.426z M378.666,962.087&#xA;&#9;c0,2.428-1.969,4.397-4.396,4.397c-5.619,0-10.189,4.57-10.189,10.188c0,2.428-1.969,4.397-4.397,4.397&#xA;&#9;c-2.428,0-4.397-1.969-4.397-4.397c0-5.618-4.57-10.188-10.188-10.188c-2.428,0-4.397-1.969-4.397-4.397s1.969-4.397,4.397-4.397&#xA;&#9;c5.617,0,10.188-4.571,10.188-10.189c0-2.428,1.969-4.397,4.397-4.397c2.428,0,4.397,1.969,4.397,4.397&#xA;&#9;c0,5.618,4.57,10.189,10.189,10.189C376.698,957.69,378.666,959.659,378.666,962.087z M843.023,962.087&#xA;&#9;c0,2.428-1.969,4.397-4.397,4.397c-5.618,0-10.189,4.57-10.189,10.188c0,2.428-1.969,4.397-4.397,4.397&#xA;&#9;c-2.428,0-4.396-1.969-4.396-4.397c0-5.618-4.571-10.188-10.188-10.188c-2.429,0-4.397-1.969-4.397-4.397s1.969-4.397,4.397-4.397&#xA;&#9;c5.617,0,10.188-4.571,10.188-10.189c0-2.428,1.969-4.397,4.396-4.397c2.429,0,4.397,1.969,4.397,4.397&#xA;&#9;c0,5.618,4.57,10.189,10.189,10.189C841.054,957.69,843.023,959.659,843.023,962.087z M897.202,82.588&#xA;&#9;c0-3.089-1.203-5.993-3.387-8.177c-2.184-2.184-5.088-3.387-8.177-3.387h-0.02H599.99h-0.02H314.342h-0.02&#xA;&#9;c-3.089,0-5.993,1.203-8.177,3.387c-2.185,2.185-3.388,5.089-3.388,8.178v513.019v428.592c0.083,4.429,3.685,7.997,8.134,7.997h0.02&#xA;&#9;h577.899h0.02c4.501,0,8.411-3.911,8.411-8.411l-0.04-428.177V82.588z M776.921,249.434l-5.299-3.596l11.278-15.339&#xA;&#9;c0.785-1.067,1.089-2.414,0.841-3.717c-0.248-1.3-1.027-2.439-2.15-3.143l-5.098-3.199c-1.607-1.008-3.652-0.971-5.219,0.102&#xA;&#9;l-48.897,33.263l-3.466-4.372l13.071-6.298c0.568-0.276,1.077-0.661,1.495-1.132l15.652-17.66c1.26-1.421,1.557-3.45,0.757-5.172&#xA;&#9;c-0.785-1.682-2.473-2.755-4.322-2.755h-0.118l-15.863,0.4l-59.408,0.009l-39.955,2.641c0.023-6.276-0.297-14.494-0.96-24.645&#xA;&#9;l22.545-1.827l54.391-1.34c2.122-0.053,3.956-1.505,4.493-3.562c0.537-2.054-0.351-4.216-2.178-5.302l-13.381-7.943l3.646-4.865&#xA;&#9;l28.736,15.445c5.355,3.369,14.868,8.911,19.531,8.911l4.586,0.012c6.636,0.025,18.073,0.059,28.351-0.012&#xA;&#9;c7.943-0.056,14.52-0.056,14.526-0.056c2.054,0,3.875-1.315,4.524-3.264c0.645-1.948-0.028-4.092-1.672-5.321l-25.416-18.978&#xA;&#9;l-5.008-6.937l5.29-2.622l3.832,5.771c0.32,0.481,0.723,0.9,1.191,1.238l22.081,15.848c1.508,1.08,3.503,1.185,5.119,0.279&#xA;&#9;c1.616-0.912,2.557-2.674,2.411-4.524l-1.288-16.416l5.464-0.292l2.529,20.443c0.127,1.03,0.583,1.986,1.303,2.73l6.277,6.484&#xA;&#9;c0.925,0.959,2.24,1.418,3.537,1.452l23.204-0.537c0.227-0.006,0.456-0.028,0.683-0.065l39.086-6.606v40.402l-24.987,2.151&#xA;&#9;l-33.719-4.629c-0.583-0.074-1.188-0.053-1.765,0.09l-18.718,4.505c-2.302,0.133-6.199,0.192-8.067-0.18&#xA;&#9;C797.64,224.74,794.246,224.073,776.921,249.434z M657.731,263.01c-0.136-0.093-0.269-0.178-0.396-0.259&#xA;&#9;c-0.825-0.531-3.785-2.029-7.279,0.776c-2.923,2.336-6.171,5.907-9.928,10.043c-4.086,4.496-8.715,9.59-13.996,14.294&#xA;&#9;c-2.616,2.332-4.638,4.439-6.217,6.331c-1.479-4.656-1.535-10.372,1.693-13.861c5.07-5.476,8.746-7.986,8.771-8.002&#xA;&#9;c0.956-0.636,1.647-1.598,1.951-2.702c2.588-9.407,12.659-35.782,25.069-35.782c0.202,0,0.403,0.006,0.602,0.019&#xA;&#9;c2.885,0.199,3.835,1.266,4.341,2.169C663.588,238.266,664.859,244.888,657.731,263.01z M687.843,486.986&#xA;&#9;c0.543-2.085,1.219-4.676,1.678-5.299c2.119-2.423,1.806-4.995,0.804-6.593c-0.717-1.144-1.65-1.817-2.815-2.183&#xA;&#9;c6.491-7.1,18.535-18.142,27.738-18.142c1.049,0,3.537,0.127,4.012,1.3c1.3,3.217-3.025,14.008-16.434,26.955&#xA;&#9;c-9.754,9.419-14.346,16.859-17.703,22.292c-3.36,5.448-4.868,7.71-8.47,9.063c-1.571,0.588-2.991,0.909-4.307,1.102&#xA;&#9;c1.71-1.567,3.459-3.481,5.263-5.802C684.113,501.317,686.36,492.691,687.843,486.986z M665.638,487.172&#xA;&#9;c1.286-0.322,2.574-0.769,3.843-1.282c1.238-0.251,3.269-0.801,5.554-1.427c1.07-0.295,2.467-0.676,3.891-1.049&#xA;&#9;c-0.102,0.382-0.202,0.773-0.307,1.17c-1.44,5.538-3.233,12.429-8.532,19.242c-4.07,5.231-6.643,6.641-7.693,7.022&#xA;&#9;c-0.482-0.421-1.041-0.747-1.656-0.946l0.606-4.993c0.316-2.612-1.545-4.989-4.157-5.305c-2.609-0.301-4.986,1.545-5.305,4.157&#xA;&#9;l-0.764,6.298l-2.671,0.127c-0.202-7.175-0.403-14.43-0.597-21.475C652.355,488.76,659.954,488.593,665.638,487.172z&#xA;&#9; M650.348,586.399c-2.538-0.611-5.132,0.949-5.755,3.509c-0.621,2.557,0.949,5.135,3.509,5.755c4.891,1.186,8.378,4.514,9.861,6.164&#xA;&#9;c0.361,3.761,1.7,8.419,5.342,13.152c2.705,3.518,3.866,5.864,3.658,7.384c-0.242,1.772-2.476,4.254-6.646,7.378&#xA;&#9;c-5.703,4.279-10.113,11.782-13.765,19.031c-1.643-2.031-3.826-4.311-6.721-6.642c4.411-5.212,13.575-17.122,17.876-30.674&#xA;&#9;c0.005-0.015,0.011-0.029,0.016-0.044c0.004-0.013,0.009-0.025,0.013-0.038c0.028-0.089,0.033-0.18,0.056-0.27&#xA;&#9;c0.052-0.206,0.105-0.411,0.13-0.621c0.016-0.143,0.009-0.284,0.012-0.426c0.005-0.167,0.016-0.333,0.002-0.499&#xA;&#9;c-0.012-0.144-0.045-0.283-0.07-0.425c-0.028-0.163-0.049-0.326-0.095-0.487c-0.04-0.14-0.1-0.27-0.152-0.405&#xA;&#9;c-0.059-0.153-0.109-0.307-0.184-0.455c-0.086-0.169-0.195-0.323-0.3-0.48c-0.063-0.094-0.108-0.194-0.178-0.284&#xA;&#9;c-0.005-0.007-0.025-0.031-0.032-0.039c-0.004-0.006-0.009-0.01-0.013-0.016c-0.435-0.555-3.407-4.148-8.8-6.358&#xA;&#9;c-2.436-0.99-5.222,0.168-6.218,2.6c-0.999,2.435,0.164,5.219,2.6,6.218c1.319,0.54,2.378,1.223,3.187,1.844&#xA;&#9;c-0.563,1.49-1.2,2.949-1.872,4.383l-0.35-0.242c-2.166-1.499-5.138-0.959-6.633,1.204c-1.499,2.166-0.959,5.135,1.204,6.633&#xA;&#9;l1.181,0.818c-3.631,5.822-7.377,10.427-9.349,12.712c-3.537-1.982-7.718-3.869-12.599-5.536c1.547-4.661,4.479-14.791,7.631-32.439&#xA;&#9;c0.462-2.591-1.263-5.066-3.853-5.529c-2.56-0.447-5.063,1.263-5.529,3.853c-0.057,0.323-0.114,0.615-0.172,0.932&#xA;&#9;c-1.9-0.667-4.131-1.168-6.725-1.168c-2.631,0-4.766,2.135-4.766,4.766s2.135,4.766,4.766,4.766c2.045,0,3.706,0.565,4.878,1.148&#xA;&#9;c-2.348,11.257-4.365,17.953-5.405,21.043c-3.898-0.922-8.161-1.699-12.809-2.295l1.17-10.244c0.298-2.615-1.579-4.977-4.195-5.274&#xA;&#9;c-2.606-0.326-4.98,1.579-5.274,4.195l-1.189,10.41c-2.709-0.18-5.322-0.295-7.824-0.339c-0.03-1.663-0.13-3.647-0.254-6.081&#xA;&#9;c-0.472-9.165-1.257-24.504,0.382-38.717c0.301-2.615-1.573-4.98-4.188-5.281c-2.606-0.298-4.983,1.573-5.281,4.188&#xA;&#9;c-0.351,3.05-0.576,6.129-0.742,9.188c-0.065-0.273-0.119-0.529-0.186-0.805c-0.617-2.56-3.189-4.13-5.749-3.515&#xA;&#9;c-2.56,0.617-4.133,3.193-3.515,5.749c4.424,18.325,5.224,30.554,5.338,35.753c-2.339,0.213-4.558,0.487-6.667,0.813&#xA;&#9;c-1.561-4.782-4.383-13.766-5.612-19.827c-0.521-2.584-3.05-4.244-5.616-3.723c-2.581,0.521-4.247,3.037-3.723,5.616&#xA;&#9;c1.248,6.155,3.894,14.726,5.56,19.878c-2.493,0.664-4.765,1.4-6.848,2.178c-1.969-4.041-6.015-12.979-9.246-24.308&#xA;&#9;c-0.72-2.532-3.363-3.99-5.889-3.276c-2.532,0.72-3.999,3.357-3.276,5.889c3.391,11.892,7.578,21.222,9.756,25.702&#xA;&#9;c-2.443,1.394-4.396,2.774-5.938,4.019c-0.367-0.703-0.736-1.415-1.11-2.139c-3.886-7.54-8.699-16.75-17.142-23.535&#xA;&#9;c1.257-1.173,2.807-2.546,4.331-3.817c2.023-1.685,2.296-4.688,0.611-6.711c-1.685-2.023-4.688-2.296-6.711-0.611&#xA;&#9;c-2.536,2.111-4.403,3.785-5.794,5.149c-1.27-1.163-2.346-2.326-3.309-3.486l2.02-2.02c1.862-1.862,1.862-4.877,0-6.739&#xA;&#9;c-1.741-1.742-4.46-1.787-6.332-0.27c-0.017-0.165-0.066-0.332-0.075-0.496c-0.236-4.126,1.924-7.381,3.248-8.97&#xA;&#9;c2.662-0.115,7.623-0.338,11.821-0.571c2.385-0.132,4.93-0.983,7.43-2.477c0.077,0.573,0.249,1.143,0.547,1.679&#xA;&#9;c0.872,1.567,2.498,2.451,4.17,2.451c0.785,0,1.579-0.192,2.311-0.599c3.242-1.803,10.22-7.176,11.005-7.784&#xA;&#9;c2.085-1.61,2.467-4.601,0.856-6.683c-1.607-2.085-4.607-2.463-6.683-0.856c-0.789,0.61-1.778,1.359-2.825,2.139&#xA;&#9;c2.214-3.606,4.03-7.975,5.152-13.088c1.422-6.475,4.072-11.805,6.276-15.427c5.431,8.4,10.922,20.833,10.989,20.984&#xA;&#9;c0.782,1.784,2.532,2.848,4.365,2.848c0.639,0,1.291-0.127,1.914-0.403c2.408-1.058,3.503-3.869,2.445-6.276&#xA;&#9;c-0.19-0.437-2.833-6.431-6.368-13.098c7.473,3.587,12.512,5.236,15.993,5.236c0.717-0.003,1.371-0.071,1.973-0.202&#xA;&#9;c1.703-0.378,3.41-0.998,5.029-1.723l-1.302,6.814c-0.493,2.584,1.201,5.079,3.788,5.575c0.301,0.056,0.602,0.084,0.9,0.084&#xA;&#9;c2.24,0,4.238-1.589,4.676-3.872l2.973-15.555c4.017-2.77,9.118-2.998,12.866-2.632c9.23,0.903,18.978,6.118,22.292,10.428&#xA;&#9;c1.75,2.274,3.065,4.769,4.455,7.409c0.08,0.152,0.167,0.31,0.247,0.463c-2.952-0.798-7.249-1.759-13.154-2.594&#xA;&#9;c-2.597-0.348-5.017,1.446-5.386,4.052c-0.369,2.606,1.446,5.017,4.052,5.386c5.678,0.804,9.671,1.725,12.235,2.43l-1.118,5.815&#xA;&#9;c-3.226-0.829-7.768-1.45-14.192-1.45c-2.631,0-4.766,2.135-4.766,4.766s2.135,4.766,4.766,4.766&#xA;&#9;c10.623,0,14.079,1.855,14.539,2.135c0.028,0.026,0.066,0.033,0.094,0.058c0.404,0.354,0.862,0.65,1.379,0.853&#xA;&#9;c0.05,0.02,0.1,0.027,0.151,0.045c0.226,0.08,0.452,0.161,0.694,0.207c0.302,0.059,0.604,0.086,0.9,0.086&#xA;&#9;c0.001,0,0.002,0.001,0.003,0.001c0,0,0.001,0,0.001,0c0,0,0.001,0,0.002,0c0.565,0,1.115-0.103,1.628-0.291&#xA;&#9;c0.107-0.039,0.196-0.124,0.3-0.171c0.408-0.184,0.802-0.394,1.143-0.683c0.022-0.019,0.05-0.024,0.072-0.043&#xA;&#9;c0.34-0.299,0.607-0.646,0.84-1.008c0.047-0.073,0.091-0.144,0.135-0.221c0.245-0.432,0.422-0.888,0.522-1.365&#xA;&#9;c0.007-0.03,0.026-0.053,0.032-0.084l2.237-11.638c0.04-0.206,0.043-0.41,0.056-0.614c2.709,2.687,6.254,4.995,11.249,6.484&#xA;&#9;c0.004,0.002,0.009,0.003,0.013,0.004c0.2,0.06,0.361,0.141,0.565,0.198c0.064,0.018,0.129,0.011,0.194,0.026&#xA;&#9;c0.266,0.062,0.535,0.094,0.807,0.11c0.092,0.005,0.185,0.038,0.277,0.038c0.03,0,0.057-0.014,0.087-0.014&#xA;&#9;c0.401-0.007,0.802-0.052,1.195-0.162c0.037-0.016,4.21-1.033,7.272,1.405c2.503,1.993,3.935,5.979,4.261,11.601&#xA;&#9;C656.137,588.43,653.447,587.151,650.348,586.399z M660.332,718.143c2.631,0,4.766-2.135,4.766-4.766v-5.239&#xA;&#9;c3.463,1.563,7.056,3.128,10.661,4.649l-0.612,9.488c-0.168,2.628,1.824,4.893,4.449,5.063c0.105,0.006,0.208,0.009,0.313,0.009&#xA;&#9;c2.491,0,4.586-1.936,4.75-4.458l0.405-6.284c3.609,1.437,7.105,2.776,10.359,3.966l0.253,9.563&#xA;&#9;c0.068,2.588,2.187,4.638,4.759,4.638c0.043,0,0.087,0,0.13-0.003c2.631-0.068,4.707-2.259,4.635-4.89l-0.159-6.016&#xA;&#9;c0.825,0.257,1.624,0.5,2.362,0.711c14.368,4.105,44.261,12.649,46.334,21.963c2.1,9.469-4.207,23.521-23.04,33.567&#xA;&#9;c-12.615,6.729-24.852,10.117-36.688,13.394c-6.543,1.815-13.313,3.689-20.071,6.1c-0.199,0.074-0.397,0.161-0.586,0.258&#xA;&#9;c-0.167,0.086-13.158,6.692-34.059,11.804c0.289-0.381,0.617-0.736,0.849-1.156c1.542-2.795,1.526-6.062-0.04-9.199&#xA;&#9;c-3.422-6.844-13.716-8.492-26.75-10.58c-9.214-1.474-19.539-3.162-25.194-6.827c0.022-0.412,0.011-0.83-0.079-1.252&#xA;&#9;c-0.065-0.304-6.438-30.532-5.938-55.319c0.542-27.182-0.208-64.432-0.51-77.475c0.69,0.003,1.362-0.001,2.074,0.01&#xA;&#9;c39.807,0.538,50.086,20.248,51.845,24.511c-0.387,3.307-0.576,7.071-0.163,10.566c-0.096,1.569-0.466,9.131,0.354,21.455&#xA;&#9;c0.915,13.738,1.393,16.743,5.682,25.938c0.135,0.74,0.429,1.439,0.882,2.034c7.304,17.141,0.761,26.799,0.404,27.297&#xA;&#9;c-1.551,2.097-1.129,5.057,0.956,6.636c0.859,0.652,1.871,0.965,2.873,0.965c1.443,0,2.867-0.652,3.804-1.889&#xA;&#9;c0.158-0.21,1.547-2.138,2.813-5.526c0.858,7.848-1.048,12.304-1.222,12.684c-1.126,2.352-0.149,5.178,2.2,6.332&#xA;&#9;c0.676,0.332,1.39,0.487,2.097,0.487c1.759,0,3.453-0.977,4.282-2.665c0.332-0.678,7.13-15.252-4.247-38.461&#xA;&#9;c1.423,0.566,2.88,1.169,4.323,1.798l10.048,21.488c0.81,1.731,2.526,2.746,4.319,2.746c0.676,0,1.362-0.143,2.017-0.45&#xA;&#9;c2.383-1.114,3.413-3.95,2.296-6.335l-4.566-9.764c2.636,1.393,5.521,2.636,8.526,3.724c13.567,8.741,16.512,14.696,16.669,15.031&#xA;&#9;c0.735,1.865,2.526,3.016,4.434,3.016c0.54,0,1.086-0.09,1.623-0.285c2.473-0.894,3.754-3.627,2.857-6.103&#xA;&#9;c-0.279-0.773-1.43-3.378-5.03-7.283c2.285,0.137,4.517,0.186,6.585,0.026c9.485-0.723,12.615,2.74,12.885,3.062&#xA;&#9;c0.925,1.294,2.386,1.989,3.875,1.989c0.909,0,1.827-0.258,2.64-0.8c2.19-1.461,2.783-4.418,1.322-6.609&#xA;&#9;c-0.571-0.859-6.022-8.365-21.454-7.142c-6.546,0.486-14.908-0.941-22.411-3.556c-0.014-0.005-0.028-0.011-0.041-0.016&#xA;&#9;c-4.404-1.538-8.514-3.481-11.776-5.695c-7.185-4.875-20.371-9.6-25.63-11.383c-3.324-7.167-3.665-9.059-4.52-21.923&#xA;&#9;c-0.191-2.859-0.306-5.41-0.382-7.72c2.903,1.701,6.561,3.618,10.695,5.636v9.701C655.567,716.009,657.701,718.143,660.332,718.143z&#xA;&#9; M620.763,854.766c0.106,0.269,0.237,0.528,0.395,0.78c2.518,5.12,4.621,11.7,6.073,20.163c0.444,2.594,2.901,4.337,5.504,3.891&#xA;&#9;c0.551-0.095,1.053-0.297,1.515-0.557c4.292,11.116,4.23,20.797,4.172,28.765c-0.043,5.585-0.078,10.409,1.235,14.818&#xA;&#9;c0.31,1.036,0.589,2.097,0.841,3.162c-3.915-5.194-6.41-4.914-7.915-4.75c-1.514,0.171-2.873,0.931-3.826,2.138&#xA;&#9;c-2.076,2.634-1.744,6.332-0.859,13.416c-0.673-1.024-1.371-1.852-2.085-2.432c-1.945-1.57-4.452-1.793-6.553-0.571&#xA;&#9;c-2.283,1.328-3.782,5.181-4.756,10.003c-0.273-1.511-0.413-2.699-0.366-3.407c0.158-2.448-1.57-4.617-3.99-5.011&#xA;&#9;c-2.42-0.413-4.744,1.111-5.374,3.484l-5.07,19.134c-1.328-7.452-3.816-16.447-3.928-16.847c-0.503-1.815-2.029-3.161-3.891-3.438&#xA;&#9;c-1.886-0.298-3.714,0.571-4.722,2.156c-0.158,0.248-2.209,3.518-4.666,9.454c0.022-0.251,0.043-0.5,0.068-0.751&#xA;&#9;c1.93-19.72-4.291-28.389-5.008-29.313c-0.918-1.191-2.327-1.837-3.86-1.846c-1.505,0.031-2.907,0.769-3.782,1.995&#xA;&#9;c-0.233,0.32-1.399,2.045-2.916,5.827c-0.096-0.375-0.189-0.751-0.282-1.117c-0.959-3.838-1.167-8.712-1.353-13.015&#xA;&#9;c-0.189-4.375-0.351-8.154-1.213-11.017c-0.568-1.89-0.963-7.083-0.702-13.215c2.596-0.04,4.692-2.152,4.692-4.758&#xA;&#9;c0-34.752,18.088-43.324,24.427-43.588C601.48,837.945,612.994,839.694,620.763,854.766z M471.708,745.713c0.022,0,0.043,0,0.065,0&#xA;&#9;c2.603,0,4.731-2.091,4.766-4.7l0.151-11.292c3.237-1.624,6.446-3.283,9.523-4.917v4.521c0,2.631,2.135,4.766,4.766,4.766&#xA;&#9;c2.631,0,4.766-2.135,4.766-4.766v-9.732c3.092-1.745,5.836-3.353,8.051-4.719l0.267,3.921c0.171,2.516,2.265,4.443,4.747,4.443&#xA;&#9;c0.109,0,0.22-0.003,0.329-0.012c2.628-0.177,4.61-2.451,4.43-5.076l-0.63-9.268c3.979-2.682,8.325-5.663,12.077-8.255&#xA;&#9;c-0.391,2.271-0.753,4.304-1.05,5.971c-0.959,5.374-1.719,9.618-2.026,12.382c-0.316,2.844-1.172,7.687-2.22,13.415&#xA;&#9;c-8.397,4.941-33.596,19.907-38.731,24.545c-2.162,1.955-10.58,3.028-17.148,2.795c-2.612-0.143-4.84,1.961-4.933,4.592&#xA;&#9;s1.961,4.837,4.589,4.933c0.459,0.016,1.213,0.037,2.181,0.037c2.867,0,7.608-0.205,12.162-1.162&#xA;&#9;c-1.74,2.087-3.205,3.256-3.27,3.306c-2.104,1.564-2.547,4.536-0.993,6.649c0.934,1.269,2.38,1.939,3.841,1.939&#xA;&#9;c0.98,0,1.973-0.301,2.823-0.928c0.381-0.28,8.982-6.757,12.104-18.694c1.909-1.279,4.204-2.761,6.76-4.373l-1.996,7.189&#xA;&#9;c-0.704,2.538,0.782,5.163,3.317,5.867c0.428,0.118,0.856,0.174,1.278,0.174c2.088,0,4.002-1.381,4.589-3.49l4.747-17.099&#xA;&#9;c2.15-1.302,4.305-2.598,6.423-3.863c-3.487,19.626-5.592,34.778-3.336,41.101c0.698,1.948,2.532,3.162,4.489,3.162&#xA;&#9;c0.531,0,1.073-0.09,1.604-0.276c2.476-0.887,3.77-3.615,2.885-6.093c-0.709-1.983-0.519-6.707,0.125-12.565&#xA;&#9;c2.317,6.497,4.938,9.327,5.503,9.872c0.928,0.897,2.119,1.34,3.314,1.34c1.247,0,2.491-0.487,3.425-1.452&#xA;&#9;c1.831-1.893,1.778-4.911-0.112-6.739c-0.085-0.082-7.91-9.126-6.083-37.659c0.007-0.073,0.01-0.145,0.013-0.218&#xA;&#9;c0.044-0.664,0.065-1.284,0.12-1.969c0.022-0.284,0.008-0.563-0.018-0.837c0.945-5.199,1.704-9.594,2.022-12.442&#xA;&#9;c0.27-2.454,1.042-6.767,1.933-11.762c1.003-5.624,1.941-11.073,2.747-16.277c0.288-0.7,0.396-1.457,0.332-2.213&#xA;&#9;c1.505-10.1,2.429-19.159,2.185-26.495c1.101-2.588,6.837-11.534,33.494-13.181c0.3,13.004,1.044,50.044,0.505,77.026&#xA;&#9;c-0.518,25.91,5.876,56.222,6.149,57.497c0.035,0.165,0.131,0.295,0.182,0.452c-6.491,4.211-18.572,11.367-26.151,13.051&#xA;&#9;c-8.144,1.812-7.542,7.465-7.341,8.582c0.271,1.485,1.088,2.893,2.253,4.203c-3.912-0.756-8.668-0.736-14.148-0.657&#xA;&#9;c-9.848,0.149-22.09,0.323-32.335-4.61c-9.63-4.638-21.07-9.153-32.13-13.518c-9.109-3.596-17.713-6.993-23.865-9.922&#xA;&#9;c-13.053-6.214-20.921-10.431-20.108-16.546c0.937-7.006,14.07-19.677,30.247-26.149c3.605-1.443,7.602-3.211,11.731-5.142&#xA;&#9;l-0.087,6.507C466.973,743.516,469.077,745.676,471.708,745.713z M589.348,635.059c39.94,3.196,50.572,20.041,52.391,23.614&#xA;&#9;c-0.785,1.589-1.552,3.061-2.155,4.037c-7.111-9.278-22.813-21.934-55.749-22.38c-0.835-0.012-1.651-0.016-2.46-0.016&#xA;&#9;c-25.044,0-38.124,5.337-44.97,10.839c-0.697-1.601-1.562-2.967-2.639-4.044c-0.13-0.13-0.258-0.288-0.388-0.431&#xA;&#9;C538.484,642.215,554.079,632.237,589.348,635.059z M592.172,828.791c-3.34,0.139-7.084,1.146-10.826,3.149&#xA;&#9;c0.011-0.573,0.024-1.125,0.028-1.761c1.1-17.03-5.175-22.456-6.45-23.372l-2.542,3.54c-0.9-0.493-1.932-0.7-2.956-0.562&#xA;&#9;c-3.217,0.459-8.377-1.322-11.718-3.115c9.547-2.985,21.513-10.391,26.763-13.813c7.288,4.064,17.48,5.696,27.377,7.282&#xA;&#9;c6.916,1.108,18.495,2.96,19.729,5.43c0.112,0.223,0.158,0.369,0.186,0.397c-0.782,1.288-5.932,3.239-11.374,3.798&#xA;&#9;c-0.614,0.062-1.216,0.245-1.762,0.537c-0.086,0.046-0.586,0.328-1.293,0.854l-3.649-3.994c-1.211,1.107-5.022,5.661-3.979,17.997&#xA;&#9;c-0.188,1.62-0.242,3.383-0.098,5.319c0.016,0.218,0.053,0.607,0.096,1.06C604.533,829.453,598.703,828.507,592.172,828.791z&#xA;&#9; M620.209,323.967c6.099,2.552,13.577,5.193,19.845,5.969c0.121,6.213,0.379,13.043,0.661,20.241&#xA;&#9;c1.067,27.287,2.392,61.248-3.692,83.227c-0.127,0.456-0.183,0.928-0.171,1.399c0.119,4.505,2.651,99.521,3.667,129.792&#xA;&#9;c-3.11-2.414-4.889-5.72-7.027-9.778c-1.517-2.879-3.087-5.858-5.333-8.777c-5.346-6.95-17.778-13.012-28.919-14.104&#xA;&#9;c-4.367-0.424-8.411-0.104-12.035,0.917c0.648-4.165,1.347-8.479,2.091-12.905c0.596-0.993,0.835-2.203,0.58-3.419&#xA;&#9;c1.696-9.93,3.561-20.222,5.402-30.066c0.255-0.573,0.404-1.207,0.415-1.885c0.001-0.076-0.017-0.148-0.019-0.224&#xA;&#9;c5.271-28.037,10.233-51.888,10.316-52.288c0.087-0.419,0.118-0.844,0.09-1.269C604.006,397.195,614.398,348.166,620.209,323.967z&#xA;&#9; M552.375,230.939l11.861,7.794l-3.751,5.281l-31.817-20.7c-1.027-0.667-2.284-0.912-3.484-0.686l-23.902,4.52l-44.289-1.601&#xA;&#9;l-37.178-0.335h-0.043c-2.194,0-4.108,1.499-4.629,3.636c-0.524,2.15,0.5,4.378,2.473,5.38l25.568,12.984&#xA;&#9;c0.469,0.239,0.977,0.397,1.499,0.468l22.276,3.099l-5.349,5.848l-18.736-4.679l-16.897-6.5l-32.034-17.315&#xA;&#9;c-0.807-0.441-1.737-0.633-2.64-0.558c-6.888,0.546-25.987,1.734-31.538,0.735c-5.717-1.04-33.427-3.152-47.455-4.18v-21.12&#xA;&#9;c9.635,1.509,22.104,2.501,27.791-1.118c6.801-4.328,34.681-35.264,45.102-46.948l4.824,3.326l-13.884,16.903&#xA;&#9;c-1.353,1.644-1.446,3.99-0.233,5.74c1.21,1.756,3.444,2.473,5.454,1.796l38.27-13.071l2.352,4.188l-32.76,12.227&#xA;&#9;c-0.571,0.211-1.092,0.531-1.542,0.94l-9.888,9.004c-1.427,1.3-1.93,3.329-1.275,5.144c0.658,1.812,2.339,3.053,4.266,3.14&#xA;&#9;c0.174,0.009,17.486,0.816,34.476,3.431c3.323,0.512,7.238,0.742,11.476,0.742c18.746,0,43.731-4.502,50.851-9.035&#xA;&#9;c11.461-7.294,30.517-19.003,36.024-21.361c5.817-2.494,14.979-7.415,19.999-10.17l3.022,3.813&#xA;&#9;c-3.652,2.414-8.883,5.774-12.435,7.67c-5.082,2.709-17.502,9.953-18.029,10.26c-0.692,0.406-1.272,0.977-1.685,1.666l-4.123,6.872&#xA;&#9;c-0.98,1.635-0.894,3.695,0.223,5.24c1.117,1.548,3.05,2.28,4.908,1.862c0.158-0.037,16.177-3.608,31.106-4.908&#xA;&#9;c15.109-1.312,48.369-1.989,48.993-2.01l9.973-0.806c0.171,0.667,0.347,1.291,0.504,1.843c1.028,3.596,5.103,15.765,7.157,21.866&#xA;&#9;l-13.992,0.935H554.99c-2.107,0-3.962,1.384-4.567,3.4C549.821,227.607,550.613,229.782,552.375,230.939z M604.362,191.605&#xA;&#9;c0,0,0.078-0.05,0.155-0.099c0.239,0.174,0.555,0.5,0.804,0.822l0.087,0.317l-0.862,1.337&#xA;&#9;C604.219,192.341,604.301,191.758,604.362,191.605z M613.676,222.767l0.752,2.742c-0.261,0.148-0.499,0.325-0.728,0.52v-2.769&#xA;&#9;C613.7,223.096,613.691,222.932,613.676,222.767z M619.981,199.452l-1.251,1.156c-0.091-1.78-0.145-3.66-0.132-5.494l1.08-0.706&#xA;&#9;C619.785,196.08,619.887,197.765,619.981,199.452z M609.239,206.605l-0.497,1.077c-0.193-0.583-0.384-1.159-0.572-1.731l0.624-0.968&#xA;&#9;L609.239,206.605z M540.687,531.281c-0.456-0.577-1.117-1.865-1.818-3.475c8.985-0.354,25.429-1.353,40.144-4.111&#xA;&#9;c-0.856,5.225-1.644,10.279-2.339,15.029c-2.293,1.613-6.149,3.993-9.261,4.685c-1.284,0.143-6.152-0.726-24.594-10.958&#xA;&#9;C541.91,531.945,541.181,531.542,540.687,531.281z M581.641,508.229c-0.799-0.757-1.848-1.256-3.034-1.312&#xA;&#9;c-2.715-0.149-4.862,1.908-4.986,4.533l-0.168,3.532c-1.915,0.313-3.846,0.598-5.782,0.858l-0.168-4.38&#xA;&#9;c-0.099-2.631-2.271-4.635-4.946-4.579c-2.631,0.102-4.679,2.315-4.579,4.945l0.196,5.103c-1.714,0.167-3.396,0.319-5.028,0.451&#xA;&#9;l-0.443-3.991c-0.292-2.619-2.699-4.496-5.262-4.213c-2.615,0.292-4.502,2.646-4.213,5.262l0.398,3.588&#xA;&#9;c-2.055,0.112-3.898,0.198-5.488,0.261l-1.707-6.398c-0.676-2.544-3.283-4.049-5.833-3.376c-2.544,0.679-4.055,3.289-3.376,5.833&#xA;&#9;l1.228,4.602c-3.124,0.062-9.091-0.954-15.289-8.145c-1.713-1.992-4.725-2.225-6.72-0.496c-1.992,1.716-2.215,4.725-0.496,6.72&#xA;&#9;c8.278,9.602,16.878,11.436,22.239,11.436c0.235,0,0.417-0.023,0.638-0.029c1.161,3.158,2.249,5.402,3.221,7.005&#xA;&#9;c-2.855,4.06-7.375,11.659-9.556,21.593c-2.671,12.168-9.903,17.561-13.186,17.741c-5.079,0.286-11.227,0.549-13.032,0.625&#xA;&#9;c-4.704-9.655-19.119-38.982-23.296-44.353l-1.055-1.347c-4.309-5.467-10.819-13.726-10.313-22.801&#xA;&#9;c0.729-13.18,8.417-19.605,23.499-19.605c0.506,0,1.024,0.009,1.551,0.022c19.535,0.541,79.519,1.549,98.425,1.86&#xA;&#9;C583.916,495.461,582.754,501.879,581.641,508.229z M646.054,288.005c-2.979,5.671-4.776,12.764-5.578,22.085&#xA;&#9;c-3.867-0.664-9.938-2.574-16.262-4.968c-0.001-0.034-0.004-0.067-0.005-0.1c0.391-1.095,2.005-4.464,8.265-10.042&#xA;&#9;c5.653-5.039,10.462-10.332,14.706-14.998c0.977-1.077,1.914-2.11,2.811-3.081c-0.33,1.852-0.748,3.842-1.214,5.786&#xA;&#9;C647.906,284.414,647.027,286.152,646.054,288.005z M623.604,265.49c-0.571,0.443-1.336,1.074-2.181,1.795v-29.822&#xA;&#9;c0.529,0.053,1.067,0.073,1.62,0.013c2.333-0.267,4.31-1.604,5.563-3.754c0.508-0.869,0.895-2.432,1.164-4.672l16.327-1.084&#xA;&#9;C633.029,236.718,625.632,258.688,623.604,265.49z M312.905,81.149c0.395-0.395,0.878-0.595,1.437-0.595H599.97h0.02h285.628&#xA;&#9;c0.559,0,1.042,0.2,1.438,0.596c0.395,0.395,0.595,0.878,0.595,1.437v90.71l-40.336,6.819l-20.775,0.481l-3.717-3.841l-2.876-23.272&#xA;&#9;c-0.307-2.488-2.485-4.297-4.983-4.176l-14.784,0.794c-1.284,0.068-2.485,0.655-3.329,1.62c-0.847,0.965-1.269,2.234-1.167,3.512&#xA;&#9;l0.869,11.058l-13.04-9.357l-5.672-8.544c-1.328-2.001-3.937-2.699-6.087-1.635l-14.095,6.99c-1.257,0.624-2.175,1.765-2.51,3.124&#xA;&#9;c-0.335,1.362-0.059,2.799,0.763,3.934l8.731,12.088c0.282,0.394,0.624,0.738,1.011,1.03l14.576,10.884&#xA;&#9;c-0.106,0.003-0.211,0.003-0.32,0.003c-10.248,0.071-21.644,0.031-28.249,0.012l-4.505-0.009c-1.787-0.202-8.659-3.723-14.703-7.533&#xA;&#9;c-0.093-0.059-0.189-0.115-0.285-0.168l-32.49-17.461c-2.069-1.111-4.654-0.546-6.069,1.337l-9.292,12.389&#xA;&#9;c-0.81,1.083-1.123,2.46-0.863,3.788c0.264,1.328,1.08,2.479,2.243,3.171l3.711,2.203l-38.106,0.943l-23.478,1.897&#xA;&#9;c-1.583-3.839-4.935-7.45-10.65-7.166c-3.76,0.211-5.697,2.921-6.729,5.849c-1.082-0.846-2.401-1.595-3.981-1.952&#xA;&#9;c-1.818-0.41-4.592-0.447-7.577,1.685c-1.689,1.208-2.726,2.655-3.341,4.195l-10.434,0.85c-1.378,0.028-33.911,0.689-49.337,2.032&#xA;&#9;c-5.606,0.487-11.278,1.263-16.276,2.066c3.413-1.955,7.037-4.009,9.184-5.156c6.413-3.416,17.132-10.754,17.585-11.064&#xA;&#9;c1.092-0.748,1.821-1.914,2.02-3.22c0.195-1.306-0.158-2.637-0.977-3.67l-8.74-11.023c-1.458-1.837-4.03-2.342-6.072-1.194&#xA;&#9;c-0.149,0.084-14.936,8.389-22.64,11.691c-8.126,3.481-36.198,21.324-37.389,22.081c-5.842,3.72-38.515,9.565-55.756,6.916&#xA;&#9;c-8.842-1.362-17.613-2.24-24.231-2.78l0.937-0.853l37.11-13.85c1.303-0.487,2.33-1.52,2.808-2.826&#xA;&#9;c0.481-1.306,0.363-2.758-0.32-3.971l-7.018-12.5c-1.126-2.004-3.531-2.916-5.693-2.178l-26.161,8.935l6.537-7.955&#xA;&#9;c0.847-1.03,1.222-2.367,1.036-3.689c-0.186-1.322-0.915-2.504-2.014-3.261l-12.559-8.659c-1.986-1.362-4.676-1.036-6.27,0.763&#xA;&#9;c-15.106,17.027-40.926,45.22-45.896,48.382c-2.637,1.677-12.564,1.117-22.671-0.525V82.588&#xA;&#9;C312.309,82.029,312.51,81.545,312.905,81.149z M312.309,1022.664V595.607V233.688c16.013,1.179,40.932,3.123,45.751,3.999&#xA;&#9;c6.987,1.272,26.729-0.068,32.583-0.503l31.069,16.794c0.177,0.096,0.363,0.183,0.555,0.258l17.458,6.714&#xA;&#9;c0.18,0.068,0.366,0.127,0.555,0.174l21.774,5.439c0.382,0.096,0.769,0.143,1.154,0.143c1.319,0,2.603-0.549,3.515-1.548&#xA;&#9;l13.381-14.632c1.195-1.306,1.567-3.168,0.968-4.834c-0.599-1.663-2.073-2.861-3.825-3.103l-30.464-4.238l-6.748-3.425l16.738,0.149&#xA;&#9;l44.693,1.616c0.357,0.019,0.707-0.016,1.058-0.081l22.546-4.263l34.048,22.149c2.144,1.393,5.001,0.847,6.484-1.235l9.264-13.037&#xA;&#9;c0.751-1.055,1.039-2.37,0.8-3.642c-0.242-1.272-0.987-2.392-2.069-3.103l-2.684-1.765l18.634-0.003l14.619-0.968v48.589&#xA;&#9;c0,3.677,0.031,6.686,0.056,9.184c0.109,10.409,0.109,10.409-2.743,14.079c-1.967,2.529-2.572,5.433-1.703,8.181&#xA;&#9;c0.277,0.875,0.721,1.654,1.225,2.39c0.397,0.945,1.085,1.683,1.946,2.199c2.684,2.392,6.172,3.764,7.887,4.322&#xA;&#9;c0.161,0.08,0.358,0.175,0.534,0.262c-5.785,23.826-16.871,75.106-14.84,110.791c-0.79,3.812-5.046,24.475-9.671,48.925&#xA;&#9;c-16.764-0.275-79.846-1.326-99.94-1.881c-28.975-0.841-34.221,17.561-34.833,28.581c-0.704,12.671,7.465,23.037,12.345,29.229&#xA;&#9;l1.018,1.297c3.049,3.92,15.709,29.175,23.22,44.674c-1.901,3.047-3.688,7.363-3.432,12.628c0.428,8.746,6.218,17.089,17.213,24.796&#xA;&#9;c7.881,5.523,12.323,14.138,16.242,21.743c2.727,5.293,5.085,9.866,8.333,13.115c1.258,1.258,1.869,4.14,2.065,7.921&#xA;&#9;c-0.109,0.482-0.159,0.847-0.182,1.061c-0.074,0.721,0.028,1.422,0.251,2.074c-0.026,6.526-0.948,14.844-2.074,22.685&#xA;&#9;c-5.092,3.549-19.316,13.425-26.606,18.11c-9.01,5.796-33.011,18.708-48.658,24.97c-16.434,6.574-34.451,20.989-36.154,33.737&#xA;&#9;c-1.787,13.437,11.445,19.739,25.46,26.412c6.444,3.068,15.196,6.525,24.461,10.18c10.902,4.303,22.177,8.755,31.497,13.242&#xA;&#9;c12.268,5.907,25.755,5.718,36.607,5.551c1.748-0.024,3.455-0.045,5.07-0.038c0.009,0.823,0.213,1.654,0.669,2.409l9.162,15.134&#xA;&#9;c0.897,1.48,2.47,2.299,4.08,2.299c0.841,0,1.694-0.22,2.464-0.689c2.252-1.362,2.972-4.294,1.61-6.543l-6.753-11.154&#xA;&#9;c8.366,1.917,17.64,3.009,21.154,3.213c0.424,1.526,0.709,3.395,0.693,5.67c-0.047,6.863-0.537,9.264-0.534,9.264v-0.003&#xA;&#9;c-0.09,0.344-0.133,0.687-0.147,1.028c-3.255,3.855-6.138,8.774-8.328,14.854c-10.857,13.599-9.471,41.859-7.811,47.386&#xA;&#9;c0.518,1.722,0.67,5.262,0.819,8.684c0.205,4.756,0.434,10.142,1.629,14.914c2.004,8.023,4.766,18.079,4.793,18.178&#xA;&#9;c0.571,2.076,2.457,3.503,4.592,3.503c0.062,0,0.121,0,0.18-0.003c2.209-0.081,4.071-1.672,4.499-3.841&#xA;&#9;c0.549-2.789,1.117-5.225,1.678-7.341c0.254,2.96,0.276,6.519-0.136,10.719c-1.334,13.627,2.913,25.786,3.096,26.294&#xA;&#9;c0.717,2.026,2.73,3.329,4.852,3.158c2.144-0.164,3.915-1.747,4.319-3.86c1.235-6.475,2.867-11.957,4.443-16.323&#xA;&#9;c0.273,1.331,0.521,2.643,0.723,3.878c0.977,5.972,4.31,17.319,4.452,17.799c0.596,2.029,2.46,3.419,4.57,3.419&#xA;&#9;c0.022,0,0.043,0,0.065,0c2.138-0.031,3.993-1.48,4.542-3.546l4.716-17.796c0.034,0.121,0.068,0.239,0.102,0.36&#xA;&#9;c4.731,16.683,4.992,16.816,7.012,17.846c1.697,0.872,3.745,0.639,5.206-0.574c1.61-1.331,2.076-3.217,1.319-5.91&#xA;&#9;c-0.648-3.928-0.227-14.768,0.711-22.664c1.616,5.02,3.357,11.756,4.716,18.563c0.428,2.147,2.265,3.726,4.455,3.826&#xA;&#9;c2.128,0.121,4.164-1.303,4.784-3.4c2.631-8.849,1.846-19.276,0.847-27.796c1.055,2.203,2.11,4.57,3.072,6.928&#xA;&#9;c0.72,1.765,2.423,2.932,4.328,2.966c1.768-0.034,3.649-1.073,4.43-2.814c3.447-7.673,0.962-21.138-1.049-27.883&#xA;&#9;c-0.906-3.041-0.875-7.207-0.841-12.029c0.071-9.516,0.168-22.549-7.13-37.631c-5.467-11.299-10.179-17.877-11.521-19.664&#xA;&#9;c-2.588-5.08-5.707-9.265-9.339-12.576c-0.126-1.174-0.756-7.01-0.845-8.233c-0.135-1.805-0.009-3.325,0.251-4.635&#xA;&#9;c0.066-0.006,0.132-0.005,0.199-0.013c10.093-1.385,19.148-3.349,26.955-5.446l-6.726,11.003c-1.371,2.246-0.664,5.178,1.582,6.553&#xA;&#9;c0.776,0.472,1.632,0.698,2.482,0.698c1.604,0,3.171-0.81,4.071-2.28l8.991-14.712c0.853-1.395,0.901-3.053,0.28-4.439&#xA;&#9;c11.441-3.741,18.641-7.222,20.234-8.024c6.329-2.246,12.547-3.968,19.121-5.789c12.333-3.416,25.084-6.947,38.63-14.173&#xA;&#9;c23.245-12.398,30.74-31.054,27.855-44.041c-3.053-13.735-25.817-21.287-53.035-29.068c-19.205-5.485-60.196-23.856-64.202-28.103&#xA;&#9;c-1.511-1.722-1.443-9.618,0.062-17.104c1.855-1.995,3.528-5.392,6.242-11.07c3.552-7.44,8.42-17.626,13.931-21.758&#xA;&#9;c6.633-4.977,9.736-9.078,10.369-13.71c0.742-5.43-2.228-10.17-5.547-14.489c-2.681-3.485-3.387-6.758-3.48-9.091&#xA;&#9;c0.002-0.125,0-0.249-0.008-0.374c-0.021-1.766,0.289-2.929,0.313-3.008c0.146-0.425,0.23-0.869,0.251-1.319&#xA;&#9;c0.558-11.709-2.088-19.981-7.868-24.585c-3.155-2.513-6.785-3.475-9.925-3.667c-0.322-9.135-0.859-27.347-1.428-47.411l7.559-0.359&#xA;&#9;c0.946,1.325,2.237,2.491,3.829,3.435c2.737,1.623,6.112,2.436,9.77,2.436c3.239,0,6.698-0.639,10.124-1.924&#xA;&#9;c6.798-2.547,9.64-7.151,13.236-12.978c3.264-5.281,7.322-11.855,16.214-20.443c11.737-11.334,22.804-27.104,18.65-37.383&#xA;&#9;c-1.095-2.712-4.219-7.26-12.848-7.26c-16.738,0-34.712,20.945-37.901,24.833c-2.417,1.973-8.755,6.537-14.021,7.856&#xA;&#9;c-4.809,1.199-11.784,1.304-15.74,1.249c-0.603-21.995-1.09-40.173-1.191-43.925c6.267-23.397,4.924-57.773,3.844-85.445&#xA;&#9;c-0.294-7.51-0.563-14.611-0.672-20.967c6.14-2.861,7.85-8.193,6.688-12.233c-0.782-2.723-3.009-5.137-6.233-6.144&#xA;&#9;c0.707-7.712,2.173-13.65,4.47-18.025c0.978-1.862,1.852-3.602,2.736-5.352c0.175-0.268,0.321-0.556,0.441-0.863&#xA;&#9;c18.389-36.675,16.327-48.87,12.997-54.831c-0.891-1.595-2.331-3.37-4.541-4.752l4.365-0.29h59.213l5.029-0.127l-7.75,8.743&#xA;&#9;l-17.573,8.47c-1.303,0.63-2.252,1.818-2.575,3.227c-0.323,1.412,0.012,2.895,0.909,4.027l9.913,12.503&#xA;&#9;c0.937,1.182,2.33,1.806,3.739,1.806c0.921,0,1.852-0.267,2.668-0.819l44.463-30.219l-7.514,10.223&#xA;&#9;c-0.766,1.046-1.077,2.355-0.856,3.633c0.22,1.275,0.949,2.408,2.023,3.134l13.344,9.053c1.049,0.714,2.333,0.974,3.587,0.735&#xA;&#9;c1.244-0.245,2.342-0.974,3.05-2.029c6.491-9.702,14.849-20.936,18.051-23.803c3.801,0.416,8.665,0.112,9.286,0.065&#xA;&#9;c0.267-0.016,0.534-0.056,0.794-0.121l18.249-4.393l33.356,4.579c0.347,0.047,0.704,0.056,1.058,0.025l24.699-2.126v362.675&#xA;&#9;l0.04,427.057H312.309z" style="fill: rgb(78, 61, 87);"/>
</svg>