<?xml version="1.0" encoding="utf-8"?>
<!-- Generator: Adobe Illustrator 23.0.3, SVG Export Plug-In . SVG Version: 6.00 Build 0)  -->
<svg version="1.1" id="Capa_1" xmlns="http://www.w3.org/2000/svg" xmlns:xlink="http://www.w3.org/1999/xlink" x="0px" y="0px"
	 viewBox="0 0 1200 1200" enable-background="new 0 0 1200 1200" xml:space="preserve">
<path fill="#4e3d57" d="M911.797,60.832C904.813,53.847,895.525,50,885.648,50H600H314.352c-9.879,0-19.165,3.847-26.149,10.832
	c-6.985,6.984-10.831,16.271-10.831,26.149V600v513.019c0,9.878,3.847,19.165,10.831,26.15c6.984,6.984,16.271,10.831,26.149,10.831
	H600h285.647c9.878,0,19.165-3.847,26.149-10.831c6.985-6.985,10.831-16.272,10.831-26.15V600V86.981
	C922.628,77.103,918.782,67.816,911.797,60.832z M913.097,600v513.019c0,7.58-3.072,14.443-8.04,19.41
	c-4.968,4.968-11.83,8.04-19.41,8.04H600H314.352c-7.58,0-14.442-3.072-19.41-8.04c-4.968-4.967-8.04-11.83-8.04-19.41V600V86.981
	c0-7.58,3.072-14.442,8.04-19.41c4.967-4.968,11.83-8.04,19.41-8.04H600h285.647c7.58,0,14.443,3.072,19.41,8.04
	c4.967,4.967,8.04,11.83,8.04,19.41V600z M897.192,86.981c0-3.089-1.203-5.993-3.387-8.177c-2.184-2.184-5.088-3.387-8.177-3.387
	H599.98H314.333c-3.089,0-5.993,1.203-8.177,3.387c-2.185,2.185-3.388,5.089-3.388,8.178V600v428.592
	c0.083,4.429,3.685,7.997,8.134,7.997h577.919c4.501,0,8.411-3.911,8.411-8.411L897.192,600V86.981z M312.299,86.981
	c0-0.559,0.201-1.043,0.596-1.438c0.395-0.395,0.878-0.595,1.437-0.595H599.98h285.647c0.559,0,1.042,0.2,1.438,0.596
	c0.395,0.395,0.595,0.878,0.595,1.437v513.02l0.02,214.318H777.157c1.737-13.488,2.955-39.916,3.535-54.768l5.385,6.163
	c0.078,0.087,0.155,0.171,0.239,0.251c1.629,1.613,3.382,3.583,4.232,4.735c-1.052,7.738,4.409,20.728,9.239,26.648
	c5.684,6.968,13.17,14.722,20.781,12.91c2.47-0.593,4.201-1.725,5.358-3.053c1.334-0.137,2.817-0.599,4.409-1.554
	c1.257-0.748,2.169-1.744,2.808-2.823c1.291-0.211,2.662-0.658,4.009-1.433c0.524-0.301,1.011-0.633,1.464-0.98
	c4.533,5.551,10.592,11.262,16.326,11.262c1.08,0,2.147-0.205,3.189-0.645c4.666-1.986,6.227-5.231,6.714-7.601
	c1.3-6.342-3.323-14.622-14.992-26.834c-0.742-1.028-3.227-5.159-5.227-8.611c-0.209-2.589-1.227-5.312-3.476-8.068
	c-5.544-6.798-14.756-8.687-20.849-9.938c-1.613-0.332-3.767-0.773-4.638-1.12l-3.068-3.753l-30.671-41.957
	c-0.26-26.991-11.799-38.036-17.729-41.917c-0.735-10.431-14.591-25.111-22.481-32.673c-0.667-23.539-20.17-39.201-26.763-43.835
	c-3.124-39.192-32.921-59.92-40.855-64.774c-3.644-12.943-13.253-17.701-18.161-19.325c-1.006-6.273-2.24-12.091-3.371-17.414
	c-1.35-6.357-2.513-11.849-3.031-16.704c-5.651-53.237-36.094-62.589-49.623-64.082c-0.078-0.021-0.145-0.049-0.223-0.07
	c-0.632-0.167-1.267-0.198-1.875-0.113c-1.9-0.12-3.292-0.086-3.954-0.049c-4.778-0.155-49.21-0.045-55.024,58.628
	c-0.854,8.61-3.504,21.407-5.044,28.43c-0.259-0.051-0.508-0.134-0.77-0.171c-1.809-4.164-8.324-17.716-20.139-26.934
	c-1.37-5.66-4.969-13.198-11.793-14.957c-6.766-12.474-41.671-77.143-54.245-106.734c-6.162-14.494-8.402-24.042-10.198-31.715
	c-2.231-9.508-3.853-16.423-11.483-24.461c-1.457-2.399-7.312-10.993-18.268-16.032v-31.941c0-1.226-0.472-2.405-1.319-3.292
	l-1.201-1.255l3.459-3.568c1.545-1.592,1.787-4.04,0.583-5.903l-10.602-16.422c-0.875-1.357-2.38-2.18-3.996-2.181
	c-0.003,0-0.003,0-0.006,0c-1.613,0-3.118,0.816-3.996,2.17l-10.394,16.006c-1.167,1.796-0.993,4.148,0.425,5.752l3.537,3.999
	l-1.337,1.405c-0.844,0.886-1.315,2.063-1.315,3.287v29.396c-2.769,1.412-4.544,4.359-4.707,8.15
	c-0.137,3.178,0.836,6.698,2.712,9.673c-1.896,1.606-3.572,3.984-4.493,7.54c-0.413,1.59-0.558,3.689-0.264,5.715
	c-1.582,1.682-2.795,4.257-2.795,8.059c0,3.058,0.952,5.378,2.218,7.061c-0.484,1.646-0.667,3.588-0.304,5.752
	c0.5,2.974,2.01,5.152,3.404,6.59c-0.025,2.201,0.441,5.146,2.529,7.727c0.708,0.875,1.58,1.577,2.532,2.179v42.677
	c0,0.894,0.251,1.768,0.723,2.525l2.187,3.5l-2.823,2.933c-1.62,1.68-1.784,4.285-0.388,6.156l9.146,12.264
	c0.89,1.196,2.293,1.907,3.788,1.916c0.009,0,0.022,0,0.031,0c1.483,0,2.879-0.689,3.782-1.866l9.562-12.472
	c1.523-1.986,1.25-4.811-0.624-6.469l-2.377-2.1l2.42-3.85c0.478-0.76,0.732-1.64,0.732-2.536v-37.866l0.692,0.323
	c4.384,13.327,28.548,86.653,38.999,115.135c-0.067,0.325-0.105,0.661-0.102,1.006c0.531,59.624,2.947,104.178,7.186,132.424
	c3.525,23.513,8.143,35.737,14.989,39.143c0.32,0.708,0.796,1.356,1.461,1.856l0.282,0.213c2.815,2.112,5.511,4.117,8.292,5.565
	c-1.309,19.786-8.547,131.013-8.939,179.695H312.299V600V86.981z M739.785,814.319l-2.266-15.863
	c-0.375-2.603-2.826-4.412-5.392-4.046c-2.606,0.372-4.418,2.786-4.046,5.392l2.074,14.517h-18.489l-0.711-22.823
	c-0.081-2.628-2.355-4.775-4.911-4.614c-2.631,0.081-4.697,2.28-4.614,4.911l0.702,22.525h-34.375l0.243-23.018
	c-0.012-0.763-1.095-76.88-0.003-118.43c0.394-14.953,0.199-36.02-0.214-56.955c0.033-1.029,0.081-2.062,0.081-3.08
	c0-0.413-0.069-0.807-0.168-1.19c-0.762-36.08-2.104-70.498-2.125-71.054c-0.028-0.734-0.227-1.45-0.58-2.094
	c-0.965-1.768-1.632-3.307-2.221-4.665c-1.082-2.488-2.285-5.2-4.818-6.795c0.098-5.29-0.141-10.365-0.596-15.222
	c3.099,2.08,6.545,5.775,7.946,12.244c0.295,1.364,1.173,2.529,2.398,3.188c0.336,0.181,31.32,17.258,37.066,52.646
	c-3.373-1.107-7.334-1.994-10.883-1.697c-2.625,0.217-4.573,2.521-4.356,5.144c0.22,2.625,2.578,4.59,5.144,4.353
	c3.758-0.302,10.094,2.157,13.319,3.832c1.281,0.81,21.144,13.726,23.864,33.787c-5.831,0.287-12.937,3.114-16.989,12.236
	c-1.067,2.406,0.016,5.222,2.42,6.29c0.63,0.279,1.288,0.413,1.933,0.413c1.827,0,3.568-1.056,4.359-2.831
	c3.096-6.966,8.603-6.884,11.028-6.461c8.7,8.296,16.256,17.602,19.047,23.085c-3.265,0.362-7.347,1.954-12.086,6.137
	c-1.973,1.742-2.162,4.753-0.422,6.726c0.943,1.069,2.256,1.613,3.577,1.613c1.12,0,2.243-0.392,3.149-1.191
	c4.809-4.243,7.688-4.086,8.374-3.67c-0.192-0.116-0.279-0.222-0.279-0.222l0.01-0.012c0.437,0.389,0.936,0.708,1.495,0.916
	c0.127,0.048,10.947,4.735,14.083,24.426c-0.61,0.1-1.21,0.32-1.765,0.669c-0.779,0.49-19.065,12.35-22.599,44.755
	c-0.342,3.133-0.714,7.172-1.052,11.761c-0.075,0.414-0.123,0.815-0.089,1.233c-0.202,2.857-0.39,5.903-0.548,9.082
	c-0.184,0.669-0.207,1.345-0.093,2.026c-0.833,18.549-0.586,40.624,3.511,52.024H739.785z M548.268,521.94
	c-0.019-2.622-2.147-4.735-4.766-4.735c-0.009,0-0.022,0-0.031,0c-2.634,0.017-4.753,2.166-4.735,4.797
	c0.012,1.663,1.108,166.875,1.108,218.37c0,39.43-0.803,64.353-1.184,73.947h-23.089c0.055-33.426,1.004-70.598,2.834-110.613
	c0.121-2.629-1.911-4.859-4.542-4.98c-2.547-0.079-4.859,1.914-4.977,4.542c-1.839,40.162-2.792,77.48-2.847,111.051h-25.924
	c0.384-47.321,7.289-154.367,8.819-177.593c3.553-0.352,7.485-2.035,12.086-5.712c13.366-10.684,16.825-68.809,17.384-80.354
	c0.127-2.628-1.899-4.862-4.53-4.989c-2.615-0.18-4.862,1.902-4.989,4.53c-1.303,26.92-6.45,67.48-13.816,73.368
	c-5.526,4.416-8.076,4.667-12.633,1.796c10.873-7.806,17.677-35.141,17.677-110.979c0-20.05,1.281-42.235,2.073-54.008
	c0.875,1.857,1.458,3.94,1.691,5.281c0.006,0.039,0.033,0.069,0.04,0.108c0.019,0.097,0.019,0.193,0.043,0.289
	c0.04,0.16,4.058,16.43,3.27,50.788c-0.059,2.631,2.026,4.812,4.657,4.873c0.037,0.002,0.074,0.002,0.112,0.002
	c2.581,0,4.7-2.063,4.762-4.657c0.394-17.263-0.377-30.062-1.302-38.821c3.016,3.836,5.311,7.67,6.837,10.569
	c-1.399,0.821-2.367,2.125-2.305,4.263c0.143,4.933,4.744,5.124,11.113,5.389c7.607,0.318,15.711,15.95,18.445,23.471
	c0.605,1.661,2.079,2.856,3.832,3.096c1.136,0.157,5.228,0.62,9.45-0.052c5.237,1.822,10.695,3.866,10.713,3.873
	c0.549,0.206,1.117,0.304,1.672,0.304c1.93,0,3.745-1.181,4.461-3.095c0.925-2.463-0.326-5.211-2.789-6.135
	c0,0-1.503-0.563-3.688-1.362c2.476-4.015,3.366-9.418,3.501-14.599c4.911,3.699,10.989,5.992,18.563,5.992
	c5.627,0,10.629-1.364,15.005-3.969c-1.408,13.762-1.143,29.498-0.177,44.283c-1.959,1.59-7.971,4.045-13.339,4.045
	c-19.444,0-37.032-23.82-37.209-24.06c-1.551-2.124-4.536-2.597-6.655-1.049c-2.128,1.547-2.6,4.524-1.055,6.652
	c0.828,1.142,20.598,27.988,44.919,27.988c3.825,0,9.413-1.084,14.135-3.148c2.018,22.969,5.254,41.527,5.52,43.035
	c0.261,1.457,1.179,2.712,2.491,3.396c0.689,0.36,1.446,0.54,2.203,0.54c0.683,0,1.368-0.147,2.004-0.442
	c1.464-0.678,14.66-7.545,26.834-39.198c3.029-7.875,5.007-15.448,6.265-22.724c0.402,10.88,1.45,40.721,2.045,70.817
	c-0.765,20.192-8.213,42.957-10.795,50.293c-7.617,1.564-30.805,6-48.527,6c-21.163,0-36.238-4.209-36.387-4.252
	c-2.547-0.717-5.166,0.749-5.889,3.279c-0.72,2.53,0.745,5.164,3.273,5.887c0.661,0.188,16.422,4.617,39.003,4.617
	c16.674,0,37.203-3.579,47.171-5.533l-0.269,9.466c-9.485,1.554-34.268,5.385-48.009,5.385c-16.099,0-26.043-1.433-31.386-2.204
	c-2.37-0.341-3.937-0.568-5.2-0.568c-2.631,0-4.766,2.133-4.766,4.766c0,2.633,2.135,4.766,4.766,4.766
	c0.577,0,2.162,0.228,3.841,0.47c5.578,0.805,15.963,2.302,32.745,2.302c14.414,0,39.148-3.8,49.139-5.439l10.788,25.01
	c0.059,0.138,0.159,0.241,0.23,0.37c-0.013,35.398,0.481,70.149,0.487,70.586l-0.244,22.999H548.198
	c0.391-10.015,1.177-34.968,1.177-73.947C549.375,688.846,548.28,523.603,548.268,521.94z M394.628,381.121
	c-0.031-0.057-0.065-0.115-0.099-0.171l-3.435-5.493v-38.668c0.836,0.054,1.661,0.088,2.448,0.088c1.799,0,3.408-0.118,4.651-0.246
	v38.821L394.628,381.121z M397.306,389.508l-3.025,3.945l-2.96-3.971l2.597-2.699c0.112-0.113,0.214-0.231,0.31-0.354
	c0.254,0.458,0.589,0.878,0.999,1.241L397.306,389.508z M390.263,238.212l3.041-3.193c0.189-0.197,0.354-0.405,0.503-0.624
	c0.149,0.22,0.316,0.43,0.506,0.628l3.05,3.191v27.003c-2.217-0.411-4.598-0.623-7.099-0.671V238.212z M389.388,224.013l4.412-6.795
	l4.555,7.055l-4.015,4.14c-0.202,0.206-0.379,0.425-0.534,0.655c-0.115-0.171-0.242-0.335-0.382-0.493L389.388,224.013z
	 M380.909,303.419c1.821-0.408,3.261-1.857,3.63-3.729c0.295-1.489-0.143-2.986-1.105-4.075c-0.102-0.521-0.155-1.413,0.037-2.159
	c0.735-2.837,2.144-3.247,2.774-3.247c0.003,0,0.009,0,0.012,0c0.289,0.029,0.577,0.039,0.863,0.012
	c6.509-0.5,12.358,1.323,12.593,2.729c0.05,0.312,0.171,1.038-0.313,1.381c-1.812,0.963-2.802,2.98-2.457,5.003
	c0.341,2.023,1.942,3.599,3.971,3.912c0.602,0.093,0.714,0.261,0.751,0.316c0.279,0.413,0.425,1.522,0.174,2.597
	c-0.065,0.273-0.13,0.493-0.186,0.664c-1.675,0.617-2.923,2.15-3.099,4.021c-0.208,2.176,1.086,4.174,3.072,4.916
	c0.025,0.323,0.034,0.652,0.043,0.869v0.008c-0.143,0.287-0.413,0.724-0.627,1.007c-1.061,1.353-1.309,3.171-0.652,4.759
	c0.301,0.732,0.776,1.364,1.365,1.852c-0.093,0.382-0.242,0.835-0.465,1.305c-0.394,0.504-2.172,1.277-3.298,1.513
	c-4.815,0.619-10.53,0.074-11.551-1.097c-0.537-0.664-0.441-2.009-0.332-2.485c0.574-2.093-0.338-4.308-2.218-5.389
	c-0.009-0.008-1.191-0.836-1.39-2.028c-0.199-1.165,0.124-1.731,0.074-1.731c0,0-0.003,0-0.003,0.002
	c1.62-1.063,2.643-2.651,2.265-4.555c-0.379-1.908-1.669-3.041-3.583-3.4c-0.161-0.09-0.537-0.42-0.537-1.55
	C380.716,304.05,380.831,303.617,380.909,303.419z M410.69,319.732c0.341-0.953,0.565-1.995,0.515-3.05l-0.012-0.374
	c-0.074-2.176-0.441-3.878-0.996-5.208c0.363-0.799,0.673-1.717,0.918-2.767c0.853-3.628,0.273-7.406-1.548-10.104
	c-0.279-0.41-0.58-0.794-0.906-1.153c0.574-1.595,0.819-3.493,0.453-5.685c-1.411-8.528-12.002-10.761-19.765-10.773
	c-1.529-0.471-2.535-2.071-2.902-2.782c-0.757-1.471-0.934-2.845-0.897-3.624c21.566-2.147,31.215,14.551,31.606,15.254
	c0.208,0.375,0.462,0.721,0.76,1.029c6.14,6.325,7.316,11.332,9.447,20.421c1.617,6.906,3.817,16.17,9.052,29.227l-14.17,10.628
	c-3.239-9.791-5.336-16.173-5.418-16.423c-0.41-1.25-1.319-2.276-2.51-2.833l-4.356-2.033
	C410.728,327.803,412.386,323.418,410.69,319.732z M440.255,349.18c14.664,32.817,47.646,93.71,52.932,103.429
	c-0.506,6.679-2.602,35.937-2.602,61.777c0,4.987-0.034,9.723-0.093,14.263c-4.955-10.877-11.755-25.849-17.865-39.468
	c-0.001-0.002-0.002-0.004-0.003-0.006c-6.37-14.196-11.981-26.9-13.93-31.862c-6.079-15.472-22.909-65.725-33.285-96.997
	L440.255,349.18z M463.824,492.854c0.636,5.766,4.62,42.514,6.761,79.151c1.395,15.346,4.321,34.018,10.382,39.961
	c-2.308,4.823-4.777,6.534-7.105,6.536c-1.516-0.442-14.24-8.172-16.709-140.618C459.174,482.458,461.443,487.546,463.824,492.854z
	 M566.164,450.512c6.617,0.775,16.562,1.673,27.237,1.673c10.906,0,21.508-0.898,28.492-1.65
	c-0.614,20.712-5.269,49.889-26.624,49.889C571.122,500.423,566.892,464.731,566.164,450.512z M818.384,759.313
	c5.34,1.095,11.982,2.46,15.383,6.627c2.584,3.168,1.412,6.351-4.489,12.156c-0.571,0.562-1.052,1.042-1.393,1.421
	c-2.373,2.622-4.285,3.345-4.862,3.521c-0.546-0.186-1.185-0.558-1.303-0.773c-0.003-0.016-0.115-1.734,3.745-5.625
	c1.347-1.356,1.679-3.382,0.959-5.153c-0.72-1.768-2.501-2.935-4.409-2.969c-0.127,0-3.186-0.09-7.499-3.444
	c-2.082-1.616-5.073-1.241-6.689,0.838c-1.613,2.079-1.238,5.073,0.838,6.689c1.893,1.471,3.695,2.547,5.333,3.332
	c-1.995,3.565-2.361,6.903-1.083,9.975c1.976,4.744,7.446,6.714,9.934,6.714c2.916,0,7.629-1.762,12.106-6.714
	c0.245-0.273,0.599-0.614,1.008-1.021c1.101-1.083,2.908-2.862,4.591-5.133c0.816,1.308,1.544,2.419,1.98,2.955
	c0.081,0.099,0.164,0.195,0.254,0.289c13.223,13.797,12.811,18.073,12.721,18.516c-0.031,0.143-0.338,0.372-0.782,0.593
	c-2.249-0.565-7.949-6.27-12.013-12.078c-0.974-1.393-2.637-2.141-4.325-1.986c-1.691,0.143-3.196,1.207-3.919,2.746
	c-0.208,0.441-0.987,1.719-2.069,2.342c-0.648,0.372-1.126,0.335-1.095,0.372c-1.604-0.856-3.32-0.925-4.797,0.146
	c-1.263,0.915-1.812,2.231-1.744,3.714c-1.101-0.329-2.321-0.236-3.45,0.242c-1.865,0.782-3.006,2.892-2.885,4.911
	c0,0-0.09-1.523-0.084-1.526c-0.059-0.019-3.075,0.267-11.175-9.668c-4.787-5.867-7.927-17.073-7.155-19.497
	c0.763-2.24,0.807-4.887-6.875-12.513l-0.669-0.767l10.673-10.226l1.91,2.612l3.552,4.35
	C810.591,757.715,813.861,758.385,818.384,759.313z M786.194,751.361l-25.603-29.304c3.248-8.779,7.576-14.314,10.626-17.406
	l26.253,35.907L786.194,751.361z M312.299,1027.058V823.85h575.383l0.019,203.208H312.299z M522.637,632.43
	c-0.009,0.098-1.114,10.239-3.252,51.312c-0.133,2.544-2.237,4.517-4.756,4.517c-0.084,0-0.168-0.002-0.251-0.006
	c-2.628-0.137-4.648-2.378-4.511-5.008c2.163-41.571,3.255-51.481,3.301-51.883c0.292-2.612,2.631-4.508,5.265-4.199
	C521.049,627.458,522.932,629.816,522.637,632.43z M674.205,563.86c-0.586-1.872,0.028-3.99,1.688-5.236
	c2.104-1.579,5.098-1.154,6.671,0.951c3.168,4.215,3.087,80.112,2.833,96.062c-0.043,2.606-2.169,4.69-4.766,4.69
	c-0.025,0-0.05,0-0.078,0c-2.631-0.043-4.728-2.211-4.688-4.842C676.584,610.673,674.946,568.776,674.205,563.86z M685.572,678.925
	c-0.012,0.585-1.027,58.598-1.027,67.874c0,2.633-2.135,4.764-4.766,4.764s-4.766-2.131-4.766-4.764
	c0-9.359,0.987-65.649,1.027-68.041c0.047-2.603,2.172-4.682,4.762-4.682c0.031,0,0.059,0,0.087,0
	C683.522,674.123,685.619,676.294,685.572,678.925z M713.446,656.962c-0.071,0.178-3.248,8.217-3.075,19.85
	c0.037,2.633-2.063,4.797-4.694,4.837c-0.025,0-0.05,0-0.071,0c-2.6,0-4.725-2.086-4.766-4.694
	c-0.205-13.788,3.63-23.227,3.791-23.621c1.005-2.432,3.785-3.594,6.227-2.584C713.285,651.753,714.442,654.533,713.446,656.962z
	 M710.126,697.186v73.104c0,2.631-2.135,4.766-4.766,4.766s-4.766-2.135-4.766-4.766v-73.104c0-2.633,2.135-4.766,4.766-4.766
	S710.126,694.553,710.126,697.186z M739.452,698.973c-0.028,0.178-2.718,18.35-2.718,75.211c0,2.631-2.135,4.766-4.766,4.766
	s-4.766-2.135-4.766-4.766c0-57.908,2.715-75.937,2.83-76.677c0.41-2.6,2.861-4.373,5.445-3.971
	C738.077,693.942,739.855,696.376,739.452,698.973z M603.739,486.393c0.8,2.507-0.58,5.189-3.087,5.991
	c-2.187,0.7-4.247,0.937-6.031,0.937c-3.444,0-5.87-0.884-6.255-1.032c-2.454-0.951-3.673-3.712-2.721-6.166
	c0.946-2.437,3.677-3.647,6.109-2.743c0.152,0.051,2.848,0.932,5.994-0.074C600.264,482.5,602.935,483.887,603.739,486.393z
	 M581.195,466.976c-3.804,0-6.702-1.438-7.167-1.682c-2.33-1.226-3.227-4.106-2.004-6.436c1.226-2.332,4.102-3.225,6.435-2.003
	c0.003,0,2.674,1.26,4.93,0.053c2.318-1.239,5.209-0.363,6.447,1.964c1.238,2.322,0.36,5.208-1.961,6.447
	C585.545,466.56,583.24,466.976,581.195,466.976z M598.331,458.858c1.226-2.332,4.105-3.225,6.435-2.003
	c0.003,0,2.674,1.26,4.93,0.053c2.318-1.239,5.209-0.363,6.447,1.964c1.238,2.322,0.36,5.208-1.961,6.447
	c-2.33,1.241-4.635,1.657-6.68,1.657c-3.804,0-6.702-1.438-7.167-1.682C598.005,464.069,597.109,461.188,598.331,458.858z
	 M594.149,470.482c2.178-0.524,4.517,0.566,5.467,2.701c1.067,2.406-0.016,5.222-2.423,6.29c-0.434,0.192-1.604,0.644-3.044,0.644
	c-1.443,0-2.612-0.451-3.047-0.644c-2.408-1.069-3.49-3.884-2.423-6.29C589.631,471.048,591.952,469.959,594.149,470.482z
	 M728.435,964.818c-0.015-0.149-0.025-0.297-0.054-0.443c-0.029-0.15-0.078-0.297-0.122-0.445c-0.046-0.154-0.091-0.307-0.152-0.456
	c-0.019-0.047-0.027-0.097-0.048-0.144c-0.042-0.092-0.102-0.169-0.15-0.258c-0.078-0.148-0.157-0.294-0.251-0.434
	c-0.082-0.122-0.171-0.234-0.263-0.346c-0.104-0.129-0.211-0.254-0.33-0.372c-0.104-0.104-0.214-0.197-0.327-0.29
	c-0.125-0.103-0.251-0.204-0.388-0.295c-0.13-0.086-0.265-0.16-0.402-0.233c-0.094-0.05-0.176-0.114-0.275-0.159l-18.997-8.569
	c-0.617-0.279-1.284-0.422-1.961-0.422H546.847c0.415-7.176,1.169-13.558,2.764-20.322c0.4-1.691-0.155-3.469-1.449-4.632
	c-1.291-1.163-3.118-1.53-4.756-0.962c-10.212,3.559-16.275,12.697-17.44,25.916h-31.348c-0.02-0.026-0.026-0.058-0.046-0.084
	l-4.365-5.454c-1.213-1.514-3.224-2.15-5.091-1.585c-0.509,0.152-12.454,3.934-12.454,20.508c0,16.683,12.423,20.204,12.95,20.347
	c0.41,0.109,0.825,0.161,1.235,0.161c1.427,0,2.805-0.642,3.723-1.79l4.357-5.448h31.124c1.842,24.576,17.729,26.497,18.445,26.567
	c0.158,0.016,0.32,0.025,0.478,0.025c1.306,0,2.563-0.537,3.469-1.495c1.015-1.077,1.471-2.566,1.238-4.027l-0.372-2.299
	c-1.193-7.393-2.093-13.033-2.58-18.771h157.988c0.673,0,1.34-0.143,1.958-0.419l18.997-8.554c0.151-0.068,0.282-0.162,0.422-0.244
	c0.086-0.049,0.172-0.092,0.255-0.148c0.339-0.226,0.646-0.483,0.909-0.778c0.043-0.049,0.077-0.106,0.119-0.156
	c0.233-0.284,0.428-0.592,0.59-0.919c0.026-0.052,0.067-0.089,0.091-0.142c0.02-0.044,0.026-0.09,0.045-0.134
	c0.067-0.16,0.116-0.324,0.164-0.491c0.04-0.137,0.085-0.273,0.112-0.411c0.031-0.158,0.043-0.319,0.059-0.481
	c0.014-0.147,0.033-0.292,0.033-0.438C728.47,965.135,728.451,964.977,728.435,964.818z M703.691,969.075H546.335
	c0-0.897-0.005-1.782,0.016-2.727c0.036-1.678,0.074-3.294,0.116-4.865h157.225l8.422,3.799L703.691,969.075z M805.534,872.697
	c-30.356,0-55.049,24.693-55.049,55.046c0,30.356,24.693,55.049,55.049,55.049c30.353,0,55.046-24.693,55.046-55.049
	C860.579,897.39,835.886,872.697,805.534,872.697z M847.854,911.102c-0.543-0.213-1.115-0.358-1.724-0.358h-27.334l-8.445-25.997
	c-0.316-0.972-0.928-1.785-1.712-2.362C826.508,883.601,841.555,895.142,847.854,911.102z M831.465,920.275l-7.744,5.625
	l-1.827-5.625H831.465z M796.024,931.789l3.742-11.514h12.106l3.742,11.514l-9.792,7.117L796.024,931.789z M797.712,944.795
	l-7.741,5.625l2.957-9.1L797.712,944.795z M805.819,901.644l2.957,9.1h-5.914L805.819,901.644z M818.71,941.32l2.957,9.1
	l-7.738-5.625L818.71,941.32z M803.041,882.354c-0.805,0.579-1.433,1.404-1.755,2.393l-8.445,25.997H765.51
	c-0.887,0-1.709,0.286-2.434,0.722C769.361,895.137,784.769,883.351,803.041,882.354z M789.745,920.275l-1.827,5.622l-7.741-5.622
	H789.745z M760.016,927.743c0-3.536,0.445-6.963,1.212-10.269c0.333,0.728,0.802,1.399,1.481,1.892l22.112,16.065l-8.445,25.99
	c-0.115,0.355-0.138,0.718-0.168,1.079C766.319,954.144,760.016,941.673,760.016,927.743z M782.885,967.169
	c0.28-0.129,0.569-0.232,0.825-0.418l22.112-16.065l22.109,16.065c0.158,0.115,0.343,0.166,0.511,0.259
	c-6.738,3.947-14.551,6.25-22.908,6.25C797.285,973.261,789.564,971.022,782.885,967.169z M835.362,962.041
	c-0.038-0.207-0.031-0.416-0.097-0.62l-8.445-25.99l22.112-16.065c0.439-0.319,0.8-0.708,1.099-1.137
	c0.656,3.071,1.017,6.25,1.017,9.514C851.048,941.428,844.951,953.69,835.362,962.041z M495.369,900.44
	c11.129-1.573,23.632-1.775,31.559-1.697l-2.513,4.288c-0.664,1.132-0.831,2.488-0.462,3.751c0.369,1.257,1.241,2.311,2.411,2.907
	l11.684,5.954c0.686,0.347,1.427,0.518,2.159,0.518c1.291,0,2.563-0.524,3.487-1.514l12.494-13.384
	c18.575-0.195,157.077-1.648,160.49-1.648c5.169,0,10.114-4.766,10.803-10.409c0.531-4.347-1.682-10.124-9.658-12.097
	c-10.288-2.55-113.517-6.332-133.802-7.052l-10.819-14.325c-1.489-1.967-4.235-2.473-6.326-1.17l-11.784,7.356
	c-1.105,0.689-1.877,1.796-2.144,3.068c-0.245,1.179-0.034,2.401,0.58,3.428c-19.177-1.225-60.643-3.884-69.051-4.545
	c-0.031-0.003-0.065-0.006-0.099-0.006c-4.837-0.282-14.685,1.961-17.101,12.426c-1.371,5.951-2.606,14.508,2.507,20.083
	C475.27,902.354,485.32,901.864,495.369,900.44z M476.567,878.434c1.142-4.952,6.214-5.101,7.26-5.054
	c11.324,0.884,78.182,5.125,78.858,5.169c1.834,0.112,3.549-0.819,4.446-2.401c0.9-1.585,0.816-3.546-0.214-5.051l-2.557-3.726
	l3.863-2.414l9.559,12.655c0.866,1.145,2.203,1.84,3.636,1.889c49.846,1.75,126.694,5.02,134.115,6.86
	c0.254,0.062,2.488,0.642,2.498,1.52c0.006,0.959-0.99,2.088-1.353,2.203c-3.689,0-156.143,1.601-162.631,1.669
	c-1.303,0.016-2.544,0.562-3.435,1.514l-11.436,12.252l-3.984-2.029l4.043-6.9c0.844-1.44,0.875-3.211,0.081-4.679
	c-0.791-1.464-2.293-2.411-3.956-2.491c-0.912-0.05-22.556-1.073-41.326,1.582c-3.556,0.506-14.374,2.038-17.225-1.073
	C475.317,888.303,475.23,884.22,476.567,878.434z M431.639,871.468c-0.143-2.705-0.273-5.088-0.273-7.012
	c0-2.631-2.135-4.766-4.766-4.766h-71.207c-0.022,0-0.043,0.006-0.065,0.007c-0.022,0-0.043-0.007-0.065-0.007
	c-2.631,0-4.766,2.135-4.766,4.766c0,1.924-0.13,4.306-0.273,7.012c-0.735,13.955-1.97,37.315,11.064,51.053
	c3.692,3.892,8.281,6.704,13.666,8.495l-1.758,4.532c-0.608,1.567-0.348,3.335,0.686,4.657l6.295,8.07l-2.681,33.7h-18.684
	c-2.631,0-4.766,2.135-4.766,4.766v4.924c0,2.631,2.135,4.766,4.766,4.766h32.081c0.013,0,0.026-0.004,0.039-0.004
	c0.013,0,0.026,0.004,0.039,0.004h32.081c2.631,0,4.766-2.135,4.766-4.766v-4.924c0-2.631-2.135-4.766-4.766-4.766H404.37
	l-2.681-33.7l6.292-8.07c1.033-1.325,1.294-3.09,0.686-4.657l-1.758-4.532c5.385-1.791,9.974-4.602,13.666-8.493
	C433.609,908.783,432.374,885.424,431.639,871.468z M422.12,871.971c0.078,1.482,0.159,3.059,0.23,4.688h-62.838
	c0.071-1.629,0.152-3.206,0.23-4.688c0.05-0.961,0.096-1.869,0.138-2.749h62.099C422.021,870.097,422.07,871.015,422.12,871.971z
	 M392.39,951.571l2.42,30.436h-7.753l2.42-30.436H392.39z M398.804,936.477l-4.34,5.563h-7.063l-4.342-5.563l1.351-3.482
	c1.876,0.192,3.797,0.324,5.816,0.324c0.242,0,0.475-0.036,0.707-0.071c0.233,0.035,0.465,0.071,0.707,0.071
	c2.017,0,3.937-0.132,5.813-0.323L398.804,936.477z M391.64,923.787c-0.242,0-0.475,0.036-0.707,0.071
	c-0.233-0.035-0.465-0.071-0.707-0.071c-9.826,0-17.027-2.56-22.022-7.825c-6.953-7.331-8.68-18.935-8.856-29.772h63.168
	c-0.176,10.837-1.903,22.443-8.856,29.772C408.667,921.227,401.463,923.787,391.64,923.787z M547.75,365.027
	c0,6.858,4.334,12.634,11.597,15.449c2.932,1.137,6.407,1.775,10.176,1.775c8.232,0,17.858-3.037,26.282-10.533
	c8.424,7.497,18.05,10.533,26.282,10.533c3.766,0,7.245-0.638,10.176-1.775c7.263-2.816,11.597-8.591,11.597-15.449
	s-4.334-12.635-11.597-15.451c-9.335-3.617-24.174-2.135-36.458,8.8c-12.283-10.936-27.12-12.426-36.458-8.8
	C552.084,352.392,547.75,358.169,547.75,365.027z M628.817,358.463c2.06,0.797,5.513,2.712,5.513,6.564
	c0,3.85-3.453,5.765-5.51,6.564c-6.696,2.594-17.295,0.979-26.157-6.564C611.529,357.482,622.135,355.872,628.817,358.463z
	 M562.794,358.463c6.682-2.597,17.291-0.982,26.155,6.564c-8.862,7.545-19.462,9.157-26.158,6.563
	c-2.057-0.799-5.51-2.713-5.51-6.564C557.281,361.175,560.734,359.261,562.794,358.463z M595.235,162.829v-50.262
	c0-2.633,2.135-4.766,4.766-4.766s4.766,2.133,4.766,4.766v50.262c0,2.633-2.135,4.766-4.766,4.766S595.235,165.461,595.235,162.829
	z M530.089,253.322c0,2.428-1.969,4.397-4.397,4.397c-5.618,0-10.189,4.57-10.189,10.188c0,2.428-1.969,4.397-4.397,4.397
	c-2.428,0-4.397-1.969-4.397-4.397c0-5.618-4.57-10.188-10.188-10.188c-2.428,0-4.397-1.969-4.397-4.397
	c0-2.428,1.969-4.397,4.397-4.397c5.618,0,10.188-4.571,10.188-10.188c0-2.428,1.969-4.397,4.397-4.397
	c2.428,0,4.397,1.969,4.397,4.397c0,5.618,4.57,10.188,10.189,10.188C528.12,248.925,530.089,250.894,530.089,253.322z
	 M710.895,253.322c0,2.428-1.969,4.397-4.397,4.397c-5.618,0-10.189,4.57-10.189,10.188c0,2.428-1.969,4.397-4.396,4.397
	c-2.429,0-4.397-1.969-4.397-4.397c0-5.618-4.571-10.188-10.188-10.188c-2.428,0-4.396-1.969-4.396-4.397
	c0-2.428,1.969-4.397,4.396-4.397c5.617,0,10.188-4.571,10.188-10.188c0-2.428,1.969-4.397,4.397-4.397
	c2.428,0,4.396,1.969,4.396,4.397c0,5.618,4.571,10.188,10.189,10.188C708.926,248.925,710.895,250.894,710.895,253.322z
	 M807.408,360.288c0-5.618-4.57-10.188-10.188-10.188c-2.428,0-4.397-1.969-4.397-4.397c0-2.428,1.969-4.397,4.397-4.397
	c5.618,0,10.188-4.571,10.188-10.189c0-2.428,1.969-4.397,4.397-4.397s4.397,1.969,4.397,4.397c0,5.618,4.57,10.189,10.189,10.189
	c2.428,0,4.397,1.969,4.397,4.397c0,2.428-1.969,4.397-4.397,4.397c-5.618,0-10.189,4.57-10.189,10.188
	c0,2.428-1.969,4.397-4.397,4.397S807.408,362.716,807.408,360.288z M759.11,472.639c0,2.428-1.969,4.397-4.397,4.397
	c-5.618,0-10.189,4.57-10.189,10.188c0,2.428-1.969,4.397-4.397,4.397s-4.397-1.969-4.397-4.397c0-5.618-4.571-10.188-10.188-10.188
	c-2.428,0-4.397-1.969-4.397-4.397c0-2.428,1.969-4.397,4.397-4.397c5.617,0,10.188-4.571,10.188-10.188
	c0-2.428,1.969-4.397,4.397-4.397s4.397,1.969,4.397,4.397c0,5.618,4.571,10.188,10.189,10.188
	C757.141,468.243,759.11,470.212,759.11,472.639z M369.598,529.986c2.428,0,4.396,1.969,4.396,4.397
	c0,5.618,4.571,10.188,10.189,10.188c2.428,0,4.397,1.969,4.397,4.397c0,2.428-1.969,4.397-4.397,4.397
	c-5.618,0-10.189,4.57-10.189,10.188c0,2.428-1.969,4.397-4.396,4.397c-2.429,0-4.397-1.969-4.397-4.397
	c0-5.618-4.571-10.188-10.188-10.188c-2.428,0-4.397-1.969-4.397-4.397c0-2.428,1.969-4.397,4.397-4.397
	c5.617,0,10.188-4.571,10.188-10.188C365.201,531.955,367.17,529.986,369.598,529.986z M389.604,699.099
	c0-2.428,1.969-4.397,4.397-4.397c5.617,0,10.188-4.571,10.188-10.189c0-2.428,1.969-4.397,4.397-4.397
	c2.428,0,4.397,1.969,4.397,4.397c0,5.618,4.571,10.189,10.189,10.189c2.428,0,4.397,1.969,4.397,4.397s-1.969,4.397-4.397,4.397
	c-5.618,0-10.189,4.57-10.189,10.188c0,2.428-1.969,4.397-4.397,4.397c-2.428,0-4.397-1.969-4.397-4.397
	c0-5.618-4.571-10.188-10.188-10.188C391.573,703.496,389.604,701.527,389.604,699.099z M844.347,597.895
	c0,2.428-1.969,4.397-4.397,4.397c-5.618,0-10.189,4.57-10.189,10.188c0,2.428-1.969,4.397-4.397,4.397
	c-2.428,0-4.397-1.969-4.397-4.397c0-5.618-4.57-10.188-10.188-10.188c-2.429,0-4.397-1.969-4.397-4.397
	c0-2.428,1.969-4.397,4.397-4.397c5.617,0,10.188-4.571,10.188-10.189c0-2.428,1.969-4.397,4.397-4.397
	c2.428,0,4.397,1.969,4.397,4.397c0,5.618,4.57,10.189,10.189,10.189C842.379,593.498,844.347,595.467,844.347,597.895z
	 M351.347,1066.065c1.021,1.024,1.533,2.255,1.533,3.701s-0.512,2.681-1.533,3.704c-1.046,1.024-2.293,1.533-3.739,1.533h-11.175
	v34.159c0,1.471-0.512,2.715-1.533,3.739c-1.024,1.021-2.259,1.533-3.704,1.533s-2.69-0.512-3.736-1.533
	c-1.024-1.024-1.533-2.268-1.533-3.739v-34.159h-11.144c-1.468,0-2.712-0.509-3.736-1.533c-1.024-1.024-1.533-2.259-1.533-3.704
	s0.509-2.677,1.533-3.701c1.024-1.046,2.268-1.567,3.736-1.567h32.825C349.054,1064.498,350.302,1065.019,351.347,1066.065z
	 M404.622,1066.065c1.021,1.024,1.533,2.255,1.533,3.701v39.397c0,1.471-0.512,2.715-1.533,3.739
	c-1.046,1.021-2.293,1.533-3.739,1.533s-2.681-0.512-3.701-1.533c-1.024-1.024-1.536-2.268-1.536-3.739v-14.443h-22.351v14.443
	c0,1.471-0.512,2.715-1.533,3.739c-1.024,1.021-2.259,1.533-3.704,1.533c-1.467,0-2.712-0.512-3.736-1.533
	c-1.024-1.024-1.533-2.268-1.533-3.739v-39.397c0-1.446,0.509-2.677,1.533-3.701c1.024-1.046,2.268-1.567,3.736-1.567
	c1.446,0,2.681,0.521,3.704,1.567c1.021,1.024,1.533,2.255,1.533,3.701v14.446h22.351v-14.446c0-1.446,0.512-2.677,1.536-3.701
	c1.021-1.046,2.256-1.567,3.701-1.567S403.576,1065.019,404.622,1066.065z M430.506,1075.004v9.208h21.017
	c1.446,0,2.69,0.512,3.736,1.536c1.024,1.021,1.536,2.268,1.536,3.735c0,1.446-0.512,2.681-1.536,3.701
	c-1.046,1.024-2.29,1.536-3.736,1.536h-21.017v9.205h27.588c1.446,0,2.69,0.512,3.736,1.536c1.024,1.024,1.536,2.259,1.536,3.701
	c0,1.471-0.512,2.715-1.536,3.739c-1.046,1.021-2.29,1.533-3.736,1.533h-32.825c-1.467,0-2.715-0.512-3.735-1.533
	c-1.024-1.024-1.536-2.268-1.536-3.739v-39.397c0-1.446,0.512-2.677,1.536-3.701c1.021-1.046,2.268-1.567,3.735-1.567h32.825
	c1.446,0,2.69,0.521,3.736,1.567c1.024,1.024,1.536,2.255,1.536,3.701s-0.512,2.681-1.536,3.704
	c-1.046,1.024-2.29,1.533-3.736,1.533H430.506z M554.169,1066.831c0.599,0.891,0.9,1.868,0.9,2.935v39.397
	c0,1.471-0.524,2.715-1.57,3.739c-1.021,1.021-2.256,1.533-3.701,1.533s-2.681-0.512-3.701-1.533
	c-1.024-1.024-1.536-2.268-1.536-3.739v-26.719l-10.741,10.741c-1.024,1.024-2.268,1.536-3.735,1.536
	c-1.446,0-2.681-0.512-3.704-1.536l-10.741-10.741v26.719c0,1.471-0.512,2.715-1.536,3.739c-1.021,1.021-2.256,1.533-3.701,1.533
	c-1.467,0-2.715-0.512-3.736-1.533c-1.024-1.024-1.536-2.268-1.536-3.739v-39.397c0-1.067,0.301-2.045,0.9-2.935
	c0.58-0.866,1.359-1.511,2.336-1.933c0.977-0.4,1.989-0.503,3.034-0.301c1.046,0.22,1.948,0.71,2.702,1.468l15.981,15.978
	l16.012-15.978c0.754-0.757,1.644-1.247,2.668-1.468c1.046-0.202,2.057-0.099,3.034,0.301
	C552.801,1065.32,553.589,1065.966,554.169,1066.831z M594.596,1067.399c-0.444-0.891-1.089-1.601-1.933-2.135
	c-0.847-0.512-1.768-0.766-2.771-0.766c-0.999,0-1.924,0.254-2.767,0.766c-0.847,0.534-1.489,1.244-1.936,2.135l-19.714,39.431
	c-0.645,1.291-0.735,2.625-0.267,4.002c0.444,1.381,1.322,2.392,2.634,3.034c1.291,0.645,2.625,0.735,4.002,0.267
	c1.381-0.444,2.392-1.322,3.037-2.634l3.469-6.937h23.052l3.503,6.937c0.444,0.912,1.101,1.635,1.967,2.169
	c0.844,0.512,1.756,0.766,2.737,0.766c0.822,0,1.601-0.189,2.333-0.568c1.291-0.642,2.169-1.654,2.637-3.034
	c0.465-1.378,0.366-2.712-0.301-4.002L594.596,1067.399z M583.622,1094.053l6.27-12.544l6.273,12.544H583.622z M670.422,1085.679
	c1.089,1.046,1.632,2.302,1.632,3.77v0.034c0,6.872-2.445,12.755-7.338,17.647c-4.871,4.868-10.754,7.303-17.647,7.303
	c-6.872,0-12.755-2.436-17.647-7.303c-4.868-4.893-7.303-10.775-7.303-17.647c0-6.894,2.436-12.776,7.303-17.647
	c4.893-4.893,10.775-7.338,17.647-7.338c6.894,0,12.776,2.432,17.647,7.303c1.046,1.024,1.567,2.268,1.567,3.736
	c0,1.446-0.512,2.681-1.533,3.704c-1.024,1.024-2.268,1.533-3.739,1.533c-1.446,0.025-2.678-0.487-3.701-1.533
	c-2.823-2.823-6.239-4.238-10.242-4.238c-3.981,0-7.384,1.424-10.207,4.272c-2.823,2.823-4.235,6.227-4.235,10.208
	s1.412,7.384,4.235,10.208c2.823,2.823,6.227,4.235,10.207,4.235c3.025,0,5.771-0.853,8.24-2.569
	c2.423-1.688,4.17-3.903,5.237-6.636h-13.478c-1.446,0-2.681-0.512-3.701-1.536c-1.024-1.021-1.536-2.256-1.536-3.701
	s0.512-2.69,1.536-3.735c1.021-1.024,2.256-1.536,3.701-1.536h19.515C668.074,1084.169,669.352,1084.656,670.422,1085.679z
	 M692.237,1066.065c1.024,1.024,1.536,2.255,1.536,3.701v39.397c0,1.471-0.512,2.715-1.536,3.739
	c-1.021,1.021-2.256,1.533-3.701,1.533c-1.468,0-2.715-0.512-3.735-1.533c-1.024-1.024-1.536-2.268-1.536-3.739v-39.397
	c0-1.446,0.512-2.677,1.536-3.701c1.021-1.046,2.268-1.567,3.735-1.567C689.981,1064.498,691.216,1065.019,692.237,1066.065z
	 M719.76,1079.242c-2.826,2.823-4.238,6.239-4.238,10.242c0,3.981,1.412,7.384,4.238,10.208c2.823,2.823,6.224,4.235,10.207,4.235
	c3.981,0,7.381-1.412,10.207-4.235c1.021-1.024,2.268-1.536,3.736-1.536c1.446,0,2.681,0.512,3.701,1.536
	c1.024,1.024,1.536,2.255,1.536,3.701c0,1.468-0.512,2.715-1.536,3.739c-4.868,4.868-10.75,7.303-17.644,7.303
	s-12.776-2.436-17.647-7.303c-4.871-4.871-7.307-10.754-7.307-17.647c0-6.916,2.436-12.798,7.307-17.647
	c4.871-4.893,10.754-7.338,17.647-7.338s12.776,2.445,17.644,7.338c1.024,1.024,1.536,2.259,1.536,3.701
	c0,1.446-0.512,2.681-1.536,3.704c-1.021,1.046-2.256,1.567-3.701,1.567c-1.468,0-2.715-0.521-3.736-1.567
	c-2.826-2.823-6.227-4.238-10.207-4.238C725.983,1075.004,722.583,1076.418,719.76,1079.242z M768.56,1066.065
	c1.024,1.024,1.536,2.255,1.536,3.701v39.397c0,1.471-0.512,2.715-1.536,3.739c-1.021,1.021-2.256,1.533-3.701,1.533
	c-1.468,0-2.715-0.512-3.736-1.533c-1.024-1.024-1.536-2.268-1.536-3.739v-39.397c0-1.446,0.512-2.677,1.536-3.701
	c1.021-1.046,2.268-1.567,3.736-1.567C766.305,1064.498,767.539,1065.019,768.56,1066.065z M809.691,1067.399
	c-0.444-0.891-1.089-1.601-1.933-2.135c-0.847-0.512-1.768-0.766-2.771-0.766c-0.999,0-1.924,0.254-2.768,0.766
	c-0.847,0.534-1.489,1.244-1.936,2.135l-19.714,39.431c-0.645,1.291-0.735,2.625-0.267,4.002c0.444,1.381,1.322,2.392,2.634,3.034
	c1.291,0.645,2.625,0.735,4.002,0.267c1.381-0.444,2.392-1.322,3.037-2.634l3.469-6.937h23.052l3.503,6.937
	c0.444,0.912,1.101,1.635,1.967,2.169c0.844,0.512,1.756,0.766,2.736,0.766c0.822,0,1.601-0.189,2.333-0.568
	c1.291-0.642,2.169-1.654,2.637-3.034c0.465-1.378,0.366-2.712-0.301-4.002L809.691,1067.399z M798.717,1094.053l6.27-12.544
	l6.273,12.544H798.717z M881.68,1066.065c1.024,1.024,1.536,2.255,1.536,3.701v39.397c0,1.114-0.323,2.125-0.968,3.037
	c-0.624,0.912-1.458,1.557-2.504,1.933c-0.577,0.202-1.179,0.301-1.799,0.301c-1.647,0-2.991-0.633-4.036-1.902l-23.552-28.255
	v24.886c0,1.471-0.512,2.715-1.536,3.739c-1.021,1.021-2.256,1.533-3.701,1.533c-1.468,0-2.715-0.512-3.736-1.533
	c-1.024-1.024-1.536-2.268-1.536-3.739v-39.397c0-1.111,0.323-2.122,0.968-3.034c0.621-0.89,1.455-1.523,2.501-1.902
	c1.046-0.379,2.104-0.422,3.171-0.133c1.067,0.289,1.955,0.856,2.668,1.7l23.552,28.255v-24.886c0-1.446,0.512-2.677,1.533-3.701
	c1.024-1.046,2.259-1.567,3.704-1.567S880.635,1065.019,881.68,1066.065z M319.794,209.809c-0.254-0.253-0.307-0.645-0.127-0.957
	c5.47-9.523,17.272-7.905,22.944-6.456c1.44-9.827,1.123-18.004-0.912-23.85c-4.766,9.823-16.648,10.276-16.776,10.28
	c-0.385,0.062-0.791-0.32-0.816-0.748c-0.67-11.441,9.122-19.596,13.813-22.824c-0.264-2.339-0.335-4.637-0.205-6.857
	c-7.527,4.702-15.789,2.017-16.158,1.891c-0.226-0.076-0.406-0.25-0.49-0.475c-0.084-0.223-0.062-0.475,0.059-0.681
	c4.654-7.908,15.144-12.463,19.798-14.16c0.391-0.948,0.822-1.902,1.297-2.856c-3.717,2.432-6.667,3.444-8.793,3.01
	c-1.216-0.248-2.156-0.945-2.795-2.071c-1.011-1.775-1.353-4.407,2.026-7.409c-3.571-0.244-5.526-1.525-5.82-3.821
	c-0.192-1.499,0.195-2.741,1.157-3.695c1.585-1.57,4.461-1.956,6.705-1.99c-3.152-2.06-4.393-3.433-4.648-4.95
	c-0.264-1.589,0.689-3.081,2.311-4.972c0.838-0.982,1.93-1.45,3.056-1.382c1.66,0.11,3.298,1.326,4.595,2.628
	c-0.391-1.976-0.478-4.238,0.605-5.695c0.841-1.131,2.212-1.606,4.067-1.399c2.014,0.22,4.418,1.488,5.188,6.025
	c2.097-2.558,4.213-3.394,6.326-2.494c1.123,0.482,1.893,1.297,2.293,2.42c0.676,1.9,0.239,4.683-1.306,8.292
	c1.157-0.779,2.392-1.533,3.729-2.273c0.152-5.105,2.159-12.623,10.546-20.292c0.292-0.264,0.735-0.278,1.039-0.029
	c0.071,0.059,6.792,5.698,2.47,14.832c3.618-0.945,7.459-1.674,11.659-2.209c-1.055-2.946-1.787-7.387-0.258-13.116l4.244-8.907
	c0.102-0.214,0.295-0.371,0.524-0.428c0.236-0.053,0.475-0.009,0.664,0.133c0.112,0.081,10.626,8.087,4.412,21.434
	c1.384-0.087,2.764-0.16,4.136-0.22c0.025-0.714,0.18-1.463,0.468-2.24c0.707-1.914,2.479-3.866,6.978-3.211
	c-2.107-2.893-2.383-5.214-0.813-6.914c1.021-1.111,2.209-1.61,3.574-1.488c2.218,0.203,4.365,2.158,5.833,3.852
	c-0.45-3.739-0.195-5.572,0.804-6.74c1.052-1.227,2.715-1.454,5.293-1.427c1.291,0.012,2.339,0.515,3.025,1.454
	c0.984,1.342,1.105,3.38,0.943,5.209c1.263-1.57,2.938-3.092,4.75-3.197c1.356-0.09,2.646,0.664,3.686,2.214
	c1.126,1.685,1.7,4.344-1.284,7.854c0.047-0.002,0.09-0.002,0.133-0.002c3.673,0,5.16,1.454,5.727,2.899
	c0.456,0.104,0.9,0.211,1.34,0.323c0.375-4.77,3.09-12.555,15.6-17.751c0.329-0.133,0.71-0.037,0.928,0.244
	c0.158,0.199,3.81,4.933,2.482,10.746c-0.931,4.075-4.049,7.581-9.283,10.439c1.294,0.666,2.519,1.373,3.658,2.116
	c6.804-7.117,16.652-10.744,29.307-10.795c-5.526-6.447-3.075-15.265-2.96-15.665c0.118-0.413,0.527-0.664,0.962-0.549
	c13.375,3.445,15.193,12.01,14.933,17.292c4.583,0.754,8.287,1.731,10.328,2.324c0.174-5.761,1.511-15.426,8.194-18.977
	c0.276-0.149,0.611-0.118,0.859,0.073c0.121,0.095,3.006,2.37,3.431,6.441c0.279,2.699-0.58,5.502-2.56,8.358
	c6.711-1.179,12.547,0.852,16.617,3.093c1.002-3.501,3.31-8.853,8.405-11.776c4.297-2.465,9.736-2.741,16.164-0.818
	c0.338,0.101,0.568,0.411,0.568,0.762c0,0.155-0.071,3.858-6.28,9.182c-3.534,3.03-8.886,5.18-13.201,6.543
	c1.204,1.021,2.336,2.121,3.385,3.286c3.242,0.642,7.843,2.401,11.861,7.091c7.204,8.402-0.186,18.066-0.261,18.162
	c-0.233,0.299-0.642,0.389-0.983,0.222c-0.357-0.18-8.827-4.46-11.774-9.761c-1.095-1.969-2.066-4.787-2.888-8.382
	c-0.264-0.181-0.487-0.361-0.68-0.614c-0.13-0.168-2.87-3.656-7.176-6.322c4.17,9.06-0.943,17.517-0.999,17.61
	c-0.22,0.349-0.673,0.476-1.036,0.289c-10.701-5.453-9.841-15.742-8.603-20.887c-2.634,0.213-7.341,1.15-9.978,2.203
	c3.94,5.788,3.866,14.27,3.534,18.457c7.76,0.773,12.553,2.619,14.25,5.49c0.909,1.533,0.931,3.309,0.062,5.279l-0.121,0.279
	c-0.633,1.441-0.897,2.038-1.542,2.277c-0.571,0.203-1.064-0.022-1.737-0.346c0.518,2.623-1.288,5.543-3.351,7.533
	c-1.089,1.049-2.324,1.466-3.658,1.274c-2.206-0.337-4.232-2.414-5.597-4.192c0.226,3.759-0.133,5.572-1.201,6.68
	c-1.12,1.163-2.817,1.289-5.371,1.114c-1.288-0.09-2.302-0.653-2.932-1.63c-0.903-1.398-0.903-3.441-0.63-5.259
	c-1.353,1.492-3.118,2.912-4.933,2.912c-1.412-0.002-2.603-0.819-3.549-2.429c-1.024-1.747-1.44-4.432,1.744-7.758
	c-3.304-0.154-5.243-1.357-5.774-3.59c-0.36-1.517-0.087-2.865,0.813-4.009c2.724-3.458,10.552-3.999,14.973-4.013
	c0.174,0,0.375,0,0.602,0c0.127-1.599,0.149-3.433,0.05-5.143l-0.472-3.81c-0.534-2.746-2.637-6.636-4.207-7.778l-0.18-0.057
	c-9.28-3.005-18.398-3.458-27.126-1.37c11.486,9.626,4.232,21.647,4.157,21.771c-0.192,0.313-0.58,0.453-0.925,0.335
	c-11.486-3.771-12.888-12.558-12.407-18.394c-2.296,1.426-4.188,3.084-5.755,5.04c-0.341,1.936-1.288,7.696-1.71,14.07
	c5.551,0.867,17.046,3.711,20.055,12.567c0.124,0.365-0.031,0.766-0.369,0.952c-0.115,0.07-11.458,6.129-19.81-4.361
	c0.143,2.859,0.481,5.296,1.011,7.269c0.084,0.307,0.096,0.594,0.093,0.856c12.919,16.166,1.7,28.319,1.585,28.441
	c-0.298,0.307-0.782,0.334-1.101,0.048c-12.057-10.614-10.428-21.56-8.259-27.323c-0.456-1.705-0.797-3.667-1.024-5.855
	c-10.781,15.153-23.645,7.904-23.775,7.826c-0.31-0.18-0.459-0.546-0.366-0.892c3.283-12.247,17.235-15.024,23.837-15.646
	c0.161-7.186,1.132-14.1,1.765-17.92c-1.517-1.035-4.691-2.954-9.274-4.449c6.28,10.28-3.056,19.45-3.158,19.546
	c-0.254,0.24-0.636,0.293-0.937,0.121c-8.653-4.854-8.672-14.667-8.036-19.663c-1.88,0.302-3.59,0.451-4.772,0.526
	c-0.794,0.05-1.998,0.116-3.45,0.154c-2.482,0.062-4.828,0.017-6.978-0.137l-2.733,0.065c-1.846,0.04-3.711,0.085-5.588,0.137
	c1.871,5.518,4.278,17.042-4.13,25.454c-0.254,0.256-0.655,0.306-0.956,0.127c-0.22-0.126-5.405-3.213-5.74-13.625
	c-0.186-5.788,1.235-9.41,2.814-11.635c-4.595,0.261-8.659,0.661-12.361,1.216c0.627,5.026,0.289,15.758-11.827,23.082
	c-0.335,0.202-0.766,0.132-1.018-0.168c-0.226-0.268-5.219-6.512,4.067-21.121c-11.293,3.047-19.4,8.549-24.74,16.78
	c-0.639,0.984-1.232,1.995-1.796,3.068c6.419,0.233,16.301,1.973,19.391,10.13c0.124,0.323,0.022,0.687-0.248,0.903
	c-0.09,0.073-9.329,7.156-21.886-4.444c-1.933,6.242-2.014,12.637-0.242,18.625c14.393-8.971,25.115,3.115,25.224,3.239
	c0.155,0.182,0.223,0.424,0.18,0.658c-0.04,0.236-0.186,0.441-0.397,0.557c-7.102,3.945-16.683,3.351-22.528,2.451
	c0.894,2.744,1.499,5.805,1.799,9.123c6.596,0.433,20.409,2.608,22.27,13.136c0.078,0.43-0.208,0.841-0.639,0.92
	c-0.503,0.092-12.001,2.076-21.411-6.508c-0.099,3.487-0.444,7.186-1.03,11.031c3.791,0.535,11.259,2.203,14.911,7.21
	c1.902,2.608,2.504,5.76,1.793,9.371c-0.071,0.372-0.4,0.641-0.779,0.641s-8.973-0.118-17.505-8.9
	c-0.782,3.436-1.526,6.059-1.93,7.401c5.656,2.127,12.336,5.371,13.654,9.179c0.428,1.238,0.282,2.451-0.428,3.602
	c-1.08,1.741-3.23,3.296-7.477,1.767c1.492,3.253,1.303,5.582-0.571,6.939c-1.226,0.884-2.501,1.14-3.801,0.749
	c-2.135-0.641-3.85-2.98-4.952-4.933c-0.301,3.754-0.912,5.501-2.125,6.449c-0.689,0.537-1.499,0.752-2.494,0.752
	c-0.847,0-1.827-0.157-2.975-0.4c-1.266-0.268-2.19-0.97-2.678-2.024c-0.698-1.511-0.413-3.531,0.109-5.293
	c-1.548,1.289-3.506,2.446-5.29,2.194c-1.396-0.197-2.463-1.173-3.177-2.901c-0.769-1.874-0.804-4.593,2.814-7.443
	c-3.99-0.768-5.066-2.73-5.219-4.358c-0.121-1.291,0.273-2.411,1.17-3.328c2.786-2.847,9.919-3.068,15.674-2.726
	c0.298-0.977,1.039-3.498,1.834-6.94C327.333,217.11,320.104,210.12,319.794,209.809z M642.065,97.678
	c0-0.351,0.23-0.661,0.568-0.762c6.425-1.916,11.864-1.647,16.164,0.818c5.094,2.923,7.403,8.275,8.405,11.776
	c4.071-2.24,9.903-4.264,16.617-3.093c-1.979-2.856-2.839-5.659-2.56-8.358c0.425-4.071,3.31-6.346,3.431-6.441
	c0.248-0.188,0.583-0.219,0.859-0.073c6.683,3.551,8.02,13.215,8.194,18.977c2.042-0.593,5.746-1.57,10.328-2.324
	c-0.261-5.282,1.557-13.847,14.933-17.292c0.438-0.112,0.844,0.137,0.962,0.549c0.115,0.4,2.566,9.218-2.96,15.665
	c12.655,0.05,22.503,3.678,29.307,10.795c1.139-0.743,2.364-1.452,3.658-2.116c-5.231-2.857-8.352-6.363-9.283-10.439
	c-1.328-5.813,2.324-10.547,2.482-10.746c0.217-0.279,0.599-0.375,0.928-0.244c12.503,5.195,15.221,12.981,15.603,17.751
	c0.447-0.115,0.9-0.223,1.362-0.329c0.621-1.5,2.128-2.892,5.712-2.892c0.04,0,0.084,0,0.124,0
	c-2.985-3.511-2.411-6.168-1.284-7.853c1.036-1.551,2.302-2.308,3.686-2.215c1.812,0.107,3.49,1.627,4.753,3.197
	c-0.164-1.831-0.043-3.867,0.94-5.209c0.689-0.939,1.734-1.441,3.025-1.454c2.591-0.056,4.238,0.199,5.293,1.427
	c0.999,1.168,1.253,3.002,0.804,6.74c1.468-1.694,3.615-3.647,5.836-3.852c1.359-0.118,2.55,0.379,3.574,1.488
	c1.567,1.7,1.291,4.021-0.816,6.914c4.468-0.647,6.267,1.297,6.978,3.211c0.289,0.777,0.444,1.526,0.468,2.24
	c1.371,0.06,2.752,0.133,4.136,0.22c-6.214-13.347,4.3-21.353,4.412-21.434c0.189-0.144,0.428-0.191,0.664-0.133
	c0.23,0.057,0.422,0.214,0.524,0.428l4.195,8.769c1.576,5.858,0.85,10.31-0.205,13.254c4.198,0.537,8.039,1.264,11.656,2.209
	c-4.322-9.134,2.398-14.773,2.47-14.832c0.304-0.248,0.748-0.234,1.039,0.029c8.386,7.666,10.394,15.186,10.546,20.292
	c1.337,0.74,2.572,1.494,3.729,2.273c-1.545-3.61-1.983-6.391-1.306-8.292c0.4-1.123,1.17-1.936,2.293-2.417
	c2.116-0.909,4.232-0.067,6.326,2.491c0.769-4.538,3.174-5.805,5.188-6.025c1.843-0.214,3.227,0.268,4.068,1.399
	c1.083,1.457,0.996,3.72,0.605,5.696c1.297-1.302,2.938-2.519,4.595-2.629c1.257-0.096,2.221,0.402,3.059,1.382
	c1.663,1.942,2.575,3.377,2.308,4.973c-0.251,1.517-1.492,2.888-4.645,4.949c2.243,0.034,5.116,0.422,6.702,1.992
	c0.962,0.952,1.35,2.195,1.157,3.694c-0.295,2.294-2.249,3.576-5.82,3.822c3.382,3,3.037,5.633,2.026,7.407
	c-0.639,1.126-1.579,1.823-2.795,2.071c-2.122,0.434-5.076-0.577-8.793-3.01c0.475,0.954,0.906,1.908,1.297,2.856
	c4.654,1.697,15.144,6.252,19.798,14.16c0.121,0.206,0.143,0.458,0.059,0.681c-0.084,0.225-0.264,0.399-0.49,0.475
	c-0.369,0.124-8.631,2.809-16.158-1.891c0.13,2.22,0.059,4.517-0.205,6.857c4.691,3.228,14.483,11.383,13.813,22.826
	c-0.025,0.428-0.347,0.819-0.816,0.748c-0.127-0.003-12.007-0.458-16.776-10.28c-2.035,5.914-2.346,14.064-0.912,23.848
	c5.672-1.455,17.474-3.065,22.944,6.458c0.18,0.312,0.127,0.704-0.127,0.959c-0.31,0.309-7.555,7.293-21.119,1.495
	c0.794,3.433,1.53,5.951,1.834,6.94c5.743-0.349,12.888-0.124,15.674,2.726c0.897,0.917,1.291,2.037,1.17,3.326
	c-0.152,1.629-1.229,3.591-5.222,4.359c3.621,2.85,3.587,5.569,2.814,7.443c-0.71,1.727-1.781,2.704-3.174,2.901
	c-1.837,0.248-3.745-0.904-5.29-2.194c0.521,1.762,0.807,3.784,0.109,5.293c-0.487,1.056-1.412,1.756-2.678,2.024
	c-1.148,0.244-2.128,0.4-2.975,0.4c-0.996,0-1.806-0.216-2.494-0.752c-1.213-0.948-1.824-2.695-2.125-6.447
	c-1.101,1.952-2.817,4.291-4.952,4.932c-1.303,0.391-2.578,0.135-3.801-0.749c-1.874-1.357-2.063-3.686-0.571-6.939
	c-4.247,1.53-6.401-0.026-7.477-1.765c-0.71-1.153-0.856-2.366-0.428-3.604c1.319-3.808,7.998-7.052,13.654-9.179
	c-0.403-1.342-1.151-3.967-1.93-7.401c-8.532,8.782-17.126,8.9-17.505,8.9c-0.378,0-0.707-0.268-0.779-0.641
	c-0.71-3.611-0.109-6.764,1.79-9.37c3.652-5.009,11.12-6.677,14.914-7.212c-0.589-3.857-0.934-7.555-1.033-11.03
	c-9.401,8.579-20.902,6.598-21.408,6.506c-0.431-0.079-0.717-0.49-0.639-0.92c1.858-10.529,15.674-12.704,22.267-13.136
	c0.301-3.31,0.906-6.371,1.803-9.123c-5.842,0.9-15.426,1.494-22.528-2.451c-0.211-0.116-0.357-0.321-0.397-0.557
	c-0.043-0.234,0.025-0.476,0.18-0.658c0.112-0.126,10.831-12.215,25.221-3.239c1.775-5.986,1.694-12.381-0.239-18.625
	c-12.556,11.597-21.796,4.517-21.886,4.444c-0.27-0.216-0.372-0.58-0.248-0.903c3.087-8.155,12.972-9.897,19.394-10.13
	c-0.571-1.078-1.163-2.09-1.799-3.068c-5.34-8.231-13.447-13.734-24.74-16.78c9.286,14.608,4.294,20.852,4.067,21.121
	c-0.248,0.299-0.686,0.369-1.018,0.168c-12.116-7.324-12.454-18.055-11.827-23.082c-3.701-0.555-7.766-0.956-12.361-1.216
	c1.582,2.223,3,5.847,2.814,11.635c-0.335,10.412-5.519,13.499-5.74,13.625c-0.304,0.177-0.704,0.126-0.956-0.127
	c-8.408-8.41-5.997-19.936-4.126-25.454c-1.877-0.051-3.745-0.096-5.591-0.137l-2.808-0.064c-2.073,0.152-4.421,0.197-6.9,0.135
	c-1.455-0.037-2.659-0.104-3.453-0.154c-1.182-0.074-2.892-0.223-4.772-0.526c0.636,4.995,0.617,14.809-8.036,19.663
	c-0.304,0.172-0.683,0.123-0.937-0.121c-0.102-0.096-9.435-9.267-3.155-19.546c-4.583,1.494-7.76,3.413-9.277,4.449
	c0.633,3.802,1.604,10.693,1.765,17.92c6.602,0.622,20.555,3.399,23.837,15.648c0.093,0.346-0.056,0.712-0.366,0.892
	c-0.133,0.079-12.994,7.331-23.775-7.828c-0.227,2.186-0.568,4.148-1.024,5.855c2.169,5.763,3.798,16.709-8.259,27.323
	c-0.316,0.285-0.804,0.259-1.101-0.048c-0.115-0.123-11.334-12.277,1.585-28.443c-0.003-0.278,0.012-0.555,0.093-0.855
	c0.531-1.973,0.869-4.41,1.011-7.269c-8.352,10.485-19.695,4.427-19.81,4.361c-0.338-0.186-0.493-0.588-0.369-0.952
	c3.009-8.856,14.505-11.7,20.055-12.567c-0.422-6.374-1.368-12.136-1.71-14.07c-1.564-1.955-3.456-3.613-5.755-5.04
	c0.481,5.834-0.921,14.622-12.407,18.394c-0.341,0.116-0.729-0.022-0.925-0.335c-0.074-0.124-7.325-12.147,4.157-21.771
	c-8.728-2.086-17.843-1.632-27.126,1.368l-0.18,0.059c-1.57,1.142-3.673,5.034-4.216,7.832l-0.469,3.808
	c-0.093,1.665-0.071,3.492,0.056,5.09c0.223,0.002,0.428-0.002,0.602,0c4.421,0.014,12.249,0.555,14.973,4.013
	c0.9,1.143,1.173,2.491,0.813,4.007c-0.531,2.234-2.47,3.436-5.774,3.591c3.183,3.326,2.768,6.011,1.744,7.758
	c-0.946,1.612-2.141,2.429-3.549,2.429c-0.003,0-0.003,0-0.003,0c-1.815,0-3.577-1.418-4.93-2.91c0.273,1.818,0.27,3.86-0.63,5.257
	c-0.63,0.977-1.644,1.54-2.932,1.63c-2.56,0.174-4.251,0.05-5.371-1.114c-1.067-1.108-1.427-2.921-1.201-6.68
	c-1.365,1.778-3.391,3.855-5.597,4.192c-1.34,0.195-2.566-0.225-3.658-1.274c-2.063-1.992-3.869-4.91-3.351-7.533
	c-0.68,0.324-1.17,0.552-1.737,0.344c-0.645-0.239-0.906-0.835-1.539-2.276l-0.121-0.279c-0.869-1.97-0.847-3.746,0.059-5.279
	c1.697-2.871,6.491-4.717,14.25-5.49c-0.332-4.187-0.406-12.669,3.534-18.457c-2.637-1.053-7.344-1.99-9.978-2.203
	c1.238,5.144,2.097,15.434-8.603,20.887c-0.372,0.188-0.822,0.061-1.036-0.289c-0.056-0.093-5.169-8.551-0.999-17.612
	c-4.306,2.667-7.046,6.156-7.179,6.328c-0.208,0.271-0.456,0.461-0.676,0.611c-0.822,3.593-1.793,6.411-2.888,8.38
	c-2.944,5.301-11.417,9.581-11.777,9.761c-0.329,0.168-0.748,0.078-0.98-0.222c-0.074-0.096-7.465-9.761-0.261-18.162
	c4.021-4.69,8.619-6.449,11.864-7.091c1.046-1.163,2.178-2.263,3.382-3.286c-4.313-1.364-9.661-3.514-13.201-6.543
	C642.136,101.536,642.065,97.833,642.065,97.678z"/>
</svg>
