<?xml version="1.0" encoding="utf-8"?>
<!-- Generator: Adobe Illustrator 23.0.3, SVG Export Plug-In . SVG Version: 6.00 Build 0)  -->
<svg version="1.1" id="Capa_1" xmlns="http://www.w3.org/2000/svg" xmlns:xlink="http://www.w3.org/1999/xlink" x="0px" y="0px"
	 viewBox="0 0 1200 1200" enable-background="new 0 0 1200 1200" xml:space="preserve">
<path fill="#4e3d57" d="M890.685,50c7.713,0,14.697,3.126,19.752,8.181s8.182,12.038,8.182,19.752V600v522.066
	c0,7.714-3.127,14.697-8.182,19.752c-5.055,5.055-12.039,8.182-19.752,8.182H600H309.315c-7.714,0-14.697-3.127-19.753-8.182
	c-5.055-5.055-8.181-12.038-8.181-19.752V600V77.934c0-7.714,3.127-14.697,8.181-19.752C294.618,53.126,301.601,50,309.315,50H600
	H890.685 M430.097,1074.685h-33.404c-1.493,0-2.763,0.534-3.801,1.594c-1.042,1.042-1.563,2.299-1.563,3.77
	c0,1.471,0.521,2.728,1.563,3.767c1.039,1.042,2.308,1.563,3.801,1.563h11.338v34.762c0,1.493,0.521,2.763,1.563,3.801
	c1.061,1.042,2.33,1.563,3.801,1.563c1.471,0,2.728-0.521,3.767-1.563c1.042-1.039,1.563-2.308,1.563-3.801v-34.762h11.373
	c1.471,0,2.737-0.521,3.801-1.563c1.042-1.039,1.563-2.295,1.563-3.767c0-1.471-0.521-2.728-1.563-3.77
	C432.834,1075.219,431.568,1074.685,430.097,1074.685z M487.705,1074.685c-1.471,0-2.728,0.534-3.77,1.594
	c-1.039,1.042-1.56,2.299-1.56,3.77v14.697H459.63v-14.697c0-1.471-0.521-2.728-1.563-3.77c-1.039-1.061-2.295-1.594-3.767-1.594
	c-1.493,0-2.763,0.534-3.801,1.594c-1.042,1.042-1.563,2.299-1.563,3.77v40.091c0,1.493,0.521,2.763,1.563,3.801
	c1.039,1.042,2.308,1.563,3.801,1.563c1.471,0,2.728-0.521,3.767-1.563c1.042-1.039,1.563-2.308,1.563-3.801v-14.7h22.745v14.7
	c0,1.493,0.521,2.763,1.56,3.801c1.042,1.042,2.299,1.563,3.77,1.563c1.471,0,2.737-0.521,3.801-1.563
	c1.042-1.039,1.563-2.308,1.563-3.801v-40.091c0-1.471-0.521-2.728-1.563-3.77C490.442,1075.219,489.176,1074.685,487.705,1074.685z
	 M549.319,1085.379c1.471,0,2.737-0.521,3.801-1.563c1.042-1.039,1.563-2.295,1.563-3.767c0-1.471-0.521-2.728-1.563-3.77
	c-1.064-1.061-2.33-1.594-3.801-1.594h-33.404c-1.493,0-2.763,0.534-3.801,1.594c-1.042,1.042-1.563,2.299-1.563,3.77v40.091
	c0,1.493,0.521,2.763,1.563,3.801c1.039,1.042,2.308,1.563,3.801,1.563h33.404c1.471,0,2.737-0.521,3.801-1.563
	c1.042-1.039,1.563-2.308,1.563-3.801c0-1.471-0.521-2.728-1.563-3.77c-1.064-1.039-2.33-1.56-3.801-1.56h-28.075v-9.371h21.387
	c1.471,0,2.737-0.518,3.801-1.56c1.042-1.042,1.563-2.298,1.563-3.77c0-1.493-0.521-2.76-1.563-3.801
	c-1.064-1.042-2.33-1.563-3.801-1.563h-21.387v-9.368H549.319z M618.366,1085.379h23.389c1.471,0,2.737-0.521,3.801-1.563
	c1.042-1.039,1.563-2.295,1.563-3.767c0-1.471-0.521-2.728-1.563-3.77c-1.064-1.061-2.33-1.594-3.801-1.594h-23.389
	c-4.234,0-7.855,1.506-10.864,4.515c-3.009,3.009-4.515,6.63-4.515,10.864c0,4.253,1.506,7.874,4.515,10.861
	c3.009,3.012,6.63,4.515,10.864,4.515h13.374c1.291,0,2.387,0.464,3.293,1.392c0.928,0.906,1.392,2.005,1.392,3.293
	c0,1.291-0.464,2.4-1.392,3.328c-0.906,0.906-2.002,1.358-3.293,1.358h-23.389c-1.493,0-2.763,0.521-3.801,1.56
	c-1.042,1.042-1.563,2.298-1.563,3.77c0,1.493,0.521,2.763,1.563,3.801c1.039,1.042,2.308,1.563,3.801,1.563h23.389
	c4.231,0,7.852-1.506,10.864-4.515c3.009-3.009,4.515-6.63,4.515-10.864c0-4.231-1.506-7.852-4.515-10.864
	c-3.012-3.009-6.633-4.515-10.864-4.515h-13.374c-1.291,0-2.39-0.452-3.293-1.358c-0.928-0.925-1.392-2.036-1.392-3.325
	c0-1.291,0.464-2.39,1.392-3.293C615.976,1085.843,617.075,1085.379,618.366,1085.379z M702.012,1080.049
	c0-1.471-0.521-2.728-1.563-3.77c-1.064-1.061-2.33-1.594-3.801-1.594h-33.404c-1.493,0-2.763,0.534-3.801,1.594
	c-1.042,1.042-1.563,2.299-1.563,3.77c0,1.471,0.521,2.728,1.563,3.767c1.039,1.042,2.308,1.563,3.801,1.563h11.338v34.762
	c0,1.493,0.521,2.763,1.563,3.801c1.061,1.042,2.33,1.563,3.801,1.563s2.728-0.521,3.767-1.563c1.042-1.039,1.563-2.308,1.563-3.801
	v-34.762h11.373c1.471,0,2.737-0.521,3.801-1.563C701.491,1082.777,702.012,1081.521,702.012,1080.049z M730.425,1077.637
	c-0.451-0.903-1.108-1.629-1.97-2.172c-0.859-0.521-1.797-0.78-2.816-0.78c-1.017,0-1.958,0.259-2.816,0.78
	c-0.862,0.543-1.519,1.269-1.97,2.172l-20.061,40.126c-0.657,1.313-0.748,2.671-0.271,4.076c0.451,1.402,1.345,2.431,2.681,3.088
	c1.313,0.657,2.671,0.748,4.073,0.271c1.405-0.451,2.434-1.345,3.091-2.681l3.53-7.063h23.459l3.561,7.063
	c0.455,0.928,1.121,1.661,2.005,2.204c0.859,0.521,1.787,0.783,2.785,0.783c0.837,0,1.629-0.193,2.374-0.578
	c1.313-0.657,2.207-1.686,2.684-3.088c0.474-1.405,0.373-2.763-0.306-4.076L730.425,1077.637z M719.257,1104.761l6.381-12.762
	l6.381,12.762H719.257z M806.263,1102.554c1.607-2.829,2.409-5.873,2.409-9.131c0-5.159-1.831-9.573-5.5-13.239
	c-3.666-3.666-8.08-5.5-13.239-5.5h-20.03c-1.493,0-2.759,0.534-3.801,1.594c-1.042,1.042-1.56,2.299-1.56,3.77v40.091
	c0,1.493,0.518,2.763,1.56,3.801c1.042,1.042,2.308,1.563,3.801,1.563c1.471,0,2.728-0.521,3.77-1.563
	c1.039-1.039,1.56-2.308,1.56-3.801v-8.013h12.493l11.815,11.815c1.039,1.042,2.295,1.563,3.767,1.563
	c1.471,0,2.741-0.521,3.805-1.563c1.039-1.039,1.56-2.308,1.56-3.801c0-1.471-0.521-2.728-1.56-3.77l-7.164-7.161
	C802.619,1107.511,804.722,1105.295,806.263,1102.554z M795.604,1099.094c-1.563,1.56-3.454,2.343-5.67,2.343h-14.7v-16.058h14.7
	c2.216,0,4.108,0.792,5.67,2.377c1.582,1.56,2.374,3.451,2.374,5.667C797.978,1095.618,797.186,1097.509,795.604,1099.094z
	 M520.984,149.177c0.136,1.471,0.77,2.671,1.904,3.598c0.972,0.838,2.115,1.257,3.426,1.257c1.654,0,3.021-0.646,4.108-1.935
	l12.594-15.106l12.594,15.106c1.089,1.29,2.456,1.935,4.108,1.935c1.291,0,2.434-0.418,3.429-1.257
	c1.133-0.927,1.765-2.126,1.904-3.598c0.136-1.471-0.275-2.772-1.225-3.904l-13.848-16.634l13.848-16.634
	c0.95-1.132,1.361-2.433,1.225-3.904c-0.139-1.471-0.77-2.682-1.904-3.632c-1.13-0.95-2.431-1.358-3.902-1.222
	c-1.471,0.136-2.681,0.77-3.634,1.901l-12.594,15.141l-12.594-15.141c-0.95-1.13-2.16-1.765-3.631-1.901
	c-1.471-0.136-2.772,0.272-3.902,1.222c-1.133,0.95-1.768,2.161-1.904,3.632s0.272,2.772,1.222,3.904l13.851,16.634l-13.851,16.634
	C521.256,146.405,520.848,147.706,520.984,149.177z M596.481,151.078c0.455,0.906,1.108,1.618,1.97,2.139
	c0.859,0.543,1.8,0.815,2.816,0.815c1.02,0,1.958-0.272,2.819-0.815c0.859-0.521,1.516-1.233,1.967-2.139l20.03-40.126
	c0.679-1.312,0.78-2.669,0.306-4.073c-0.477-1.403-1.37-2.433-2.684-3.089c-1.31-0.657-2.668-0.758-4.073-0.305
	c-1.402,0.475-2.431,1.369-3.088,2.681l-15.278,30.553l-15.275-30.485c-0.657-1.334-1.686-2.229-3.091-2.681
	c-1.402-0.477-2.772-0.385-4.104,0.272c-1.313,0.657-2.198,1.686-2.649,3.088c-0.477,1.405-0.385,2.774,0.272,4.108L596.481,151.078
	z M645.501,154.031c1.471,0,2.728-0.521,3.77-1.561c1.039-1.04,1.56-2.308,1.56-3.803v-40.091c0-1.471-0.521-2.726-1.56-3.768
	c-1.042-1.062-2.298-1.594-3.77-1.594c-1.493,0-2.759,0.532-3.801,1.594c-1.042,1.042-1.56,2.297-1.56,3.768v40.091
	c0,1.495,0.518,2.763,1.56,3.803C642.742,153.51,644.008,154.031,645.501,154.031z M673.712,154.031
	c1.471,0,2.728-0.521,3.767-1.561c1.042-1.04,1.563-2.308,1.563-3.803v-40.091c0-1.471-0.521-2.726-1.563-3.768
	c-1.039-1.062-2.295-1.594-3.767-1.594c-1.493,0-2.763,0.532-3.801,1.594c-1.042,1.042-1.563,2.297-1.563,3.768v40.091
	c0,1.495,0.521,2.763,1.563,3.803C670.949,153.51,672.218,154.031,673.712,154.031z M902.433,600V77.934
	c0-3.143-1.224-6.099-3.447-8.321c-2.223-2.223-5.178-3.447-8.321-3.447H599.98H309.295c-3.143,0-6.099,1.224-8.321,3.447
	c-2.223,2.223-3.447,5.178-3.447,8.322V600v436.15c0.084,4.507,3.75,8.138,8.277,8.138h588.111c4.58,0,8.559-3.979,8.559-8.56
	L902.433,600z M892.763,913.165c-19.308-34.046-88.294-62.151-178.367-75.406h178.361L892.763,913.165z M307.226,600V77.934
	c0-0.569,0.204-1.061,0.606-1.463c0.402-0.402,0.894-0.606,1.463-0.606H599.98h290.685c0.569,0,1.061,0.204,1.463,0.606
	c0.402,0.402,0.606,0.894,0.606,1.463v522.067l0.021,228.059H307.226V600z M307.226,837.759h175.275
	c-85.783,12.624-152.44,38.716-175.275,70.582V837.759z M307.226,1034.589v-77.823c29.193,40.739,130.019,72.036,250.841,77.823
	H307.226z M390.947,996.208c-51.702-17.621-82.569-41.417-82.569-63.655c0-22.238,30.867-46.034,82.569-63.655
	c56.104-19.121,129.796-29.651,207.501-29.651s151.397,10.53,207.501,29.651c51.702,17.621,82.569,41.417,82.569,63.655
	c0,22.238-30.867,46.034-82.569,63.655c-56.104,19.121-129.796,29.651-207.501,29.651S447.051,1015.329,390.947,996.208z
	 M638.83,1034.589c125.554-6.014,229.515-39.577,253.937-82.654l0.007,82.654H638.83z M756.474,683.673l-28.653-121.124
	l117.967-6.017c1.995-0.101,3.722-1.416,4.354-3.31c0.631-1.894,0.038-3.983-1.497-5.26l-94.172-78.369l93.957-69.558
	c0,0,0,0,0.001,0c0.359-0.266,0.661-0.59,0.931-0.939c0.058-0.075,0.114-0.147,0.167-0.225c0.241-0.352,0.445-0.727,0.587-1.131
	c0.015-0.043,0.021-0.089,0.035-0.133c0.118-0.371,0.185-0.758,0.211-1.155c0.006-0.092,0.015-0.18,0.016-0.272
	c0.004-0.397-0.024-0.798-0.123-1.202c-0.008-0.034-0.025-0.063-0.034-0.096c-0.006-0.018-0.002-0.037-0.007-0.055
	c-0.013-0.048-0.045-0.085-0.06-0.132c-0.119-0.382-0.283-0.737-0.483-1.066c-0.045-0.073-0.083-0.147-0.131-0.218
	c-0.244-0.357-0.527-0.678-0.851-0.954c-0.052-0.045-0.109-0.079-0.163-0.122c-0.307-0.241-0.639-0.442-0.995-0.603
	c-0.062-0.028-0.119-0.063-0.183-0.088c-0.403-0.162-0.826-0.264-1.265-0.313c-0.036-0.004-0.066-0.022-0.103-0.025L724.865,380.35
	l32.433-116.294c0.54-1.946-0.18-4.024-1.809-5.217c-1.635-1.195-3.833-1.249-5.522-0.141l-103.835,68.045l-41.59-110.71
	c-0.008-0.022-0.025-0.038-0.033-0.06c-0.16-0.407-0.376-0.782-0.634-1.127c-0.057-0.076-0.118-0.145-0.179-0.217
	c-0.26-0.309-0.549-0.59-0.878-0.826c-0.026-0.019-0.047-0.043-0.074-0.061c-0.35-0.241-0.74-0.421-1.148-0.564
	c-0.094-0.033-0.187-0.06-0.283-0.088c-0.42-0.118-0.853-0.202-1.311-0.202c-0.457,0-0.891,0.084-1.31,0.202
	c-0.096,0.027-0.189,0.055-0.283,0.088c-0.409,0.143-0.799,0.323-1.149,0.564c-0.027,0.019-0.049,0.043-0.075,0.062
	c-0.328,0.235-0.616,0.517-0.876,0.825c-0.062,0.073-0.123,0.141-0.18,0.218c-0.258,0.345-0.474,0.719-0.633,1.126
	c-0.009,0.022-0.025,0.038-0.034,0.06l-40.461,107.709l-103.269-65.991c-1.683-1.075-3.849-1.009-5.468,0.167
	c-1.613,1.176-2.34,3.222-1.831,5.153l30.702,116.743L354.001,391.31c-0.035,0.003-0.064,0.021-0.099,0.024
	c-0.429,0.05-0.843,0.15-1.237,0.308c-0.067,0.027-0.128,0.063-0.194,0.093c-0.336,0.152-0.651,0.341-0.945,0.565
	c-0.066,0.05-0.134,0.093-0.197,0.147c-0.317,0.268-0.598,0.575-0.839,0.921c-0.046,0.066-0.081,0.137-0.124,0.205
	c-0.195,0.311-0.353,0.645-0.476,1.005c-0.019,0.055-0.056,0.099-0.073,0.155c-0.009,0.029-0.005,0.058-0.013,0.087
	c-0.016,0.055-0.043,0.103-0.057,0.159c-0.091,0.372-0.125,0.743-0.129,1.111c-0.001,0.079,0.011,0.154,0.014,0.232
	c0.014,0.365,0.069,0.721,0.162,1.067c0.023,0.087,0.039,0.172,0.067,0.258c0.129,0.393,0.305,0.765,0.527,1.111
	c0.046,0.071,0.101,0.134,0.151,0.202c0.218,0.304,0.47,0.58,0.755,0.827c0.039,0.034,0.063,0.081,0.104,0.114l87.901,71.418
	l-87.993,75.2c-1.487,1.272-2.065,3.315-1.465,5.178c0.603,1.863,2.267,3.181,4.221,3.342l112.14,9.188l-22.72,119.644
	c-0.082,0.423-0.087,0.849-0.056,1.273c0.008,0.099,0.017,0.195,0.031,0.294c0.111,0.811,0.422,1.584,0.924,2.253
	c0.064,0.084,0.129,0.163,0.199,0.244c0.234,0.273,0.498,0.524,0.8,0.746c0.04,0.03,0.066,0.072,0.108,0.101
	c0.012,0.008,0.026,0.01,0.037,0.018c0.013,0.009,0.023,0.02,0.036,0.029c0.156,0.104,0.332,0.149,0.495,0.232
	c0.248,0.126,0.488,0.271,0.749,0.352c0.238,0.074,0.481,0.088,0.724,0.124c0.215,0.032,0.425,0.09,0.641,0.093
	c0.024,0,0.047,0.01,0.071,0.01c0.409,0,0.814-0.057,1.208-0.158c0.078-0.02,0.148-0.061,0.225-0.085
	c0.338-0.105,0.664-0.238,0.973-0.415c0.041-0.024,0.088-0.03,0.129-0.055l101.328-62.066l42.869,104.327
	c0.745,1.812,2.507,2.996,4.464,3.006c0.006,0,0.016,0,0.022,0c1.948,0,3.71-1.168,4.468-2.965L647.93,626.88l101.291,62.046
	c0.043,0.026,0.091,0.034,0.133,0.058c0.255,0.145,0.524,0.251,0.798,0.347c0.125,0.044,0.242,0.106,0.369,0.139
	c0.394,0.104,0.798,0.163,1.207,0.165c0.008,0,0.017,0.003,0.024,0.003c0.001,0,0.001,0,0.002,0s0.001,0,0.002,0
	c0.479,0,0.96-0.078,1.428-0.224c0.164-0.05,0.309-0.151,0.468-0.22c0.264-0.114,0.537-0.203,0.785-0.368
	c0.034-0.023,0.059-0.052,0.092-0.076c0.021-0.015,0.047-0.019,0.069-0.035c0.052-0.038,0.084-0.093,0.135-0.132
	c0.287-0.225,0.541-0.475,0.763-0.748c0.061-0.074,0.124-0.143,0.18-0.221c0.244-0.338,0.444-0.698,0.592-1.081
	c0.027-0.069,0.041-0.141,0.065-0.211c0.114-0.34,0.186-0.688,0.223-1.044c0.009-0.094,0.024-0.185,0.029-0.28
	c0.018-0.417-0.015-0.834-0.106-1.248C756.475,683.725,756.48,683.699,756.474,683.673z M456.967,272.608l79.144,101.42
	l-51.195,4.858L456.967,272.608z M374.303,406.012l208.925,51.389l-99.142,37.806l-34.222-27.804
	c-0.006-0.005-0.012-0.01-0.017-0.014L374.303,406.012z M366.466,546.323l111.427-43.65l-9.869,51.97L366.466,546.323z
	 M595.152,589.117l-130.704,80.06l130.704-196.591V589.117z M595.152,444.212l-50.091-66.432l16.897-44.978
	c0.004-0.01,0.007-0.019,0.011-0.029l33.183-88.333V444.212z M832.899,547.477L713.08,500.236l33.367-24.702L832.899,547.477z
	 M744.486,273.887l-80.277,100.977l-14.581-38.815L744.486,273.887z M662.86,384.481l153.368,13.873l-206.305,50.745L662.86,384.481
	z M639.253,622.497l-39.734,94.225l0.483-119.2l39.633,24.277C639.494,622.021,639.359,622.247,639.253,622.497z M611.129,464.511
	l92.352,37.288l37.32,157.758L611.129,464.511z M603.104,898.806c-108.635,0-196.7,16.025-196.7,35.794s88.066,35.794,196.7,35.794
	c108.634,0,196.7-16.025,196.7-35.794S711.738,898.806,603.104,898.806z M733.746,951.531c-35.744,5.909-82.14,9.163-130.642,9.163
	c-48.502,0-94.898-3.254-130.642-9.163c-40.7-6.728-52.486-14.205-55.573-16.931c3.087-2.726,14.874-10.203,55.573-16.931
	c35.744-5.909,82.14-9.163,130.642-9.163c48.502,0,94.898,3.254,130.642,9.163c40.7,6.728,52.486,14.205,55.573,16.931
	C786.232,937.326,774.445,944.803,733.746,951.531z M849.722,930.872c0-36.176-99.305-68.735-249.722-68.735
	c-150.417,0-249.722,32.559-249.722,68.735S449.583,1002.84,600,1002.84C750.417,1002.84,849.722,967.048,849.722,930.872z
	 M778.406,971.154C732.484,985.332,669.125,993.141,600,993.141c-69.125,0-132.484-7.808-178.406-21.987
	c-45.479-14.041-61.617-30.476-61.617-40.282c0-9.587,16.096-25.453,61.459-38.619c45.367-13.166,108.782-20.417,178.564-20.417
	s133.198,7.251,178.564,20.417c45.363,13.165,61.459,29.032,61.459,38.619C840.023,940.679,823.886,957.113,778.406,971.154z
	 M600,922.66c-30.458,0-55.149,4.969-55.149,11.099c0,6.13,24.691,11.099,55.149,11.099c30.458,0,55.15-4.969,55.15-11.099
	C655.15,927.629,630.458,922.66,600,922.66z M403.103,622.495c-5.717,0-10.369-4.651-10.369-10.368c0-2.471-2.003-4.474-4.474-4.474
	c-2.471,0-4.474,2.003-4.474,4.474c0,5.717-4.651,10.368-10.368,10.368c-2.471,0-4.474,2.003-4.474,4.474
	c0,2.471,2.004,4.474,4.474,4.474c5.716,0,10.368,4.651,10.368,10.368c0,2.471,2.003,4.474,4.474,4.474
	c2.471,0,4.474-2.003,4.474-4.474c0-5.717,4.651-10.368,10.369-10.368c2.471,0,4.474-2.003,4.474-4.474
	C407.577,624.499,405.574,622.495,403.103,622.495z M826.582,631.444c2.471,0,4.475-2.003,4.475-4.474
	c0-2.471-2.003-4.474-4.475-4.474c-5.717,0-10.369-4.651-10.369-10.368c0-2.471-2.003-4.474-4.474-4.474
	c-2.471,0-4.474,2.003-4.474,4.474c0,5.717-4.651,10.368-10.368,10.368c-2.471,0-4.474,2.003-4.474,4.474
	c0,2.471,2.003,4.474,4.474,4.474c5.716,0,10.368,4.651,10.368,10.368c0,2.471,2.003,4.474,4.474,4.474
	c2.471,0,4.474-2.003,4.474-4.474C816.214,636.095,820.865,631.444,826.582,631.444z M852.279,131.205
	c-5.717,0-10.369-4.651-10.369-10.368c0-2.471-2.003-4.474-4.474-4.474c-2.471,0-4.475,2.003-4.475,4.474
	c0,5.717-4.651,10.368-10.368,10.368c-2.471,0-4.474,2.003-4.474,4.474s2.003,4.474,4.474,4.474c5.716,0,10.368,4.651,10.368,10.368
	c0,2.471,2.003,4.474,4.475,4.474c2.471,0,4.474-2.003,4.474-4.474c0-5.717,4.651-10.368,10.369-10.368
	c2.471,0,4.474-2.003,4.474-4.474S854.75,131.205,852.279,131.205z M347.721,140.154c5.716,0,10.368,4.651,10.368,10.368
	c0,2.471,2.004,4.474,4.474,4.474s4.474-2.003,4.474-4.474c0-5.717,4.651-10.368,10.369-10.368c2.471,0,4.474-2.003,4.474-4.474
	s-2.003-4.474-4.474-4.474c-5.717,0-10.369-4.651-10.369-10.368c0-2.471-2.003-4.474-4.474-4.474s-4.474,2.003-4.474,4.474
	c0,5.717-4.651,10.368-10.368,10.368c-2.471,0-4.474,2.003-4.474,4.474S345.25,140.154,347.721,140.154z M739.957,205.695
	c5.716,0,10.367,4.651,10.367,10.368c0,2.471,2.004,4.474,4.475,4.474c2.471,0,4.474-2.004,4.474-4.474
	c0-5.717,4.651-10.368,10.369-10.368c2.471,0,4.474-2.003,4.474-4.474c0-2.471-2.003-4.474-4.474-4.474
	c-5.718,0-10.369-4.651-10.369-10.368c0-2.471-2.004-4.474-4.474-4.474c-2.471,0-4.475,2.003-4.475,4.474
	c0,5.717-4.651,10.368-10.367,10.368c-2.471,0-4.474,2.003-4.474,4.474C735.483,203.692,737.486,205.695,739.957,205.695z
	 M430.358,205.695c5.716,0,10.368,4.651,10.368,10.368c0,2.471,2.004,4.474,4.474,4.474s4.474-2.004,4.474-4.474
	c0-5.717,4.651-10.368,10.369-10.368c2.471,0,4.474-2.003,4.474-4.474c0-2.471-2.003-4.474-4.474-4.474
	c-5.717,0-10.369-4.651-10.369-10.368c0-2.471-2.003-4.474-4.474-4.474s-4.474,2.003-4.474,4.474
	c0,5.717-4.651,10.368-10.368,10.368c-2.471,0-4.474,2.003-4.474,4.474C425.884,203.692,427.887,205.695,430.358,205.695z
	 M817.938,311.718c5.716,0,10.368,4.651,10.368,10.368c0,2.471,2.003,4.474,4.474,4.474c2.471,0,4.474-2.003,4.474-4.474
	c0-5.717,4.651-10.368,10.369-10.368c2.471,0,4.475-2.003,4.475-4.474c0-2.471-2.003-4.474-4.475-4.474
	c-5.717,0-10.369-4.651-10.369-10.368c0-2.471-2.003-4.474-4.474-4.474c-2.471,0-4.474,2.004-4.474,4.474
	c0,5.717-4.651,10.368-10.368,10.368c-2.471,0-4.474,2.003-4.474,4.474C813.464,309.714,815.467,311.718,817.938,311.718z
	 M371.693,292.401c0-2.471-2.003-4.474-4.474-4.474c-2.471,0-4.474,2.004-4.474,4.474c0,5.717-4.651,10.368-10.368,10.368
	c-2.471,0-4.474,2.003-4.474,4.474c0,2.471,2.003,4.474,4.474,4.474c5.716,0,10.368,4.651,10.368,10.368
	c0,2.471,2.004,4.474,4.474,4.474c2.471,0,4.474-2.003,4.474-4.474c0-5.717,4.651-10.368,10.369-10.368
	c2.471,0,4.474-2.003,4.474-4.474c0-2.471-2.003-4.474-4.474-4.474C376.344,302.769,371.693,298.118,371.693,292.401z
	 M377.406,761.347c-5.717,0-10.369-4.651-10.369-10.368c0-2.471-2.003-4.474-4.474-4.474s-4.474,2.003-4.474,4.474
	c0,5.717-4.651,10.368-10.368,10.368c-2.471,0-4.474,2.003-4.474,4.474c0,2.471,2.003,4.474,4.474,4.474
	c5.716,0,10.368,4.651,10.368,10.368c0,2.471,2.004,4.474,4.474,4.474s4.474-2.003,4.474-4.474c0-5.717,4.651-10.368,10.369-10.368
	c2.471,0,4.474-2.003,4.474-4.474C381.88,763.351,379.877,761.347,377.406,761.347z M852.279,761.347
	c-5.717,0-10.369-4.651-10.369-10.368c0-2.471-2.003-4.474-4.474-4.474c-2.471,0-4.475,2.003-4.475,4.474
	c0,5.717-4.651,10.368-10.368,10.368c-2.471,0-4.474,2.003-4.474,4.474c0,2.471,2.003,4.474,4.474,4.474
	c5.716,0,10.368,4.651,10.368,10.368c0,2.471,2.003,4.474,4.475,4.474c2.471,0,4.474-2.003,4.474-4.474
	c0-5.717,4.651-10.368,10.369-10.368c2.471,0,4.474-2.003,4.474-4.474C856.753,763.351,854.75,761.347,852.279,761.347z
	 M738.819,741.247c-36.628-23.061-89.187,48.641-91.407,51.704c-1.197,1.651-1.231,3.874-0.088,5.56
	c0.916,1.354,2.431,2.134,4.016,2.134c0.391,0,0.786-0.047,1.178-0.145c21.277-5.32,90.962-24.305,94.315-45.276
	C747.423,751.52,746.513,746.09,738.819,741.247z M664.177,787.356c14.887-17.567,39.27-40.944,58.596-40.944
	c3.865,0,7.533,0.938,10.88,3.044c1.449,0.912,3.849,2.681,3.599,4.237C735.832,762.593,700.477,777.094,664.177,787.356z
	 M461.441,741.247c-7.694,4.843-8.604,10.274-8.013,13.977c3.353,20.971,73.034,39.956,94.311,45.276
	c0.391,0.098,0.786,0.145,1.178,0.145c1.585,0,3.1-0.78,4.016-2.134c1.143-1.686,1.108-3.909-0.088-5.56
	C550.625,789.888,498.098,718.172,461.441,741.247z M463.008,753.693c-0.249-1.557,2.15-3.325,3.599-4.237
	c3.344-2.104,7-3.039,10.861-3.039c19.313,0,43.706,23.375,58.602,40.936C499.774,777.091,464.428,762.593,463.008,753.693z"/>
</svg>
