<svg version="1.1" id="Capa_1" xmlns="http://www.w3.org/2000/svg" xmlns:xlink="http://www.w3.org/1999/xlink" x="0px" y="0px" viewBox="0 0 1200 1200" enable-background="new 0 0 1200 1200" xml:space="preserve">
<path fill="#4e3d57" d="M335.009,159.138c-1.235-1.954-0.649-4.541,1.305-5.776l20.533-12.965c0.678-0.425,1.457-0.644,2.242-0.644&#xA;&#9;c0.406,0,0.814,0.059,1.209,0.178c1.164,0.354,2.116,1.194,2.612,2.306l3.688,8.303l14.2-10.023&#xA;&#9;c0.714-0.504,1.561-0.765,2.416-0.765c0.388,0,0.778,0.053,1.157,0.163c1.222,0.352,2.216,1.24,2.707,2.412l3.391,8.143&#xA;&#9;l14.102-9.953c0.714-0.505,1.561-0.766,2.417-0.766c0.372,0,0.746,0.049,1.111,0.15c1.21,0.332,2.205,1.191,2.715,2.336&#xA;&#9;l5.763,12.965c0.938,2.112-0.013,4.588-2.126,5.528c-0.553,0.246-1.131,0.36-1.699,0.36c-1.606,0-3.134-0.927-3.83-2.486&#xA;&#9;l-3.688-8.303l-14.202,10.023c-0.714,0.503-1.563,0.765-2.419,0.765c-0.388,0-0.777-0.053-1.155-0.162&#xA;&#9;c-1.221-0.352-2.216-1.24-2.707-2.412l-3.391-8.143l-14.099,9.953c-0.717,0.504-1.564,0.766-2.419,0.766&#xA;&#9;c-0.372,0-0.744-0.049-1.109-0.15c-1.211-0.332-2.205-1.191-2.715-2.336l-3.795-8.541l-16.438,10.381&#xA;&#9;c-0.691,0.436-1.465,0.644-2.23,0.644C337.168,161.088,335.806,160.402,335.009,159.138z M785.168,107.794&#xA;&#9;c0.205,0.105,5.025,2.753,5.025,13.409v41.306c0,2.793,2.265,5.06,5.06,5.06c2.794,0,5.058-2.266,5.058-5.06v-34.03&#xA;&#9;c0-13.047,7.786-17.985,9.447-18.057c0.933,0,1.342,0.059,1.443,0.059c0.021,0,0.029-0.003,0.024-0.009&#xA;&#9;c0.16,0.177,1.393,1.842,1.393,10.731v41.306c0,2.793,2.265,5.06,5.06,5.06c2.795,0,5.06-2.266,5.06-5.06v-34.03&#xA;&#9;c0-13.047,7.783-17.985,9.443-18.057c0.933,0,1.341,0.059,1.443,0.059c0.022,0,0.029-0.003,0.024-0.009&#xA;&#9;c0.157,0.174,1.393,1.832,1.393,10.731v37.88c0,16.748,9.101,20.591,18.405,21.479l-0.079,0.073&#xA;&#9;c-2.045,1.904-2.162,5.106-0.258,7.151c0.996,1.07,2.348,1.614,3.706,1.614c1.233,0,2.468-0.448,3.443-1.354l9.205-8.561&#xA;&#9;c1.038-0.965,1.622-2.322,1.614-3.739c-0.008-1.416-0.611-2.763-1.66-3.715l-9.205-8.35c-0.968-0.877-2.185-1.31-3.398-1.31&#xA;&#9;c-1.378,0-2.75,0.559-3.748,1.66c-1.639,1.805-1.639,4.426-0.258,6.324c-5.742-0.792-7.647-3.305-7.647-11.272v-37.88&#xA;&#9;c0-12.902-2.17-20.9-12.979-20.9c-3.633,0-7.994,2.092-11.681,6.052c-1.86-3.88-5.13-6.052-10.742-6.052&#xA;&#9;c-3.856,0-8.533,2.354-12.352,6.803c-2.999-6.101-7.34-8.215-8.063-8.529c-0.66-0.284-1.354-0.419-2.04-0.419&#xA;&#9;c-1.97,0-3.869,1.116-4.692,3.018C781.502,103.742,782.604,106.684,785.168,107.794z M338.555,128.446&#xA;&#9;c0.765,0,1.538-0.208,2.23-0.644l16.438-10.383l3.795,8.543c0.51,1.145,1.504,2.003,2.715,2.336c0.365,0.101,0.74,0.15,1.112,0.15&#xA;&#9;c0.854,0,1.699-0.262,2.415-0.767l14.099-9.953l3.391,8.143c0.489,1.172,1.486,2.061,2.707,2.412&#xA;&#9;c0.378,0.11,0.767,0.163,1.155,0.163c0.857,0,1.706-0.262,2.419-0.766l14.202-10.026l3.688,8.306&#xA;&#9;c0.695,1.559,2.224,2.486,3.83,2.486c0.568,0,1.145-0.114,1.699-0.359c2.113-0.941,3.064-3.416,2.126-5.528l-5.763-12.968&#xA;&#9;c-0.51-1.145-1.505-2.003-2.715-2.336c-0.365-0.101-0.74-0.152-1.112-0.152c-0.855,0-1.702,0.263-2.415,0.768l-14.102,9.955&#xA;&#9;l-3.391-8.145c-0.488-1.172-1.486-2.061-2.707-2.412c-0.379-0.109-0.769-0.163-1.157-0.163c-0.855,0-1.702,0.26-2.416,0.765&#xA;&#9;l-14.2,10.026l-3.688-8.306c-0.496-1.11-1.448-1.952-2.612-2.306c-0.395-0.119-0.803-0.178-1.209-0.178&#xA;&#9;c-0.785,0-1.564,0.218-2.242,0.644l-20.533,12.968c-1.954,1.235-2.541,3.822-1.305,5.777&#xA;&#9;C335.808,127.76,337.168,128.446,338.555,128.446z M425.648,924.38c0,2.724-2.209,4.935-4.936,4.935&#xA;&#9;c-3.513,0-6.407,3.956-10.756,10.466c-3.295,4.934-7.042,10.537-12.328,14.531c8.796,5.405,14.695,15.088,14.695,26.149&#xA;&#9;c0,16.931-13.774,30.703-30.702,30.703c-16.929,0-30.703-13.772-30.703-30.703c0-11.061,5.899-20.744,14.695-26.149&#xA;&#9;c-5.286-3.993-9.034-9.597-12.328-14.531c-4.349-6.51-7.243-10.466-10.756-10.466c-2.726,0-4.936-2.211-4.936-4.935&#xA;&#9;c0-2.725,2.209-4.936,4.936-4.936c9.045,0,14.089,7.551,18.964,14.855c5.308,7.95,10.323,15.459,20.128,15.459&#xA;&#9;c9.805,0,14.82-7.51,20.128-15.459c4.876-7.304,9.919-14.855,18.964-14.855C423.439,919.444,425.648,921.655,425.648,924.38z&#xA;&#9; M381.621,959.629c-11.486,0-20.832,9.344-20.832,20.832c0,11.487,9.345,20.832,20.832,20.832c11.485,0,20.831-9.344,20.831-20.832&#xA;&#9;C402.452,968.973,393.106,959.629,381.621,959.629z M855.762,999.561c-2.773,3.847-8.491,8.338-15.482,8.338l-0.259,0.027&#xA;&#9;c-0.479,0.037-1.163,0.094-1.981,0.094c-2.349,0-5.812-0.468-8.744-3.166c-3.149-2.896-4.747-7.535-4.747-13.779&#xA;&#9;c0-7.447,3.651-14.766,7.515-22.514c4.356-8.732,8.86-17.761,8.86-27.868c0-3.699-1.095-15.765-15.2-15.765&#xA;&#9;c-3.915,0-6.866,1.106-9.024,3.384c-3.105,3.277-3.999,8.398-3.798,12.101c0.284,5.31,2.822,10.418,5.275,15.356&#xA;&#9;c1.034,2.082,2.032,4.115,2.861,6.136c1.259,2.599,1.986,5.501,1.986,8.578c0,10.896-8.864,19.76-19.758,19.76&#xA;&#9;s-19.759-8.864-19.759-19.76c0-10.894,8.864-19.758,19.759-19.758c0.465,0,0.922,0.039,1.377,0.071&#xA;&#9;c-1.084-3.06-1.897-6.318-2.085-9.827c-0.408-7.58,2.068-14.973,6.625-19.781c4.102-4.329,9.821-6.618,16.541-6.618&#xA;&#9;c17.655,0,25.557,13.118,25.557,26.122c0,12.545-5.285,23.141-9.949,32.49c-3.304,6.626-6.426,12.886-6.426,17.892&#xA;&#9;c0,4.515,1.074,5.853,1.403,6.157c0.365,0.336,0.96,0.435,1.659,0.435c0.374,0,0.777-0.028,1.19-0.063&#xA;&#9;c0.46-0.038,0.843-0.061,1.122-0.061c2.865,0,5.68-2.093,7.081-4.036c1.013-1.406,2.598-2.153,4.205-2.153&#xA;&#9;c1.049,0,2.108,0.318,3.024,0.98C856.91,994.005,857.434,997.242,855.762,999.561z M812.668,970.483c0-1.18-0.424-2.631-1.048-4.223&#xA;&#9;c-1.553-3.057-4.696-5.177-8.353-5.177c-5.184,0-9.401,4.218-9.401,9.4c0,5.185,4.217,9.403,9.401,9.403&#xA;&#9;C808.451,979.885,812.668,975.667,812.668,970.483z M400.886,549.225c-3.556,0-6.596,1.272-9.118,3.814&#xA;&#9;c-2.525,2.525-3.786,5.563-3.786,9.12c0,3.556,1.261,6.593,3.786,9.118c2.522,2.522,5.562,3.784,9.118,3.784&#xA;&#9;c3.556,0,6.604-1.261,9.149-3.784c2.522-2.525,3.783-5.562,3.783-9.118c0-3.558-1.261-6.596-3.783-9.12&#xA;&#9;C407.491,550.497,404.442,549.225,400.886,549.225z M588.705,761.497c-1.391,1.392-2.087,3.049-2.087,4.978&#xA;&#9;c0,1.946,0.696,3.606,2.087,4.975c1.372,1.391,3.029,2.087,4.978,2.087h12.901V759.44h-12.901&#xA;&#9;C591.734,759.44,590.077,760.125,588.705,761.497z M594.583,610.316v-37.43l-26.717,26.718&#xA;&#9;C575.327,605.576,584.527,609.442,594.583,610.316z M798.119,560.629v11.205l11.205-5.601L798.119,560.629z M594.583,547.43v-36.294&#xA;&#9;c-9.772,0.849-18.722,4.539-26.067,10.226L594.583,547.43z M918.619,77.934V600v522.067c0,7.713-3.127,14.697-8.181,19.752&#xA;&#9;c-5.056,5.055-12.039,8.182-19.753,8.182H600H309.315c-7.714,0-14.697-3.127-19.752-8.182c-5.055-5.055-8.181-12.039-8.181-19.752&#xA;&#9;V600V77.934c0-7.714,3.126-14.697,8.181-19.752C294.618,53.126,301.601,50,309.315,50H600h290.685&#xA;&#9;c7.714,0,14.697,3.126,19.753,8.182C915.492,63.237,918.619,70.22,918.619,77.934z M388.34,1078.054c0-1.472-0.521-2.728-1.56-3.77&#xA;&#9;c-1.064-1.061-2.333-1.594-3.805-1.594h-33.404c-1.493,0-2.759,0.534-3.801,1.594c-1.042,1.042-1.56,2.298-1.56,3.77&#xA;&#9;c0,1.471,0.518,2.727,1.56,3.766c1.042,1.042,2.308,1.563,3.801,1.563h11.341v34.762c0,1.494,0.518,2.763,1.56,3.802&#xA;&#9;c1.064,1.041,2.33,1.563,3.801,1.563c1.471,0,2.728-0.522,3.77-1.563c1.039-1.039,1.56-2.308,1.56-3.802v-34.762h11.373&#xA;&#9;c1.471,0,2.741-0.521,3.805-1.563C387.819,1080.781,388.34,1079.525,388.34,1078.054z M445.948,1078.054&#xA;&#9;c0-1.472-0.521-2.728-1.56-3.77c-1.064-1.061-2.333-1.594-3.805-1.594c-1.471,0-2.728,0.534-3.767,1.594&#xA;&#9;c-1.042,1.042-1.563,2.298-1.563,3.77v14.697h-22.745v-14.697c0-1.472-0.521-2.728-1.56-3.77c-1.042-1.061-2.298-1.594-3.77-1.594&#xA;&#9;c-1.493,0-2.759,0.534-3.801,1.594c-1.042,1.042-1.56,2.298-1.56,3.77v40.091c0,1.494,0.518,2.763,1.56,3.802&#xA;&#9;c1.042,1.041,2.308,1.563,3.801,1.563c1.471,0,2.728-0.522,3.77-1.563c1.039-1.039,1.56-2.308,1.56-3.802v-14.7h22.745v14.7&#xA;&#9;c0,1.494,0.521,2.763,1.563,3.802c1.039,1.041,2.295,1.563,3.767,1.563c1.471,0,2.74-0.522,3.805-1.563&#xA;&#9;c1.039-1.039,1.56-2.308,1.56-3.802V1078.054z M474.124,1092.751v-9.368h28.074c1.472,0,2.741-0.521,3.805-1.563&#xA;&#9;c1.039-1.039,1.56-2.295,1.56-3.766c0-1.472-0.521-2.728-1.56-3.77c-1.064-1.061-2.333-1.594-3.805-1.594h-33.404&#xA;&#9;c-1.493,0-2.76,0.534-3.801,1.594c-1.042,1.042-1.56,2.298-1.56,3.77v40.091c0,1.494,0.518,2.763,1.56,3.802&#xA;&#9;c1.042,1.041,2.308,1.563,3.801,1.563h33.404c1.472,0,2.741-0.522,3.805-1.563c1.039-1.039,1.56-2.308,1.56-3.802&#xA;&#9;c0-1.472-0.521-2.728-1.56-3.77c-1.064-1.038-2.333-1.56-3.805-1.56h-28.074v-9.37h21.387c1.471,0,2.738-0.518,3.802-1.56&#xA;&#9;c1.042-1.042,1.563-2.298,1.563-3.77c0-1.493-0.521-2.76-1.563-3.802c-1.064-1.042-2.331-1.562-3.802-1.562H474.124z&#xA;&#9; M625.121,1076.355c-0.477-1.402-1.37-2.431-2.684-3.088c-1.335-0.657-2.001-0.985-2.001-0.985s-0.701,0.228-2.106,0.679&#xA;&#9;c-1.38,0.477-2.409,1.37-3.088,2.681l-15.275,30.552l-4.041-8.079l8.827-17.687c0.679-1.31,0.78-2.668,0.303-4.073&#xA;&#9;c-0.474-1.402-1.367-2.431-2.681-3.088c-1.313-0.657-2.671-0.758-4.073-0.307c-1.405,0.477-2.434,1.37-3.091,2.681l-5.26,10.526&#xA;&#9;l-5.229-10.457c-0.678-1.336-1.708-2.229-3.09-2.68c-1.402-0.477-2.772-0.386-4.108,0.271c-1.31,0.657-2.203,1.686-2.68,3.088&#xA;&#9;c-0.452,1.405-0.35,2.772,0.306,4.108l8.824,17.617l-4.038,8.079l-15.278-30.483c-0.657-1.336-1.686-2.229-3.088-2.68&#xA;&#9;c-1.405-0.477-2.772-0.386-4.107,0.271c-1.314,0.657-2.195,1.686-2.65,3.088c-0.473,1.405-0.385,2.772,0.272,4.108l20.065,40.056&#xA;&#9;c0.451,0.906,1.108,1.619,1.967,2.14c0.862,0.543,1.799,0.815,2.819,0.815c1.017,0,1.957-0.272,2.816-0.815&#xA;&#9;c0.862-0.521,1.516-1.234,1.97-2.14l5.229-10.489l5.26,10.489c0.455,0.906,1.109,1.619,1.971,2.14&#xA;&#9;c0.859,0.543,1.799,0.815,2.816,0.815c0.998,0,1.923-0.272,2.785-0.815c0.859-0.521,1.515-1.234,1.97-2.14l20.062-40.126&#xA;&#9;C625.472,1079.118,625.572,1077.76,625.121,1076.355z M683,1078.054c0-1.472-0.521-2.728-1.56-3.77&#xA;&#9;c-1.064-1.061-2.333-1.594-3.805-1.594c-1.471,0-2.728,0.534-3.766,1.594c-1.042,1.042-1.563,2.298-1.563,3.77v14.697h-22.746&#xA;&#9;v-14.697c0-1.472-0.521-2.728-1.559-3.77c-1.042-1.061-2.299-1.594-3.77-1.594c-1.494,0-2.76,0.534-3.802,1.594&#xA;&#9;c-1.042,1.042-1.56,2.298-1.56,3.77v40.091c0,1.494,0.518,2.763,1.56,3.802c1.042,1.041,2.308,1.563,3.802,1.563&#xA;&#9;c1.471,0,2.728-0.522,3.77-1.563c1.038-1.039,1.559-2.308,1.559-3.802v-14.7h22.746v14.7c0,1.494,0.521,2.763,1.563,3.802&#xA;&#9;c1.038,1.041,2.295,1.563,3.766,1.563c1.472,0,2.741-0.522,3.805-1.563c1.039-1.039,1.56-2.308,1.56-3.802V1078.054z&#xA;&#9; M711.176,1092.751v-9.368h28.075c1.471,0,2.737-0.521,3.801-1.563c1.042-1.039,1.563-2.295,1.563-3.766&#xA;&#9;c0-1.472-0.521-2.728-1.563-3.77c-1.064-1.061-2.33-1.594-3.801-1.594h-33.405c-1.493,0-2.762,0.534-3.801,1.594&#xA;&#9;c-1.042,1.042-1.563,2.298-1.563,3.77v40.091c0,1.494,0.521,2.763,1.563,3.802c1.039,1.041,2.308,1.563,3.801,1.563h33.405&#xA;&#9;c1.471,0,2.737-0.522,3.801-1.563c1.042-1.039,1.563-2.308,1.563-3.802c0-1.472-0.521-2.728-1.563-3.77&#xA;&#9;c-1.064-1.038-2.33-1.56-3.801-1.56h-28.075v-9.37h21.387c1.472,0,2.738-0.518,3.802-1.56c1.042-1.042,1.563-2.298,1.563-3.77&#xA;&#9;c0-1.493-0.521-2.76-1.563-3.802c-1.064-1.042-2.33-1.562-3.802-1.562H711.176z M770.107,1092.751v-9.368h28.075&#xA;&#9;c1.471,0,2.74-0.521,3.805-1.563c1.038-1.039,1.559-2.295,1.559-3.766c0-1.472-0.521-2.728-1.559-3.77&#xA;&#9;c-1.065-1.061-2.334-1.594-3.805-1.594h-33.404c-1.494,0-2.76,0.534-3.802,1.594c-1.042,1.042-1.56,2.298-1.56,3.77v40.091&#xA;&#9;c0,1.494,0.518,2.763,1.56,3.802c1.042,1.041,2.308,1.563,3.802,1.563h33.404c1.471,0,2.74-0.522,3.805-1.563&#xA;&#9;c1.038-1.039,1.559-2.308,1.559-3.802c0-1.472-0.521-2.728-1.559-3.77c-1.065-1.038-2.334-1.56-3.805-1.56h-28.075v-9.37h21.388&#xA;&#9;c1.471,0,2.737-0.518,3.801-1.56c1.042-1.042,1.563-2.298,1.563-3.77c0-1.493-0.521-2.76-1.563-3.802&#xA;&#9;c-1.064-1.042-2.33-1.562-3.801-1.562H770.107z M855.789,1118.145c0-1.472-0.521-2.728-1.563-3.77&#xA;&#9;c-1.064-1.038-2.33-1.56-3.801-1.56h-21.388v-34.761c0-1.472-0.521-2.728-1.56-3.77c-1.042-1.061-2.298-1.594-3.769-1.594&#xA;&#9;c-1.494,0-2.76,0.534-3.802,1.594c-1.042,1.042-1.56,2.298-1.56,3.77v40.091c0,1.494,0.518,2.763,1.56,3.802&#xA;&#9;c1.042,1.041,2.308,1.563,3.802,1.563h26.717c1.471,0,2.737-0.522,3.801-1.563C855.268,1120.907,855.789,1119.638,855.789,1118.145z&#xA;&#9; M902.473,1035.728L902.433,600V77.934c0-3.144-1.224-6.099-3.447-8.321c-2.223-2.223-5.178-3.447-8.322-3.447H599.979H309.295&#xA;&#9;c-3.143,0-6.099,1.224-8.321,3.446c-2.223,2.223-3.447,5.178-3.447,8.322V600v90.171c-0.124,0.534-0.176,1.094-0.107,1.671&#xA;&#9;c0.02,0.166,0.072,0.319,0.107,0.479v75.338c-0.186,0.759-0.163,1.515,0,2.228v56.171c-0.091,0.394-0.151,0.801-0.139,1.224&#xA;&#9;c0.009,0.342,0.059,0.676,0.139,0.998v207.87c0.084,4.507,3.75,8.137,8.278,8.137h238.45c0.004,0,0.007,0.002,0.012,0.002&#xA;&#9;c0.003,0,0.007-0.002,0.01-0.002h349.638C898.493,1044.287,902.473,1040.308,902.473,1035.728z M839.33,559.988&#xA;&#9;c0,131.966-107.364,239.331-239.33,239.331S360.672,691.954,360.672,559.988c0-131.967,107.363-239.329,239.329-239.329&#xA;&#9;S839.33,428.021,839.33,559.988z M744.68,413.944c-1.679,1.419-7.656,5.449-4.374,8.514c3.281,3.065,11.355,1.022,14.42-4.086&#xA;&#9;c3.065-5.108,1.532-12.431,1.532-12.431s-2.965-14.081-8.073-13.852c-5.108,0.229-9.706,5.338-7.152,11.468&#xA;&#9;C743.588,409.687,746.359,412.525,744.68,413.944z M580.576,342.994c0,1.291,0.457,2.394,1.372,3.309&#xA;&#9;c0.915,0.912,2.027,1.37,3.337,1.37h9.952v30.513c0,1.311,0.457,2.425,1.372,3.337c0.934,0.915,2.045,1.372,3.337,1.372&#xA;&#9;c1.291,0,2.394-0.457,3.309-1.372c0.911-0.912,1.369-2.026,1.369-3.337v-30.513h9.983c1.291,0,2.403-0.457,3.336-1.37&#xA;&#9;c0.915-0.915,1.372-2.017,1.372-3.309c0-1.291-0.457-2.394-1.372-3.307c-0.933-0.934-2.045-1.402-3.336-1.402h-29.322&#xA;&#9;c-1.311,0-2.423,0.468-3.337,1.402C581.033,340.599,580.576,341.702,580.576,342.994z M423.205,562.159&#xA;&#9;c0-6.158-2.184-11.415-6.555-15.763c-4.352-4.371-9.606-6.558-15.764-6.558c-6.138,0-11.394,2.187-15.764,6.558&#xA;&#9;c-4.351,4.348-6.526,9.605-6.526,15.763c0,6.136,2.175,11.391,6.526,15.762c4.37,4.351,9.626,6.527,15.764,6.527&#xA;&#9;c6.158,0,11.413-2.176,15.764-6.527C421.021,573.55,423.205,568.295,423.205,562.159z M444.905,417.286&#xA;&#9;c5.619-3.917,14.474-15.325,14.474-15.325s19.582,22.988,23.498,24.18c3.917,1.192,6.13-0.851,6.811-4.598&#xA;&#9;s-17.368-18.901-18.56-20.433c-1.192-1.533-9.706-7.663-9.706-9.195c0-1.533-1.362-5.619-5.96-5.79&#xA;&#9;c-4.598-0.17-3.065,5.619-3.065,9.366c0,3.746-9.876,11.578-15.155,14.473c-5.279,2.895-8.003,8.684-6.13,11.579&#xA;&#9;C432.985,424.437,439.285,421.202,444.905,417.286z M463.294,432.781c-7.151-5.789-10.727-9.706-13.792-7.151&#xA;&#9;c-3.065,2.554,0.17,8.854,5.279,14.474c5.109,5.619,9.418,8.44,13.164,5.375C470.476,443.407,470.446,438.57,463.294,432.781z&#xA;&#9; M471.781,679.809c-4.734-4.209-20.093,14.133-24.18,18.9c-4.086,4.768-6.811,5.62-6.47,17.198&#xA;&#9;c0.341,11.579,2.552,11.531,5.449,11.579c5.959,0.098,5.789-6.357,5.789-13.395c0-7.038,4.661-10.822,9.423-16.349&#xA;&#9;C465.438,693.511,477.911,685.257,471.781,679.809z M602.271,723.992c90.119,0,163.434-73.317,163.434-163.436&#xA;&#9;c0-90.119-73.315-163.436-163.434-163.436c-90.118,0-163.437,73.317-163.437,163.436&#xA;&#9;C438.834,650.674,512.153,723.992,602.271,723.992z M748.228,679.948c-5.108-5.62-9.417-8.44-13.163-5.375&#xA;&#9;c-2.532,2.071-2.502,6.907,4.65,12.697c7.151,5.79,10.727,9.706,13.793,7.151C756.572,691.867,753.337,685.567,748.228,679.948z&#xA;&#9; M615.971,743.022c0-1.311-0.457-2.425-1.369-3.337c-0.915-0.915-2.029-1.371-3.34-1.371c-1.289,0-2.392,0.457-3.307,1.371&#xA;&#9;c-0.915,0.912-1.372,2.026-1.372,3.337v7.031H595.62l-10.371-10.368c-0.915-0.915-2.018-1.371-3.309-1.371&#xA;&#9;c-1.289,0-2.403,0.457-3.337,1.371c-0.911,0.912-1.369,2.026-1.369,3.337c0,1.292,0.457,2.394,1.369,3.307l6.289,6.289&#xA;&#9;c-2.345,1.491-4.191,3.436-5.543,5.839c-1.41,2.484-2.115,5.155-2.115,8.018c0,4.528,1.607,8.403,4.825,11.621&#xA;&#9;c3.221,3.218,7.092,4.828,11.624,4.828h17.579c1.311,0,2.425-0.468,3.34-1.403c0.911-0.911,1.369-2.015,1.369-3.306V743.022z&#xA;&#9; M788.735,555.923v20.589l-6.2,3.129c-0.815,0.399-1.461,0.984-1.937,1.76c-0.457,0.754-0.685,1.569-0.685,2.442&#xA;&#9;c0,0.734,0.17,1.43,0.508,2.087c0.576,1.154,1.48,1.938,2.71,2.353c1.234,0.418,2.425,0.33,3.575-0.266l35.222-17.582&#xA;&#9;c0.796-0.399,1.43-0.973,1.907-1.729c0.457-0.754,0.687-1.58,0.687-2.472c0-0.895-0.229-1.719-0.687-2.475&#xA;&#9;c-0.477-0.754-1.111-1.33-1.907-1.727l-35.222-17.613c-1.15-0.576-2.342-0.654-3.575-0.238c-1.231,0.399-2.134,1.183-2.71,2.356&#xA;&#9;c-0.577,1.15-0.657,2.342-0.239,3.575c0.397,1.231,1.181,2.134,2.353,2.711L788.735,555.923z M758.105,702.765&#xA;&#9;c-5.619,3.916-14.473,15.325-14.473,15.325s-19.582-22.988-23.499-24.18c-3.916-1.192-6.13,0.852-6.811,4.598&#xA;&#9;c-0.681,3.747,17.368,18.901,18.56,20.433c1.192,1.532,9.706,7.663,9.706,9.195c0,1.532,1.362,5.619,5.96,5.79&#xA;&#9;c4.598,0.17,3.065-5.619,3.065-9.365c0-3.747,9.876-11.579,15.154-14.474c5.279-2.895,8.003-8.684,6.13-11.579&#xA;&#9;C770.024,695.613,763.725,698.849,758.105,702.765z M892.734,600.001l0.022,238.028c-3.886-4.609-8.69-8.314-14.43-11.034&#xA;&#9;c-15.499-7.347-35.043-5.951-47.542-1.307c-32.438,12.047-37.436,44.044-37.944,58.921c-23.996-9.033-48.168-9.074-68.763,0.013&#xA;&#9;c-20.519,9.058-35.453,26.342-43.198,49.986c-10.936,33.395-1.748,71.64,23.304,99.98H558.964&#xA;&#9;c18.214-16.176,28.301-39.742,15.883-61.086c-4.874-8.372-22.795-26.379-50.943-19.647c2.431-10.005,4.426-26.698-2.491-43.94&#xA;&#9;c-7.353-18.328-22.859-32.581-46.081-42.356c-12.825-5.396-56.421-9.27-85.127,21.908c-6.888-20.033-28.562-66.04-82.98-67.187&#xA;&#9;v-47.544c4.056,0.659,9.74,1.337,16.042,1.337c15.527,0,34.717-4.111,42.033-22.717c4.385-11.152,4.278-20.938-0.319-29.09&#xA;&#9;c-6.251-11.08-19.007-15.521-24.63-16.992c-7.041-15.978-22.451-20.631-33.126-21.016V600V275.161&#xA;&#9;c8.718,3.254,30.48,10.313,55.341,10.313c16.588,0,34.538-3.149,50.858-12.68c27.629-16.134,44.433-47.044,49.977-91.902&#xA;&#9;c9.642-0.994,33.454-5.364,51.748-24.534c16.004-16.77,23.62-40.465,22.634-70.431c-0.081-2.434-0.379-5.9-1.185-10.062h63.381&#xA;&#9;h114.44c-19.079,11.382-40.694,33.892-42.275,77.737c-0.515,14.267,4.714,36.857,21.135,53.573&#xA;&#9;c14.394,14.651,34.569,22.282,60.03,22.715c0.486,15.141,4.723,60.34,37.246,82.612c11.963,8.191,26.309,12.285,42.942,12.285&#xA;&#9;c17.304,0,37.111-4.491,59.236-13.352v52.922c-14.264,2.718-24.175,10.043-28.654,21.429c-4.385,11.151-4.278,20.939,0.319,29.091&#xA;&#9;c7.985,14.153,26.584,17.472,27.374,17.607c0.274,0.047,0.549,0.069,0.82,0.069c0.049,0,0.092-0.024,0.141-0.025V600.001z&#xA;&#9; M593.041,128.639l-13.851,16.634c-0.951,1.132-1.358,2.433-1.222,3.904c0.136,1.471,0.77,2.671,1.901,3.598&#xA;&#9;c0.972,0.838,2.115,1.257,3.428,1.257c1.652,0,3.022-0.646,4.108-1.935L600,136.99l12.594,15.107&#xA;&#9;c1.086,1.289,2.456,1.935,4.107,1.935c1.292,0,2.431-0.419,3.429-1.257c1.131-0.927,1.765-2.127,1.901-3.598&#xA;&#9;c0.136-1.471-0.272-2.772-1.222-3.904l-13.851-16.634l13.851-16.634c0.95-1.132,1.358-2.433,1.222-3.904&#xA;&#9;c-0.136-1.471-0.77-2.682-1.901-3.633c-1.133-0.95-2.434-1.357-3.905-1.222c-1.472,0.136-2.681,0.77-3.631,1.901L600,120.288&#xA;&#9;l-12.594-15.141c-0.951-1.13-2.163-1.765-3.631-1.901c-1.474-0.136-2.775,0.272-3.905,1.222c-1.131,0.95-1.765,2.161-1.901,3.633&#xA;&#9;c-0.136,1.471,0.271,2.772,1.222,3.904L593.041,128.639z M849.029,559.988c0-137.315-111.714-249.028-249.028-249.028&#xA;&#9;c-137.313,0-249.028,111.713-249.028,249.028s111.714,249.029,249.028,249.029C737.315,809.017,849.029,697.303,849.029,559.988z&#xA;&#9; M602.271,714.292c-84.77,0-153.738-68.966-153.738-153.736c0-84.77,68.968-153.737,153.738-153.737s153.735,68.967,153.735,153.737&#xA;&#9;C756.006,645.326,687.041,714.292,602.271,714.292z M588.932,695.272h20.946c2.677,0,4.85-2.171,4.85-4.85&#xA;&#9;c0-2.68-2.173-4.85-4.85-4.85h-5.595v-65.609c13.088-1.176,24.932-6.624,34.207-14.913l47.207,47.208l-3.975,3.976&#xA;&#9;c-1.895,1.895-1.895,4.965,0,6.857c0.947,0.948,2.188,1.421,3.429,1.421c1.241,0,2.481-0.474,3.428-1.421l7.357-7.358&#xA;&#9;c0.016-0.016,0.04-0.021,0.057-0.038c0.016-0.016,0.021-0.04,0.037-0.057l7.357-7.359c1.895-1.894,1.895-4.964,0-6.857&#xA;&#9;c-1.894-1.895-4.963-1.895-6.857,0l-3.976,3.977l-47.349-47.35c7.411-9.172,12.115-20.583,13.008-33.043h66.641v5.587&#xA;&#9;c0,2.679,2.172,4.85,4.849,4.85c2.678,0,4.85-2.171,4.85-4.85v-20.944c0-2.679-2.172-4.849-4.85-4.849&#xA;&#9;c-2.677,0-4.849,2.171-4.849,4.849v5.658h-66.698c-1.117-12.304-5.972-23.542-13.449-32.544l47.831-47.831l3.402,3.402&#xA;&#9;c0.948,0.948,2.188,1.421,3.429,1.421s2.482-0.473,3.429-1.421c1.894-1.894,1.894-4.965,0-6.857l-6.696-6.696&#xA;&#9;c-0.046-0.049-0.061-0.114-0.108-0.162c-0.048-0.048-0.113-0.062-0.162-0.108l-7.845-7.844c-1.894-1.894-4.964-1.894-6.857,0&#xA;&#9;c-1.894,1.895-1.894,4.965,0,6.858l4.55,4.55l-47.784,47.785c-9.184-7.989-20.806-13.222-33.612-14.373v-66.813h5.595&#xA;&#9;c2.677,0,4.85-2.171,4.85-4.849c0-2.679-2.173-4.85-4.85-4.85h-20.946c-2.677,0-4.85,2.17-4.85,4.85c0,2.679,2.173,4.849,4.85,4.849&#xA;&#9;h5.651v66.761c-12.438,0.904-23.827,5.606-32.986,13.007l-46.455-46.455l3.976-3.976c1.894-1.893,1.894-4.963,0-6.857&#xA;&#9;c-1.894-1.895-4.964-1.895-6.858,0l-14.81,14.809c-1.895,1.893-1.895,4.963,0,6.857c0.947,0.947,2.188,1.421,3.428,1.421&#xA;&#9;c1.241,0,2.481-0.473,3.429-1.421l3.977-3.976l46.314,46.313c-8.277,9.262-13.724,21.085-14.91,34.151h-65.732v-5.658&#xA;&#9;c0-2.679-2.172-4.849-4.85-4.849c-2.677,0-4.849,2.171-4.849,4.849v20.944c0,2.679,2.172,4.85,4.849,4.85&#xA;&#9;c2.678,0,4.85-2.171,4.85-4.85v-5.587h65.674c0.948,13.227,6.216,25.252,14.426,34.691l-45.789,45.789l-4.55-4.551&#xA;&#9;c-1.895-1.894-4.964-1.894-6.858,0c-1.895,1.894-1.895,4.964,0,6.858l14.808,14.81c0.947,0.948,2.188,1.421,3.429,1.421&#xA;&#9;c1.241,0,2.481-0.474,3.428-1.421c1.894-1.892,1.894-4.963,0-6.857l-3.401-3.402l45.837-45.836&#xA;&#9;c9.263,7.694,20.901,12.58,33.623,13.504v65.557h-5.651c-2.677,0-4.85,2.17-4.85,4.85&#xA;&#9;C584.082,693.101,586.254,695.272,588.932,695.272z M604.282,511.215v38.257l26.756-26.756&#xA;&#9;C623.645,516.457,614.42,512.306,604.282,511.215z M549.328,565.008c0.905,10.56,5.104,20.181,11.582,27.836l27.836-27.836H549.328z&#xA;&#9; M648.422,555.309c-1.048-9.637-4.864-18.443-10.622-25.638l-25.638,25.638H648.422z M638.285,591.132&#xA;&#9;c5.698-7.36,9.389-16.33,10.228-26.124h-36.352L638.285,591.132z M561.452,528.013c-6.539,7.48-10.902,16.899-12.032,27.295h39.326&#xA;&#9;L561.452,528.013z M604.282,570.844v39.392c10.419-1.121,19.858-5.489,27.351-12.04L604.282,570.844z" style="fill: rgb(78, 61, 87);"/>
</svg>